<?xml version="1.0" standalone="no"?>
<!DOCTYPE svg PUBLIC "-//W3C//DTD SVG 1.1//EN" "http://www.w3.org/Graphics/SVG/1.1/DTD/svg11.dtd" >
<svg xmlns="http://www.w3.org/2000/svg" xmlns:xlink="http://www.w3.org/1999/xlink" version="1.1">
<metadata>
Created by FontForge 20201107 at Thu Apr 12 10:21:59 2018
 By Jimmy Wärting
Copyright (c) 2017 by Cosimo Lorenzo Pancini &#38; Francesco Canovaro. All rights reserved.
</metadata>
<defs>
<font id="CodecColdTrial-ExtraLight" horiz-adv-x="2531" >
  <font-face 
    font-family="Codec Cold Trial"
    font-weight="250"
    font-stretch="normal"
    units-per-em="2048"
    panose-1="2 0 5 4 4 0 0 2 0 4"
    ascent="1638"
    descent="-410"
    x-height="1009"
    cap-height="1360"
    bbox="-879.629 -2016.33 3110 1876"
    underline-thickness="95"
    underline-position="-191"
    unicode-range="U+000D-FB06"
  />
<missing-glyph horiz-adv-x="443" 
 />
    <glyph glyph-name="fi" unicode="fi" horiz-adv-x="1163" 
d="M855 937h-498v-937h-76v937h-222v72h222v58q0 69 13.5 132.5t47.5 113t92 79t146 29.5h105v-68h-95q-66 0 -111 -21.5t-72 -60.5t-38.5 -92t-11.5 -116v-54h575v-1009h-77v937zM825 1329q0 27 19.5 46.5t49.5 19.5t50 -19.5t20 -46.5q0 -28 -20 -47t-50 -19t-49.5 19
t-19.5 47z" />
    <glyph glyph-name="fl" unicode="fl" horiz-adv-x="1202" 
d="M922 1324q-24 6 -56.5 13t-71.5 13t-83.5 10t-92.5 4q-72 0 -122 -23t-81 -62.5t-44.5 -93t-13.5 -113.5v-63h322v-72h-322v-937h-76v937h-222v72h222v69q0 65 15 128.5t52.5 114t101 81.5t161.5 31q77 0 146.5 -9t122 -20t84.5 -20.5t35 -11.5v-1372h-77v1324z" />
    <glyph glyph-name="f_t" unicode="ft" horiz-adv-x="1453" 
d="M849 890h-505v-890h-76v890h-183v71h183v164q0 65 13.5 121t44 96.5t80.5 63.5t122 23q36 0 63 -7.5t32 -11.5l-24 -63l-15 5q-8 2 -20 4t-28 2q-99 0 -145.5 -59t-46.5 -177v-161h505v293l76 1v-294h379v-71h-380v-543q0 -92 20.5 -151t52.5 -93.5t72.5 -48t81.5 -13.5
q40 0 70.5 6.5t53.5 15.5t38 18t24 14l29 -64q-9 -5 -26.5 -15.5t-44.5 -21t-64 -18.5t-86 -8q-69 0 -124 21t-93.5 66.5t-58.5 117.5t-20 174v543z" />
    <glyph glyph-name="ff" unicode="ff" horiz-adv-x="1390" 
d="M946 937h-589v-937h-76v937h-222v72h222v58q0 69 13.5 132.5t47.5 113t92 79t146 29.5h105v-68h-95q-66 0 -111 -21.5t-72 -60.5t-38.5 -92t-11.5 -116v-54h589v58q0 69 14 132.5t48 113t92 79t146 29.5h106v-68h-96q-67 0 -111.5 -21.5t-71.5 -60.5t-38.5 -92
t-11.5 -116v-54h321v-72h-321v-937h-77v937z" />
    <glyph glyph-name="ffi" unicode="ffi" horiz-adv-x="1839" 
d="M946 937h-589v-937h-76v937h-222v72h222v58q0 69 13.5 132.5t47.5 113t92 79t146 29.5h105v-68h-95q-66 0 -111 -21.5t-72 -60.5t-38.5 -92t-11.5 -116v-54h589v58q0 69 14 132.5t48 113t92 79t146 29.5h106v-68h-96q-67 0 -111.5 -21.5t-71.5 -60.5t-38.5 -92
t-11.5 -116v-54h585v-1009h-76v937h-509v-937h-77v937zM1501 1329q0 27 20 46.5t49 19.5q30 0 50 -19.5t20 -46.5q0 -28 -20 -47t-50 -19q-29 0 -49 19t-20 47z" />
    <glyph glyph-name="ffl" unicode="ffl" horiz-adv-x="1895" 
d="M947 937h-590v-937h-76v937h-222v72h222v58q0 69 13.5 132.5t47.5 113t92 79t146 29.5h105v-68h-95q-66 0 -111 -21.5t-72 -60.5t-38.5 -92t-11.5 -116v-54h590v58q0 69 13.5 132.5t48 113t92 79t146.5 29.5h105v-68h-95q-67 0 -111.5 -21.5t-71.5 -60.5t-38.5 -92
t-11.5 -116v-54h564v398h76v-1407h-76v937h-564v-937h-77v937z" />
    <glyph glyph-name="f_j" unicode="fj" horiz-adv-x="1232" 
d="M281 937h-222v72h222v58q0 69 13.5 132.5t47.5 113t92 79t146 29.5h105v-68h-95q-66 0 -111 -21.5t-72 -60.5t-38.5 -92t-11.5 -116v-54h644v-1045q0 -69 -15.5 -127t-49 -100t-85.5 -66t-124 -24h-75v72h71q54 0 92 18.5t62.5 51t36 77.5t11.5 98v973h-568v-937h-76v937
zM895 1329q0 27 19.5 46.5t49.5 19.5t50 -19.5t20 -46.5q0 -28 -20 -47t-50 -19q-29 0 -49 19t-20 47z" />
    <glyph glyph-name="IJ" unicode="IJ" horiz-adv-x="928" 
d="M190 71h161q98 0 163 24.5t104 70t55 111t16 148.5l1 935h77v-936q0 -104 -22.5 -183t-72.5 -132.5t-129.5 -81t-192.5 -27.5h-160v71zM194 1360h78v-1006h-78v1006z" />
    <glyph glyph-name="ij" unicode="ij" horiz-adv-x="954" 
d="M199 1009h77v-939h398v939h77v-1045q0 -69 -16 -127t-49.5 -100t-85.5 -66t-124 -24h-74v72h71q54 0 92 18.5t62 51t35.5 77.5t11.5 98v36h-475v1009zM169 1327q0 27 19.5 46.5t49.5 19.5t50 -19.5t20 -46.5q0 -28 -20 -47t-50 -19t-49.5 19t-19.5 47zM641 1327
q0 27 19.5 46.5t49.5 19.5t49.5 -19.5t19.5 -46.5q0 -28 -19.5 -47t-49.5 -19t-49.5 19t-19.5 47z" />
    <glyph glyph-name="Germandbls" unicode="SS" horiz-adv-x="1337" 
d="M499 74h317q61 0 115 23t95 63.5t65 95t24 117.5q0 62 -23 116t-63 94.5t-94 64t-115 23.5h-176v65l358 553h-450q-57 0 -107 -21.5t-87.5 -59t-59.5 -87.5t-22 -107v-1014h-77v1016q0 73 27 135.5t74.5 109t111.5 73t138 26.5h530v-76l-350 -548h90q77 0 145.5 -28.5
t119.5 -78.5t81 -117t30 -143q0 -81 -30 -148.5t-82 -116.5t-120.5 -76.5t-144.5 -27.5h-320v74z" />
    <glyph glyph-name="B.long" unicode="BBBB" horiz-adv-x="1667" 
d="M275 741h843q56 0 106 21.5t87.5 58t59 86.5t21.5 107t-21.5 107t-59 87.5t-87.5 59t-106 21.5h-843v-548zM1173 74q61 0 115.5 23t95.5 63.5t65 95t24 117.5q0 62 -23.5 116t-63.5 94.5t-93.5 64t-114.5 23.5h-903v-597h898zM198 0v1360h922q74 0 138 -26.5t111.5 -73
t74.5 -109t27 -135.5q0 -50 -14 -95.5t-39.5 -84.5t-60.5 -69t-77 -49q58 -15 108 -48t86.5 -78.5t57.5 -102.5t21 -120q0 -81 -30 -148.5t-81.5 -116.5t-120 -76.5t-144.5 -27.5h-979z" />
    <glyph glyph-name="B.longer" unicode="BBBBB" horiz-adv-x="2492" 
d="M275 741h1584q57 0 106.5 21.5t87 58t59 86.5t21.5 107t-21.5 107t-59 87.5t-87 59t-106.5 21.5h-1584v-548zM1915 74q61 0 115.5 23t95.5 63.5t65 95t24 117.5q0 62 -23.5 116t-63.5 94.5t-93.5 64t-114.5 23.5h-1645v-597h1640zM198 0v1360h1663q74 0 138.5 -26.5
t112 -73t74.5 -109t27 -135.5q0 -50 -14 -95.5t-39.5 -84.5t-60.5 -69t-77 -49q58 -15 108 -48t86.5 -78.5t57.5 -102.5t21 -120q0 -81 -30 -148.5t-81.5 -116.5t-120 -76.5t-144.5 -27.5h-1721z" />
    <glyph glyph-name="B.longest" unicode="BBBBBB" horiz-adv-x="2960" 
d="M275 741h2137q56 0 106 21.5t87.5 58t59 86.5t21.5 107t-21.5 107t-59 87.5t-87 59t-106.5 21.5h-2137v-548zM2468 74q61 0 115 23t95 63.5t65 95t24 117.5q0 62 -23.5 116t-63.5 94.5t-94 64t-115 23.5h-2196v-597h2193zM198 0v1360h2216q74 0 138 -26.5t111.5 -73
t74.5 -109t27 -135.5q0 -50 -14 -95.5t-39.5 -84.5t-60 -69t-76.5 -49q58 -15 108 -48t86.5 -78.5t57.5 -102.5t21 -120q0 -81 -30 -148.5t-81.5 -116.5t-120 -76.5t-144.5 -27.5h-2274z" />
    <glyph glyph-name="D.long" unicode="DDDD" horiz-adv-x="1667" 
d="M846 72q150 0 267 43t196.5 122t121 191t41.5 249q0 132 -38.5 244t-116.5 194t-195.5 128.5t-275.5 46.5h-571v-1218h571zM198 1360h652q155 0 284 -46t222 -133t144.5 -213t51.5 -287q0 -152 -46 -277.5t-134.5 -215t-218.5 -139t-298 -49.5h-657v1360z" />
    <glyph glyph-name="D.longer" unicode="DDDDD" horiz-adv-x="2492" 
d="M1667 72q150 0 267 43t197 122t121.5 191t41.5 249q0 132 -39 244t-117 194t-196 128.5t-275 46.5h-1392v-1218h1392zM198 1360h1474q154 0 283 -46t222 -133t144.5 -213t51.5 -287q0 -152 -46 -277.5t-135 -215t-219 -139t-298 -49.5h-1477v1360z" />
    <glyph glyph-name="D.longest" unicode="DDDDDD" horiz-adv-x="2960" 
d="M2157 72q150 0 267 43t196.5 122t121 191t41.5 249q0 132 -38.5 244t-116.5 194t-195.5 128.5t-275.5 46.5h-1882v-1218h1882zM198 1360h1963q154 0 283 -46t222 -133t144.5 -213t51.5 -287q0 -152 -46 -277.5t-134.5 -215t-218 -139t-297.5 -49.5h-1968v1360z" />
    <glyph glyph-name="E.long" unicode="EEEE" horiz-adv-x="1667" 
d="M198 1360h1325v-74h-1248v-577h1155v-71h-1155v-566h1257v-72h-1334v1360z" />
    <glyph glyph-name="E.longer" unicode="EEEEE" horiz-adv-x="2492" 
d="M198 1360h2143v-74h-2066v-577h1975v-71h-1975v-566h2076v-72h-2153v1360z" />
    <glyph glyph-name="E.longest" unicode="EEEEEE" horiz-adv-x="2960" 
d="M198 1360h2577v-74h-2500v-577h2407v-71h-2407v-566h2509v-72h-2586v1360z" />
    <glyph glyph-name="H.long" unicode="HHHH" horiz-adv-x="2041" 
d="M198 1360h78v-651h1482v651h77v-1360h-77v638h-1482v-638h-78v1360z" />
    <glyph glyph-name="H.longer" unicode="HHHHH" horiz-adv-x="2492" 
d="M197 1360h77v-651h1934v651h79v-1360h-79v638h-1934v-638h-77v1360z" />
    <glyph glyph-name="H.longest" unicode="HHHHHH" horiz-adv-x="2960" 
d="M130 1360h78v-651h2468v651h78v-1360h-78v638h-2468v-638h-78v1360z" />
    <glyph glyph-name="N.long" unicode="NNNN" horiz-adv-x="2041" 
d="M1833 0h-69l-1489 1248v-1248h-77v1360h64l1493 -1254v1254h78v-1360z" />
    <glyph glyph-name="N.longer" unicode="NNNNN" horiz-adv-x="2492" 
d="M2287 0h-69l-1943 1261v-1261h-77v1360h64l1947 -1267v1267h78v-1360z" />
    <glyph glyph-name="N.longest" unicode="NNNNNN" horiz-adv-x="2960" 
d="M2754 0h-68l-2411 1270v-1270h-77v1360h64l2415 -1275v1275h77v-1360z" />
    <glyph glyph-name="R.long" unicode="RRRR" horiz-adv-x="1668" 
d="M276 0h-77v1360h907q93 0 171 -32t134 -88.5t87.5 -134.5t31.5 -170q0 -80 -24 -149t-67 -123t-104 -90.5t-134 -51.5l402 -521h-92l-396 512h-839v-512zM1109 582q74 0 137 27t109 74.5t72 111.5t26 139t-26.5 140t-73 112.5t-110.5 75t-139 27.5h-828v-707h833z" />
    <glyph glyph-name="R.longer" unicode="RRRRR" horiz-adv-x="2492" 
d="M275 0h-77v1360h1658q93 0 170.5 -32t134 -88.5t88 -134.5t31.5 -170q0 -80 -24 -149t-67.5 -123t-104 -90.5t-134.5 -51.5l403 -521h-92l-397 512h-1589v-512zM1858 582q75 0 138 27t109 74.5t72 111.5t26 139t-26.5 140t-73 112.5t-110.5 75t-139 27.5h-1579v-707h1583
z" />
    <glyph glyph-name="R.longest" unicode="RRRRRR" horiz-adv-x="2960" 
d="M275 0h-77v1360h2156q93 0 170.5 -32t134 -88.5t88 -134.5t31.5 -170q0 -80 -24 -149t-67 -123t-104 -90.5t-134 -51.5l402 -521h-92l-397 512h-2087v-512zM2357 582q74 0 137 27t109 74.5t72 111.5t26 139t-26.5 140t-73 112.5t-110.5 75t-139 27.5h-2077v-707h2082z
" />
    <glyph glyph-name="F.long" unicode="FFFF" horiz-adv-x="1667" 
d="M198 1360h1325v-74h-1248v-577h1155v-71h-1155v-638h-77v1360z" />
    <glyph glyph-name="F.longer" unicode="FFFFF" horiz-adv-x="2492" 
d="M198 1360h2143v-74h-2066v-577h1975v-71h-1975v-639l-77 1v1360z" />
    <glyph glyph-name="F.longest" unicode="FFFFFF" horiz-adv-x="2960" 
d="M198 1360h2577v-74h-2500v-577h2407v-71h-2407v-639l-77 1v1360z" />
    <glyph glyph-name="P.long" unicode="PPPP" horiz-adv-x="1667" 
d="M275 512v-512h-77v1360h907q93 0 171 -32t134 -88.5t87.5 -134.5t31.5 -170t-31 -169.5t-87 -133.5t-133.5 -88t-169.5 -32h-833zM1108 582q74 0 137 27t109 74.5t72 111.5t26 139t-26.5 140t-73 112.5t-110.5 75t-139 27.5h-828v-707h833z" />
    <glyph glyph-name="P.longer" unicode="PPPPP" horiz-adv-x="2492" 
d="M275 512v-512h-77v1360h1658q93 0 170.5 -32t134 -88.5t88 -134.5t31.5 -170t-31.5 -169.5t-87.5 -133.5t-133.5 -88t-169.5 -32h-1583zM1858 582q75 0 138 27t109 74.5t72 111.5t26 139t-26.5 140t-73 112.5t-110.5 75t-139 27.5h-1579v-707h1583z" />
    <glyph glyph-name="P.longest" unicode="PPPPPP" horiz-adv-x="2960" 
d="M275 512v-512h-77v1360h2156q93 0 170.5 -32t134 -88.5t88 -134.5t31.5 -170t-31 -169.5t-87 -133.5t-133.5 -88t-170.5 -32h-2081zM2357 582q74 0 137 27t109 74.5t72 111.5t26 139t-26.5 140t-73 112.5t-110.5 75t-139 27.5h-2077v-707h2082z" />
    <glyph glyph-name="A.long" unicode="AAAA" horiz-adv-x="1684" 
d="M1360 369h-1040l-211 -369h-87l778 1360h80l778 -1360h-87zM360 440h959l-476 833l-3 9l-3 -9z" />
    <glyph glyph-name="A.longer" unicode="AAAAA" horiz-adv-x="2082" 
d="M1702 369h-1320l-265 -369h-96l981 1360h80l981 -1360h-96zM433 440h1218l-606 845l-3 9l-3 -9z" />
    <glyph glyph-name="A.longest" unicode="AAAAAA" horiz-adv-x="2673" 
d="M2202 369h-1730l-347 -369h-103l1275 1360h80l1275 -1360h-103zM539 440h1596l-795 845l-3 9l-3 -9z" />
    <glyph glyph-name="V.long" unicode="VVVV" horiz-adv-x="1684" 
d="M1571 1360h87l-778 -1360h-80l-778 1360h87l728 -1273l3 -9l3 9z" />
    <glyph glyph-name="V.longer" unicode="VVVVV" horiz-adv-x="2082" 
d="M1970 1360h93l-981 -1360h-80l-981 1360h93l925 -1284l3 -10l3 10z" />
    <glyph glyph-name="V.longest" unicode="VVVVVV" horiz-adv-x="2673" 
d="M2555 1360h97l-1275 -1360h-80l-1275 1360h97l1215 -1287l3 -10l3 10z" />
    <glyph glyph-name="W.long" unicode="WWWW" horiz-adv-x="2335" 
d="M1706 105h2l514 1255h88l-562 -1360h-82l-496 1241l-495 -1241h-81l-563 1360h88l514 -1255h3l492 1238h85z" />
    <glyph glyph-name="W.longer" unicode="WWWWW" horiz-adv-x="2731" 
d="M2006 99h2l616 1261h86l-662 -1360h-82l-596 1257l-595 -1257h-81l-663 1360h86l616 -1261h3l591 1244h87z" />
    <glyph glyph-name="W.longest" unicode="WWWWWW" horiz-adv-x="3147" 
d="M2306 97h2l713 1263h89l-765 -1360h-83l-692 1268l-692 -1268h-81l-766 1360h89l713 -1263h3l691 1246h88z" />
    <glyph glyph-name="C.01" unicode="CCCC" horiz-adv-x="1817" 
d="M1632 202q-58 -51 -130 -93t-153.5 -71t-171 -45t-181.5 -16q-116 0 -225 22.5t-204.5 65.5t-174.5 104.5t-135.5 139.5t-88 171.5t-31.5 200.5t31.5 201t88 172.5t135.5 140.5t174.5 105t204 65.5t225.5 22.5q91 0 180.5 -16t171 -45.5t154 -71t129.5 -93.5l-49 -51
q-52 48 -119 86t-142.5 65t-158 41t-166.5 14q-105 0 -203.5 -20t-185.5 -58.5t-159 -94t-124 -126.5t-81 -155.5t-29 -181.5q0 -96 29 -180.5t81 -155t124 -125.5t159 -93.5t185.5 -58.5t203.5 -20q83 0 165.5 14t158.5 40.5t143 64.5t120 86z" />
    <glyph glyph-name="C.02" unicode="CCCCC" horiz-adv-x="2179" 
d="M1901 202q-140 -103 -326.5 -164t-408.5 -61q-138 0 -266 20t-239 59.5t-202.5 98.5t-156.5 137t-100.5 175.5t-35.5 213.5t35.5 214t100.5 176.5t156.5 138t202.5 99t239 59.5t266 20q109 0 211.5 -16t195.5 -45.5t175 -71t151 -93.5l-48 -52q-63 48 -140 86t-164 64.5
t-183 40.5t-198 14q-127 0 -244.5 -17.5t-220 -52.5t-186 -87.5t-143.5 -123t-92.5 -159t-32.5 -194.5t32.5 -193.5t92.5 -158t143.5 -123t186 -87t220 -52t244.5 -17.5q101 0 197 14t183.5 40.5t164.5 64t141 85.5z" />
    <glyph glyph-name="C.03" unicode="CCCCCC" horiz-adv-x="2657" 
d="M2316 202q-85 -51 -190.5 -93t-225 -71t-250 -45t-264.5 -16q-168 0 -321.5 18t-284.5 55t-237.5 94t-181.5 135t-116 178t-41 224t41 224.5t116 179t181.5 136t237.5 94.5t284 55t322 18q133 0 263.5 -16t250.5 -45.5t225 -71t189 -93.5l-51 -52q-78 48 -178 86
t-213.5 65t-236.5 41t-249 14q-157 0 -299.5 -15.5t-264.5 -48.5t-221 -84t-169 -121.5t-108 -161.5t-38 -204t38 -203.5t108 -160.5t169 -120.5t221 -83.5t264.5 -48.5t299.5 -15.5q125 0 248.5 14t237.5 40.5t214 64.5t179 86z" />
    <glyph glyph-name="L.01" unicode="LLLL" horiz-adv-x="1489" 
d="M242 1360h77v-1288h1070v-72h-1147v1360z" />
    <glyph glyph-name="L.02" unicode="LLLLL" horiz-adv-x="1793" 
d="M199 1360h77v-1288h1391v-72h-1468v1360z" />
    <glyph glyph-name="L.03" unicode="LLLLLL" horiz-adv-x="2476" 
d="M199 1360h77v-1288h2083v-72h-2160v1360z" />
    <glyph glyph-name="T.01" unicode="TTTT" horiz-adv-x="1610" 
d="M772 1289h-702v71h1484v-71h-704v-1289h-78v1289z" />
    <glyph glyph-name="T.02" unicode="TTTTT" horiz-adv-x="2224" 
d="M1068 1289h-1042v71h2164v-71h-1044v-1289h-78v1289z" />
    <glyph glyph-name="T.03" unicode="TTTTTT" horiz-adv-x="2667" 
d="M1293 1289h-1246v71h2572v-71h-1248v-1289h-78v1289z" />
    <glyph glyph-name=".notdef" horiz-adv-x="443" 
 />
    <glyph glyph-name="NULL" horiz-adv-x="0" 
 />
    <glyph glyph-name="NULL" horiz-adv-x="0" 
 />
    <glyph glyph-name="nonmarkingreturn" unicode="&#xd;" horiz-adv-x="443" 
 />
    <glyph glyph-name="space" unicode=" " horiz-adv-x="443" 
 />
    <glyph glyph-name="quotesingle" unicode="'" horiz-adv-x="484" 
d="M273 885q-16 0 -31 -0.5t-31 -0.5l-7 514h78z" />
    <glyph glyph-name="parenleft" unicode="(" horiz-adv-x="659" 
d="M596 1580q-93 -72 -161 -169t-112 -212.5t-65.5 -246.5t-21.5 -271q0 -141 22 -272t66.5 -246.5t112 -212t159.5 -167.5h-94q-96 80 -161.5 181.5t-106 217t-58 241.5t-17.5 257q0 132 17.5 258.5t58 242t105.5 216.5t160 182z" />
    <glyph glyph-name="asterisk" unicode="*" horiz-adv-x="853" 
d="M400 1157l-1 258h58l-1 -255l221 127l29 -51l-223 -126l222 -127l-29 -50l-220 128l1 -254h-58l1 255l-221 -128l-30 51l223 125l-222 127l30 51z" />
    <glyph glyph-name="plus" unicode="+" horiz-adv-x="1408" 
d="M738 1071v-424h424v-67h-424v-429h-69v429l-424 1v67l424 -1v424h69z" />
    <glyph glyph-name="comma" unicode="," horiz-adv-x="483" 
d="M214 109h82l-130 -288h-61z" />
    <glyph glyph-name="hyphen" unicode="-" horiz-adv-x="722" 
d="M122 515h479v-69h-479v69z" />
    <glyph glyph-name="period" unicode="." horiz-adv-x="483" 
d="M169 55q0 29 20.5 50.5t51.5 21.5t52 -21.5t21 -50.5t-21 -49.5t-52 -20.5t-51.5 20.5t-20.5 49.5z" />
    <glyph glyph-name="slash" unicode="/" horiz-adv-x="780" 
d="M-30 -208l658 1636h79l-657 -1636h-80z" />
    <glyph glyph-name="zero" unicode="0" 
d="M2478 1093v-587h-2404v587h910q0 30 5.5 58t20.5 53q12 29 26 52.5t37 41.5q39 42 91 62q28 12 55.5 17t56.5 5q33 0 61.5 -6.5t53.5 -15.5q27 -14 50.5 -29.5t45.5 -36.5q35 -38 60 -94q11 -27 15.5 -54t4.5 -53h911zM1030 1194q-20 -49 -20 -101q0 -58 20 -106
q10 -22 24.5 -43.5t29.5 -42.5q20 -17 41.5 -32t45.5 -25q46 -23 105 -23q31 0 56.5 4.5t47.5 16.5q48 19 83 57q22 20 35.5 41t26.5 43q20 54 20 110q0 20 -3.5 43.5t-11.5 47.5q-14 40 -43 72q-14 20 -29.5 33.5t-34.5 25.5l-76 36q-16 3 -33 6t-38 3q-29 0 -55.5 -5.5
t-51.5 -19.5q-50 -19 -85 -57q-17 -19 -30.5 -39.5t-23.5 -44.5zM1142 936l314 317q62 -80 62 -160q0 -24 -3.5 -45.5t-11.5 -41.5q-8 -19 -17.5 -37t-23.5 -33h-320zM1095 928q-14 17 -25 36.5t-19 39.5q-9 18 -12.5 40.5t-3.5 48.5q0 18 3.5 39t12.5 43q7 35 40 68h318z
M1135 207q2 -4 4.5 -11t5.5 -14q2 -10 2 -14v-32q0 -5 -2 -11l-6 -15l-4 -14q-6 -4 -10.5 -10t-8.5 -10q-6 -5 -11 -10.5t-10 -9.5q-9 -5 -15.5 -7t-12.5 -4q-10 -2 -15 -2h-17q-9 0 -19 2t-23 4q-12 6 -18.5 13t-17.5 14q-15 14 -21 35q-4 10 -6 19.5t-2 23.5v14q0 4 2 14
q4 17 12 25q4 8 7.5 13t7.5 11q9 5 13.5 9.5t10.5 9.5l12 4l17 6q5 0 11.5 1t13.5 1q10 0 17 -1t15 -1q6 -4 12.5 -6t15.5 -4q5 -5 10 -9.5t11 -9.5q4 -6 8.5 -11t10.5 -13zM2195 207q4 -4 6.5 -11t4.5 -14q4 -7 4 -14v-32q0 -7 -4 -11q-2 -7 -4.5 -15t-6.5 -14l-16 -20
l-12 -10l-14 -10q-5 -5 -12 -7t-13 -4q-8 -2 -14 -2h-17q-19 0 -43 6q-8 6 -16 13t-17 14q-8 6 -14 14t-8 21q-6 10 -7.5 19.5t-1.5 23.5q0 8 1 14t1 14l6 14t7 11q2 8 6 13t10 11q3 5 10.5 9.5t12.5 9.5q4 2 11 4t13 6q11 0 17 1t12 1q9 0 17 -1t14 -1q6 -4 13 -6t12 -4
l26 -19q2 -6 8 -11t8 -13zM2433 260l1 1q1 1 6 1h38v-219h-38v160l-5 -9v-8q0 -2 -2 -4q-6 -16 -13 -34.5t-16 -31.5q-6 -20 -12 -36.5t-14 -36.5h-37l-55 139q-6 3 -6 12q0 4 -1 4l-2 2v-157h-42v219h40q5 0 6.5 -1t4.5 -1q2 -2 3 -2t4 -2l7 -4q0 -2 2 -3.5t2 -3.5
q4 -18 11 -32.5t16 -34.5l12 -33q3 -8 6 -15l6 -14v-14q3 0 4 -4q0 4 1 4v14l11 13l44 116q0 1 2 3l2 4q0 1 3 3l3 1q2 2 4 2t4 2zM1329 262h38v-219h-36l-100 146l-4 5v2q-3 4 -3 5q-4 1 -4 4q0 4 -7 4v-166h-37v219h33q4 0 9.5 -1t5.5 -3q3 -2 5 -2t4 -2l22 -33
q6 -8 11 -16.5t10 -19.5q13 -13 24 -29t25 -29q0 -2 1 -4.5t1 -6.5l1 -3q0 -2 1 -3v152zM672 262l94 -219h-25q-9 0 -16 4q-2 2 -4 6.5t-6 8.5l-14 27h-100l-9 -27q0 -6 -4 -6q-2 -5 -4 -5l-3 -4q-2 0 -4.5 -1t-6.5 -1q0 -2 -2 -2h-27l96 219h35zM260 262h139v-39h-100v-49
h82v-41h-82v-51h100v-39h-139v219zM839 659q1 7 2 11t1 10q0 12 -3 21q0 7 -4.5 10.5t-6.5 9.5q-2 3 -4.5 6.5t-6.5 7.5l-7 6q-2 3 -9 9q-4 2 -8 4.5t-11 4.5q-5 0 -9.5 0.5t-10.5 0.5q-3 0 -8.5 -0.5t-12.5 -0.5q-6 -2 -10 -4.5t-8 -4.5q-4 -6 -7.5 -8.5t-7.5 -6.5
q-13 -7 -14 -14q-4 -6 -5 -9.5l-3 -10.5q-1 -5 -1.5 -10t-0.5 -11t2 -14.5t4 -15.5t6.5 -12.5t11.5 -12.5q10 -15 25 -15q10 -6 29 -6h20q15 5 19 8q11 4 16 13q3 4 6 7.5t5 8.5q2 4 6.5 9t4.5 9zM1966 659v42l-7 20q-5 7 -15 14q-1 4 -6 6.5t-10 8.5l-4 2t-5 2l-7 5
q-7 0 -12 0.5t-10 0.5q-6 0 -11 -0.5t-9 -0.5l-22 -9q-3 -6 -6 -8.5t-7 -6.5q-3 -4 -6.5 -7t-5.5 -7q-2 -6 -4.5 -9.5t-2.5 -10.5q-6 -9 -6 -21q0 -6 3 -14.5t6 -15.5q4 -15 16 -25q7 -15 26 -15q10 -6 29 -6h22q3 2 8 4t8 4l10 6t6 7q11 8 15 16zM74 262h158v-24
q0 -4 -1 -6q0 -3 -2 -5l-4 -4l-105 -143h1l2 2h108v-39h-164v13q0 11 2 13q0 2 5 7v4l2 4q2 2 4 3.5t2 6.5l94 129h-102v39zM1839 203q-4 -4 -7 -10.5t-7 -14.5q-2 -4 -4 -10t-2 -14q0 -7 2 -15l4 -12q2 -7 6 -14.5t8 -10.5q4 -4 9.5 -8.5t14.5 -7.5q12 -4 27 -4q5 0 10 1
t12 1q3 2 8 5t8 7q3 0 9 2h13q3 0 9 -2q2 -1 3.5 -3t3.5 -4l6 -7q-3 -4 -6 -7.5t-7 -7.5q-7 -5 -11.5 -8t-12.5 -6q-7 -4 -11.5 -5t-10.5 -3t-11 -2h-12q-12 0 -23.5 2t-21.5 4q-10 5 -18.5 12t-16.5 15q-16 13 -22 35q-4 10 -7 19.5t-3 23.5q0 10 1 14l4 14q1 7 3 14t6 11
q6 8 8.5 13t9.5 11q14 9 25 19q4 2 9.5 4t18.5 6q5 0 12 1t15 1h13q4 0 10 -2t10.5 -3t11.5 -3q8 -4 12.5 -6.5t11.5 -7.5l13 -17l-6 -8q-2 -1 -5 -4l-2 -4h-15q-7 0 -16 4l-16 10q-10 2 -12 2h-10q-17 0 -27 -7q-17 -1 -24 -13zM1690 151l7 -10.5t3 -7.5q6 -8 6 -20
q0 -15 -8 -29l-8 -12l-9 -10q-7 -6 -11.5 -9.5t-12.5 -5.5q-5 -2 -14 -3t-15 -1q-8 0 -14.5 1l-19.5 3q-5 2 -10 6.5t-11 13.5q-4 1 -6 5l-4 8q-7 2 -7 9l7 5q2 2 4 2h4l2 2h10q4 0 4 -2q7 0 9 -2q7 -5 10.5 -6.5t5.5 -3.5q2 0 6 -1t10 -1h5q2 0 6 2q5 1 8 2t7 3q6 6 7 9
q2 4 4 7.5t2 7.5q0 7 -6 10q-5 6 -7 6q-2 4 -7.5 5t-7.5 2q-6 0 -14 7q-5 0 -9 1t-9 7q-11 3 -14.5 6t-7.5 7q-12 4 -12 14q-6 10 -6 25q0 18 6 26l6 11l8 10q4 2 10 4t13 6q6 0 10.5 1t13.5 1q4 0 8.5 -1t11.5 -1l15 -6q3 -4 6.5 -6.5t7.5 -7.5q4 -2 7.5 -5.5t3.5 -7.5
l-7 -4q-4 -2 -7 -4.5t-3 -3.5h-18l-5 1l-7 5q-2 0 -4 1t-4 1h-17q-2 0 -3 -1t-5 -3q-2 -3 -6 -6q-1 -3 -1 -10q0 -5 1 -5q2 -2 3 -5.5t3 -7.5h6q1 0 5 -2q5 -1 9.5 -3t10.5 -4l9 -2q5 -4 9 -5t9 -5q5 -2 10 -5t8 -8zM1579 336q-12 7 -16 20q-7 17 -7 31v16l11 20l12 13
q6 7 12 9q3 7 9.5 8t9.5 3q4 0 8 1.5t10 1.5q4 0 10.5 -1.5t10.5 -1.5q5 -2 8.5 -3t7.5 -8q2 -2 5.5 -4.5t6.5 -4.5l13 -13l8 -20q0 -4 1 -9t1 -7q0 -6 -1 -14t-5 -17q-5 -13 -17 -20q-5 -4 -9.5 -7.5t-11.5 -10.5q-5 -1 -12 -1.5t-16 -0.5h-15q-4 0 -10 2q-18 7 -24 18z
M2284 336q-7 -4 -13.5 -7.5t-11.5 -10.5q-8 -2 -12 -2h-30q-5 0 -13 2q-7 4 -12.5 8.5t-10.5 9.5q-6 6 -13 20q-2 9 -4.5 17t-2.5 14q0 2 1 7t1 9q3 5 4 10t4 10q2 3 5 6t5 7q6 4 18 9q3 7 8 8t7 3q6 0 9 1.5t10 1.5q2 0 8.5 -1.5t11.5 -1.5q4 -2 7.5 -3t6.5 -8l17 -9
q2 -4 4 -7t5 -6q2 -5 4 -9.5t3 -10.5q2 -4 3 -9t1 -7q0 -6 -1 -14t-5 -17q0 -6 -5 -11zM2166 127q5 12 5 27q0 16 -5 24q-3 9 -8 15.5t-8 9.5q-10 10 -24 13q-4 5 -12 6t-17 1q-12 0 -25 -7q-8 -1 -13 -4t-11 -9q-4 -3 -7.5 -9.5t-8.5 -15.5q0 -4 -1 -10t-1 -14q0 -9 1 -15
t1 -12q4 -8 8 -14t8 -11q6 -4 11 -8.5t13 -7.5q7 -2 14 -3t11 -1q9 0 17 1t12 3q8 3 14 7.5t10 8.5q11 11 16 25zM1104 127q4 11 4 27q0 13 -4 24q-2 9 -6.5 15.5t-13.5 9.5q-2 6 -7.5 9t-11.5 4q-11 7 -30 7q-14 0 -25 -7q-11 -1 -23 -13q-6 -3 -9 -9.5t-5 -15.5
q-5 -5 -5 -10v-29q0 -5 5 -12q2 -7 5 -14.5t9 -10.5q6 -4 11 -8.5t12 -7.5q11 -4 25 -4q19 0 30 4q13 7 19 16q9 3 13.5 10.5t6.5 14.5zM774 262h139v-39h-100v-55h82v-39h-82v-86h-39v219zM570 223h-58v-180h-43v180h-62v39h163v-39zM1188 864q-19 7 -37 19t-35 26h322
q-18 -14 -36 -26t-36 -19q-24 -6 -45.5 -11t-44.5 -5q-25 0 -45.5 5t-42.5 11zM1389 262h165v-39h-65v-180h-39v180h-61v39zM1366 1315q18 -8 36 -20.5t36 -22.5h-325q38 30 75 43q37 18 88 18q48 0 90 -18zM559 604l-47 68q4 0 11 4q8 5 9 10q9 5 9 11v26q0 1 -2 5
q-3 10 -11 15q-5 9 -14 9q-2 5 -6.5 6t-9.5 1h-57v-155h24v64h23l40 -56q1 -4 8 -6q2 -2 3 -2h20zM1169 604l-67 155h-22l-65 -155h11q7 0 9 2q0 2 7 6l11 27h76l13 -27q1 -4 5 -6q2 -2 8 -2h14zM1930 721q3 -2 8 -7.5t6 -12.5q4 -7 4 -21q0 -12 -4 -23q-1 -5 -6 -9.5
t-8 -6.5q-5 -4 -9 -6.5t-8 -7.5q-9 -4 -23 -4q-6 0 -12 1t-10 3q-5 5 -10.5 7.5t-9.5 6.5q-3 2 -6 6.5t-3 9.5q-4 7 -5 12t-1 11q0 10 6 21q0 7 3 12.5t6 7.5q4 4 9.5 7t10.5 5q9 4 22 4q5 0 11.5 -1t11.5 -3zM801 721q7 -2 9.5 -7.5t4.5 -12.5q4 -7 4 -21q0 -11 -4 -23
q-2 -5 -4.5 -9.5t-9.5 -6.5q-1 -4 -6 -7l-11 -7q-9 -4 -22 -4q-11 0 -23 4q-4 5 -9 7.5t-9 6.5q-2 2 -5.5 6.5t-5.5 9.5q-4 12 -4 23q0 12 4 21q2 7 5.5 12.5t5.5 7.5q4 4 9 7t9 5q5 2 12.5 3t10.5 1q13 0 22 -4q8 -2 11.5 -5t5.5 -7zM2126 759h-22v-120q-1 2 -2 5t-3 4
l-75 104l-3 7h-24v-155h22v121l2 -2l87 -119h18v155zM2218 332h31l6 3q3 3 4 5q6 0 14 5q2 5 3 7t4 4q0 3 3 8t3 10v34q-3 6 -7 10.5t-6 7.5q-10 4 -18 12h-43q-6 -4 -9.5 -7t-9.5 -5q-5 -3 -7.5 -7.5t-4.5 -10.5q-1 -4 -1.5 -7t-0.5 -7v-20q0 -13 5 -18q2 -2 4.5 -4t4.5 -7
l7 -3q2 -2 4 -2q4 -4 7 -5t7 -3zM296 690q5 12 5 20q0 9 -5 18q0 2 -5 7l-6 6q-2 3 -5 7t-10 4q-3 5 -8.5 6t-9.5 1h-52v-155h16v59h36q4 0 9.5 0.5t8.5 2.5q10 4 15 10q4 2 7.5 6t3.5 8zM1579 408q-6 -14 -6 -21v-8q0 -4 3 -5q0 -10 5 -18q0 -2 2 -4t4 -7l5 -3q2 -2 11 -2
q2 -4 5.5 -5t5.5 -3h27q6 2 9.5 3t6.5 5l6 2l4 3q2 5 4.5 7t2.5 4q3 3 4 8t3 10q0 2 1 5.5t1 7.5q0 2 -1 8t-5 13q0 6 -4 10.5t-6 7.5q-3 1 -8 6l-10 6h-42q-4 -4 -10 -7l-10 -5l-5 -8q-3 -5 -3 -10zM997 759h-18v-120l-2 4q-2 6 -2 5l-74 104q-5 0 -6 7h-25v-155h21v124h2
l2 -1v-4l86 -119h16v155zM2115 381q-5 -1 -8.5 -2t-5.5 -2l45 -61h-12l-6 2q-4 0 -4 9l-39 50h-28v-61h-15v140h57q3 0 9 -2q2 -2 6.5 -5.5t5.5 -5.5q4 -2 5 -5.5t7 -7.5v-27q-4 -4 -5 -8t-3 -6zM1342 381q-3 -3 -11 -4l47 -61h-15q-3 0 -3 2q-6 0 -6 9l-39 50h-28v-61h-13
v140h56q2 0 6 -2q10 -1 18 -11q0 -2 3 -5.5t3 -7.5q2 -2 2 -6v-14q0 -1 -2 -7q0 -10 -4 -14l-5 -4q-3 -3 -9 -4zM412 759h-98v-155h98v21h-74v47h58v18h-58v45h74v24zM1721 759h-93v-155h93v21h-69v47h58v18h-58v45h69v24zM2460 454q6 2 5 2h13v-140h-12v114l-2 -2v-2
q-4 -8 -6.5 -17.5t-8.5 -14.5q-5 -7 -7 -12.5t-7 -14.5q-2 -9 -3 -15.5t-5 -9.5q-3 -8 -6.5 -12.5t-5.5 -13.5h-15q-10 14 -15 27t-10 28q-4 12 -12 26.5t-12 28.5v2h-4v-112h-14v140h14q4 0 6 -2l2 -2v-7l49 -105q0 -4 2 -4l1 2v4q0 2 8 6l41 97q2 7 3 7t1 2zM1480 759h-22
v-104q0 -4 -2 -8q-1 -7 -10 -12q0 -2 -4 -3.5t-6 -6.5l-9 -2h-9q-7 0 -13 2q-5 5 -8.5 6.5t-5.5 3.5l-11 12q0 3 -1 7.5t-1 11.5v93h-20v-93q0 -7 1 -11.5t1 -7.5q0 -8 6 -14q3 -8 10 -12q2 -4 4.5 -6.5t8.5 -4.5q2 -2 6.5 -3t7.5 -3q4 0 7 -1.5t8 -1.5t8.5 1.5t11.5 1.5
q2 2 5 3t7 3q3 2 6 4.5t6 6.5q3 2 5 5.5t7 6.5q0 4 3 7t3 7v112zM664 632q2 5 3 8t1 8q0 12 -5.5 20t-12.5 14q-2 0 -3.5 2t-5.5 4l-4 2h-4q-1 0 -1 4q-8 0 -9 1q-8 2 -9.5 3t-5.5 3q-6 5 -9 5q-3 4 -3 6v15q0 1 1.5 2.5t1.5 3.5q2 0 4.5 1t4.5 1q6 2 5 2h10q2 -2 4 -2
q7 0 8 -4q1 -3 4 -3h2q9 0 14 5l4 2q0 2 -2 4l-5 4q-2 1 -4.5 4t-6.5 5q-2 0 -4 2.5t-5 4.5q-5 0 -7 0.5t-4 0.5q-7 0 -12 -0.5t-8 -0.5q-5 -2 -7 -4.5t-6 -4.5q-2 -6 -5.5 -8.5t-8.5 -6.5q0 -4 -2 -7t-2 -9t4 -18l12 -11q2 -2 6 -5t7 -3q5 -2 8 -4t7 -2q1 -2 6 -2t7 -2
l6 -2q2 0 4 -2t2 -3t2 -6q2 -2 2 -7v-9q0 -2 -2 -4t-2 -4t-2 -3q-2 -5 -6 -6l-4 -1q-4 0 -8 -1t-5 -1q-4 0 -7 1t-6 1q-2 0 -3.5 1t-1.5 6l-4 1q-4 4 -11 4h-7l-4 -2l-5 -2q0 -3 3 -3q0 -3 2 -5q0 -4 4 -4v-6h5q7 -7 16 -9t19 -2h10q5 0 11 2q4 2 8.5 4t6.5 5q13 5 14 17z
M1741 316h-18v140h20q3 0 4 -4l74 -104q2 0 2 -5l2 -1v114h14v-140h-12l-82 114v4h-4v-118zM1596 632q9 7 9 16q0 12 -5.5 20t-12.5 14q-6 4 -6 6h-4l-4 2h-3q-4 0 -5 4h-4q-2 0 -5 1q-2 2 -4 3t-7 3l-7 5q-2 1 -3 2l-2 2l-1 2q0 1 -1 3t-1 4q0 4 4 8q0 2 4 6q2 0 3 1t4 1
q2 2 11 2l4 -1q2 -1 5 -1q3 -3 8 -4q6 -3 8 -3q6 0 8 5l5 2q0 2 -2.5 4t-4.5 4q0 1 -3 4l-5 5q-3 0 -5.5 2.5t-6.5 4.5h-6l-5 1q-6 0 -10 -0.5t-8 -0.5l-13 -9q-5 -6 -7 -8.5t-6 -6.5q-1 -4 -3 -7t-2 -9q0 -4 2 -7.5t3 -10.5l10 -11q5 -2 7.5 -5t6.5 -3q4 -2 7.5 -4t6.5 -2
q4 -2 7 -2t6 -2q6 0 10 -4l4 -3q2 -2 2 -6q2 -2 2 -6v-9q0 -3 -2 -5q0 -6 -6 -7q-6 -5 -7 -6t-3 -1q-7 0 -8 -1t-5 -1q-3 0 -6.5 1t-5.5 1q-2 1 -4 3l-4 4l-2 1q-5 4 -10 4h-7q-2 0 -4 -2l-6 -2q2 -1 2 -2t2 -1q0 -3 1 -4l3 -3v-2q6 -6 9 -6q7 -7 14.5 -9t17.5 -2h12
q3 0 11 2q3 2 6.5 4t7.5 5l5 8q3 3 4 9zM78 350q-6 6 -7 17l-3 10q-1 3 -1 10t4 16l2 10t5 10l4 6l5 7q2 2 6.5 4.5t6.5 4.5q6 7 11 8t9 3q3 0 8 1.5t10 1.5q7 0 14.5 -1.5t13.5 -5.5q8 -2 12.5 -6.5t8.5 -9.5q-2 -2 -4 -2v-4h-13q-4 2 -7 5t-7 3h-36l-22 -12
q-4 -3 -7.5 -7.5t-4.5 -10.5q-2 -7 -3 -13t-1 -8q0 -9 4 -13q0 -5 0.5 -10t0.5 -8l5 -4q4 -1 6 -7l7 -4q3 -1 8 -1q3 -4 5.5 -5t6.5 -3h33q2 2 7 3t9 5v29h-14v2q-2 0 -3 1.5t-3 3.5h-2q-1 1 -1 3v4h36v-51q-2 -5 -3.5 -6t-5.5 -8h-12q-8 -2 -12 -2h-34q-4 0 -9 3.5t-11 7.5
q-2 0 -6.5 2.5t-6.5 6.5q-3 4 -5 6.5t-4 7.5zM240 438v-44h56v-15h-56v-47h67v-16h-84v140h84v-18h-67zM1171 438v-44h60v-15h-60v-47h68v-16h-84v140h84v-18h-68zM2375 759h-20q-3 0 -8 -5q-6 -5 -6 -10l-37 -47h-2q0 -2 -2 -2v2l-39 47q-1 7 -4 10q-5 5 -11 5h-18l58 -77
v-2q0 -2 2 -2l2 -2v-72h21v70q2 0 2 2l2 4v2zM641 456v-85q0 -7 2 -10t5 -5q0 -6 3.5 -9.5t5.5 -4.5q0 -2 4.5 -4t6.5 -4q6 -2 8 -2h16q1 0 5 2l9 4q2 1 3.5 2t3.5 2q3 1 8 14q4 3 4 15v85h14v-85q0 -12 -4 -23t-12 -16q-2 -5 -6.5 -9.5t-8.5 -4.5q-8 -1 -13.5 -1.5
t-10.5 -0.5t-11 0.5t-14 1.5q-2 0 -6.5 4.5l-9.5 9.5l-10 16q-1 6 -3.5 11t-2.5 12v85h14zM2253 625h-69v134h-21v-155h90v21zM1271 625h-67v134h-20v-155h87v21zM1452 336q1 2 2 3.5t2 3.5q2 2 3 6.5t1 6.5q0 9 -2 11t-3 4.5t-3 4.5q-1 1 -8 3q-4 0 -6 2t-6 2q-8 0 -14 6
q-9 0 -13 7q-2 0 -3.5 3.5t-3.5 7.5v22q0 1 2 7q0 8 7 9l6 7q2 1 3.5 2t3.5 2q5 0 7.5 1.5t8.5 1.5l6 -2l4 -1q4 0 5 -1t5 -3q2 0 4 -3.5t2 -5.5q4 0 6 -3l1 -2l-2 -2q-6 -2 -9 -2h-6q-2 2 -2 4h-23q-9 0 -9 -2q-5 -7 -5 -8q-4 0 -4 -8q0 -5 4 -6q0 -5 3 -6q0 -1 3 -4l4 -1
q4 -4 7.5 -4t7.5 -3q3 0 4 -1l2 -1q4 0 8 -5h4q2 0 4 -2h2q5 -4 8.5 -7t5.5 -4q1 -5 1.5 -10.5t0.5 -9.5v-10q0 -5 -4 -6q-3 -4 -5.5 -7.5t-6.5 -5.5q-2 -2 -6 -5.5t-6 -3.5q-6 -2 -10 -2h-9q-11 0 -18.5 1t-12.5 10q-2 0 -3.5 2.5t-5.5 4.5v4l-2 2l4 2h7q1 0 3 -1t4 -1
q4 -4 6.5 -5t4.5 -3h22q8 0 12 4zM1069 316l-59 140h6q6 0 8 -2t3 -2t3 -7l43 -103v-2l2 -6v6l2 2q5 14 13 27.5t12 24.5q4 16 10 28t12 23q0 7 1.5 7t1.5 2q6 2 7 2h11q-8 -18 -15.5 -35t-16.5 -34q-4 -9 -7 -18.5t-6 -18.5l-16 -34h-15zM532 438v-49h60v-12h-60v-61h-16
v140h85v-18h-69zM1959 438v-49h54v-12h-54v-61h-16v140h81v-18h-65zM879 456v-124h63v-16h-80v140h17zM371 316v122h-46v18h105v-18h-47v-122h-12zM784 456v-124h64v-16h-80v140h16zM270 728q2 -1 3 -4t3 -5q4 -4 4 -9v-4q0 -5 -4 -9q-2 -2 -3 -4.5t-3 -2.5l-4 -4l-4 -4h-46
v53h36q4 0 10 -2q1 0 4 -3zM1325 389q4 0 6 3q4 4 9 4l2 5q0 2 5 6q0 1 1 4t1 7q0 2 -1 3.5t-1 4.5q-7 3 -7 8q-5 0 -9 4h-44v-49h38zM2101 392q4 4 7 4q7 7 7 11q2 4 2 11q0 4 -2 8q0 2 -7 8q-3 0 -7 4h-44v-49h36q3 0 8 3zM1525 456v-140h-18v140h18zM518 701l-4 -7
q-2 0 -3 -2t-3 -2q-2 -2 -10 -2h-33v47h33q4 0 10 -2q2 0 6 -5q1 -2 2 -3.5t2 -3.5q3 -2 3 -9q0 -5 -3 -11zM684 129l-27 69q0 2 -1 3l-1 2q0 4 -3 6v-6l-1 -2q-1 -1 -1 -3l-27 -69h61zM1093 727v-4l27 -64h-59l30 64v5zM1755 82q6 0 6 -6q2 -2 2 -5v-4q0 -9 -2 -11
q0 -5 -6 -9q-3 0 -6 -4h-17q-4 4 -11 4q0 2 -5 9q-2 2 -2 11v4q0 3 2 5l3 4l2 2q7 4 11 4q1 3 4 3h10q3 0 3 -3q3 0 6 -4z" />
    <glyph glyph-name="one" unicode="1" 
d="M2478 1093v-587h-2404v587h910q0 30 5.5 58t20.5 53q12 29 26 52.5t37 41.5q39 42 91 62q28 12 55.5 17t56.5 5q33 0 61.5 -6.5t53.5 -15.5q27 -14 50.5 -29.5t45.5 -36.5q35 -38 60 -94q11 -27 15.5 -54t4.5 -53h911zM1030 1194q-20 -49 -20 -101q0 -58 20 -106
q10 -22 24.5 -43.5t29.5 -42.5q20 -17 41.5 -32t45.5 -25q46 -23 105 -23q31 0 56.5 4.5t47.5 16.5q48 19 83 57q22 20 35.5 41t26.5 43q20 54 20 110q0 20 -3.5 43.5t-11.5 47.5q-14 40 -43 72q-14 20 -29.5 33.5t-34.5 25.5l-76 36q-16 3 -33 6t-38 3q-29 0 -55.5 -5.5
t-51.5 -19.5q-50 -19 -85 -57q-17 -19 -30.5 -39.5t-23.5 -44.5zM1142 936l314 317q62 -80 62 -160q0 -24 -3.5 -45.5t-11.5 -41.5q-8 -19 -17.5 -37t-23.5 -33h-320zM1095 928q-14 17 -25 36.5t-19 39.5q-9 18 -12.5 40.5t-3.5 48.5q0 18 3.5 39t12.5 43q7 35 40 68h318z
M1135 207q2 -4 4.5 -11t5.5 -14q2 -10 2 -14v-32q0 -5 -2 -11l-6 -15l-4 -14q-6 -4 -10.5 -10t-8.5 -10q-6 -5 -11 -10.5t-10 -9.5q-9 -5 -15.5 -7t-12.5 -4q-10 -2 -15 -2h-17q-9 0 -19 2t-23 4q-12 6 -18.5 13t-17.5 14q-15 14 -21 35q-4 10 -6 19.5t-2 23.5v14q0 4 2 14
q4 17 12 25q4 8 7.5 13t7.5 11q9 5 13.5 9.5t10.5 9.5l12 4l17 6q5 0 11.5 1t13.5 1q10 0 17 -1t15 -1q6 -4 12.5 -6t15.5 -4q5 -5 10 -9.5t11 -9.5q4 -6 8.5 -11t10.5 -13zM2195 207q4 -4 6.5 -11t4.5 -14q4 -7 4 -14v-32q0 -7 -4 -11q-2 -7 -4.5 -15t-6.5 -14l-16 -20
l-12 -10l-14 -10q-5 -5 -12 -7t-13 -4q-8 -2 -14 -2h-17q-19 0 -43 6q-8 6 -16 13t-17 14q-8 6 -14 14t-8 21q-6 10 -7.5 19.5t-1.5 23.5q0 8 1 14t1 14l6 14t7 11q2 8 6 13t10 11q3 5 10.5 9.5t12.5 9.5q4 2 11 4t13 6q11 0 17 1t12 1q9 0 17 -1t14 -1q6 -4 13 -6t12 -4
l26 -19q2 -6 8 -11t8 -13zM2433 260l1 1q1 1 6 1h38v-219h-38v160l-5 -9v-8q0 -2 -2 -4q-6 -16 -13 -34.5t-16 -31.5q-6 -20 -12 -36.5t-14 -36.5h-37l-55 139q-6 3 -6 12q0 4 -1 4l-2 2v-157h-42v219h40q5 0 6.5 -1t4.5 -1q2 -2 3 -2t4 -2l7 -4q0 -2 2 -3.5t2 -3.5
q4 -18 11 -32.5t16 -34.5l12 -33q3 -8 6 -15l6 -14v-14q3 0 4 -4q0 4 1 4v14l11 13l44 116q0 1 2 3l2 4q0 1 3 3l3 1q2 2 4 2t4 2zM1329 262h38v-219h-36l-100 146l-4 5v2q-3 4 -3 5q-4 1 -4 4q0 4 -7 4v-166h-37v219h33q4 0 9.5 -1t5.5 -3q3 -2 5 -2t4 -2l22 -33
q6 -8 11 -16.5t10 -19.5q13 -13 24 -29t25 -29q0 -2 1 -4.5t1 -6.5l1 -3q0 -2 1 -3v152zM672 262l94 -219h-25q-9 0 -16 4q-2 2 -4 6.5t-6 8.5l-14 27h-100l-9 -27q0 -6 -4 -6q-2 -5 -4 -5l-3 -4q-2 0 -4.5 -1t-6.5 -1q0 -2 -2 -2h-27l96 219h35zM260 262h139v-39h-100v-49
h82v-41h-82v-51h100v-39h-139v219zM839 659q1 7 2 11t1 10q0 12 -3 21q0 7 -4.5 10.5t-6.5 9.5q-2 3 -4.5 6.5t-6.5 7.5l-7 6q-2 3 -9 9q-4 2 -8 4.5t-11 4.5q-5 0 -9.5 0.5t-10.5 0.5q-3 0 -8.5 -0.5t-12.5 -0.5q-6 -2 -10 -4.5t-8 -4.5q-4 -6 -7.5 -8.5t-7.5 -6.5
q-13 -7 -14 -14q-4 -6 -5 -9.5l-3 -10.5q-1 -5 -1.5 -10t-0.5 -11t2 -14.5t4 -15.5t6.5 -12.5t11.5 -12.5q10 -15 25 -15q10 -6 29 -6h20q15 5 19 8q11 4 16 13q3 4 6 7.5t5 8.5q2 4 6.5 9t4.5 9zM1966 659v42l-7 20q-5 7 -15 14q-1 4 -6 6.5t-10 8.5l-4 2t-5 2l-7 5
q-7 0 -12 0.5t-10 0.5q-6 0 -11 -0.5t-9 -0.5l-22 -9q-3 -6 -6 -8.5t-7 -6.5q-3 -4 -6.5 -7t-5.5 -7q-2 -6 -4.5 -9.5t-2.5 -10.5q-6 -9 -6 -21q0 -6 3 -14.5t6 -15.5q4 -15 16 -25q7 -15 26 -15q10 -6 29 -6h22q3 2 8 4t8 4l10 6t6 7q11 8 15 16zM74 262h158v-24
q0 -4 -1 -6q0 -3 -2 -5l-4 -4l-105 -143h1l2 2h108v-39h-164v13q0 11 2 13q0 2 5 7v4l2 4q2 2 4 3.5t2 6.5l94 129h-102v39zM1839 203q-4 -4 -7 -10.5t-7 -14.5q-2 -4 -4 -10t-2 -14q0 -7 2 -15l4 -12q2 -7 6 -14.5t8 -10.5q4 -4 9.5 -8.5t14.5 -7.5q12 -4 27 -4q5 0 10 1
t12 1q3 2 8 5t8 7q3 0 9 2h13q3 0 9 -2q2 -1 3.5 -3t3.5 -4l6 -7q-3 -4 -6 -7.5t-7 -7.5q-7 -5 -11.5 -8t-12.5 -6q-7 -4 -11.5 -5t-10.5 -3t-11 -2h-12q-12 0 -23.5 2t-21.5 4q-10 5 -18.5 12t-16.5 15q-16 13 -22 35q-4 10 -7 19.5t-3 23.5q0 10 1 14l4 14q1 7 3 14t6 11
q6 8 8.5 13t9.5 11q14 9 25 19q4 2 9.5 4t18.5 6q5 0 12 1t15 1h13q4 0 10 -2t10.5 -3t11.5 -3q8 -4 12.5 -6.5t11.5 -7.5l13 -17l-6 -8q-2 -1 -5 -4l-2 -4h-15q-7 0 -16 4l-16 10q-10 2 -12 2h-10q-17 0 -27 -7q-17 -1 -24 -13zM1690 151l7 -10.5t3 -7.5q6 -8 6 -20
q0 -15 -8 -29l-8 -12l-9 -10q-7 -6 -11.5 -9.5t-12.5 -5.5q-5 -2 -14 -3t-15 -1q-8 0 -14.5 1l-19.5 3q-5 2 -10 6.5t-11 13.5q-4 1 -6 5l-4 8q-7 2 -7 9l7 5q2 2 4 2h4l2 2h10q4 0 4 -2q7 0 9 -2q7 -5 10.5 -6.5t5.5 -3.5q2 0 6 -1t10 -1h5q2 0 6 2q5 1 8 2t7 3q6 6 7 9
q2 4 4 7.5t2 7.5q0 7 -6 10q-5 6 -7 6q-2 4 -7.5 5t-7.5 2q-6 0 -14 7q-5 0 -9 1t-9 7q-11 3 -14.5 6t-7.5 7q-12 4 -12 14q-6 10 -6 25q0 18 6 26l6 11l8 10q4 2 10 4t13 6q6 0 10.5 1t13.5 1q4 0 8.5 -1t11.5 -1l15 -6q3 -4 6.5 -6.5t7.5 -7.5q4 -2 7.5 -5.5t3.5 -7.5
l-7 -4q-4 -2 -7 -4.5t-3 -3.5h-18l-5 1l-7 5q-2 0 -4 1t-4 1h-17q-2 0 -3 -1t-5 -3q-2 -3 -6 -6q-1 -3 -1 -10q0 -5 1 -5q2 -2 3 -5.5t3 -7.5h6q1 0 5 -2q5 -1 9.5 -3t10.5 -4l9 -2q5 -4 9 -5t9 -5q5 -2 10 -5t8 -8zM1579 336q-12 7 -16 20q-7 17 -7 31v16l11 20l12 13
q6 7 12 9q3 7 9.5 8t9.5 3q4 0 8 1.5t10 1.5q4 0 10.5 -1.5t10.5 -1.5q5 -2 8.5 -3t7.5 -8q2 -2 5.5 -4.5t6.5 -4.5l13 -13l8 -20q0 -4 1 -9t1 -7q0 -6 -1 -14t-5 -17q-5 -13 -17 -20q-5 -4 -9.5 -7.5t-11.5 -10.5q-5 -1 -12 -1.5t-16 -0.5h-15q-4 0 -10 2q-18 7 -24 18z
M2284 336q-7 -4 -13.5 -7.5t-11.5 -10.5q-8 -2 -12 -2h-30q-5 0 -13 2q-7 4 -12.5 8.5t-10.5 9.5q-6 6 -13 20q-2 9 -4.5 17t-2.5 14q0 2 1 7t1 9q3 5 4 10t4 10q2 3 5 6t5 7q6 4 18 9q3 7 8 8t7 3q6 0 9 1.5t10 1.5q2 0 8.5 -1.5t11.5 -1.5q4 -2 7.5 -3t6.5 -8l17 -9
q2 -4 4 -7t5 -6q2 -5 4 -9.5t3 -10.5q2 -4 3 -9t1 -7q0 -6 -1 -14t-5 -17q0 -6 -5 -11zM2166 127q5 12 5 27q0 16 -5 24q-3 9 -8 15.5t-8 9.5q-10 10 -24 13q-4 5 -12 6t-17 1q-12 0 -25 -7q-8 -1 -13 -4t-11 -9q-4 -3 -7.5 -9.5t-8.5 -15.5q0 -4 -1 -10t-1 -14q0 -9 1 -15
t1 -12q4 -8 8 -14t8 -11q6 -4 11 -8.5t13 -7.5q7 -2 14 -3t11 -1q9 0 17 1t12 3q8 3 14 7.5t10 8.5q11 11 16 25zM1104 127q4 11 4 27q0 13 -4 24q-2 9 -6.5 15.5t-13.5 9.5q-2 6 -7.5 9t-11.5 4q-11 7 -30 7q-14 0 -25 -7q-11 -1 -23 -13q-6 -3 -9 -9.5t-5 -15.5
q-5 -5 -5 -10v-29q0 -5 5 -12q2 -7 5 -14.5t9 -10.5q6 -4 11 -8.5t12 -7.5q11 -4 25 -4q19 0 30 4q13 7 19 16q9 3 13.5 10.5t6.5 14.5zM774 262h139v-39h-100v-55h82v-39h-82v-86h-39v219zM570 223h-58v-180h-43v180h-62v39h163v-39zM1188 864q-19 7 -37 19t-35 26h322
q-18 -14 -36 -26t-36 -19q-24 -6 -45.5 -11t-44.5 -5q-25 0 -45.5 5t-42.5 11zM1389 262h165v-39h-65v-180h-39v180h-61v39zM1366 1315q18 -8 36 -20.5t36 -22.5h-325q38 30 75 43q37 18 88 18q48 0 90 -18zM559 604l-47 68q4 0 11 4q8 5 9 10q9 5 9 11v26q0 1 -2 5
q-3 10 -11 15q-5 9 -14 9q-2 5 -6.5 6t-9.5 1h-57v-155h24v64h23l40 -56q1 -4 8 -6q2 -2 3 -2h20zM1169 604l-67 155h-22l-65 -155h11q7 0 9 2q0 2 7 6l11 27h76l13 -27q1 -4 5 -6q2 -2 8 -2h14zM1930 721q3 -2 8 -7.5t6 -12.5q4 -7 4 -21q0 -12 -4 -23q-1 -5 -6 -9.5
t-8 -6.5q-5 -4 -9 -6.5t-8 -7.5q-9 -4 -23 -4q-6 0 -12 1t-10 3q-5 5 -10.5 7.5t-9.5 6.5q-3 2 -6 6.5t-3 9.5q-4 7 -5 12t-1 11q0 10 6 21q0 7 3 12.5t6 7.5q4 4 9.5 7t10.5 5q9 4 22 4q5 0 11.5 -1t11.5 -3zM801 721q7 -2 9.5 -7.5t4.5 -12.5q4 -7 4 -21q0 -11 -4 -23
q-2 -5 -4.5 -9.5t-9.5 -6.5q-1 -4 -6 -7l-11 -7q-9 -4 -22 -4q-11 0 -23 4q-4 5 -9 7.5t-9 6.5q-2 2 -5.5 6.5t-5.5 9.5q-4 12 -4 23q0 12 4 21q2 7 5.5 12.5t5.5 7.5q4 4 9 7t9 5q5 2 12.5 3t10.5 1q13 0 22 -4q8 -2 11.5 -5t5.5 -7zM2126 759h-22v-120q-1 2 -2 5t-3 4
l-75 104l-3 7h-24v-155h22v121l2 -2l87 -119h18v155zM2218 332h31l6 3q3 3 4 5q6 0 14 5q2 5 3 7t4 4q0 3 3 8t3 10v34q-3 6 -7 10.5t-6 7.5q-10 4 -18 12h-43q-6 -4 -9.5 -7t-9.5 -5q-5 -3 -7.5 -7.5t-4.5 -10.5q-1 -4 -1.5 -7t-0.5 -7v-20q0 -13 5 -18q2 -2 4.5 -4t4.5 -7
l7 -3q2 -2 4 -2q4 -4 7 -5t7 -3zM296 690q5 12 5 20q0 9 -5 18q0 2 -5 7l-6 6q-2 3 -5 7t-10 4q-3 5 -8.5 6t-9.5 1h-52v-155h16v59h36q4 0 9.5 0.5t8.5 2.5q10 4 15 10q4 2 7.5 6t3.5 8zM1579 408q-6 -14 -6 -21v-8q0 -4 3 -5q0 -10 5 -18q0 -2 2 -4t4 -7l5 -3q2 -2 11 -2
q2 -4 5.5 -5t5.5 -3h27q6 2 9.5 3t6.5 5l6 2l4 3q2 5 4.5 7t2.5 4q3 3 4 8t3 10q0 2 1 5.5t1 7.5q0 2 -1 8t-5 13q0 6 -4 10.5t-6 7.5q-3 1 -8 6l-10 6h-42q-4 -4 -10 -7l-10 -5l-5 -8q-3 -5 -3 -10zM997 759h-18v-120l-2 4q-2 6 -2 5l-74 104q-5 0 -6 7h-25v-155h21v124h2
l2 -1v-4l86 -119h16v155zM2115 381q-5 -1 -8.5 -2t-5.5 -2l45 -61h-12l-6 2q-4 0 -4 9l-39 50h-28v-61h-15v140h57q3 0 9 -2q2 -2 6.5 -5.5t5.5 -5.5q4 -2 5 -5.5t7 -7.5v-27q-4 -4 -5 -8t-3 -6zM1342 381q-3 -3 -11 -4l47 -61h-15q-3 0 -3 2q-6 0 -6 9l-39 50h-28v-61h-13
v140h56q2 0 6 -2q10 -1 18 -11q0 -2 3 -5.5t3 -7.5q2 -2 2 -6v-14q0 -1 -2 -7q0 -10 -4 -14l-5 -4q-3 -3 -9 -4zM412 759h-98v-155h98v21h-74v47h58v18h-58v45h74v24zM1721 759h-93v-155h93v21h-69v47h58v18h-58v45h69v24zM2460 454q6 2 5 2h13v-140h-12v114l-2 -2v-2
q-4 -8 -6.5 -17.5t-8.5 -14.5q-5 -7 -7 -12.5t-7 -14.5q-2 -9 -3 -15.5t-5 -9.5q-3 -8 -6.5 -12.5t-5.5 -13.5h-15q-10 14 -15 27t-10 28q-4 12 -12 26.5t-12 28.5v2h-4v-112h-14v140h14q4 0 6 -2l2 -2v-7l49 -105q0 -4 2 -4l1 2v4q0 2 8 6l41 97q2 7 3 7t1 2zM1480 759h-22
v-104q0 -4 -2 -8q-1 -7 -10 -12q0 -2 -4 -3.5t-6 -6.5l-9 -2h-9q-7 0 -13 2q-5 5 -8.5 6.5t-5.5 3.5l-11 12q0 3 -1 7.5t-1 11.5v93h-20v-93q0 -7 1 -11.5t1 -7.5q0 -8 6 -14q3 -8 10 -12q2 -4 4.5 -6.5t8.5 -4.5q2 -2 6.5 -3t7.5 -3q4 0 7 -1.5t8 -1.5t8.5 1.5t11.5 1.5
q2 2 5 3t7 3q3 2 6 4.5t6 6.5q3 2 5 5.5t7 6.5q0 4 3 7t3 7v112zM664 632q2 5 3 8t1 8q0 12 -5.5 20t-12.5 14q-2 0 -3.5 2t-5.5 4l-4 2h-4q-1 0 -1 4q-8 0 -9 1q-8 2 -9.5 3t-5.5 3q-6 5 -9 5q-3 4 -3 6v15q0 1 1.5 2.5t1.5 3.5q2 0 4.5 1t4.5 1q6 2 5 2h10q2 -2 4 -2
q7 0 8 -4q1 -3 4 -3h2q9 0 14 5l4 2q0 2 -2 4l-5 4q-2 1 -4.5 4t-6.5 5q-2 0 -4 2.5t-5 4.5q-5 0 -7 0.5t-4 0.5q-7 0 -12 -0.5t-8 -0.5q-5 -2 -7 -4.5t-6 -4.5q-2 -6 -5.5 -8.5t-8.5 -6.5q0 -4 -2 -7t-2 -9t4 -18l12 -11q2 -2 6 -5t7 -3q5 -2 8 -4t7 -2q1 -2 6 -2t7 -2
l6 -2q2 0 4 -2t2 -3t2 -6q2 -2 2 -7v-9q0 -2 -2 -4t-2 -4t-2 -3q-2 -5 -6 -6l-4 -1q-4 0 -8 -1t-5 -1q-4 0 -7 1t-6 1q-2 0 -3.5 1t-1.5 6l-4 1q-4 4 -11 4h-7l-4 -2l-5 -2q0 -3 3 -3q0 -3 2 -5q0 -4 4 -4v-6h5q7 -7 16 -9t19 -2h10q5 0 11 2q4 2 8.5 4t6.5 5q13 5 14 17z
M1741 316h-18v140h20q3 0 4 -4l74 -104q2 0 2 -5l2 -1v114h14v-140h-12l-82 114v4h-4v-118zM1596 632q9 7 9 16q0 12 -5.5 20t-12.5 14q-6 4 -6 6h-4l-4 2h-3q-4 0 -5 4h-4q-2 0 -5 1q-2 2 -4 3t-7 3l-7 5q-2 1 -3 2l-2 2l-1 2q0 1 -1 3t-1 4q0 4 4 8q0 2 4 6q2 0 3 1t4 1
q2 2 11 2l4 -1q2 -1 5 -1q3 -3 8 -4q6 -3 8 -3q6 0 8 5l5 2q0 2 -2.5 4t-4.5 4q0 1 -3 4l-5 5q-3 0 -5.5 2.5t-6.5 4.5h-6l-5 1q-6 0 -10 -0.5t-8 -0.5l-13 -9q-5 -6 -7 -8.5t-6 -6.5q-1 -4 -3 -7t-2 -9q0 -4 2 -7.5t3 -10.5l10 -11q5 -2 7.5 -5t6.5 -3q4 -2 7.5 -4t6.5 -2
q4 -2 7 -2t6 -2q6 0 10 -4l4 -3q2 -2 2 -6q2 -2 2 -6v-9q0 -3 -2 -5q0 -6 -6 -7q-6 -5 -7 -6t-3 -1q-7 0 -8 -1t-5 -1q-3 0 -6.5 1t-5.5 1q-2 1 -4 3l-4 4l-2 1q-5 4 -10 4h-7q-2 0 -4 -2l-6 -2q2 -1 2 -2t2 -1q0 -3 1 -4l3 -3v-2q6 -6 9 -6q7 -7 14.5 -9t17.5 -2h12
q3 0 11 2q3 2 6.5 4t7.5 5l5 8q3 3 4 9zM78 350q-6 6 -7 17l-3 10q-1 3 -1 10t4 16l2 10t5 10l4 6l5 7q2 2 6.5 4.5t6.5 4.5q6 7 11 8t9 3q3 0 8 1.5t10 1.5q7 0 14.5 -1.5t13.5 -5.5q8 -2 12.5 -6.5t8.5 -9.5q-2 -2 -4 -2v-4h-13q-4 2 -7 5t-7 3h-36l-22 -12
q-4 -3 -7.5 -7.5t-4.5 -10.5q-2 -7 -3 -13t-1 -8q0 -9 4 -13q0 -5 0.5 -10t0.5 -8l5 -4q4 -1 6 -7l7 -4q3 -1 8 -1q3 -4 5.5 -5t6.5 -3h33q2 2 7 3t9 5v29h-14v2q-2 0 -3 1.5t-3 3.5h-2q-1 1 -1 3v4h36v-51q-2 -5 -3.5 -6t-5.5 -8h-12q-8 -2 -12 -2h-34q-4 0 -9 3.5t-11 7.5
q-2 0 -6.5 2.5t-6.5 6.5q-3 4 -5 6.5t-4 7.5zM240 438v-44h56v-15h-56v-47h67v-16h-84v140h84v-18h-67zM1171 438v-44h60v-15h-60v-47h68v-16h-84v140h84v-18h-68zM2375 759h-20q-3 0 -8 -5q-6 -5 -6 -10l-37 -47h-2q0 -2 -2 -2v2l-39 47q-1 7 -4 10q-5 5 -11 5h-18l58 -77
v-2q0 -2 2 -2l2 -2v-72h21v70q2 0 2 2l2 4v2zM641 456v-85q0 -7 2 -10t5 -5q0 -6 3.5 -9.5t5.5 -4.5q0 -2 4.5 -4t6.5 -4q6 -2 8 -2h16q1 0 5 2l9 4q2 1 3.5 2t3.5 2q3 1 8 14q4 3 4 15v85h14v-85q0 -12 -4 -23t-12 -16q-2 -5 -6.5 -9.5t-8.5 -4.5q-8 -1 -13.5 -1.5
t-10.5 -0.5t-11 0.5t-14 1.5q-2 0 -6.5 4.5l-9.5 9.5l-10 16q-1 6 -3.5 11t-2.5 12v85h14zM2253 625h-69v134h-21v-155h90v21zM1271 625h-67v134h-20v-155h87v21zM1452 336q1 2 2 3.5t2 3.5q2 2 3 6.5t1 6.5q0 9 -2 11t-3 4.5t-3 4.5q-1 1 -8 3q-4 0 -6 2t-6 2q-8 0 -14 6
q-9 0 -13 7q-2 0 -3.5 3.5t-3.5 7.5v22q0 1 2 7q0 8 7 9l6 7q2 1 3.5 2t3.5 2q5 0 7.5 1.5t8.5 1.5l6 -2l4 -1q4 0 5 -1t5 -3q2 0 4 -3.5t2 -5.5q4 0 6 -3l1 -2l-2 -2q-6 -2 -9 -2h-6q-2 2 -2 4h-23q-9 0 -9 -2q-5 -7 -5 -8q-4 0 -4 -8q0 -5 4 -6q0 -5 3 -6q0 -1 3 -4l4 -1
q4 -4 7.5 -4t7.5 -3q3 0 4 -1l2 -1q4 0 8 -5h4q2 0 4 -2h2q5 -4 8.5 -7t5.5 -4q1 -5 1.5 -10.5t0.5 -9.5v-10q0 -5 -4 -6q-3 -4 -5.5 -7.5t-6.5 -5.5q-2 -2 -6 -5.5t-6 -3.5q-6 -2 -10 -2h-9q-11 0 -18.5 1t-12.5 10q-2 0 -3.5 2.5t-5.5 4.5v4l-2 2l4 2h7q1 0 3 -1t4 -1
q4 -4 6.5 -5t4.5 -3h22q8 0 12 4zM1069 316l-59 140h6q6 0 8 -2t3 -2t3 -7l43 -103v-2l2 -6v6l2 2q5 14 13 27.5t12 24.5q4 16 10 28t12 23q0 7 1.5 7t1.5 2q6 2 7 2h11q-8 -18 -15.5 -35t-16.5 -34q-4 -9 -7 -18.5t-6 -18.5l-16 -34h-15zM532 438v-49h60v-12h-60v-61h-16
v140h85v-18h-69zM1959 438v-49h54v-12h-54v-61h-16v140h81v-18h-65zM879 456v-124h63v-16h-80v140h17zM371 316v122h-46v18h105v-18h-47v-122h-12zM784 456v-124h64v-16h-80v140h16zM270 728q2 -1 3 -4t3 -5q4 -4 4 -9v-4q0 -5 -4 -9q-2 -2 -3 -4.5t-3 -2.5l-4 -4l-4 -4h-46
v53h36q4 0 10 -2q1 0 4 -3zM1325 389q4 0 6 3q4 4 9 4l2 5q0 2 5 6q0 1 1 4t1 7q0 2 -1 3.5t-1 4.5q-7 3 -7 8q-5 0 -9 4h-44v-49h38zM2101 392q4 4 7 4q7 7 7 11q2 4 2 11q0 4 -2 8q0 2 -7 8q-3 0 -7 4h-44v-49h36q3 0 8 3zM1525 456v-140h-18v140h18zM518 701l-4 -7
q-2 0 -3 -2t-3 -2q-2 -2 -10 -2h-33v47h33q4 0 10 -2q2 0 6 -5q1 -2 2 -3.5t2 -3.5q3 -2 3 -9q0 -5 -3 -11zM684 129l-27 69q0 2 -1 3l-1 2q0 4 -3 6v-6l-1 -2q-1 -1 -1 -3l-27 -69h61zM1093 727v-4l27 -64h-59l30 64v5zM1755 82q6 0 6 -6q2 -2 2 -5v-4q0 -9 -2 -11
q0 -5 -6 -9q-3 0 -6 -4h-17q-4 4 -11 4q0 2 -5 9q-2 2 -2 11v4q0 3 2 5l3 4l2 2q7 4 11 4q1 3 4 3h10q3 0 3 -3q3 0 6 -4z" />
    <glyph glyph-name="two" unicode="2" 
d="M2478 1093v-587h-2404v587h910q0 30 5.5 58t20.5 53q12 29 26 52.5t37 41.5q39 42 91 62q28 12 55.5 17t56.5 5q33 0 61.5 -6.5t53.5 -15.5q27 -14 50.5 -29.5t45.5 -36.5q35 -38 60 -94q11 -27 15.5 -54t4.5 -53h911zM1030 1194q-20 -49 -20 -101q0 -58 20 -106
q10 -22 24.5 -43.5t29.5 -42.5q20 -17 41.5 -32t45.5 -25q46 -23 105 -23q31 0 56.5 4.5t47.5 16.5q48 19 83 57q22 20 35.5 41t26.5 43q20 54 20 110q0 20 -3.5 43.5t-11.5 47.5q-14 40 -43 72q-14 20 -29.5 33.5t-34.5 25.5l-76 36q-16 3 -33 6t-38 3q-29 0 -55.5 -5.5
t-51.5 -19.5q-50 -19 -85 -57q-17 -19 -30.5 -39.5t-23.5 -44.5zM1142 936l314 317q62 -80 62 -160q0 -24 -3.5 -45.5t-11.5 -41.5q-8 -19 -17.5 -37t-23.5 -33h-320zM1095 928q-14 17 -25 36.5t-19 39.5q-9 18 -12.5 40.5t-3.5 48.5q0 18 3.5 39t12.5 43q7 35 40 68h318z
M1135 207q2 -4 4.5 -11t5.5 -14q2 -10 2 -14v-32q0 -5 -2 -11l-6 -15l-4 -14q-6 -4 -10.5 -10t-8.5 -10q-6 -5 -11 -10.5t-10 -9.5q-9 -5 -15.5 -7t-12.5 -4q-10 -2 -15 -2h-17q-9 0 -19 2t-23 4q-12 6 -18.5 13t-17.5 14q-15 14 -21 35q-4 10 -6 19.5t-2 23.5v14q0 4 2 14
q4 17 12 25q4 8 7.5 13t7.5 11q9 5 13.5 9.5t10.5 9.5l12 4l17 6q5 0 11.5 1t13.5 1q10 0 17 -1t15 -1q6 -4 12.5 -6t15.5 -4q5 -5 10 -9.5t11 -9.5q4 -6 8.5 -11t10.5 -13zM2195 207q4 -4 6.5 -11t4.5 -14q4 -7 4 -14v-32q0 -7 -4 -11q-2 -7 -4.5 -15t-6.5 -14l-16 -20
l-12 -10l-14 -10q-5 -5 -12 -7t-13 -4q-8 -2 -14 -2h-17q-19 0 -43 6q-8 6 -16 13t-17 14q-8 6 -14 14t-8 21q-6 10 -7.5 19.5t-1.5 23.5q0 8 1 14t1 14l6 14t7 11q2 8 6 13t10 11q3 5 10.5 9.5t12.5 9.5q4 2 11 4t13 6q11 0 17 1t12 1q9 0 17 -1t14 -1q6 -4 13 -6t12 -4
l26 -19q2 -6 8 -11t8 -13zM2433 260l1 1q1 1 6 1h38v-219h-38v160l-5 -9v-8q0 -2 -2 -4q-6 -16 -13 -34.5t-16 -31.5q-6 -20 -12 -36.5t-14 -36.5h-37l-55 139q-6 3 -6 12q0 4 -1 4l-2 2v-157h-42v219h40q5 0 6.5 -1t4.5 -1q2 -2 3 -2t4 -2l7 -4q0 -2 2 -3.5t2 -3.5
q4 -18 11 -32.5t16 -34.5l12 -33q3 -8 6 -15l6 -14v-14q3 0 4 -4q0 4 1 4v14l11 13l44 116q0 1 2 3l2 4q0 1 3 3l3 1q2 2 4 2t4 2zM1329 262h38v-219h-36l-100 146l-4 5v2q-3 4 -3 5q-4 1 -4 4q0 4 -7 4v-166h-37v219h33q4 0 9.5 -1t5.5 -3q3 -2 5 -2t4 -2l22 -33
q6 -8 11 -16.5t10 -19.5q13 -13 24 -29t25 -29q0 -2 1 -4.5t1 -6.5l1 -3q0 -2 1 -3v152zM672 262l94 -219h-25q-9 0 -16 4q-2 2 -4 6.5t-6 8.5l-14 27h-100l-9 -27q0 -6 -4 -6q-2 -5 -4 -5l-3 -4q-2 0 -4.5 -1t-6.5 -1q0 -2 -2 -2h-27l96 219h35zM260 262h139v-39h-100v-49
h82v-41h-82v-51h100v-39h-139v219zM839 659q1 7 2 11t1 10q0 12 -3 21q0 7 -4.5 10.5t-6.5 9.5q-2 3 -4.5 6.5t-6.5 7.5l-7 6q-2 3 -9 9q-4 2 -8 4.5t-11 4.5q-5 0 -9.5 0.5t-10.5 0.5q-3 0 -8.5 -0.5t-12.5 -0.5q-6 -2 -10 -4.5t-8 -4.5q-4 -6 -7.5 -8.5t-7.5 -6.5
q-13 -7 -14 -14q-4 -6 -5 -9.5l-3 -10.5q-1 -5 -1.5 -10t-0.5 -11t2 -14.5t4 -15.5t6.5 -12.5t11.5 -12.5q10 -15 25 -15q10 -6 29 -6h20q15 5 19 8q11 4 16 13q3 4 6 7.5t5 8.5q2 4 6.5 9t4.5 9zM1966 659v42l-7 20q-5 7 -15 14q-1 4 -6 6.5t-10 8.5l-4 2t-5 2l-7 5
q-7 0 -12 0.5t-10 0.5q-6 0 -11 -0.5t-9 -0.5l-22 -9q-3 -6 -6 -8.5t-7 -6.5q-3 -4 -6.5 -7t-5.5 -7q-2 -6 -4.5 -9.5t-2.5 -10.5q-6 -9 -6 -21q0 -6 3 -14.5t6 -15.5q4 -15 16 -25q7 -15 26 -15q10 -6 29 -6h22q3 2 8 4t8 4l10 6t6 7q11 8 15 16zM74 262h158v-24
q0 -4 -1 -6q0 -3 -2 -5l-4 -4l-105 -143h1l2 2h108v-39h-164v13q0 11 2 13q0 2 5 7v4l2 4q2 2 4 3.5t2 6.5l94 129h-102v39zM1839 203q-4 -4 -7 -10.5t-7 -14.5q-2 -4 -4 -10t-2 -14q0 -7 2 -15l4 -12q2 -7 6 -14.5t8 -10.5q4 -4 9.5 -8.5t14.5 -7.5q12 -4 27 -4q5 0 10 1
t12 1q3 2 8 5t8 7q3 0 9 2h13q3 0 9 -2q2 -1 3.5 -3t3.5 -4l6 -7q-3 -4 -6 -7.5t-7 -7.5q-7 -5 -11.5 -8t-12.5 -6q-7 -4 -11.5 -5t-10.5 -3t-11 -2h-12q-12 0 -23.5 2t-21.5 4q-10 5 -18.5 12t-16.5 15q-16 13 -22 35q-4 10 -7 19.5t-3 23.5q0 10 1 14l4 14q1 7 3 14t6 11
q6 8 8.5 13t9.5 11q14 9 25 19q4 2 9.5 4t18.5 6q5 0 12 1t15 1h13q4 0 10 -2t10.5 -3t11.5 -3q8 -4 12.5 -6.5t11.5 -7.5l13 -17l-6 -8q-2 -1 -5 -4l-2 -4h-15q-7 0 -16 4l-16 10q-10 2 -12 2h-10q-17 0 -27 -7q-17 -1 -24 -13zM1690 151l7 -10.5t3 -7.5q6 -8 6 -20
q0 -15 -8 -29l-8 -12l-9 -10q-7 -6 -11.5 -9.5t-12.5 -5.5q-5 -2 -14 -3t-15 -1q-8 0 -14.5 1l-19.5 3q-5 2 -10 6.5t-11 13.5q-4 1 -6 5l-4 8q-7 2 -7 9l7 5q2 2 4 2h4l2 2h10q4 0 4 -2q7 0 9 -2q7 -5 10.5 -6.5t5.5 -3.5q2 0 6 -1t10 -1h5q2 0 6 2q5 1 8 2t7 3q6 6 7 9
q2 4 4 7.5t2 7.5q0 7 -6 10q-5 6 -7 6q-2 4 -7.5 5t-7.5 2q-6 0 -14 7q-5 0 -9 1t-9 7q-11 3 -14.5 6t-7.5 7q-12 4 -12 14q-6 10 -6 25q0 18 6 26l6 11l8 10q4 2 10 4t13 6q6 0 10.5 1t13.5 1q4 0 8.5 -1t11.5 -1l15 -6q3 -4 6.5 -6.5t7.5 -7.5q4 -2 7.5 -5.5t3.5 -7.5
l-7 -4q-4 -2 -7 -4.5t-3 -3.5h-18l-5 1l-7 5q-2 0 -4 1t-4 1h-17q-2 0 -3 -1t-5 -3q-2 -3 -6 -6q-1 -3 -1 -10q0 -5 1 -5q2 -2 3 -5.5t3 -7.5h6q1 0 5 -2q5 -1 9.5 -3t10.5 -4l9 -2q5 -4 9 -5t9 -5q5 -2 10 -5t8 -8zM1579 336q-12 7 -16 20q-7 17 -7 31v16l11 20l12 13
q6 7 12 9q3 7 9.5 8t9.5 3q4 0 8 1.5t10 1.5q4 0 10.5 -1.5t10.5 -1.5q5 -2 8.5 -3t7.5 -8q2 -2 5.5 -4.5t6.5 -4.5l13 -13l8 -20q0 -4 1 -9t1 -7q0 -6 -1 -14t-5 -17q-5 -13 -17 -20q-5 -4 -9.5 -7.5t-11.5 -10.5q-5 -1 -12 -1.5t-16 -0.5h-15q-4 0 -10 2q-18 7 -24 18z
M2284 336q-7 -4 -13.5 -7.5t-11.5 -10.5q-8 -2 -12 -2h-30q-5 0 -13 2q-7 4 -12.5 8.5t-10.5 9.5q-6 6 -13 20q-2 9 -4.5 17t-2.5 14q0 2 1 7t1 9q3 5 4 10t4 10q2 3 5 6t5 7q6 4 18 9q3 7 8 8t7 3q6 0 9 1.5t10 1.5q2 0 8.5 -1.5t11.5 -1.5q4 -2 7.5 -3t6.5 -8l17 -9
q2 -4 4 -7t5 -6q2 -5 4 -9.5t3 -10.5q2 -4 3 -9t1 -7q0 -6 -1 -14t-5 -17q0 -6 -5 -11zM2166 127q5 12 5 27q0 16 -5 24q-3 9 -8 15.5t-8 9.5q-10 10 -24 13q-4 5 -12 6t-17 1q-12 0 -25 -7q-8 -1 -13 -4t-11 -9q-4 -3 -7.5 -9.5t-8.5 -15.5q0 -4 -1 -10t-1 -14q0 -9 1 -15
t1 -12q4 -8 8 -14t8 -11q6 -4 11 -8.5t13 -7.5q7 -2 14 -3t11 -1q9 0 17 1t12 3q8 3 14 7.5t10 8.5q11 11 16 25zM1104 127q4 11 4 27q0 13 -4 24q-2 9 -6.5 15.5t-13.5 9.5q-2 6 -7.5 9t-11.5 4q-11 7 -30 7q-14 0 -25 -7q-11 -1 -23 -13q-6 -3 -9 -9.5t-5 -15.5
q-5 -5 -5 -10v-29q0 -5 5 -12q2 -7 5 -14.5t9 -10.5q6 -4 11 -8.5t12 -7.5q11 -4 25 -4q19 0 30 4q13 7 19 16q9 3 13.5 10.5t6.5 14.5zM774 262h139v-39h-100v-55h82v-39h-82v-86h-39v219zM570 223h-58v-180h-43v180h-62v39h163v-39zM1188 864q-19 7 -37 19t-35 26h322
q-18 -14 -36 -26t-36 -19q-24 -6 -45.5 -11t-44.5 -5q-25 0 -45.5 5t-42.5 11zM1389 262h165v-39h-65v-180h-39v180h-61v39zM1366 1315q18 -8 36 -20.5t36 -22.5h-325q38 30 75 43q37 18 88 18q48 0 90 -18zM559 604l-47 68q4 0 11 4q8 5 9 10q9 5 9 11v26q0 1 -2 5
q-3 10 -11 15q-5 9 -14 9q-2 5 -6.5 6t-9.5 1h-57v-155h24v64h23l40 -56q1 -4 8 -6q2 -2 3 -2h20zM1169 604l-67 155h-22l-65 -155h11q7 0 9 2q0 2 7 6l11 27h76l13 -27q1 -4 5 -6q2 -2 8 -2h14zM1930 721q3 -2 8 -7.5t6 -12.5q4 -7 4 -21q0 -12 -4 -23q-1 -5 -6 -9.5
t-8 -6.5q-5 -4 -9 -6.5t-8 -7.5q-9 -4 -23 -4q-6 0 -12 1t-10 3q-5 5 -10.5 7.5t-9.5 6.5q-3 2 -6 6.5t-3 9.5q-4 7 -5 12t-1 11q0 10 6 21q0 7 3 12.5t6 7.5q4 4 9.5 7t10.5 5q9 4 22 4q5 0 11.5 -1t11.5 -3zM801 721q7 -2 9.5 -7.5t4.5 -12.5q4 -7 4 -21q0 -11 -4 -23
q-2 -5 -4.5 -9.5t-9.5 -6.5q-1 -4 -6 -7l-11 -7q-9 -4 -22 -4q-11 0 -23 4q-4 5 -9 7.5t-9 6.5q-2 2 -5.5 6.5t-5.5 9.5q-4 12 -4 23q0 12 4 21q2 7 5.5 12.5t5.5 7.5q4 4 9 7t9 5q5 2 12.5 3t10.5 1q13 0 22 -4q8 -2 11.5 -5t5.5 -7zM2126 759h-22v-120q-1 2 -2 5t-3 4
l-75 104l-3 7h-24v-155h22v121l2 -2l87 -119h18v155zM2218 332h31l6 3q3 3 4 5q6 0 14 5q2 5 3 7t4 4q0 3 3 8t3 10v34q-3 6 -7 10.5t-6 7.5q-10 4 -18 12h-43q-6 -4 -9.5 -7t-9.5 -5q-5 -3 -7.5 -7.5t-4.5 -10.5q-1 -4 -1.5 -7t-0.5 -7v-20q0 -13 5 -18q2 -2 4.5 -4t4.5 -7
l7 -3q2 -2 4 -2q4 -4 7 -5t7 -3zM296 690q5 12 5 20q0 9 -5 18q0 2 -5 7l-6 6q-2 3 -5 7t-10 4q-3 5 -8.5 6t-9.5 1h-52v-155h16v59h36q4 0 9.5 0.5t8.5 2.5q10 4 15 10q4 2 7.5 6t3.5 8zM1579 408q-6 -14 -6 -21v-8q0 -4 3 -5q0 -10 5 -18q0 -2 2 -4t4 -7l5 -3q2 -2 11 -2
q2 -4 5.5 -5t5.5 -3h27q6 2 9.5 3t6.5 5l6 2l4 3q2 5 4.5 7t2.5 4q3 3 4 8t3 10q0 2 1 5.5t1 7.5q0 2 -1 8t-5 13q0 6 -4 10.5t-6 7.5q-3 1 -8 6l-10 6h-42q-4 -4 -10 -7l-10 -5l-5 -8q-3 -5 -3 -10zM997 759h-18v-120l-2 4q-2 6 -2 5l-74 104q-5 0 -6 7h-25v-155h21v124h2
l2 -1v-4l86 -119h16v155zM2115 381q-5 -1 -8.5 -2t-5.5 -2l45 -61h-12l-6 2q-4 0 -4 9l-39 50h-28v-61h-15v140h57q3 0 9 -2q2 -2 6.5 -5.5t5.5 -5.5q4 -2 5 -5.5t7 -7.5v-27q-4 -4 -5 -8t-3 -6zM1342 381q-3 -3 -11 -4l47 -61h-15q-3 0 -3 2q-6 0 -6 9l-39 50h-28v-61h-13
v140h56q2 0 6 -2q10 -1 18 -11q0 -2 3 -5.5t3 -7.5q2 -2 2 -6v-14q0 -1 -2 -7q0 -10 -4 -14l-5 -4q-3 -3 -9 -4zM412 759h-98v-155h98v21h-74v47h58v18h-58v45h74v24zM1721 759h-93v-155h93v21h-69v47h58v18h-58v45h69v24zM2460 454q6 2 5 2h13v-140h-12v114l-2 -2v-2
q-4 -8 -6.5 -17.5t-8.5 -14.5q-5 -7 -7 -12.5t-7 -14.5q-2 -9 -3 -15.5t-5 -9.5q-3 -8 -6.5 -12.5t-5.5 -13.5h-15q-10 14 -15 27t-10 28q-4 12 -12 26.5t-12 28.5v2h-4v-112h-14v140h14q4 0 6 -2l2 -2v-7l49 -105q0 -4 2 -4l1 2v4q0 2 8 6l41 97q2 7 3 7t1 2zM1480 759h-22
v-104q0 -4 -2 -8q-1 -7 -10 -12q0 -2 -4 -3.5t-6 -6.5l-9 -2h-9q-7 0 -13 2q-5 5 -8.5 6.5t-5.5 3.5l-11 12q0 3 -1 7.5t-1 11.5v93h-20v-93q0 -7 1 -11.5t1 -7.5q0 -8 6 -14q3 -8 10 -12q2 -4 4.5 -6.5t8.5 -4.5q2 -2 6.5 -3t7.5 -3q4 0 7 -1.5t8 -1.5t8.5 1.5t11.5 1.5
q2 2 5 3t7 3q3 2 6 4.5t6 6.5q3 2 5 5.5t7 6.5q0 4 3 7t3 7v112zM664 632q2 5 3 8t1 8q0 12 -5.5 20t-12.5 14q-2 0 -3.5 2t-5.5 4l-4 2h-4q-1 0 -1 4q-8 0 -9 1q-8 2 -9.5 3t-5.5 3q-6 5 -9 5q-3 4 -3 6v15q0 1 1.5 2.5t1.5 3.5q2 0 4.5 1t4.5 1q6 2 5 2h10q2 -2 4 -2
q7 0 8 -4q1 -3 4 -3h2q9 0 14 5l4 2q0 2 -2 4l-5 4q-2 1 -4.5 4t-6.5 5q-2 0 -4 2.5t-5 4.5q-5 0 -7 0.5t-4 0.5q-7 0 -12 -0.5t-8 -0.5q-5 -2 -7 -4.5t-6 -4.5q-2 -6 -5.5 -8.5t-8.5 -6.5q0 -4 -2 -7t-2 -9t4 -18l12 -11q2 -2 6 -5t7 -3q5 -2 8 -4t7 -2q1 -2 6 -2t7 -2
l6 -2q2 0 4 -2t2 -3t2 -6q2 -2 2 -7v-9q0 -2 -2 -4t-2 -4t-2 -3q-2 -5 -6 -6l-4 -1q-4 0 -8 -1t-5 -1q-4 0 -7 1t-6 1q-2 0 -3.5 1t-1.5 6l-4 1q-4 4 -11 4h-7l-4 -2l-5 -2q0 -3 3 -3q0 -3 2 -5q0 -4 4 -4v-6h5q7 -7 16 -9t19 -2h10q5 0 11 2q4 2 8.5 4t6.5 5q13 5 14 17z
M1741 316h-18v140h20q3 0 4 -4l74 -104q2 0 2 -5l2 -1v114h14v-140h-12l-82 114v4h-4v-118zM1596 632q9 7 9 16q0 12 -5.5 20t-12.5 14q-6 4 -6 6h-4l-4 2h-3q-4 0 -5 4h-4q-2 0 -5 1q-2 2 -4 3t-7 3l-7 5q-2 1 -3 2l-2 2l-1 2q0 1 -1 3t-1 4q0 4 4 8q0 2 4 6q2 0 3 1t4 1
q2 2 11 2l4 -1q2 -1 5 -1q3 -3 8 -4q6 -3 8 -3q6 0 8 5l5 2q0 2 -2.5 4t-4.5 4q0 1 -3 4l-5 5q-3 0 -5.5 2.5t-6.5 4.5h-6l-5 1q-6 0 -10 -0.5t-8 -0.5l-13 -9q-5 -6 -7 -8.5t-6 -6.5q-1 -4 -3 -7t-2 -9q0 -4 2 -7.5t3 -10.5l10 -11q5 -2 7.5 -5t6.5 -3q4 -2 7.5 -4t6.5 -2
q4 -2 7 -2t6 -2q6 0 10 -4l4 -3q2 -2 2 -6q2 -2 2 -6v-9q0 -3 -2 -5q0 -6 -6 -7q-6 -5 -7 -6t-3 -1q-7 0 -8 -1t-5 -1q-3 0 -6.5 1t-5.5 1q-2 1 -4 3l-4 4l-2 1q-5 4 -10 4h-7q-2 0 -4 -2l-6 -2q2 -1 2 -2t2 -1q0 -3 1 -4l3 -3v-2q6 -6 9 -6q7 -7 14.5 -9t17.5 -2h12
q3 0 11 2q3 2 6.5 4t7.5 5l5 8q3 3 4 9zM78 350q-6 6 -7 17l-3 10q-1 3 -1 10t4 16l2 10t5 10l4 6l5 7q2 2 6.5 4.5t6.5 4.5q6 7 11 8t9 3q3 0 8 1.5t10 1.5q7 0 14.5 -1.5t13.5 -5.5q8 -2 12.5 -6.5t8.5 -9.5q-2 -2 -4 -2v-4h-13q-4 2 -7 5t-7 3h-36l-22 -12
q-4 -3 -7.5 -7.5t-4.5 -10.5q-2 -7 -3 -13t-1 -8q0 -9 4 -13q0 -5 0.5 -10t0.5 -8l5 -4q4 -1 6 -7l7 -4q3 -1 8 -1q3 -4 5.5 -5t6.5 -3h33q2 2 7 3t9 5v29h-14v2q-2 0 -3 1.5t-3 3.5h-2q-1 1 -1 3v4h36v-51q-2 -5 -3.5 -6t-5.5 -8h-12q-8 -2 -12 -2h-34q-4 0 -9 3.5t-11 7.5
q-2 0 -6.5 2.5t-6.5 6.5q-3 4 -5 6.5t-4 7.5zM240 438v-44h56v-15h-56v-47h67v-16h-84v140h84v-18h-67zM1171 438v-44h60v-15h-60v-47h68v-16h-84v140h84v-18h-68zM2375 759h-20q-3 0 -8 -5q-6 -5 -6 -10l-37 -47h-2q0 -2 -2 -2v2l-39 47q-1 7 -4 10q-5 5 -11 5h-18l58 -77
v-2q0 -2 2 -2l2 -2v-72h21v70q2 0 2 2l2 4v2zM641 456v-85q0 -7 2 -10t5 -5q0 -6 3.5 -9.5t5.5 -4.5q0 -2 4.5 -4t6.5 -4q6 -2 8 -2h16q1 0 5 2l9 4q2 1 3.5 2t3.5 2q3 1 8 14q4 3 4 15v85h14v-85q0 -12 -4 -23t-12 -16q-2 -5 -6.5 -9.5t-8.5 -4.5q-8 -1 -13.5 -1.5
t-10.5 -0.5t-11 0.5t-14 1.5q-2 0 -6.5 4.5l-9.5 9.5l-10 16q-1 6 -3.5 11t-2.5 12v85h14zM2253 625h-69v134h-21v-155h90v21zM1271 625h-67v134h-20v-155h87v21zM1452 336q1 2 2 3.5t2 3.5q2 2 3 6.5t1 6.5q0 9 -2 11t-3 4.5t-3 4.5q-1 1 -8 3q-4 0 -6 2t-6 2q-8 0 -14 6
q-9 0 -13 7q-2 0 -3.5 3.5t-3.5 7.5v22q0 1 2 7q0 8 7 9l6 7q2 1 3.5 2t3.5 2q5 0 7.5 1.5t8.5 1.5l6 -2l4 -1q4 0 5 -1t5 -3q2 0 4 -3.5t2 -5.5q4 0 6 -3l1 -2l-2 -2q-6 -2 -9 -2h-6q-2 2 -2 4h-23q-9 0 -9 -2q-5 -7 -5 -8q-4 0 -4 -8q0 -5 4 -6q0 -5 3 -6q0 -1 3 -4l4 -1
q4 -4 7.5 -4t7.5 -3q3 0 4 -1l2 -1q4 0 8 -5h4q2 0 4 -2h2q5 -4 8.5 -7t5.5 -4q1 -5 1.5 -10.5t0.5 -9.5v-10q0 -5 -4 -6q-3 -4 -5.5 -7.5t-6.5 -5.5q-2 -2 -6 -5.5t-6 -3.5q-6 -2 -10 -2h-9q-11 0 -18.5 1t-12.5 10q-2 0 -3.5 2.5t-5.5 4.5v4l-2 2l4 2h7q1 0 3 -1t4 -1
q4 -4 6.5 -5t4.5 -3h22q8 0 12 4zM1069 316l-59 140h6q6 0 8 -2t3 -2t3 -7l43 -103v-2l2 -6v6l2 2q5 14 13 27.5t12 24.5q4 16 10 28t12 23q0 7 1.5 7t1.5 2q6 2 7 2h11q-8 -18 -15.5 -35t-16.5 -34q-4 -9 -7 -18.5t-6 -18.5l-16 -34h-15zM532 438v-49h60v-12h-60v-61h-16
v140h85v-18h-69zM1959 438v-49h54v-12h-54v-61h-16v140h81v-18h-65zM879 456v-124h63v-16h-80v140h17zM371 316v122h-46v18h105v-18h-47v-122h-12zM784 456v-124h64v-16h-80v140h16zM270 728q2 -1 3 -4t3 -5q4 -4 4 -9v-4q0 -5 -4 -9q-2 -2 -3 -4.5t-3 -2.5l-4 -4l-4 -4h-46
v53h36q4 0 10 -2q1 0 4 -3zM1325 389q4 0 6 3q4 4 9 4l2 5q0 2 5 6q0 1 1 4t1 7q0 2 -1 3.5t-1 4.5q-7 3 -7 8q-5 0 -9 4h-44v-49h38zM2101 392q4 4 7 4q7 7 7 11q2 4 2 11q0 4 -2 8q0 2 -7 8q-3 0 -7 4h-44v-49h36q3 0 8 3zM1525 456v-140h-18v140h18zM518 701l-4 -7
q-2 0 -3 -2t-3 -2q-2 -2 -10 -2h-33v47h33q4 0 10 -2q2 0 6 -5q1 -2 2 -3.5t2 -3.5q3 -2 3 -9q0 -5 -3 -11zM684 129l-27 69q0 2 -1 3l-1 2q0 4 -3 6v-6l-1 -2q-1 -1 -1 -3l-27 -69h61zM1093 727v-4l27 -64h-59l30 64v5zM1755 82q6 0 6 -6q2 -2 2 -5v-4q0 -9 -2 -11
q0 -5 -6 -9q-3 0 -6 -4h-17q-4 4 -11 4q0 2 -5 9q-2 2 -2 11v4q0 3 2 5l3 4l2 2q7 4 11 4q1 3 4 3h10q3 0 3 -3q3 0 6 -4z" />
    <glyph glyph-name="three" unicode="3" 
d="M2478 1093v-587h-2404v587h910q0 30 5.5 58t20.5 53q12 29 26 52.5t37 41.5q39 42 91 62q28 12 55.5 17t56.5 5q33 0 61.5 -6.5t53.5 -15.5q27 -14 50.5 -29.5t45.5 -36.5q35 -38 60 -94q11 -27 15.5 -54t4.5 -53h911zM1030 1194q-20 -49 -20 -101q0 -58 20 -106
q10 -22 24.5 -43.5t29.5 -42.5q20 -17 41.5 -32t45.5 -25q46 -23 105 -23q31 0 56.5 4.5t47.5 16.5q48 19 83 57q22 20 35.5 41t26.5 43q20 54 20 110q0 20 -3.5 43.5t-11.5 47.5q-14 40 -43 72q-14 20 -29.5 33.5t-34.5 25.5l-76 36q-16 3 -33 6t-38 3q-29 0 -55.5 -5.5
t-51.5 -19.5q-50 -19 -85 -57q-17 -19 -30.5 -39.5t-23.5 -44.5zM1142 936l314 317q62 -80 62 -160q0 -24 -3.5 -45.5t-11.5 -41.5q-8 -19 -17.5 -37t-23.5 -33h-320zM1095 928q-14 17 -25 36.5t-19 39.5q-9 18 -12.5 40.5t-3.5 48.5q0 18 3.5 39t12.5 43q7 35 40 68h318z
M1135 207q2 -4 4.5 -11t5.5 -14q2 -10 2 -14v-32q0 -5 -2 -11l-6 -15l-4 -14q-6 -4 -10.5 -10t-8.5 -10q-6 -5 -11 -10.5t-10 -9.5q-9 -5 -15.5 -7t-12.5 -4q-10 -2 -15 -2h-17q-9 0 -19 2t-23 4q-12 6 -18.5 13t-17.5 14q-15 14 -21 35q-4 10 -6 19.5t-2 23.5v14q0 4 2 14
q4 17 12 25q4 8 7.5 13t7.5 11q9 5 13.5 9.5t10.5 9.5l12 4l17 6q5 0 11.5 1t13.5 1q10 0 17 -1t15 -1q6 -4 12.5 -6t15.5 -4q5 -5 10 -9.5t11 -9.5q4 -6 8.5 -11t10.5 -13zM2195 207q4 -4 6.5 -11t4.5 -14q4 -7 4 -14v-32q0 -7 -4 -11q-2 -7 -4.5 -15t-6.5 -14l-16 -20
l-12 -10l-14 -10q-5 -5 -12 -7t-13 -4q-8 -2 -14 -2h-17q-19 0 -43 6q-8 6 -16 13t-17 14q-8 6 -14 14t-8 21q-6 10 -7.5 19.5t-1.5 23.5q0 8 1 14t1 14l6 14t7 11q2 8 6 13t10 11q3 5 10.5 9.5t12.5 9.5q4 2 11 4t13 6q11 0 17 1t12 1q9 0 17 -1t14 -1q6 -4 13 -6t12 -4
l26 -19q2 -6 8 -11t8 -13zM2433 260l1 1q1 1 6 1h38v-219h-38v160l-5 -9v-8q0 -2 -2 -4q-6 -16 -13 -34.5t-16 -31.5q-6 -20 -12 -36.5t-14 -36.5h-37l-55 139q-6 3 -6 12q0 4 -1 4l-2 2v-157h-42v219h40q5 0 6.5 -1t4.5 -1q2 -2 3 -2t4 -2l7 -4q0 -2 2 -3.5t2 -3.5
q4 -18 11 -32.5t16 -34.5l12 -33q3 -8 6 -15l6 -14v-14q3 0 4 -4q0 4 1 4v14l11 13l44 116q0 1 2 3l2 4q0 1 3 3l3 1q2 2 4 2t4 2zM1329 262h38v-219h-36l-100 146l-4 5v2q-3 4 -3 5q-4 1 -4 4q0 4 -7 4v-166h-37v219h33q4 0 9.5 -1t5.5 -3q3 -2 5 -2t4 -2l22 -33
q6 -8 11 -16.5t10 -19.5q13 -13 24 -29t25 -29q0 -2 1 -4.5t1 -6.5l1 -3q0 -2 1 -3v152zM672 262l94 -219h-25q-9 0 -16 4q-2 2 -4 6.5t-6 8.5l-14 27h-100l-9 -27q0 -6 -4 -6q-2 -5 -4 -5l-3 -4q-2 0 -4.5 -1t-6.5 -1q0 -2 -2 -2h-27l96 219h35zM260 262h139v-39h-100v-49
h82v-41h-82v-51h100v-39h-139v219zM839 659q1 7 2 11t1 10q0 12 -3 21q0 7 -4.5 10.5t-6.5 9.5q-2 3 -4.5 6.5t-6.5 7.5l-7 6q-2 3 -9 9q-4 2 -8 4.5t-11 4.5q-5 0 -9.5 0.5t-10.5 0.5q-3 0 -8.5 -0.5t-12.5 -0.5q-6 -2 -10 -4.5t-8 -4.5q-4 -6 -7.5 -8.5t-7.5 -6.5
q-13 -7 -14 -14q-4 -6 -5 -9.5l-3 -10.5q-1 -5 -1.5 -10t-0.5 -11t2 -14.5t4 -15.5t6.5 -12.5t11.5 -12.5q10 -15 25 -15q10 -6 29 -6h20q15 5 19 8q11 4 16 13q3 4 6 7.5t5 8.5q2 4 6.5 9t4.5 9zM1966 659v42l-7 20q-5 7 -15 14q-1 4 -6 6.5t-10 8.5l-4 2t-5 2l-7 5
q-7 0 -12 0.5t-10 0.5q-6 0 -11 -0.5t-9 -0.5l-22 -9q-3 -6 -6 -8.5t-7 -6.5q-3 -4 -6.5 -7t-5.5 -7q-2 -6 -4.5 -9.5t-2.5 -10.5q-6 -9 -6 -21q0 -6 3 -14.5t6 -15.5q4 -15 16 -25q7 -15 26 -15q10 -6 29 -6h22q3 2 8 4t8 4l10 6t6 7q11 8 15 16zM74 262h158v-24
q0 -4 -1 -6q0 -3 -2 -5l-4 -4l-105 -143h1l2 2h108v-39h-164v13q0 11 2 13q0 2 5 7v4l2 4q2 2 4 3.5t2 6.5l94 129h-102v39zM1839 203q-4 -4 -7 -10.5t-7 -14.5q-2 -4 -4 -10t-2 -14q0 -7 2 -15l4 -12q2 -7 6 -14.5t8 -10.5q4 -4 9.5 -8.5t14.5 -7.5q12 -4 27 -4q5 0 10 1
t12 1q3 2 8 5t8 7q3 0 9 2h13q3 0 9 -2q2 -1 3.5 -3t3.5 -4l6 -7q-3 -4 -6 -7.5t-7 -7.5q-7 -5 -11.5 -8t-12.5 -6q-7 -4 -11.5 -5t-10.5 -3t-11 -2h-12q-12 0 -23.5 2t-21.5 4q-10 5 -18.5 12t-16.5 15q-16 13 -22 35q-4 10 -7 19.5t-3 23.5q0 10 1 14l4 14q1 7 3 14t6 11
q6 8 8.5 13t9.5 11q14 9 25 19q4 2 9.5 4t18.5 6q5 0 12 1t15 1h13q4 0 10 -2t10.5 -3t11.5 -3q8 -4 12.5 -6.5t11.5 -7.5l13 -17l-6 -8q-2 -1 -5 -4l-2 -4h-15q-7 0 -16 4l-16 10q-10 2 -12 2h-10q-17 0 -27 -7q-17 -1 -24 -13zM1690 151l7 -10.5t3 -7.5q6 -8 6 -20
q0 -15 -8 -29l-8 -12l-9 -10q-7 -6 -11.5 -9.5t-12.5 -5.5q-5 -2 -14 -3t-15 -1q-8 0 -14.5 1l-19.5 3q-5 2 -10 6.5t-11 13.5q-4 1 -6 5l-4 8q-7 2 -7 9l7 5q2 2 4 2h4l2 2h10q4 0 4 -2q7 0 9 -2q7 -5 10.5 -6.5t5.5 -3.5q2 0 6 -1t10 -1h5q2 0 6 2q5 1 8 2t7 3q6 6 7 9
q2 4 4 7.5t2 7.5q0 7 -6 10q-5 6 -7 6q-2 4 -7.5 5t-7.5 2q-6 0 -14 7q-5 0 -9 1t-9 7q-11 3 -14.5 6t-7.5 7q-12 4 -12 14q-6 10 -6 25q0 18 6 26l6 11l8 10q4 2 10 4t13 6q6 0 10.5 1t13.5 1q4 0 8.5 -1t11.5 -1l15 -6q3 -4 6.5 -6.5t7.5 -7.5q4 -2 7.5 -5.5t3.5 -7.5
l-7 -4q-4 -2 -7 -4.5t-3 -3.5h-18l-5 1l-7 5q-2 0 -4 1t-4 1h-17q-2 0 -3 -1t-5 -3q-2 -3 -6 -6q-1 -3 -1 -10q0 -5 1 -5q2 -2 3 -5.5t3 -7.5h6q1 0 5 -2q5 -1 9.5 -3t10.5 -4l9 -2q5 -4 9 -5t9 -5q5 -2 10 -5t8 -8zM1579 336q-12 7 -16 20q-7 17 -7 31v16l11 20l12 13
q6 7 12 9q3 7 9.5 8t9.5 3q4 0 8 1.5t10 1.5q4 0 10.5 -1.5t10.5 -1.5q5 -2 8.5 -3t7.5 -8q2 -2 5.5 -4.5t6.5 -4.5l13 -13l8 -20q0 -4 1 -9t1 -7q0 -6 -1 -14t-5 -17q-5 -13 -17 -20q-5 -4 -9.5 -7.5t-11.5 -10.5q-5 -1 -12 -1.5t-16 -0.5h-15q-4 0 -10 2q-18 7 -24 18z
M2284 336q-7 -4 -13.5 -7.5t-11.5 -10.5q-8 -2 -12 -2h-30q-5 0 -13 2q-7 4 -12.5 8.5t-10.5 9.5q-6 6 -13 20q-2 9 -4.5 17t-2.5 14q0 2 1 7t1 9q3 5 4 10t4 10q2 3 5 6t5 7q6 4 18 9q3 7 8 8t7 3q6 0 9 1.5t10 1.5q2 0 8.5 -1.5t11.5 -1.5q4 -2 7.5 -3t6.5 -8l17 -9
q2 -4 4 -7t5 -6q2 -5 4 -9.5t3 -10.5q2 -4 3 -9t1 -7q0 -6 -1 -14t-5 -17q0 -6 -5 -11zM2166 127q5 12 5 27q0 16 -5 24q-3 9 -8 15.5t-8 9.5q-10 10 -24 13q-4 5 -12 6t-17 1q-12 0 -25 -7q-8 -1 -13 -4t-11 -9q-4 -3 -7.5 -9.5t-8.5 -15.5q0 -4 -1 -10t-1 -14q0 -9 1 -15
t1 -12q4 -8 8 -14t8 -11q6 -4 11 -8.5t13 -7.5q7 -2 14 -3t11 -1q9 0 17 1t12 3q8 3 14 7.5t10 8.5q11 11 16 25zM1104 127q4 11 4 27q0 13 -4 24q-2 9 -6.5 15.5t-13.5 9.5q-2 6 -7.5 9t-11.5 4q-11 7 -30 7q-14 0 -25 -7q-11 -1 -23 -13q-6 -3 -9 -9.5t-5 -15.5
q-5 -5 -5 -10v-29q0 -5 5 -12q2 -7 5 -14.5t9 -10.5q6 -4 11 -8.5t12 -7.5q11 -4 25 -4q19 0 30 4q13 7 19 16q9 3 13.5 10.5t6.5 14.5zM774 262h139v-39h-100v-55h82v-39h-82v-86h-39v219zM570 223h-58v-180h-43v180h-62v39h163v-39zM1188 864q-19 7 -37 19t-35 26h322
q-18 -14 -36 -26t-36 -19q-24 -6 -45.5 -11t-44.5 -5q-25 0 -45.5 5t-42.5 11zM1389 262h165v-39h-65v-180h-39v180h-61v39zM1366 1315q18 -8 36 -20.5t36 -22.5h-325q38 30 75 43q37 18 88 18q48 0 90 -18zM559 604l-47 68q4 0 11 4q8 5 9 10q9 5 9 11v26q0 1 -2 5
q-3 10 -11 15q-5 9 -14 9q-2 5 -6.5 6t-9.5 1h-57v-155h24v64h23l40 -56q1 -4 8 -6q2 -2 3 -2h20zM1169 604l-67 155h-22l-65 -155h11q7 0 9 2q0 2 7 6l11 27h76l13 -27q1 -4 5 -6q2 -2 8 -2h14zM1930 721q3 -2 8 -7.5t6 -12.5q4 -7 4 -21q0 -12 -4 -23q-1 -5 -6 -9.5
t-8 -6.5q-5 -4 -9 -6.5t-8 -7.5q-9 -4 -23 -4q-6 0 -12 1t-10 3q-5 5 -10.5 7.5t-9.5 6.5q-3 2 -6 6.5t-3 9.5q-4 7 -5 12t-1 11q0 10 6 21q0 7 3 12.5t6 7.5q4 4 9.5 7t10.5 5q9 4 22 4q5 0 11.5 -1t11.5 -3zM801 721q7 -2 9.5 -7.5t4.5 -12.5q4 -7 4 -21q0 -11 -4 -23
q-2 -5 -4.5 -9.5t-9.5 -6.5q-1 -4 -6 -7l-11 -7q-9 -4 -22 -4q-11 0 -23 4q-4 5 -9 7.5t-9 6.5q-2 2 -5.5 6.5t-5.5 9.5q-4 12 -4 23q0 12 4 21q2 7 5.5 12.5t5.5 7.5q4 4 9 7t9 5q5 2 12.5 3t10.5 1q13 0 22 -4q8 -2 11.5 -5t5.5 -7zM2126 759h-22v-120q-1 2 -2 5t-3 4
l-75 104l-3 7h-24v-155h22v121l2 -2l87 -119h18v155zM2218 332h31l6 3q3 3 4 5q6 0 14 5q2 5 3 7t4 4q0 3 3 8t3 10v34q-3 6 -7 10.5t-6 7.5q-10 4 -18 12h-43q-6 -4 -9.5 -7t-9.5 -5q-5 -3 -7.5 -7.5t-4.5 -10.5q-1 -4 -1.5 -7t-0.5 -7v-20q0 -13 5 -18q2 -2 4.5 -4t4.5 -7
l7 -3q2 -2 4 -2q4 -4 7 -5t7 -3zM296 690q5 12 5 20q0 9 -5 18q0 2 -5 7l-6 6q-2 3 -5 7t-10 4q-3 5 -8.5 6t-9.5 1h-52v-155h16v59h36q4 0 9.5 0.5t8.5 2.5q10 4 15 10q4 2 7.5 6t3.5 8zM1579 408q-6 -14 -6 -21v-8q0 -4 3 -5q0 -10 5 -18q0 -2 2 -4t4 -7l5 -3q2 -2 11 -2
q2 -4 5.5 -5t5.5 -3h27q6 2 9.5 3t6.5 5l6 2l4 3q2 5 4.5 7t2.5 4q3 3 4 8t3 10q0 2 1 5.5t1 7.5q0 2 -1 8t-5 13q0 6 -4 10.5t-6 7.5q-3 1 -8 6l-10 6h-42q-4 -4 -10 -7l-10 -5l-5 -8q-3 -5 -3 -10zM997 759h-18v-120l-2 4q-2 6 -2 5l-74 104q-5 0 -6 7h-25v-155h21v124h2
l2 -1v-4l86 -119h16v155zM2115 381q-5 -1 -8.5 -2t-5.5 -2l45 -61h-12l-6 2q-4 0 -4 9l-39 50h-28v-61h-15v140h57q3 0 9 -2q2 -2 6.5 -5.5t5.5 -5.5q4 -2 5 -5.5t7 -7.5v-27q-4 -4 -5 -8t-3 -6zM1342 381q-3 -3 -11 -4l47 -61h-15q-3 0 -3 2q-6 0 -6 9l-39 50h-28v-61h-13
v140h56q2 0 6 -2q10 -1 18 -11q0 -2 3 -5.5t3 -7.5q2 -2 2 -6v-14q0 -1 -2 -7q0 -10 -4 -14l-5 -4q-3 -3 -9 -4zM412 759h-98v-155h98v21h-74v47h58v18h-58v45h74v24zM1721 759h-93v-155h93v21h-69v47h58v18h-58v45h69v24zM2460 454q6 2 5 2h13v-140h-12v114l-2 -2v-2
q-4 -8 -6.5 -17.5t-8.5 -14.5q-5 -7 -7 -12.5t-7 -14.5q-2 -9 -3 -15.5t-5 -9.5q-3 -8 -6.5 -12.5t-5.5 -13.5h-15q-10 14 -15 27t-10 28q-4 12 -12 26.5t-12 28.5v2h-4v-112h-14v140h14q4 0 6 -2l2 -2v-7l49 -105q0 -4 2 -4l1 2v4q0 2 8 6l41 97q2 7 3 7t1 2zM1480 759h-22
v-104q0 -4 -2 -8q-1 -7 -10 -12q0 -2 -4 -3.5t-6 -6.5l-9 -2h-9q-7 0 -13 2q-5 5 -8.5 6.5t-5.5 3.5l-11 12q0 3 -1 7.5t-1 11.5v93h-20v-93q0 -7 1 -11.5t1 -7.5q0 -8 6 -14q3 -8 10 -12q2 -4 4.5 -6.5t8.5 -4.5q2 -2 6.5 -3t7.5 -3q4 0 7 -1.5t8 -1.5t8.5 1.5t11.5 1.5
q2 2 5 3t7 3q3 2 6 4.5t6 6.5q3 2 5 5.5t7 6.5q0 4 3 7t3 7v112zM664 632q2 5 3 8t1 8q0 12 -5.5 20t-12.5 14q-2 0 -3.5 2t-5.5 4l-4 2h-4q-1 0 -1 4q-8 0 -9 1q-8 2 -9.5 3t-5.5 3q-6 5 -9 5q-3 4 -3 6v15q0 1 1.5 2.5t1.5 3.5q2 0 4.5 1t4.5 1q6 2 5 2h10q2 -2 4 -2
q7 0 8 -4q1 -3 4 -3h2q9 0 14 5l4 2q0 2 -2 4l-5 4q-2 1 -4.5 4t-6.5 5q-2 0 -4 2.5t-5 4.5q-5 0 -7 0.5t-4 0.5q-7 0 -12 -0.5t-8 -0.5q-5 -2 -7 -4.5t-6 -4.5q-2 -6 -5.5 -8.5t-8.5 -6.5q0 -4 -2 -7t-2 -9t4 -18l12 -11q2 -2 6 -5t7 -3q5 -2 8 -4t7 -2q1 -2 6 -2t7 -2
l6 -2q2 0 4 -2t2 -3t2 -6q2 -2 2 -7v-9q0 -2 -2 -4t-2 -4t-2 -3q-2 -5 -6 -6l-4 -1q-4 0 -8 -1t-5 -1q-4 0 -7 1t-6 1q-2 0 -3.5 1t-1.5 6l-4 1q-4 4 -11 4h-7l-4 -2l-5 -2q0 -3 3 -3q0 -3 2 -5q0 -4 4 -4v-6h5q7 -7 16 -9t19 -2h10q5 0 11 2q4 2 8.5 4t6.5 5q13 5 14 17z
M1741 316h-18v140h20q3 0 4 -4l74 -104q2 0 2 -5l2 -1v114h14v-140h-12l-82 114v4h-4v-118zM1596 632q9 7 9 16q0 12 -5.5 20t-12.5 14q-6 4 -6 6h-4l-4 2h-3q-4 0 -5 4h-4q-2 0 -5 1q-2 2 -4 3t-7 3l-7 5q-2 1 -3 2l-2 2l-1 2q0 1 -1 3t-1 4q0 4 4 8q0 2 4 6q2 0 3 1t4 1
q2 2 11 2l4 -1q2 -1 5 -1q3 -3 8 -4q6 -3 8 -3q6 0 8 5l5 2q0 2 -2.5 4t-4.5 4q0 1 -3 4l-5 5q-3 0 -5.5 2.5t-6.5 4.5h-6l-5 1q-6 0 -10 -0.5t-8 -0.5l-13 -9q-5 -6 -7 -8.5t-6 -6.5q-1 -4 -3 -7t-2 -9q0 -4 2 -7.5t3 -10.5l10 -11q5 -2 7.5 -5t6.5 -3q4 -2 7.5 -4t6.5 -2
q4 -2 7 -2t6 -2q6 0 10 -4l4 -3q2 -2 2 -6q2 -2 2 -6v-9q0 -3 -2 -5q0 -6 -6 -7q-6 -5 -7 -6t-3 -1q-7 0 -8 -1t-5 -1q-3 0 -6.5 1t-5.5 1q-2 1 -4 3l-4 4l-2 1q-5 4 -10 4h-7q-2 0 -4 -2l-6 -2q2 -1 2 -2t2 -1q0 -3 1 -4l3 -3v-2q6 -6 9 -6q7 -7 14.5 -9t17.5 -2h12
q3 0 11 2q3 2 6.5 4t7.5 5l5 8q3 3 4 9zM78 350q-6 6 -7 17l-3 10q-1 3 -1 10t4 16l2 10t5 10l4 6l5 7q2 2 6.5 4.5t6.5 4.5q6 7 11 8t9 3q3 0 8 1.5t10 1.5q7 0 14.5 -1.5t13.5 -5.5q8 -2 12.5 -6.5t8.5 -9.5q-2 -2 -4 -2v-4h-13q-4 2 -7 5t-7 3h-36l-22 -12
q-4 -3 -7.5 -7.5t-4.5 -10.5q-2 -7 -3 -13t-1 -8q0 -9 4 -13q0 -5 0.5 -10t0.5 -8l5 -4q4 -1 6 -7l7 -4q3 -1 8 -1q3 -4 5.5 -5t6.5 -3h33q2 2 7 3t9 5v29h-14v2q-2 0 -3 1.5t-3 3.5h-2q-1 1 -1 3v4h36v-51q-2 -5 -3.5 -6t-5.5 -8h-12q-8 -2 -12 -2h-34q-4 0 -9 3.5t-11 7.5
q-2 0 -6.5 2.5t-6.5 6.5q-3 4 -5 6.5t-4 7.5zM240 438v-44h56v-15h-56v-47h67v-16h-84v140h84v-18h-67zM1171 438v-44h60v-15h-60v-47h68v-16h-84v140h84v-18h-68zM2375 759h-20q-3 0 -8 -5q-6 -5 -6 -10l-37 -47h-2q0 -2 -2 -2v2l-39 47q-1 7 -4 10q-5 5 -11 5h-18l58 -77
v-2q0 -2 2 -2l2 -2v-72h21v70q2 0 2 2l2 4v2zM641 456v-85q0 -7 2 -10t5 -5q0 -6 3.5 -9.5t5.5 -4.5q0 -2 4.5 -4t6.5 -4q6 -2 8 -2h16q1 0 5 2l9 4q2 1 3.5 2t3.5 2q3 1 8 14q4 3 4 15v85h14v-85q0 -12 -4 -23t-12 -16q-2 -5 -6.5 -9.5t-8.5 -4.5q-8 -1 -13.5 -1.5
t-10.5 -0.5t-11 0.5t-14 1.5q-2 0 -6.5 4.5l-9.5 9.5l-10 16q-1 6 -3.5 11t-2.5 12v85h14zM2253 625h-69v134h-21v-155h90v21zM1271 625h-67v134h-20v-155h87v21zM1452 336q1 2 2 3.5t2 3.5q2 2 3 6.5t1 6.5q0 9 -2 11t-3 4.5t-3 4.5q-1 1 -8 3q-4 0 -6 2t-6 2q-8 0 -14 6
q-9 0 -13 7q-2 0 -3.5 3.5t-3.5 7.5v22q0 1 2 7q0 8 7 9l6 7q2 1 3.5 2t3.5 2q5 0 7.5 1.5t8.5 1.5l6 -2l4 -1q4 0 5 -1t5 -3q2 0 4 -3.5t2 -5.5q4 0 6 -3l1 -2l-2 -2q-6 -2 -9 -2h-6q-2 2 -2 4h-23q-9 0 -9 -2q-5 -7 -5 -8q-4 0 -4 -8q0 -5 4 -6q0 -5 3 -6q0 -1 3 -4l4 -1
q4 -4 7.5 -4t7.5 -3q3 0 4 -1l2 -1q4 0 8 -5h4q2 0 4 -2h2q5 -4 8.5 -7t5.5 -4q1 -5 1.5 -10.5t0.5 -9.5v-10q0 -5 -4 -6q-3 -4 -5.5 -7.5t-6.5 -5.5q-2 -2 -6 -5.5t-6 -3.5q-6 -2 -10 -2h-9q-11 0 -18.5 1t-12.5 10q-2 0 -3.5 2.5t-5.5 4.5v4l-2 2l4 2h7q1 0 3 -1t4 -1
q4 -4 6.5 -5t4.5 -3h22q8 0 12 4zM1069 316l-59 140h6q6 0 8 -2t3 -2t3 -7l43 -103v-2l2 -6v6l2 2q5 14 13 27.5t12 24.5q4 16 10 28t12 23q0 7 1.5 7t1.5 2q6 2 7 2h11q-8 -18 -15.5 -35t-16.5 -34q-4 -9 -7 -18.5t-6 -18.5l-16 -34h-15zM532 438v-49h60v-12h-60v-61h-16
v140h85v-18h-69zM1959 438v-49h54v-12h-54v-61h-16v140h81v-18h-65zM879 456v-124h63v-16h-80v140h17zM371 316v122h-46v18h105v-18h-47v-122h-12zM784 456v-124h64v-16h-80v140h16zM270 728q2 -1 3 -4t3 -5q4 -4 4 -9v-4q0 -5 -4 -9q-2 -2 -3 -4.5t-3 -2.5l-4 -4l-4 -4h-46
v53h36q4 0 10 -2q1 0 4 -3zM1325 389q4 0 6 3q4 4 9 4l2 5q0 2 5 6q0 1 1 4t1 7q0 2 -1 3.5t-1 4.5q-7 3 -7 8q-5 0 -9 4h-44v-49h38zM2101 392q4 4 7 4q7 7 7 11q2 4 2 11q0 4 -2 8q0 2 -7 8q-3 0 -7 4h-44v-49h36q3 0 8 3zM1525 456v-140h-18v140h18zM518 701l-4 -7
q-2 0 -3 -2t-3 -2q-2 -2 -10 -2h-33v47h33q4 0 10 -2q2 0 6 -5q1 -2 2 -3.5t2 -3.5q3 -2 3 -9q0 -5 -3 -11zM684 129l-27 69q0 2 -1 3l-1 2q0 4 -3 6v-6l-1 -2q-1 -1 -1 -3l-27 -69h61zM1093 727v-4l27 -64h-59l30 64v5zM1755 82q6 0 6 -6q2 -2 2 -5v-4q0 -9 -2 -11
q0 -5 -6 -9q-3 0 -6 -4h-17q-4 4 -11 4q0 2 -5 9q-2 2 -2 11v4q0 3 2 5l3 4l2 2q7 4 11 4q1 3 4 3h10q3 0 3 -3q3 0 6 -4z" />
    <glyph glyph-name="four" unicode="4" 
d="M2478 1093v-587h-2404v587h910q0 30 5.5 58t20.5 53q12 29 26 52.5t37 41.5q39 42 91 62q28 12 55.5 17t56.5 5q33 0 61.5 -6.5t53.5 -15.5q27 -14 50.5 -29.5t45.5 -36.5q35 -38 60 -94q11 -27 15.5 -54t4.5 -53h911zM1030 1194q-20 -49 -20 -101q0 -58 20 -106
q10 -22 24.5 -43.5t29.5 -42.5q20 -17 41.5 -32t45.5 -25q46 -23 105 -23q31 0 56.5 4.5t47.5 16.5q48 19 83 57q22 20 35.5 41t26.5 43q20 54 20 110q0 20 -3.5 43.5t-11.5 47.5q-14 40 -43 72q-14 20 -29.5 33.5t-34.5 25.5l-76 36q-16 3 -33 6t-38 3q-29 0 -55.5 -5.5
t-51.5 -19.5q-50 -19 -85 -57q-17 -19 -30.5 -39.5t-23.5 -44.5zM1142 936l314 317q62 -80 62 -160q0 -24 -3.5 -45.5t-11.5 -41.5q-8 -19 -17.5 -37t-23.5 -33h-320zM1095 928q-14 17 -25 36.5t-19 39.5q-9 18 -12.5 40.5t-3.5 48.5q0 18 3.5 39t12.5 43q7 35 40 68h318z
M1135 207q2 -4 4.5 -11t5.5 -14q2 -10 2 -14v-32q0 -5 -2 -11l-6 -15l-4 -14q-6 -4 -10.5 -10t-8.5 -10q-6 -5 -11 -10.5t-10 -9.5q-9 -5 -15.5 -7t-12.5 -4q-10 -2 -15 -2h-17q-9 0 -19 2t-23 4q-12 6 -18.5 13t-17.5 14q-15 14 -21 35q-4 10 -6 19.5t-2 23.5v14q0 4 2 14
q4 17 12 25q4 8 7.5 13t7.5 11q9 5 13.5 9.5t10.5 9.5l12 4l17 6q5 0 11.5 1t13.5 1q10 0 17 -1t15 -1q6 -4 12.5 -6t15.5 -4q5 -5 10 -9.5t11 -9.5q4 -6 8.5 -11t10.5 -13zM2195 207q4 -4 6.5 -11t4.5 -14q4 -7 4 -14v-32q0 -7 -4 -11q-2 -7 -4.5 -15t-6.5 -14l-16 -20
l-12 -10l-14 -10q-5 -5 -12 -7t-13 -4q-8 -2 -14 -2h-17q-19 0 -43 6q-8 6 -16 13t-17 14q-8 6 -14 14t-8 21q-6 10 -7.5 19.5t-1.5 23.5q0 8 1 14t1 14l6 14t7 11q2 8 6 13t10 11q3 5 10.5 9.5t12.5 9.5q4 2 11 4t13 6q11 0 17 1t12 1q9 0 17 -1t14 -1q6 -4 13 -6t12 -4
l26 -19q2 -6 8 -11t8 -13zM2433 260l1 1q1 1 6 1h38v-219h-38v160l-5 -9v-8q0 -2 -2 -4q-6 -16 -13 -34.5t-16 -31.5q-6 -20 -12 -36.5t-14 -36.5h-37l-55 139q-6 3 -6 12q0 4 -1 4l-2 2v-157h-42v219h40q5 0 6.5 -1t4.5 -1q2 -2 3 -2t4 -2l7 -4q0 -2 2 -3.5t2 -3.5
q4 -18 11 -32.5t16 -34.5l12 -33q3 -8 6 -15l6 -14v-14q3 0 4 -4q0 4 1 4v14l11 13l44 116q0 1 2 3l2 4q0 1 3 3l3 1q2 2 4 2t4 2zM1329 262h38v-219h-36l-100 146l-4 5v2q-3 4 -3 5q-4 1 -4 4q0 4 -7 4v-166h-37v219h33q4 0 9.5 -1t5.5 -3q3 -2 5 -2t4 -2l22 -33
q6 -8 11 -16.5t10 -19.5q13 -13 24 -29t25 -29q0 -2 1 -4.5t1 -6.5l1 -3q0 -2 1 -3v152zM672 262l94 -219h-25q-9 0 -16 4q-2 2 -4 6.5t-6 8.5l-14 27h-100l-9 -27q0 -6 -4 -6q-2 -5 -4 -5l-3 -4q-2 0 -4.5 -1t-6.5 -1q0 -2 -2 -2h-27l96 219h35zM260 262h139v-39h-100v-49
h82v-41h-82v-51h100v-39h-139v219zM839 659q1 7 2 11t1 10q0 12 -3 21q0 7 -4.5 10.5t-6.5 9.5q-2 3 -4.5 6.5t-6.5 7.5l-7 6q-2 3 -9 9q-4 2 -8 4.5t-11 4.5q-5 0 -9.5 0.5t-10.5 0.5q-3 0 -8.5 -0.5t-12.5 -0.5q-6 -2 -10 -4.5t-8 -4.5q-4 -6 -7.5 -8.5t-7.5 -6.5
q-13 -7 -14 -14q-4 -6 -5 -9.5l-3 -10.5q-1 -5 -1.5 -10t-0.5 -11t2 -14.5t4 -15.5t6.5 -12.5t11.5 -12.5q10 -15 25 -15q10 -6 29 -6h20q15 5 19 8q11 4 16 13q3 4 6 7.5t5 8.5q2 4 6.5 9t4.5 9zM1966 659v42l-7 20q-5 7 -15 14q-1 4 -6 6.5t-10 8.5l-4 2t-5 2l-7 5
q-7 0 -12 0.5t-10 0.5q-6 0 -11 -0.5t-9 -0.5l-22 -9q-3 -6 -6 -8.5t-7 -6.5q-3 -4 -6.5 -7t-5.5 -7q-2 -6 -4.5 -9.5t-2.5 -10.5q-6 -9 -6 -21q0 -6 3 -14.5t6 -15.5q4 -15 16 -25q7 -15 26 -15q10 -6 29 -6h22q3 2 8 4t8 4l10 6t6 7q11 8 15 16zM74 262h158v-24
q0 -4 -1 -6q0 -3 -2 -5l-4 -4l-105 -143h1l2 2h108v-39h-164v13q0 11 2 13q0 2 5 7v4l2 4q2 2 4 3.5t2 6.5l94 129h-102v39zM1839 203q-4 -4 -7 -10.5t-7 -14.5q-2 -4 -4 -10t-2 -14q0 -7 2 -15l4 -12q2 -7 6 -14.5t8 -10.5q4 -4 9.5 -8.5t14.5 -7.5q12 -4 27 -4q5 0 10 1
t12 1q3 2 8 5t8 7q3 0 9 2h13q3 0 9 -2q2 -1 3.5 -3t3.5 -4l6 -7q-3 -4 -6 -7.5t-7 -7.5q-7 -5 -11.5 -8t-12.5 -6q-7 -4 -11.5 -5t-10.5 -3t-11 -2h-12q-12 0 -23.5 2t-21.5 4q-10 5 -18.5 12t-16.5 15q-16 13 -22 35q-4 10 -7 19.5t-3 23.5q0 10 1 14l4 14q1 7 3 14t6 11
q6 8 8.5 13t9.5 11q14 9 25 19q4 2 9.5 4t18.5 6q5 0 12 1t15 1h13q4 0 10 -2t10.5 -3t11.5 -3q8 -4 12.5 -6.5t11.5 -7.5l13 -17l-6 -8q-2 -1 -5 -4l-2 -4h-15q-7 0 -16 4l-16 10q-10 2 -12 2h-10q-17 0 -27 -7q-17 -1 -24 -13zM1690 151l7 -10.5t3 -7.5q6 -8 6 -20
q0 -15 -8 -29l-8 -12l-9 -10q-7 -6 -11.5 -9.5t-12.5 -5.5q-5 -2 -14 -3t-15 -1q-8 0 -14.5 1l-19.5 3q-5 2 -10 6.5t-11 13.5q-4 1 -6 5l-4 8q-7 2 -7 9l7 5q2 2 4 2h4l2 2h10q4 0 4 -2q7 0 9 -2q7 -5 10.5 -6.5t5.5 -3.5q2 0 6 -1t10 -1h5q2 0 6 2q5 1 8 2t7 3q6 6 7 9
q2 4 4 7.5t2 7.5q0 7 -6 10q-5 6 -7 6q-2 4 -7.5 5t-7.5 2q-6 0 -14 7q-5 0 -9 1t-9 7q-11 3 -14.5 6t-7.5 7q-12 4 -12 14q-6 10 -6 25q0 18 6 26l6 11l8 10q4 2 10 4t13 6q6 0 10.5 1t13.5 1q4 0 8.5 -1t11.5 -1l15 -6q3 -4 6.5 -6.5t7.5 -7.5q4 -2 7.5 -5.5t3.5 -7.5
l-7 -4q-4 -2 -7 -4.5t-3 -3.5h-18l-5 1l-7 5q-2 0 -4 1t-4 1h-17q-2 0 -3 -1t-5 -3q-2 -3 -6 -6q-1 -3 -1 -10q0 -5 1 -5q2 -2 3 -5.5t3 -7.5h6q1 0 5 -2q5 -1 9.5 -3t10.5 -4l9 -2q5 -4 9 -5t9 -5q5 -2 10 -5t8 -8zM1579 336q-12 7 -16 20q-7 17 -7 31v16l11 20l12 13
q6 7 12 9q3 7 9.5 8t9.5 3q4 0 8 1.5t10 1.5q4 0 10.5 -1.5t10.5 -1.5q5 -2 8.5 -3t7.5 -8q2 -2 5.5 -4.5t6.5 -4.5l13 -13l8 -20q0 -4 1 -9t1 -7q0 -6 -1 -14t-5 -17q-5 -13 -17 -20q-5 -4 -9.5 -7.5t-11.5 -10.5q-5 -1 -12 -1.5t-16 -0.5h-15q-4 0 -10 2q-18 7 -24 18z
M2284 336q-7 -4 -13.5 -7.5t-11.5 -10.5q-8 -2 -12 -2h-30q-5 0 -13 2q-7 4 -12.5 8.5t-10.5 9.5q-6 6 -13 20q-2 9 -4.5 17t-2.5 14q0 2 1 7t1 9q3 5 4 10t4 10q2 3 5 6t5 7q6 4 18 9q3 7 8 8t7 3q6 0 9 1.5t10 1.5q2 0 8.5 -1.5t11.5 -1.5q4 -2 7.5 -3t6.5 -8l17 -9
q2 -4 4 -7t5 -6q2 -5 4 -9.5t3 -10.5q2 -4 3 -9t1 -7q0 -6 -1 -14t-5 -17q0 -6 -5 -11zM2166 127q5 12 5 27q0 16 -5 24q-3 9 -8 15.5t-8 9.5q-10 10 -24 13q-4 5 -12 6t-17 1q-12 0 -25 -7q-8 -1 -13 -4t-11 -9q-4 -3 -7.5 -9.5t-8.5 -15.5q0 -4 -1 -10t-1 -14q0 -9 1 -15
t1 -12q4 -8 8 -14t8 -11q6 -4 11 -8.5t13 -7.5q7 -2 14 -3t11 -1q9 0 17 1t12 3q8 3 14 7.5t10 8.5q11 11 16 25zM1104 127q4 11 4 27q0 13 -4 24q-2 9 -6.5 15.5t-13.5 9.5q-2 6 -7.5 9t-11.5 4q-11 7 -30 7q-14 0 -25 -7q-11 -1 -23 -13q-6 -3 -9 -9.5t-5 -15.5
q-5 -5 -5 -10v-29q0 -5 5 -12q2 -7 5 -14.5t9 -10.5q6 -4 11 -8.5t12 -7.5q11 -4 25 -4q19 0 30 4q13 7 19 16q9 3 13.5 10.5t6.5 14.5zM774 262h139v-39h-100v-55h82v-39h-82v-86h-39v219zM570 223h-58v-180h-43v180h-62v39h163v-39zM1188 864q-19 7 -37 19t-35 26h322
q-18 -14 -36 -26t-36 -19q-24 -6 -45.5 -11t-44.5 -5q-25 0 -45.5 5t-42.5 11zM1389 262h165v-39h-65v-180h-39v180h-61v39zM1366 1315q18 -8 36 -20.5t36 -22.5h-325q38 30 75 43q37 18 88 18q48 0 90 -18zM559 604l-47 68q4 0 11 4q8 5 9 10q9 5 9 11v26q0 1 -2 5
q-3 10 -11 15q-5 9 -14 9q-2 5 -6.5 6t-9.5 1h-57v-155h24v64h23l40 -56q1 -4 8 -6q2 -2 3 -2h20zM1169 604l-67 155h-22l-65 -155h11q7 0 9 2q0 2 7 6l11 27h76l13 -27q1 -4 5 -6q2 -2 8 -2h14zM1930 721q3 -2 8 -7.5t6 -12.5q4 -7 4 -21q0 -12 -4 -23q-1 -5 -6 -9.5
t-8 -6.5q-5 -4 -9 -6.5t-8 -7.5q-9 -4 -23 -4q-6 0 -12 1t-10 3q-5 5 -10.5 7.5t-9.5 6.5q-3 2 -6 6.5t-3 9.5q-4 7 -5 12t-1 11q0 10 6 21q0 7 3 12.5t6 7.5q4 4 9.5 7t10.5 5q9 4 22 4q5 0 11.5 -1t11.5 -3zM801 721q7 -2 9.5 -7.5t4.5 -12.5q4 -7 4 -21q0 -11 -4 -23
q-2 -5 -4.5 -9.5t-9.5 -6.5q-1 -4 -6 -7l-11 -7q-9 -4 -22 -4q-11 0 -23 4q-4 5 -9 7.5t-9 6.5q-2 2 -5.5 6.5t-5.5 9.5q-4 12 -4 23q0 12 4 21q2 7 5.5 12.5t5.5 7.5q4 4 9 7t9 5q5 2 12.5 3t10.5 1q13 0 22 -4q8 -2 11.5 -5t5.5 -7zM2126 759h-22v-120q-1 2 -2 5t-3 4
l-75 104l-3 7h-24v-155h22v121l2 -2l87 -119h18v155zM2218 332h31l6 3q3 3 4 5q6 0 14 5q2 5 3 7t4 4q0 3 3 8t3 10v34q-3 6 -7 10.5t-6 7.5q-10 4 -18 12h-43q-6 -4 -9.5 -7t-9.5 -5q-5 -3 -7.5 -7.5t-4.5 -10.5q-1 -4 -1.5 -7t-0.5 -7v-20q0 -13 5 -18q2 -2 4.5 -4t4.5 -7
l7 -3q2 -2 4 -2q4 -4 7 -5t7 -3zM296 690q5 12 5 20q0 9 -5 18q0 2 -5 7l-6 6q-2 3 -5 7t-10 4q-3 5 -8.5 6t-9.5 1h-52v-155h16v59h36q4 0 9.5 0.5t8.5 2.5q10 4 15 10q4 2 7.5 6t3.5 8zM1579 408q-6 -14 -6 -21v-8q0 -4 3 -5q0 -10 5 -18q0 -2 2 -4t4 -7l5 -3q2 -2 11 -2
q2 -4 5.5 -5t5.5 -3h27q6 2 9.5 3t6.5 5l6 2l4 3q2 5 4.5 7t2.5 4q3 3 4 8t3 10q0 2 1 5.5t1 7.5q0 2 -1 8t-5 13q0 6 -4 10.5t-6 7.5q-3 1 -8 6l-10 6h-42q-4 -4 -10 -7l-10 -5l-5 -8q-3 -5 -3 -10zM997 759h-18v-120l-2 4q-2 6 -2 5l-74 104q-5 0 -6 7h-25v-155h21v124h2
l2 -1v-4l86 -119h16v155zM2115 381q-5 -1 -8.5 -2t-5.5 -2l45 -61h-12l-6 2q-4 0 -4 9l-39 50h-28v-61h-15v140h57q3 0 9 -2q2 -2 6.5 -5.5t5.5 -5.5q4 -2 5 -5.5t7 -7.5v-27q-4 -4 -5 -8t-3 -6zM1342 381q-3 -3 -11 -4l47 -61h-15q-3 0 -3 2q-6 0 -6 9l-39 50h-28v-61h-13
v140h56q2 0 6 -2q10 -1 18 -11q0 -2 3 -5.5t3 -7.5q2 -2 2 -6v-14q0 -1 -2 -7q0 -10 -4 -14l-5 -4q-3 -3 -9 -4zM412 759h-98v-155h98v21h-74v47h58v18h-58v45h74v24zM1721 759h-93v-155h93v21h-69v47h58v18h-58v45h69v24zM2460 454q6 2 5 2h13v-140h-12v114l-2 -2v-2
q-4 -8 -6.5 -17.5t-8.5 -14.5q-5 -7 -7 -12.5t-7 -14.5q-2 -9 -3 -15.5t-5 -9.5q-3 -8 -6.5 -12.5t-5.5 -13.5h-15q-10 14 -15 27t-10 28q-4 12 -12 26.5t-12 28.5v2h-4v-112h-14v140h14q4 0 6 -2l2 -2v-7l49 -105q0 -4 2 -4l1 2v4q0 2 8 6l41 97q2 7 3 7t1 2zM1480 759h-22
v-104q0 -4 -2 -8q-1 -7 -10 -12q0 -2 -4 -3.5t-6 -6.5l-9 -2h-9q-7 0 -13 2q-5 5 -8.5 6.5t-5.5 3.5l-11 12q0 3 -1 7.5t-1 11.5v93h-20v-93q0 -7 1 -11.5t1 -7.5q0 -8 6 -14q3 -8 10 -12q2 -4 4.5 -6.5t8.5 -4.5q2 -2 6.5 -3t7.5 -3q4 0 7 -1.5t8 -1.5t8.5 1.5t11.5 1.5
q2 2 5 3t7 3q3 2 6 4.5t6 6.5q3 2 5 5.5t7 6.5q0 4 3 7t3 7v112zM664 632q2 5 3 8t1 8q0 12 -5.5 20t-12.5 14q-2 0 -3.5 2t-5.5 4l-4 2h-4q-1 0 -1 4q-8 0 -9 1q-8 2 -9.5 3t-5.5 3q-6 5 -9 5q-3 4 -3 6v15q0 1 1.5 2.5t1.5 3.5q2 0 4.5 1t4.5 1q6 2 5 2h10q2 -2 4 -2
q7 0 8 -4q1 -3 4 -3h2q9 0 14 5l4 2q0 2 -2 4l-5 4q-2 1 -4.5 4t-6.5 5q-2 0 -4 2.5t-5 4.5q-5 0 -7 0.5t-4 0.5q-7 0 -12 -0.5t-8 -0.5q-5 -2 -7 -4.5t-6 -4.5q-2 -6 -5.5 -8.5t-8.5 -6.5q0 -4 -2 -7t-2 -9t4 -18l12 -11q2 -2 6 -5t7 -3q5 -2 8 -4t7 -2q1 -2 6 -2t7 -2
l6 -2q2 0 4 -2t2 -3t2 -6q2 -2 2 -7v-9q0 -2 -2 -4t-2 -4t-2 -3q-2 -5 -6 -6l-4 -1q-4 0 -8 -1t-5 -1q-4 0 -7 1t-6 1q-2 0 -3.5 1t-1.5 6l-4 1q-4 4 -11 4h-7l-4 -2l-5 -2q0 -3 3 -3q0 -3 2 -5q0 -4 4 -4v-6h5q7 -7 16 -9t19 -2h10q5 0 11 2q4 2 8.5 4t6.5 5q13 5 14 17z
M1741 316h-18v140h20q3 0 4 -4l74 -104q2 0 2 -5l2 -1v114h14v-140h-12l-82 114v4h-4v-118zM1596 632q9 7 9 16q0 12 -5.5 20t-12.5 14q-6 4 -6 6h-4l-4 2h-3q-4 0 -5 4h-4q-2 0 -5 1q-2 2 -4 3t-7 3l-7 5q-2 1 -3 2l-2 2l-1 2q0 1 -1 3t-1 4q0 4 4 8q0 2 4 6q2 0 3 1t4 1
q2 2 11 2l4 -1q2 -1 5 -1q3 -3 8 -4q6 -3 8 -3q6 0 8 5l5 2q0 2 -2.5 4t-4.5 4q0 1 -3 4l-5 5q-3 0 -5.5 2.5t-6.5 4.5h-6l-5 1q-6 0 -10 -0.5t-8 -0.5l-13 -9q-5 -6 -7 -8.5t-6 -6.5q-1 -4 -3 -7t-2 -9q0 -4 2 -7.5t3 -10.5l10 -11q5 -2 7.5 -5t6.5 -3q4 -2 7.5 -4t6.5 -2
q4 -2 7 -2t6 -2q6 0 10 -4l4 -3q2 -2 2 -6q2 -2 2 -6v-9q0 -3 -2 -5q0 -6 -6 -7q-6 -5 -7 -6t-3 -1q-7 0 -8 -1t-5 -1q-3 0 -6.5 1t-5.5 1q-2 1 -4 3l-4 4l-2 1q-5 4 -10 4h-7q-2 0 -4 -2l-6 -2q2 -1 2 -2t2 -1q0 -3 1 -4l3 -3v-2q6 -6 9 -6q7 -7 14.5 -9t17.5 -2h12
q3 0 11 2q3 2 6.5 4t7.5 5l5 8q3 3 4 9zM78 350q-6 6 -7 17l-3 10q-1 3 -1 10t4 16l2 10t5 10l4 6l5 7q2 2 6.5 4.5t6.5 4.5q6 7 11 8t9 3q3 0 8 1.5t10 1.5q7 0 14.5 -1.5t13.5 -5.5q8 -2 12.5 -6.5t8.5 -9.5q-2 -2 -4 -2v-4h-13q-4 2 -7 5t-7 3h-36l-22 -12
q-4 -3 -7.5 -7.5t-4.5 -10.5q-2 -7 -3 -13t-1 -8q0 -9 4 -13q0 -5 0.5 -10t0.5 -8l5 -4q4 -1 6 -7l7 -4q3 -1 8 -1q3 -4 5.5 -5t6.5 -3h33q2 2 7 3t9 5v29h-14v2q-2 0 -3 1.5t-3 3.5h-2q-1 1 -1 3v4h36v-51q-2 -5 -3.5 -6t-5.5 -8h-12q-8 -2 -12 -2h-34q-4 0 -9 3.5t-11 7.5
q-2 0 -6.5 2.5t-6.5 6.5q-3 4 -5 6.5t-4 7.5zM240 438v-44h56v-15h-56v-47h67v-16h-84v140h84v-18h-67zM1171 438v-44h60v-15h-60v-47h68v-16h-84v140h84v-18h-68zM2375 759h-20q-3 0 -8 -5q-6 -5 -6 -10l-37 -47h-2q0 -2 -2 -2v2l-39 47q-1 7 -4 10q-5 5 -11 5h-18l58 -77
v-2q0 -2 2 -2l2 -2v-72h21v70q2 0 2 2l2 4v2zM641 456v-85q0 -7 2 -10t5 -5q0 -6 3.5 -9.5t5.5 -4.5q0 -2 4.5 -4t6.5 -4q6 -2 8 -2h16q1 0 5 2l9 4q2 1 3.5 2t3.5 2q3 1 8 14q4 3 4 15v85h14v-85q0 -12 -4 -23t-12 -16q-2 -5 -6.5 -9.5t-8.5 -4.5q-8 -1 -13.5 -1.5
t-10.5 -0.5t-11 0.5t-14 1.5q-2 0 -6.5 4.5l-9.5 9.5l-10 16q-1 6 -3.5 11t-2.5 12v85h14zM2253 625h-69v134h-21v-155h90v21zM1271 625h-67v134h-20v-155h87v21zM1452 336q1 2 2 3.5t2 3.5q2 2 3 6.5t1 6.5q0 9 -2 11t-3 4.5t-3 4.5q-1 1 -8 3q-4 0 -6 2t-6 2q-8 0 -14 6
q-9 0 -13 7q-2 0 -3.5 3.5t-3.5 7.5v22q0 1 2 7q0 8 7 9l6 7q2 1 3.5 2t3.5 2q5 0 7.5 1.5t8.5 1.5l6 -2l4 -1q4 0 5 -1t5 -3q2 0 4 -3.5t2 -5.5q4 0 6 -3l1 -2l-2 -2q-6 -2 -9 -2h-6q-2 2 -2 4h-23q-9 0 -9 -2q-5 -7 -5 -8q-4 0 -4 -8q0 -5 4 -6q0 -5 3 -6q0 -1 3 -4l4 -1
q4 -4 7.5 -4t7.5 -3q3 0 4 -1l2 -1q4 0 8 -5h4q2 0 4 -2h2q5 -4 8.5 -7t5.5 -4q1 -5 1.5 -10.5t0.5 -9.5v-10q0 -5 -4 -6q-3 -4 -5.5 -7.5t-6.5 -5.5q-2 -2 -6 -5.5t-6 -3.5q-6 -2 -10 -2h-9q-11 0 -18.5 1t-12.5 10q-2 0 -3.5 2.5t-5.5 4.5v4l-2 2l4 2h7q1 0 3 -1t4 -1
q4 -4 6.5 -5t4.5 -3h22q8 0 12 4zM1069 316l-59 140h6q6 0 8 -2t3 -2t3 -7l43 -103v-2l2 -6v6l2 2q5 14 13 27.5t12 24.5q4 16 10 28t12 23q0 7 1.5 7t1.5 2q6 2 7 2h11q-8 -18 -15.5 -35t-16.5 -34q-4 -9 -7 -18.5t-6 -18.5l-16 -34h-15zM532 438v-49h60v-12h-60v-61h-16
v140h85v-18h-69zM1959 438v-49h54v-12h-54v-61h-16v140h81v-18h-65zM879 456v-124h63v-16h-80v140h17zM371 316v122h-46v18h105v-18h-47v-122h-12zM784 456v-124h64v-16h-80v140h16zM270 728q2 -1 3 -4t3 -5q4 -4 4 -9v-4q0 -5 -4 -9q-2 -2 -3 -4.5t-3 -2.5l-4 -4l-4 -4h-46
v53h36q4 0 10 -2q1 0 4 -3zM1325 389q4 0 6 3q4 4 9 4l2 5q0 2 5 6q0 1 1 4t1 7q0 2 -1 3.5t-1 4.5q-7 3 -7 8q-5 0 -9 4h-44v-49h38zM2101 392q4 4 7 4q7 7 7 11q2 4 2 11q0 4 -2 8q0 2 -7 8q-3 0 -7 4h-44v-49h36q3 0 8 3zM1525 456v-140h-18v140h18zM518 701l-4 -7
q-2 0 -3 -2t-3 -2q-2 -2 -10 -2h-33v47h33q4 0 10 -2q2 0 6 -5q1 -2 2 -3.5t2 -3.5q3 -2 3 -9q0 -5 -3 -11zM684 129l-27 69q0 2 -1 3l-1 2q0 4 -3 6v-6l-1 -2q-1 -1 -1 -3l-27 -69h61zM1093 727v-4l27 -64h-59l30 64v5zM1755 82q6 0 6 -6q2 -2 2 -5v-4q0 -9 -2 -11
q0 -5 -6 -9q-3 0 -6 -4h-17q-4 4 -11 4q0 2 -5 9q-2 2 -2 11v4q0 3 2 5l3 4l2 2q7 4 11 4q1 3 4 3h10q3 0 3 -3q3 0 6 -4z" />
    <glyph glyph-name="five" unicode="5" 
d="M2478 1093v-587h-2404v587h910q0 30 5.5 58t20.5 53q12 29 26 52.5t37 41.5q39 42 91 62q28 12 55.5 17t56.5 5q33 0 61.5 -6.5t53.5 -15.5q27 -14 50.5 -29.5t45.5 -36.5q35 -38 60 -94q11 -27 15.5 -54t4.5 -53h911zM1030 1194q-20 -49 -20 -101q0 -58 20 -106
q10 -22 24.5 -43.5t29.5 -42.5q20 -17 41.5 -32t45.5 -25q46 -23 105 -23q31 0 56.5 4.5t47.5 16.5q48 19 83 57q22 20 35.5 41t26.5 43q20 54 20 110q0 20 -3.5 43.5t-11.5 47.5q-14 40 -43 72q-14 20 -29.5 33.5t-34.5 25.5l-76 36q-16 3 -33 6t-38 3q-29 0 -55.5 -5.5
t-51.5 -19.5q-50 -19 -85 -57q-17 -19 -30.5 -39.5t-23.5 -44.5zM1142 936l314 317q62 -80 62 -160q0 -24 -3.5 -45.5t-11.5 -41.5q-8 -19 -17.5 -37t-23.5 -33h-320zM1095 928q-14 17 -25 36.5t-19 39.5q-9 18 -12.5 40.5t-3.5 48.5q0 18 3.5 39t12.5 43q7 35 40 68h318z
M1135 207q2 -4 4.5 -11t5.5 -14q2 -10 2 -14v-32q0 -5 -2 -11l-6 -15l-4 -14q-6 -4 -10.5 -10t-8.5 -10q-6 -5 -11 -10.5t-10 -9.5q-9 -5 -15.5 -7t-12.5 -4q-10 -2 -15 -2h-17q-9 0 -19 2t-23 4q-12 6 -18.5 13t-17.5 14q-15 14 -21 35q-4 10 -6 19.5t-2 23.5v14q0 4 2 14
q4 17 12 25q4 8 7.5 13t7.5 11q9 5 13.5 9.5t10.5 9.5l12 4l17 6q5 0 11.5 1t13.5 1q10 0 17 -1t15 -1q6 -4 12.5 -6t15.5 -4q5 -5 10 -9.5t11 -9.5q4 -6 8.5 -11t10.5 -13zM2195 207q4 -4 6.5 -11t4.5 -14q4 -7 4 -14v-32q0 -7 -4 -11q-2 -7 -4.5 -15t-6.5 -14l-16 -20
l-12 -10l-14 -10q-5 -5 -12 -7t-13 -4q-8 -2 -14 -2h-17q-19 0 -43 6q-8 6 -16 13t-17 14q-8 6 -14 14t-8 21q-6 10 -7.5 19.5t-1.5 23.5q0 8 1 14t1 14l6 14t7 11q2 8 6 13t10 11q3 5 10.5 9.5t12.5 9.5q4 2 11 4t13 6q11 0 17 1t12 1q9 0 17 -1t14 -1q6 -4 13 -6t12 -4
l26 -19q2 -6 8 -11t8 -13zM2433 260l1 1q1 1 6 1h38v-219h-38v160l-5 -9v-8q0 -2 -2 -4q-6 -16 -13 -34.5t-16 -31.5q-6 -20 -12 -36.5t-14 -36.5h-37l-55 139q-6 3 -6 12q0 4 -1 4l-2 2v-157h-42v219h40q5 0 6.5 -1t4.5 -1q2 -2 3 -2t4 -2l7 -4q0 -2 2 -3.5t2 -3.5
q4 -18 11 -32.5t16 -34.5l12 -33q3 -8 6 -15l6 -14v-14q3 0 4 -4q0 4 1 4v14l11 13l44 116q0 1 2 3l2 4q0 1 3 3l3 1q2 2 4 2t4 2zM1329 262h38v-219h-36l-100 146l-4 5v2q-3 4 -3 5q-4 1 -4 4q0 4 -7 4v-166h-37v219h33q4 0 9.5 -1t5.5 -3q3 -2 5 -2t4 -2l22 -33
q6 -8 11 -16.5t10 -19.5q13 -13 24 -29t25 -29q0 -2 1 -4.5t1 -6.5l1 -3q0 -2 1 -3v152zM672 262l94 -219h-25q-9 0 -16 4q-2 2 -4 6.5t-6 8.5l-14 27h-100l-9 -27q0 -6 -4 -6q-2 -5 -4 -5l-3 -4q-2 0 -4.5 -1t-6.5 -1q0 -2 -2 -2h-27l96 219h35zM260 262h139v-39h-100v-49
h82v-41h-82v-51h100v-39h-139v219zM839 659q1 7 2 11t1 10q0 12 -3 21q0 7 -4.5 10.5t-6.5 9.5q-2 3 -4.5 6.5t-6.5 7.5l-7 6q-2 3 -9 9q-4 2 -8 4.5t-11 4.5q-5 0 -9.5 0.5t-10.5 0.5q-3 0 -8.5 -0.5t-12.5 -0.5q-6 -2 -10 -4.5t-8 -4.5q-4 -6 -7.5 -8.5t-7.5 -6.5
q-13 -7 -14 -14q-4 -6 -5 -9.5l-3 -10.5q-1 -5 -1.5 -10t-0.5 -11t2 -14.5t4 -15.5t6.5 -12.5t11.5 -12.5q10 -15 25 -15q10 -6 29 -6h20q15 5 19 8q11 4 16 13q3 4 6 7.5t5 8.5q2 4 6.5 9t4.5 9zM1966 659v42l-7 20q-5 7 -15 14q-1 4 -6 6.5t-10 8.5l-4 2t-5 2l-7 5
q-7 0 -12 0.5t-10 0.5q-6 0 -11 -0.5t-9 -0.5l-22 -9q-3 -6 -6 -8.5t-7 -6.5q-3 -4 -6.5 -7t-5.5 -7q-2 -6 -4.5 -9.5t-2.5 -10.5q-6 -9 -6 -21q0 -6 3 -14.5t6 -15.5q4 -15 16 -25q7 -15 26 -15q10 -6 29 -6h22q3 2 8 4t8 4l10 6t6 7q11 8 15 16zM74 262h158v-24
q0 -4 -1 -6q0 -3 -2 -5l-4 -4l-105 -143h1l2 2h108v-39h-164v13q0 11 2 13q0 2 5 7v4l2 4q2 2 4 3.5t2 6.5l94 129h-102v39zM1839 203q-4 -4 -7 -10.5t-7 -14.5q-2 -4 -4 -10t-2 -14q0 -7 2 -15l4 -12q2 -7 6 -14.5t8 -10.5q4 -4 9.5 -8.5t14.5 -7.5q12 -4 27 -4q5 0 10 1
t12 1q3 2 8 5t8 7q3 0 9 2h13q3 0 9 -2q2 -1 3.5 -3t3.5 -4l6 -7q-3 -4 -6 -7.5t-7 -7.5q-7 -5 -11.5 -8t-12.5 -6q-7 -4 -11.5 -5t-10.5 -3t-11 -2h-12q-12 0 -23.5 2t-21.5 4q-10 5 -18.5 12t-16.5 15q-16 13 -22 35q-4 10 -7 19.5t-3 23.5q0 10 1 14l4 14q1 7 3 14t6 11
q6 8 8.5 13t9.5 11q14 9 25 19q4 2 9.5 4t18.5 6q5 0 12 1t15 1h13q4 0 10 -2t10.5 -3t11.5 -3q8 -4 12.5 -6.5t11.5 -7.5l13 -17l-6 -8q-2 -1 -5 -4l-2 -4h-15q-7 0 -16 4l-16 10q-10 2 -12 2h-10q-17 0 -27 -7q-17 -1 -24 -13zM1690 151l7 -10.5t3 -7.5q6 -8 6 -20
q0 -15 -8 -29l-8 -12l-9 -10q-7 -6 -11.5 -9.5t-12.5 -5.5q-5 -2 -14 -3t-15 -1q-8 0 -14.5 1l-19.5 3q-5 2 -10 6.5t-11 13.5q-4 1 -6 5l-4 8q-7 2 -7 9l7 5q2 2 4 2h4l2 2h10q4 0 4 -2q7 0 9 -2q7 -5 10.5 -6.5t5.5 -3.5q2 0 6 -1t10 -1h5q2 0 6 2q5 1 8 2t7 3q6 6 7 9
q2 4 4 7.5t2 7.5q0 7 -6 10q-5 6 -7 6q-2 4 -7.5 5t-7.5 2q-6 0 -14 7q-5 0 -9 1t-9 7q-11 3 -14.5 6t-7.5 7q-12 4 -12 14q-6 10 -6 25q0 18 6 26l6 11l8 10q4 2 10 4t13 6q6 0 10.5 1t13.5 1q4 0 8.5 -1t11.5 -1l15 -6q3 -4 6.5 -6.5t7.5 -7.5q4 -2 7.5 -5.5t3.5 -7.5
l-7 -4q-4 -2 -7 -4.5t-3 -3.5h-18l-5 1l-7 5q-2 0 -4 1t-4 1h-17q-2 0 -3 -1t-5 -3q-2 -3 -6 -6q-1 -3 -1 -10q0 -5 1 -5q2 -2 3 -5.5t3 -7.5h6q1 0 5 -2q5 -1 9.5 -3t10.5 -4l9 -2q5 -4 9 -5t9 -5q5 -2 10 -5t8 -8zM1579 336q-12 7 -16 20q-7 17 -7 31v16l11 20l12 13
q6 7 12 9q3 7 9.5 8t9.5 3q4 0 8 1.5t10 1.5q4 0 10.5 -1.5t10.5 -1.5q5 -2 8.5 -3t7.5 -8q2 -2 5.5 -4.5t6.5 -4.5l13 -13l8 -20q0 -4 1 -9t1 -7q0 -6 -1 -14t-5 -17q-5 -13 -17 -20q-5 -4 -9.5 -7.5t-11.5 -10.5q-5 -1 -12 -1.5t-16 -0.5h-15q-4 0 -10 2q-18 7 -24 18z
M2284 336q-7 -4 -13.5 -7.5t-11.5 -10.5q-8 -2 -12 -2h-30q-5 0 -13 2q-7 4 -12.5 8.5t-10.5 9.5q-6 6 -13 20q-2 9 -4.5 17t-2.5 14q0 2 1 7t1 9q3 5 4 10t4 10q2 3 5 6t5 7q6 4 18 9q3 7 8 8t7 3q6 0 9 1.5t10 1.5q2 0 8.5 -1.5t11.5 -1.5q4 -2 7.5 -3t6.5 -8l17 -9
q2 -4 4 -7t5 -6q2 -5 4 -9.5t3 -10.5q2 -4 3 -9t1 -7q0 -6 -1 -14t-5 -17q0 -6 -5 -11zM2166 127q5 12 5 27q0 16 -5 24q-3 9 -8 15.5t-8 9.5q-10 10 -24 13q-4 5 -12 6t-17 1q-12 0 -25 -7q-8 -1 -13 -4t-11 -9q-4 -3 -7.5 -9.5t-8.5 -15.5q0 -4 -1 -10t-1 -14q0 -9 1 -15
t1 -12q4 -8 8 -14t8 -11q6 -4 11 -8.5t13 -7.5q7 -2 14 -3t11 -1q9 0 17 1t12 3q8 3 14 7.5t10 8.5q11 11 16 25zM1104 127q4 11 4 27q0 13 -4 24q-2 9 -6.5 15.5t-13.5 9.5q-2 6 -7.5 9t-11.5 4q-11 7 -30 7q-14 0 -25 -7q-11 -1 -23 -13q-6 -3 -9 -9.5t-5 -15.5
q-5 -5 -5 -10v-29q0 -5 5 -12q2 -7 5 -14.5t9 -10.5q6 -4 11 -8.5t12 -7.5q11 -4 25 -4q19 0 30 4q13 7 19 16q9 3 13.5 10.5t6.5 14.5zM774 262h139v-39h-100v-55h82v-39h-82v-86h-39v219zM570 223h-58v-180h-43v180h-62v39h163v-39zM1188 864q-19 7 -37 19t-35 26h322
q-18 -14 -36 -26t-36 -19q-24 -6 -45.5 -11t-44.5 -5q-25 0 -45.5 5t-42.5 11zM1389 262h165v-39h-65v-180h-39v180h-61v39zM1366 1315q18 -8 36 -20.5t36 -22.5h-325q38 30 75 43q37 18 88 18q48 0 90 -18zM559 604l-47 68q4 0 11 4q8 5 9 10q9 5 9 11v26q0 1 -2 5
q-3 10 -11 15q-5 9 -14 9q-2 5 -6.5 6t-9.5 1h-57v-155h24v64h23l40 -56q1 -4 8 -6q2 -2 3 -2h20zM1169 604l-67 155h-22l-65 -155h11q7 0 9 2q0 2 7 6l11 27h76l13 -27q1 -4 5 -6q2 -2 8 -2h14zM1930 721q3 -2 8 -7.5t6 -12.5q4 -7 4 -21q0 -12 -4 -23q-1 -5 -6 -9.5
t-8 -6.5q-5 -4 -9 -6.5t-8 -7.5q-9 -4 -23 -4q-6 0 -12 1t-10 3q-5 5 -10.5 7.5t-9.5 6.5q-3 2 -6 6.5t-3 9.5q-4 7 -5 12t-1 11q0 10 6 21q0 7 3 12.5t6 7.5q4 4 9.5 7t10.5 5q9 4 22 4q5 0 11.5 -1t11.5 -3zM801 721q7 -2 9.5 -7.5t4.5 -12.5q4 -7 4 -21q0 -11 -4 -23
q-2 -5 -4.5 -9.5t-9.5 -6.5q-1 -4 -6 -7l-11 -7q-9 -4 -22 -4q-11 0 -23 4q-4 5 -9 7.5t-9 6.5q-2 2 -5.5 6.5t-5.5 9.5q-4 12 -4 23q0 12 4 21q2 7 5.5 12.5t5.5 7.5q4 4 9 7t9 5q5 2 12.5 3t10.5 1q13 0 22 -4q8 -2 11.5 -5t5.5 -7zM2126 759h-22v-120q-1 2 -2 5t-3 4
l-75 104l-3 7h-24v-155h22v121l2 -2l87 -119h18v155zM2218 332h31l6 3q3 3 4 5q6 0 14 5q2 5 3 7t4 4q0 3 3 8t3 10v34q-3 6 -7 10.5t-6 7.5q-10 4 -18 12h-43q-6 -4 -9.5 -7t-9.5 -5q-5 -3 -7.5 -7.5t-4.5 -10.5q-1 -4 -1.5 -7t-0.5 -7v-20q0 -13 5 -18q2 -2 4.5 -4t4.5 -7
l7 -3q2 -2 4 -2q4 -4 7 -5t7 -3zM296 690q5 12 5 20q0 9 -5 18q0 2 -5 7l-6 6q-2 3 -5 7t-10 4q-3 5 -8.5 6t-9.5 1h-52v-155h16v59h36q4 0 9.5 0.5t8.5 2.5q10 4 15 10q4 2 7.5 6t3.5 8zM1579 408q-6 -14 -6 -21v-8q0 -4 3 -5q0 -10 5 -18q0 -2 2 -4t4 -7l5 -3q2 -2 11 -2
q2 -4 5.5 -5t5.5 -3h27q6 2 9.5 3t6.5 5l6 2l4 3q2 5 4.5 7t2.5 4q3 3 4 8t3 10q0 2 1 5.5t1 7.5q0 2 -1 8t-5 13q0 6 -4 10.5t-6 7.5q-3 1 -8 6l-10 6h-42q-4 -4 -10 -7l-10 -5l-5 -8q-3 -5 -3 -10zM997 759h-18v-120l-2 4q-2 6 -2 5l-74 104q-5 0 -6 7h-25v-155h21v124h2
l2 -1v-4l86 -119h16v155zM2115 381q-5 -1 -8.5 -2t-5.5 -2l45 -61h-12l-6 2q-4 0 -4 9l-39 50h-28v-61h-15v140h57q3 0 9 -2q2 -2 6.5 -5.5t5.5 -5.5q4 -2 5 -5.5t7 -7.5v-27q-4 -4 -5 -8t-3 -6zM1342 381q-3 -3 -11 -4l47 -61h-15q-3 0 -3 2q-6 0 -6 9l-39 50h-28v-61h-13
v140h56q2 0 6 -2q10 -1 18 -11q0 -2 3 -5.5t3 -7.5q2 -2 2 -6v-14q0 -1 -2 -7q0 -10 -4 -14l-5 -4q-3 -3 -9 -4zM412 759h-98v-155h98v21h-74v47h58v18h-58v45h74v24zM1721 759h-93v-155h93v21h-69v47h58v18h-58v45h69v24zM2460 454q6 2 5 2h13v-140h-12v114l-2 -2v-2
q-4 -8 -6.5 -17.5t-8.5 -14.5q-5 -7 -7 -12.5t-7 -14.5q-2 -9 -3 -15.5t-5 -9.5q-3 -8 -6.5 -12.5t-5.5 -13.5h-15q-10 14 -15 27t-10 28q-4 12 -12 26.5t-12 28.5v2h-4v-112h-14v140h14q4 0 6 -2l2 -2v-7l49 -105q0 -4 2 -4l1 2v4q0 2 8 6l41 97q2 7 3 7t1 2zM1480 759h-22
v-104q0 -4 -2 -8q-1 -7 -10 -12q0 -2 -4 -3.5t-6 -6.5l-9 -2h-9q-7 0 -13 2q-5 5 -8.5 6.5t-5.5 3.5l-11 12q0 3 -1 7.5t-1 11.5v93h-20v-93q0 -7 1 -11.5t1 -7.5q0 -8 6 -14q3 -8 10 -12q2 -4 4.5 -6.5t8.5 -4.5q2 -2 6.5 -3t7.5 -3q4 0 7 -1.5t8 -1.5t8.5 1.5t11.5 1.5
q2 2 5 3t7 3q3 2 6 4.5t6 6.5q3 2 5 5.5t7 6.5q0 4 3 7t3 7v112zM664 632q2 5 3 8t1 8q0 12 -5.5 20t-12.5 14q-2 0 -3.5 2t-5.5 4l-4 2h-4q-1 0 -1 4q-8 0 -9 1q-8 2 -9.5 3t-5.5 3q-6 5 -9 5q-3 4 -3 6v15q0 1 1.5 2.5t1.5 3.5q2 0 4.5 1t4.5 1q6 2 5 2h10q2 -2 4 -2
q7 0 8 -4q1 -3 4 -3h2q9 0 14 5l4 2q0 2 -2 4l-5 4q-2 1 -4.5 4t-6.5 5q-2 0 -4 2.5t-5 4.5q-5 0 -7 0.5t-4 0.5q-7 0 -12 -0.5t-8 -0.5q-5 -2 -7 -4.5t-6 -4.5q-2 -6 -5.5 -8.5t-8.5 -6.5q0 -4 -2 -7t-2 -9t4 -18l12 -11q2 -2 6 -5t7 -3q5 -2 8 -4t7 -2q1 -2 6 -2t7 -2
l6 -2q2 0 4 -2t2 -3t2 -6q2 -2 2 -7v-9q0 -2 -2 -4t-2 -4t-2 -3q-2 -5 -6 -6l-4 -1q-4 0 -8 -1t-5 -1q-4 0 -7 1t-6 1q-2 0 -3.5 1t-1.5 6l-4 1q-4 4 -11 4h-7l-4 -2l-5 -2q0 -3 3 -3q0 -3 2 -5q0 -4 4 -4v-6h5q7 -7 16 -9t19 -2h10q5 0 11 2q4 2 8.5 4t6.5 5q13 5 14 17z
M1741 316h-18v140h20q3 0 4 -4l74 -104q2 0 2 -5l2 -1v114h14v-140h-12l-82 114v4h-4v-118zM1596 632q9 7 9 16q0 12 -5.5 20t-12.5 14q-6 4 -6 6h-4l-4 2h-3q-4 0 -5 4h-4q-2 0 -5 1q-2 2 -4 3t-7 3l-7 5q-2 1 -3 2l-2 2l-1 2q0 1 -1 3t-1 4q0 4 4 8q0 2 4 6q2 0 3 1t4 1
q2 2 11 2l4 -1q2 -1 5 -1q3 -3 8 -4q6 -3 8 -3q6 0 8 5l5 2q0 2 -2.5 4t-4.5 4q0 1 -3 4l-5 5q-3 0 -5.5 2.5t-6.5 4.5h-6l-5 1q-6 0 -10 -0.5t-8 -0.5l-13 -9q-5 -6 -7 -8.5t-6 -6.5q-1 -4 -3 -7t-2 -9q0 -4 2 -7.5t3 -10.5l10 -11q5 -2 7.5 -5t6.5 -3q4 -2 7.5 -4t6.5 -2
q4 -2 7 -2t6 -2q6 0 10 -4l4 -3q2 -2 2 -6q2 -2 2 -6v-9q0 -3 -2 -5q0 -6 -6 -7q-6 -5 -7 -6t-3 -1q-7 0 -8 -1t-5 -1q-3 0 -6.5 1t-5.5 1q-2 1 -4 3l-4 4l-2 1q-5 4 -10 4h-7q-2 0 -4 -2l-6 -2q2 -1 2 -2t2 -1q0 -3 1 -4l3 -3v-2q6 -6 9 -6q7 -7 14.5 -9t17.5 -2h12
q3 0 11 2q3 2 6.5 4t7.5 5l5 8q3 3 4 9zM78 350q-6 6 -7 17l-3 10q-1 3 -1 10t4 16l2 10t5 10l4 6l5 7q2 2 6.5 4.5t6.5 4.5q6 7 11 8t9 3q3 0 8 1.5t10 1.5q7 0 14.5 -1.5t13.5 -5.5q8 -2 12.5 -6.5t8.5 -9.5q-2 -2 -4 -2v-4h-13q-4 2 -7 5t-7 3h-36l-22 -12
q-4 -3 -7.5 -7.5t-4.5 -10.5q-2 -7 -3 -13t-1 -8q0 -9 4 -13q0 -5 0.5 -10t0.5 -8l5 -4q4 -1 6 -7l7 -4q3 -1 8 -1q3 -4 5.5 -5t6.5 -3h33q2 2 7 3t9 5v29h-14v2q-2 0 -3 1.5t-3 3.5h-2q-1 1 -1 3v4h36v-51q-2 -5 -3.5 -6t-5.5 -8h-12q-8 -2 -12 -2h-34q-4 0 -9 3.5t-11 7.5
q-2 0 -6.5 2.5t-6.5 6.5q-3 4 -5 6.5t-4 7.5zM240 438v-44h56v-15h-56v-47h67v-16h-84v140h84v-18h-67zM1171 438v-44h60v-15h-60v-47h68v-16h-84v140h84v-18h-68zM2375 759h-20q-3 0 -8 -5q-6 -5 -6 -10l-37 -47h-2q0 -2 -2 -2v2l-39 47q-1 7 -4 10q-5 5 -11 5h-18l58 -77
v-2q0 -2 2 -2l2 -2v-72h21v70q2 0 2 2l2 4v2zM641 456v-85q0 -7 2 -10t5 -5q0 -6 3.5 -9.5t5.5 -4.5q0 -2 4.5 -4t6.5 -4q6 -2 8 -2h16q1 0 5 2l9 4q2 1 3.5 2t3.5 2q3 1 8 14q4 3 4 15v85h14v-85q0 -12 -4 -23t-12 -16q-2 -5 -6.5 -9.5t-8.5 -4.5q-8 -1 -13.5 -1.5
t-10.5 -0.5t-11 0.5t-14 1.5q-2 0 -6.5 4.5l-9.5 9.5l-10 16q-1 6 -3.5 11t-2.5 12v85h14zM2253 625h-69v134h-21v-155h90v21zM1271 625h-67v134h-20v-155h87v21zM1452 336q1 2 2 3.5t2 3.5q2 2 3 6.5t1 6.5q0 9 -2 11t-3 4.5t-3 4.5q-1 1 -8 3q-4 0 -6 2t-6 2q-8 0 -14 6
q-9 0 -13 7q-2 0 -3.5 3.5t-3.5 7.5v22q0 1 2 7q0 8 7 9l6 7q2 1 3.5 2t3.5 2q5 0 7.5 1.5t8.5 1.5l6 -2l4 -1q4 0 5 -1t5 -3q2 0 4 -3.5t2 -5.5q4 0 6 -3l1 -2l-2 -2q-6 -2 -9 -2h-6q-2 2 -2 4h-23q-9 0 -9 -2q-5 -7 -5 -8q-4 0 -4 -8q0 -5 4 -6q0 -5 3 -6q0 -1 3 -4l4 -1
q4 -4 7.5 -4t7.5 -3q3 0 4 -1l2 -1q4 0 8 -5h4q2 0 4 -2h2q5 -4 8.5 -7t5.5 -4q1 -5 1.5 -10.5t0.5 -9.5v-10q0 -5 -4 -6q-3 -4 -5.5 -7.5t-6.5 -5.5q-2 -2 -6 -5.5t-6 -3.5q-6 -2 -10 -2h-9q-11 0 -18.5 1t-12.5 10q-2 0 -3.5 2.5t-5.5 4.5v4l-2 2l4 2h7q1 0 3 -1t4 -1
q4 -4 6.5 -5t4.5 -3h22q8 0 12 4zM1069 316l-59 140h6q6 0 8 -2t3 -2t3 -7l43 -103v-2l2 -6v6l2 2q5 14 13 27.5t12 24.5q4 16 10 28t12 23q0 7 1.5 7t1.5 2q6 2 7 2h11q-8 -18 -15.5 -35t-16.5 -34q-4 -9 -7 -18.5t-6 -18.5l-16 -34h-15zM532 438v-49h60v-12h-60v-61h-16
v140h85v-18h-69zM1959 438v-49h54v-12h-54v-61h-16v140h81v-18h-65zM879 456v-124h63v-16h-80v140h17zM371 316v122h-46v18h105v-18h-47v-122h-12zM784 456v-124h64v-16h-80v140h16zM270 728q2 -1 3 -4t3 -5q4 -4 4 -9v-4q0 -5 -4 -9q-2 -2 -3 -4.5t-3 -2.5l-4 -4l-4 -4h-46
v53h36q4 0 10 -2q1 0 4 -3zM1325 389q4 0 6 3q4 4 9 4l2 5q0 2 5 6q0 1 1 4t1 7q0 2 -1 3.5t-1 4.5q-7 3 -7 8q-5 0 -9 4h-44v-49h38zM2101 392q4 4 7 4q7 7 7 11q2 4 2 11q0 4 -2 8q0 2 -7 8q-3 0 -7 4h-44v-49h36q3 0 8 3zM1525 456v-140h-18v140h18zM518 701l-4 -7
q-2 0 -3 -2t-3 -2q-2 -2 -10 -2h-33v47h33q4 0 10 -2q2 0 6 -5q1 -2 2 -3.5t2 -3.5q3 -2 3 -9q0 -5 -3 -11zM684 129l-27 69q0 2 -1 3l-1 2q0 4 -3 6v-6l-1 -2q-1 -1 -1 -3l-27 -69h61zM1093 727v-4l27 -64h-59l30 64v5zM1755 82q6 0 6 -6q2 -2 2 -5v-4q0 -9 -2 -11
q0 -5 -6 -9q-3 0 -6 -4h-17q-4 4 -11 4q0 2 -5 9q-2 2 -2 11v4q0 3 2 5l3 4l2 2q7 4 11 4q1 3 4 3h10q3 0 3 -3q3 0 6 -4z" />
    <glyph glyph-name="six" unicode="6" 
d="M2478 1093v-587h-2404v587h910q0 30 5.5 58t20.5 53q12 29 26 52.5t37 41.5q39 42 91 62q28 12 55.5 17t56.5 5q33 0 61.5 -6.5t53.5 -15.5q27 -14 50.5 -29.5t45.5 -36.5q35 -38 60 -94q11 -27 15.5 -54t4.5 -53h911zM1030 1194q-20 -49 -20 -101q0 -58 20 -106
q10 -22 24.5 -43.5t29.5 -42.5q20 -17 41.5 -32t45.5 -25q46 -23 105 -23q31 0 56.5 4.5t47.5 16.5q48 19 83 57q22 20 35.5 41t26.5 43q20 54 20 110q0 20 -3.5 43.5t-11.5 47.5q-14 40 -43 72q-14 20 -29.5 33.5t-34.5 25.5l-76 36q-16 3 -33 6t-38 3q-29 0 -55.5 -5.5
t-51.5 -19.5q-50 -19 -85 -57q-17 -19 -30.5 -39.5t-23.5 -44.5zM1142 936l314 317q62 -80 62 -160q0 -24 -3.5 -45.5t-11.5 -41.5q-8 -19 -17.5 -37t-23.5 -33h-320zM1095 928q-14 17 -25 36.5t-19 39.5q-9 18 -12.5 40.5t-3.5 48.5q0 18 3.5 39t12.5 43q7 35 40 68h318z
M1135 207q2 -4 4.5 -11t5.5 -14q2 -10 2 -14v-32q0 -5 -2 -11l-6 -15l-4 -14q-6 -4 -10.5 -10t-8.5 -10q-6 -5 -11 -10.5t-10 -9.5q-9 -5 -15.5 -7t-12.5 -4q-10 -2 -15 -2h-17q-9 0 -19 2t-23 4q-12 6 -18.5 13t-17.5 14q-15 14 -21 35q-4 10 -6 19.5t-2 23.5v14q0 4 2 14
q4 17 12 25q4 8 7.5 13t7.5 11q9 5 13.5 9.5t10.5 9.5l12 4l17 6q5 0 11.5 1t13.5 1q10 0 17 -1t15 -1q6 -4 12.5 -6t15.5 -4q5 -5 10 -9.5t11 -9.5q4 -6 8.5 -11t10.5 -13zM2195 207q4 -4 6.5 -11t4.5 -14q4 -7 4 -14v-32q0 -7 -4 -11q-2 -7 -4.5 -15t-6.5 -14l-16 -20
l-12 -10l-14 -10q-5 -5 -12 -7t-13 -4q-8 -2 -14 -2h-17q-19 0 -43 6q-8 6 -16 13t-17 14q-8 6 -14 14t-8 21q-6 10 -7.5 19.5t-1.5 23.5q0 8 1 14t1 14l6 14t7 11q2 8 6 13t10 11q3 5 10.5 9.5t12.5 9.5q4 2 11 4t13 6q11 0 17 1t12 1q9 0 17 -1t14 -1q6 -4 13 -6t12 -4
l26 -19q2 -6 8 -11t8 -13zM2433 260l1 1q1 1 6 1h38v-219h-38v160l-5 -9v-8q0 -2 -2 -4q-6 -16 -13 -34.5t-16 -31.5q-6 -20 -12 -36.5t-14 -36.5h-37l-55 139q-6 3 -6 12q0 4 -1 4l-2 2v-157h-42v219h40q5 0 6.5 -1t4.5 -1q2 -2 3 -2t4 -2l7 -4q0 -2 2 -3.5t2 -3.5
q4 -18 11 -32.5t16 -34.5l12 -33q3 -8 6 -15l6 -14v-14q3 0 4 -4q0 4 1 4v14l11 13l44 116q0 1 2 3l2 4q0 1 3 3l3 1q2 2 4 2t4 2zM1329 262h38v-219h-36l-100 146l-4 5v2q-3 4 -3 5q-4 1 -4 4q0 4 -7 4v-166h-37v219h33q4 0 9.5 -1t5.5 -3q3 -2 5 -2t4 -2l22 -33
q6 -8 11 -16.5t10 -19.5q13 -13 24 -29t25 -29q0 -2 1 -4.5t1 -6.5l1 -3q0 -2 1 -3v152zM672 262l94 -219h-25q-9 0 -16 4q-2 2 -4 6.5t-6 8.5l-14 27h-100l-9 -27q0 -6 -4 -6q-2 -5 -4 -5l-3 -4q-2 0 -4.5 -1t-6.5 -1q0 -2 -2 -2h-27l96 219h35zM260 262h139v-39h-100v-49
h82v-41h-82v-51h100v-39h-139v219zM839 659q1 7 2 11t1 10q0 12 -3 21q0 7 -4.5 10.5t-6.5 9.5q-2 3 -4.5 6.5t-6.5 7.5l-7 6q-2 3 -9 9q-4 2 -8 4.5t-11 4.5q-5 0 -9.5 0.5t-10.5 0.5q-3 0 -8.5 -0.5t-12.5 -0.5q-6 -2 -10 -4.5t-8 -4.5q-4 -6 -7.5 -8.5t-7.5 -6.5
q-13 -7 -14 -14q-4 -6 -5 -9.5l-3 -10.5q-1 -5 -1.5 -10t-0.5 -11t2 -14.5t4 -15.5t6.5 -12.5t11.5 -12.5q10 -15 25 -15q10 -6 29 -6h20q15 5 19 8q11 4 16 13q3 4 6 7.5t5 8.5q2 4 6.5 9t4.5 9zM1966 659v42l-7 20q-5 7 -15 14q-1 4 -6 6.5t-10 8.5l-4 2t-5 2l-7 5
q-7 0 -12 0.5t-10 0.5q-6 0 -11 -0.5t-9 -0.5l-22 -9q-3 -6 -6 -8.5t-7 -6.5q-3 -4 -6.5 -7t-5.5 -7q-2 -6 -4.5 -9.5t-2.5 -10.5q-6 -9 -6 -21q0 -6 3 -14.5t6 -15.5q4 -15 16 -25q7 -15 26 -15q10 -6 29 -6h22q3 2 8 4t8 4l10 6t6 7q11 8 15 16zM74 262h158v-24
q0 -4 -1 -6q0 -3 -2 -5l-4 -4l-105 -143h1l2 2h108v-39h-164v13q0 11 2 13q0 2 5 7v4l2 4q2 2 4 3.5t2 6.5l94 129h-102v39zM1839 203q-4 -4 -7 -10.5t-7 -14.5q-2 -4 -4 -10t-2 -14q0 -7 2 -15l4 -12q2 -7 6 -14.5t8 -10.5q4 -4 9.5 -8.5t14.5 -7.5q12 -4 27 -4q5 0 10 1
t12 1q3 2 8 5t8 7q3 0 9 2h13q3 0 9 -2q2 -1 3.5 -3t3.5 -4l6 -7q-3 -4 -6 -7.5t-7 -7.5q-7 -5 -11.5 -8t-12.5 -6q-7 -4 -11.5 -5t-10.5 -3t-11 -2h-12q-12 0 -23.5 2t-21.5 4q-10 5 -18.5 12t-16.5 15q-16 13 -22 35q-4 10 -7 19.5t-3 23.5q0 10 1 14l4 14q1 7 3 14t6 11
q6 8 8.5 13t9.5 11q14 9 25 19q4 2 9.5 4t18.5 6q5 0 12 1t15 1h13q4 0 10 -2t10.5 -3t11.5 -3q8 -4 12.5 -6.5t11.5 -7.5l13 -17l-6 -8q-2 -1 -5 -4l-2 -4h-15q-7 0 -16 4l-16 10q-10 2 -12 2h-10q-17 0 -27 -7q-17 -1 -24 -13zM1690 151l7 -10.5t3 -7.5q6 -8 6 -20
q0 -15 -8 -29l-8 -12l-9 -10q-7 -6 -11.5 -9.5t-12.5 -5.5q-5 -2 -14 -3t-15 -1q-8 0 -14.5 1l-19.5 3q-5 2 -10 6.5t-11 13.5q-4 1 -6 5l-4 8q-7 2 -7 9l7 5q2 2 4 2h4l2 2h10q4 0 4 -2q7 0 9 -2q7 -5 10.5 -6.5t5.5 -3.5q2 0 6 -1t10 -1h5q2 0 6 2q5 1 8 2t7 3q6 6 7 9
q2 4 4 7.5t2 7.5q0 7 -6 10q-5 6 -7 6q-2 4 -7.5 5t-7.5 2q-6 0 -14 7q-5 0 -9 1t-9 7q-11 3 -14.5 6t-7.5 7q-12 4 -12 14q-6 10 -6 25q0 18 6 26l6 11l8 10q4 2 10 4t13 6q6 0 10.5 1t13.5 1q4 0 8.5 -1t11.5 -1l15 -6q3 -4 6.5 -6.5t7.5 -7.5q4 -2 7.5 -5.5t3.5 -7.5
l-7 -4q-4 -2 -7 -4.5t-3 -3.5h-18l-5 1l-7 5q-2 0 -4 1t-4 1h-17q-2 0 -3 -1t-5 -3q-2 -3 -6 -6q-1 -3 -1 -10q0 -5 1 -5q2 -2 3 -5.5t3 -7.5h6q1 0 5 -2q5 -1 9.5 -3t10.5 -4l9 -2q5 -4 9 -5t9 -5q5 -2 10 -5t8 -8zM1579 336q-12 7 -16 20q-7 17 -7 31v16l11 20l12 13
q6 7 12 9q3 7 9.5 8t9.5 3q4 0 8 1.5t10 1.5q4 0 10.5 -1.5t10.5 -1.5q5 -2 8.5 -3t7.5 -8q2 -2 5.5 -4.5t6.5 -4.5l13 -13l8 -20q0 -4 1 -9t1 -7q0 -6 -1 -14t-5 -17q-5 -13 -17 -20q-5 -4 -9.5 -7.5t-11.5 -10.5q-5 -1 -12 -1.5t-16 -0.5h-15q-4 0 -10 2q-18 7 -24 18z
M2284 336q-7 -4 -13.5 -7.5t-11.5 -10.5q-8 -2 -12 -2h-30q-5 0 -13 2q-7 4 -12.5 8.5t-10.5 9.5q-6 6 -13 20q-2 9 -4.5 17t-2.5 14q0 2 1 7t1 9q3 5 4 10t4 10q2 3 5 6t5 7q6 4 18 9q3 7 8 8t7 3q6 0 9 1.5t10 1.5q2 0 8.5 -1.5t11.5 -1.5q4 -2 7.5 -3t6.5 -8l17 -9
q2 -4 4 -7t5 -6q2 -5 4 -9.5t3 -10.5q2 -4 3 -9t1 -7q0 -6 -1 -14t-5 -17q0 -6 -5 -11zM2166 127q5 12 5 27q0 16 -5 24q-3 9 -8 15.5t-8 9.5q-10 10 -24 13q-4 5 -12 6t-17 1q-12 0 -25 -7q-8 -1 -13 -4t-11 -9q-4 -3 -7.5 -9.5t-8.5 -15.5q0 -4 -1 -10t-1 -14q0 -9 1 -15
t1 -12q4 -8 8 -14t8 -11q6 -4 11 -8.5t13 -7.5q7 -2 14 -3t11 -1q9 0 17 1t12 3q8 3 14 7.5t10 8.5q11 11 16 25zM1104 127q4 11 4 27q0 13 -4 24q-2 9 -6.5 15.5t-13.5 9.5q-2 6 -7.5 9t-11.5 4q-11 7 -30 7q-14 0 -25 -7q-11 -1 -23 -13q-6 -3 -9 -9.5t-5 -15.5
q-5 -5 -5 -10v-29q0 -5 5 -12q2 -7 5 -14.5t9 -10.5q6 -4 11 -8.5t12 -7.5q11 -4 25 -4q19 0 30 4q13 7 19 16q9 3 13.5 10.5t6.5 14.5zM774 262h139v-39h-100v-55h82v-39h-82v-86h-39v219zM570 223h-58v-180h-43v180h-62v39h163v-39zM1188 864q-19 7 -37 19t-35 26h322
q-18 -14 -36 -26t-36 -19q-24 -6 -45.5 -11t-44.5 -5q-25 0 -45.5 5t-42.5 11zM1389 262h165v-39h-65v-180h-39v180h-61v39zM1366 1315q18 -8 36 -20.5t36 -22.5h-325q38 30 75 43q37 18 88 18q48 0 90 -18zM559 604l-47 68q4 0 11 4q8 5 9 10q9 5 9 11v26q0 1 -2 5
q-3 10 -11 15q-5 9 -14 9q-2 5 -6.5 6t-9.5 1h-57v-155h24v64h23l40 -56q1 -4 8 -6q2 -2 3 -2h20zM1169 604l-67 155h-22l-65 -155h11q7 0 9 2q0 2 7 6l11 27h76l13 -27q1 -4 5 -6q2 -2 8 -2h14zM1930 721q3 -2 8 -7.5t6 -12.5q4 -7 4 -21q0 -12 -4 -23q-1 -5 -6 -9.5
t-8 -6.5q-5 -4 -9 -6.5t-8 -7.5q-9 -4 -23 -4q-6 0 -12 1t-10 3q-5 5 -10.5 7.5t-9.5 6.5q-3 2 -6 6.5t-3 9.5q-4 7 -5 12t-1 11q0 10 6 21q0 7 3 12.5t6 7.5q4 4 9.5 7t10.5 5q9 4 22 4q5 0 11.5 -1t11.5 -3zM801 721q7 -2 9.5 -7.5t4.5 -12.5q4 -7 4 -21q0 -11 -4 -23
q-2 -5 -4.5 -9.5t-9.5 -6.5q-1 -4 -6 -7l-11 -7q-9 -4 -22 -4q-11 0 -23 4q-4 5 -9 7.5t-9 6.5q-2 2 -5.5 6.5t-5.5 9.5q-4 12 -4 23q0 12 4 21q2 7 5.5 12.5t5.5 7.5q4 4 9 7t9 5q5 2 12.5 3t10.5 1q13 0 22 -4q8 -2 11.5 -5t5.5 -7zM2126 759h-22v-120q-1 2 -2 5t-3 4
l-75 104l-3 7h-24v-155h22v121l2 -2l87 -119h18v155zM2218 332h31l6 3q3 3 4 5q6 0 14 5q2 5 3 7t4 4q0 3 3 8t3 10v34q-3 6 -7 10.5t-6 7.5q-10 4 -18 12h-43q-6 -4 -9.5 -7t-9.5 -5q-5 -3 -7.5 -7.5t-4.5 -10.5q-1 -4 -1.5 -7t-0.5 -7v-20q0 -13 5 -18q2 -2 4.5 -4t4.5 -7
l7 -3q2 -2 4 -2q4 -4 7 -5t7 -3zM296 690q5 12 5 20q0 9 -5 18q0 2 -5 7l-6 6q-2 3 -5 7t-10 4q-3 5 -8.5 6t-9.5 1h-52v-155h16v59h36q4 0 9.5 0.5t8.5 2.5q10 4 15 10q4 2 7.5 6t3.5 8zM1579 408q-6 -14 -6 -21v-8q0 -4 3 -5q0 -10 5 -18q0 -2 2 -4t4 -7l5 -3q2 -2 11 -2
q2 -4 5.5 -5t5.5 -3h27q6 2 9.5 3t6.5 5l6 2l4 3q2 5 4.5 7t2.5 4q3 3 4 8t3 10q0 2 1 5.5t1 7.5q0 2 -1 8t-5 13q0 6 -4 10.5t-6 7.5q-3 1 -8 6l-10 6h-42q-4 -4 -10 -7l-10 -5l-5 -8q-3 -5 -3 -10zM997 759h-18v-120l-2 4q-2 6 -2 5l-74 104q-5 0 -6 7h-25v-155h21v124h2
l2 -1v-4l86 -119h16v155zM2115 381q-5 -1 -8.5 -2t-5.5 -2l45 -61h-12l-6 2q-4 0 -4 9l-39 50h-28v-61h-15v140h57q3 0 9 -2q2 -2 6.5 -5.5t5.5 -5.5q4 -2 5 -5.5t7 -7.5v-27q-4 -4 -5 -8t-3 -6zM1342 381q-3 -3 -11 -4l47 -61h-15q-3 0 -3 2q-6 0 -6 9l-39 50h-28v-61h-13
v140h56q2 0 6 -2q10 -1 18 -11q0 -2 3 -5.5t3 -7.5q2 -2 2 -6v-14q0 -1 -2 -7q0 -10 -4 -14l-5 -4q-3 -3 -9 -4zM412 759h-98v-155h98v21h-74v47h58v18h-58v45h74v24zM1721 759h-93v-155h93v21h-69v47h58v18h-58v45h69v24zM2460 454q6 2 5 2h13v-140h-12v114l-2 -2v-2
q-4 -8 -6.5 -17.5t-8.5 -14.5q-5 -7 -7 -12.5t-7 -14.5q-2 -9 -3 -15.5t-5 -9.5q-3 -8 -6.5 -12.5t-5.5 -13.5h-15q-10 14 -15 27t-10 28q-4 12 -12 26.5t-12 28.5v2h-4v-112h-14v140h14q4 0 6 -2l2 -2v-7l49 -105q0 -4 2 -4l1 2v4q0 2 8 6l41 97q2 7 3 7t1 2zM1480 759h-22
v-104q0 -4 -2 -8q-1 -7 -10 -12q0 -2 -4 -3.5t-6 -6.5l-9 -2h-9q-7 0 -13 2q-5 5 -8.5 6.5t-5.5 3.5l-11 12q0 3 -1 7.5t-1 11.5v93h-20v-93q0 -7 1 -11.5t1 -7.5q0 -8 6 -14q3 -8 10 -12q2 -4 4.5 -6.5t8.5 -4.5q2 -2 6.5 -3t7.5 -3q4 0 7 -1.5t8 -1.5t8.5 1.5t11.5 1.5
q2 2 5 3t7 3q3 2 6 4.5t6 6.5q3 2 5 5.5t7 6.5q0 4 3 7t3 7v112zM664 632q2 5 3 8t1 8q0 12 -5.5 20t-12.5 14q-2 0 -3.5 2t-5.5 4l-4 2h-4q-1 0 -1 4q-8 0 -9 1q-8 2 -9.5 3t-5.5 3q-6 5 -9 5q-3 4 -3 6v15q0 1 1.5 2.5t1.5 3.5q2 0 4.5 1t4.5 1q6 2 5 2h10q2 -2 4 -2
q7 0 8 -4q1 -3 4 -3h2q9 0 14 5l4 2q0 2 -2 4l-5 4q-2 1 -4.5 4t-6.5 5q-2 0 -4 2.5t-5 4.5q-5 0 -7 0.5t-4 0.5q-7 0 -12 -0.5t-8 -0.5q-5 -2 -7 -4.5t-6 -4.5q-2 -6 -5.5 -8.5t-8.5 -6.5q0 -4 -2 -7t-2 -9t4 -18l12 -11q2 -2 6 -5t7 -3q5 -2 8 -4t7 -2q1 -2 6 -2t7 -2
l6 -2q2 0 4 -2t2 -3t2 -6q2 -2 2 -7v-9q0 -2 -2 -4t-2 -4t-2 -3q-2 -5 -6 -6l-4 -1q-4 0 -8 -1t-5 -1q-4 0 -7 1t-6 1q-2 0 -3.5 1t-1.5 6l-4 1q-4 4 -11 4h-7l-4 -2l-5 -2q0 -3 3 -3q0 -3 2 -5q0 -4 4 -4v-6h5q7 -7 16 -9t19 -2h10q5 0 11 2q4 2 8.5 4t6.5 5q13 5 14 17z
M1741 316h-18v140h20q3 0 4 -4l74 -104q2 0 2 -5l2 -1v114h14v-140h-12l-82 114v4h-4v-118zM1596 632q9 7 9 16q0 12 -5.5 20t-12.5 14q-6 4 -6 6h-4l-4 2h-3q-4 0 -5 4h-4q-2 0 -5 1q-2 2 -4 3t-7 3l-7 5q-2 1 -3 2l-2 2l-1 2q0 1 -1 3t-1 4q0 4 4 8q0 2 4 6q2 0 3 1t4 1
q2 2 11 2l4 -1q2 -1 5 -1q3 -3 8 -4q6 -3 8 -3q6 0 8 5l5 2q0 2 -2.5 4t-4.5 4q0 1 -3 4l-5 5q-3 0 -5.5 2.5t-6.5 4.5h-6l-5 1q-6 0 -10 -0.5t-8 -0.5l-13 -9q-5 -6 -7 -8.5t-6 -6.5q-1 -4 -3 -7t-2 -9q0 -4 2 -7.5t3 -10.5l10 -11q5 -2 7.5 -5t6.5 -3q4 -2 7.5 -4t6.5 -2
q4 -2 7 -2t6 -2q6 0 10 -4l4 -3q2 -2 2 -6q2 -2 2 -6v-9q0 -3 -2 -5q0 -6 -6 -7q-6 -5 -7 -6t-3 -1q-7 0 -8 -1t-5 -1q-3 0 -6.5 1t-5.5 1q-2 1 -4 3l-4 4l-2 1q-5 4 -10 4h-7q-2 0 -4 -2l-6 -2q2 -1 2 -2t2 -1q0 -3 1 -4l3 -3v-2q6 -6 9 -6q7 -7 14.5 -9t17.5 -2h12
q3 0 11 2q3 2 6.5 4t7.5 5l5 8q3 3 4 9zM78 350q-6 6 -7 17l-3 10q-1 3 -1 10t4 16l2 10t5 10l4 6l5 7q2 2 6.5 4.5t6.5 4.5q6 7 11 8t9 3q3 0 8 1.5t10 1.5q7 0 14.5 -1.5t13.5 -5.5q8 -2 12.5 -6.5t8.5 -9.5q-2 -2 -4 -2v-4h-13q-4 2 -7 5t-7 3h-36l-22 -12
q-4 -3 -7.5 -7.5t-4.5 -10.5q-2 -7 -3 -13t-1 -8q0 -9 4 -13q0 -5 0.5 -10t0.5 -8l5 -4q4 -1 6 -7l7 -4q3 -1 8 -1q3 -4 5.5 -5t6.5 -3h33q2 2 7 3t9 5v29h-14v2q-2 0 -3 1.5t-3 3.5h-2q-1 1 -1 3v4h36v-51q-2 -5 -3.5 -6t-5.5 -8h-12q-8 -2 -12 -2h-34q-4 0 -9 3.5t-11 7.5
q-2 0 -6.5 2.5t-6.5 6.5q-3 4 -5 6.5t-4 7.5zM240 438v-44h56v-15h-56v-47h67v-16h-84v140h84v-18h-67zM1171 438v-44h60v-15h-60v-47h68v-16h-84v140h84v-18h-68zM2375 759h-20q-3 0 -8 -5q-6 -5 -6 -10l-37 -47h-2q0 -2 -2 -2v2l-39 47q-1 7 -4 10q-5 5 -11 5h-18l58 -77
v-2q0 -2 2 -2l2 -2v-72h21v70q2 0 2 2l2 4v2zM641 456v-85q0 -7 2 -10t5 -5q0 -6 3.5 -9.5t5.5 -4.5q0 -2 4.5 -4t6.5 -4q6 -2 8 -2h16q1 0 5 2l9 4q2 1 3.5 2t3.5 2q3 1 8 14q4 3 4 15v85h14v-85q0 -12 -4 -23t-12 -16q-2 -5 -6.5 -9.5t-8.5 -4.5q-8 -1 -13.5 -1.5
t-10.5 -0.5t-11 0.5t-14 1.5q-2 0 -6.5 4.5l-9.5 9.5l-10 16q-1 6 -3.5 11t-2.5 12v85h14zM2253 625h-69v134h-21v-155h90v21zM1271 625h-67v134h-20v-155h87v21zM1452 336q1 2 2 3.5t2 3.5q2 2 3 6.5t1 6.5q0 9 -2 11t-3 4.5t-3 4.5q-1 1 -8 3q-4 0 -6 2t-6 2q-8 0 -14 6
q-9 0 -13 7q-2 0 -3.5 3.5t-3.5 7.5v22q0 1 2 7q0 8 7 9l6 7q2 1 3.5 2t3.5 2q5 0 7.5 1.5t8.5 1.5l6 -2l4 -1q4 0 5 -1t5 -3q2 0 4 -3.5t2 -5.5q4 0 6 -3l1 -2l-2 -2q-6 -2 -9 -2h-6q-2 2 -2 4h-23q-9 0 -9 -2q-5 -7 -5 -8q-4 0 -4 -8q0 -5 4 -6q0 -5 3 -6q0 -1 3 -4l4 -1
q4 -4 7.5 -4t7.5 -3q3 0 4 -1l2 -1q4 0 8 -5h4q2 0 4 -2h2q5 -4 8.5 -7t5.5 -4q1 -5 1.5 -10.5t0.5 -9.5v-10q0 -5 -4 -6q-3 -4 -5.5 -7.5t-6.5 -5.5q-2 -2 -6 -5.5t-6 -3.5q-6 -2 -10 -2h-9q-11 0 -18.5 1t-12.5 10q-2 0 -3.5 2.5t-5.5 4.5v4l-2 2l4 2h7q1 0 3 -1t4 -1
q4 -4 6.5 -5t4.5 -3h22q8 0 12 4zM1069 316l-59 140h6q6 0 8 -2t3 -2t3 -7l43 -103v-2l2 -6v6l2 2q5 14 13 27.5t12 24.5q4 16 10 28t12 23q0 7 1.5 7t1.5 2q6 2 7 2h11q-8 -18 -15.5 -35t-16.5 -34q-4 -9 -7 -18.5t-6 -18.5l-16 -34h-15zM532 438v-49h60v-12h-60v-61h-16
v140h85v-18h-69zM1959 438v-49h54v-12h-54v-61h-16v140h81v-18h-65zM879 456v-124h63v-16h-80v140h17zM371 316v122h-46v18h105v-18h-47v-122h-12zM784 456v-124h64v-16h-80v140h16zM270 728q2 -1 3 -4t3 -5q4 -4 4 -9v-4q0 -5 -4 -9q-2 -2 -3 -4.5t-3 -2.5l-4 -4l-4 -4h-46
v53h36q4 0 10 -2q1 0 4 -3zM1325 389q4 0 6 3q4 4 9 4l2 5q0 2 5 6q0 1 1 4t1 7q0 2 -1 3.5t-1 4.5q-7 3 -7 8q-5 0 -9 4h-44v-49h38zM2101 392q4 4 7 4q7 7 7 11q2 4 2 11q0 4 -2 8q0 2 -7 8q-3 0 -7 4h-44v-49h36q3 0 8 3zM1525 456v-140h-18v140h18zM518 701l-4 -7
q-2 0 -3 -2t-3 -2q-2 -2 -10 -2h-33v47h33q4 0 10 -2q2 0 6 -5q1 -2 2 -3.5t2 -3.5q3 -2 3 -9q0 -5 -3 -11zM684 129l-27 69q0 2 -1 3l-1 2q0 4 -3 6v-6l-1 -2q-1 -1 -1 -3l-27 -69h61zM1093 727v-4l27 -64h-59l30 64v5zM1755 82q6 0 6 -6q2 -2 2 -5v-4q0 -9 -2 -11
q0 -5 -6 -9q-3 0 -6 -4h-17q-4 4 -11 4q0 2 -5 9q-2 2 -2 11v4q0 3 2 5l3 4l2 2q7 4 11 4q1 3 4 3h10q3 0 3 -3q3 0 6 -4z" />
    <glyph glyph-name="seven" unicode="7" 
d="M2478 1093v-587h-2404v587h910q0 30 5.5 58t20.5 53q12 29 26 52.5t37 41.5q39 42 91 62q28 12 55.5 17t56.5 5q33 0 61.5 -6.5t53.5 -15.5q27 -14 50.5 -29.5t45.5 -36.5q35 -38 60 -94q11 -27 15.5 -54t4.5 -53h911zM1030 1194q-20 -49 -20 -101q0 -58 20 -106
q10 -22 24.5 -43.5t29.5 -42.5q20 -17 41.5 -32t45.5 -25q46 -23 105 -23q31 0 56.5 4.5t47.5 16.5q48 19 83 57q22 20 35.5 41t26.5 43q20 54 20 110q0 20 -3.5 43.5t-11.5 47.5q-14 40 -43 72q-14 20 -29.5 33.5t-34.5 25.5l-76 36q-16 3 -33 6t-38 3q-29 0 -55.5 -5.5
t-51.5 -19.5q-50 -19 -85 -57q-17 -19 -30.5 -39.5t-23.5 -44.5zM1142 936l314 317q62 -80 62 -160q0 -24 -3.5 -45.5t-11.5 -41.5q-8 -19 -17.5 -37t-23.5 -33h-320zM1095 928q-14 17 -25 36.5t-19 39.5q-9 18 -12.5 40.5t-3.5 48.5q0 18 3.5 39t12.5 43q7 35 40 68h318z
M1135 207q2 -4 4.5 -11t5.5 -14q2 -10 2 -14v-32q0 -5 -2 -11l-6 -15l-4 -14q-6 -4 -10.5 -10t-8.5 -10q-6 -5 -11 -10.5t-10 -9.5q-9 -5 -15.5 -7t-12.5 -4q-10 -2 -15 -2h-17q-9 0 -19 2t-23 4q-12 6 -18.5 13t-17.5 14q-15 14 -21 35q-4 10 -6 19.5t-2 23.5v14q0 4 2 14
q4 17 12 25q4 8 7.5 13t7.5 11q9 5 13.5 9.5t10.5 9.5l12 4l17 6q5 0 11.5 1t13.5 1q10 0 17 -1t15 -1q6 -4 12.5 -6t15.5 -4q5 -5 10 -9.5t11 -9.5q4 -6 8.5 -11t10.5 -13zM2195 207q4 -4 6.5 -11t4.5 -14q4 -7 4 -14v-32q0 -7 -4 -11q-2 -7 -4.5 -15t-6.5 -14l-16 -20
l-12 -10l-14 -10q-5 -5 -12 -7t-13 -4q-8 -2 -14 -2h-17q-19 0 -43 6q-8 6 -16 13t-17 14q-8 6 -14 14t-8 21q-6 10 -7.5 19.5t-1.5 23.5q0 8 1 14t1 14l6 14t7 11q2 8 6 13t10 11q3 5 10.5 9.5t12.5 9.5q4 2 11 4t13 6q11 0 17 1t12 1q9 0 17 -1t14 -1q6 -4 13 -6t12 -4
l26 -19q2 -6 8 -11t8 -13zM2433 260l1 1q1 1 6 1h38v-219h-38v160l-5 -9v-8q0 -2 -2 -4q-6 -16 -13 -34.5t-16 -31.5q-6 -20 -12 -36.5t-14 -36.5h-37l-55 139q-6 3 -6 12q0 4 -1 4l-2 2v-157h-42v219h40q5 0 6.5 -1t4.5 -1q2 -2 3 -2t4 -2l7 -4q0 -2 2 -3.5t2 -3.5
q4 -18 11 -32.5t16 -34.5l12 -33q3 -8 6 -15l6 -14v-14q3 0 4 -4q0 4 1 4v14l11 13l44 116q0 1 2 3l2 4q0 1 3 3l3 1q2 2 4 2t4 2zM1329 262h38v-219h-36l-100 146l-4 5v2q-3 4 -3 5q-4 1 -4 4q0 4 -7 4v-166h-37v219h33q4 0 9.5 -1t5.5 -3q3 -2 5 -2t4 -2l22 -33
q6 -8 11 -16.5t10 -19.5q13 -13 24 -29t25 -29q0 -2 1 -4.5t1 -6.5l1 -3q0 -2 1 -3v152zM672 262l94 -219h-25q-9 0 -16 4q-2 2 -4 6.5t-6 8.5l-14 27h-100l-9 -27q0 -6 -4 -6q-2 -5 -4 -5l-3 -4q-2 0 -4.5 -1t-6.5 -1q0 -2 -2 -2h-27l96 219h35zM260 262h139v-39h-100v-49
h82v-41h-82v-51h100v-39h-139v219zM839 659q1 7 2 11t1 10q0 12 -3 21q0 7 -4.5 10.5t-6.5 9.5q-2 3 -4.5 6.5t-6.5 7.5l-7 6q-2 3 -9 9q-4 2 -8 4.5t-11 4.5q-5 0 -9.5 0.5t-10.5 0.5q-3 0 -8.5 -0.5t-12.5 -0.5q-6 -2 -10 -4.5t-8 -4.5q-4 -6 -7.5 -8.5t-7.5 -6.5
q-13 -7 -14 -14q-4 -6 -5 -9.5l-3 -10.5q-1 -5 -1.5 -10t-0.5 -11t2 -14.5t4 -15.5t6.5 -12.5t11.5 -12.5q10 -15 25 -15q10 -6 29 -6h20q15 5 19 8q11 4 16 13q3 4 6 7.5t5 8.5q2 4 6.5 9t4.5 9zM1966 659v42l-7 20q-5 7 -15 14q-1 4 -6 6.5t-10 8.5l-4 2t-5 2l-7 5
q-7 0 -12 0.5t-10 0.5q-6 0 -11 -0.5t-9 -0.5l-22 -9q-3 -6 -6 -8.5t-7 -6.5q-3 -4 -6.5 -7t-5.5 -7q-2 -6 -4.5 -9.5t-2.5 -10.5q-6 -9 -6 -21q0 -6 3 -14.5t6 -15.5q4 -15 16 -25q7 -15 26 -15q10 -6 29 -6h22q3 2 8 4t8 4l10 6t6 7q11 8 15 16zM74 262h158v-24
q0 -4 -1 -6q0 -3 -2 -5l-4 -4l-105 -143h1l2 2h108v-39h-164v13q0 11 2 13q0 2 5 7v4l2 4q2 2 4 3.5t2 6.5l94 129h-102v39zM1839 203q-4 -4 -7 -10.5t-7 -14.5q-2 -4 -4 -10t-2 -14q0 -7 2 -15l4 -12q2 -7 6 -14.5t8 -10.5q4 -4 9.5 -8.5t14.5 -7.5q12 -4 27 -4q5 0 10 1
t12 1q3 2 8 5t8 7q3 0 9 2h13q3 0 9 -2q2 -1 3.5 -3t3.5 -4l6 -7q-3 -4 -6 -7.5t-7 -7.5q-7 -5 -11.5 -8t-12.5 -6q-7 -4 -11.5 -5t-10.5 -3t-11 -2h-12q-12 0 -23.5 2t-21.5 4q-10 5 -18.5 12t-16.5 15q-16 13 -22 35q-4 10 -7 19.5t-3 23.5q0 10 1 14l4 14q1 7 3 14t6 11
q6 8 8.5 13t9.5 11q14 9 25 19q4 2 9.5 4t18.5 6q5 0 12 1t15 1h13q4 0 10 -2t10.5 -3t11.5 -3q8 -4 12.5 -6.5t11.5 -7.5l13 -17l-6 -8q-2 -1 -5 -4l-2 -4h-15q-7 0 -16 4l-16 10q-10 2 -12 2h-10q-17 0 -27 -7q-17 -1 -24 -13zM1690 151l7 -10.5t3 -7.5q6 -8 6 -20
q0 -15 -8 -29l-8 -12l-9 -10q-7 -6 -11.5 -9.5t-12.5 -5.5q-5 -2 -14 -3t-15 -1q-8 0 -14.5 1l-19.5 3q-5 2 -10 6.5t-11 13.5q-4 1 -6 5l-4 8q-7 2 -7 9l7 5q2 2 4 2h4l2 2h10q4 0 4 -2q7 0 9 -2q7 -5 10.5 -6.5t5.5 -3.5q2 0 6 -1t10 -1h5q2 0 6 2q5 1 8 2t7 3q6 6 7 9
q2 4 4 7.5t2 7.5q0 7 -6 10q-5 6 -7 6q-2 4 -7.5 5t-7.5 2q-6 0 -14 7q-5 0 -9 1t-9 7q-11 3 -14.5 6t-7.5 7q-12 4 -12 14q-6 10 -6 25q0 18 6 26l6 11l8 10q4 2 10 4t13 6q6 0 10.5 1t13.5 1q4 0 8.5 -1t11.5 -1l15 -6q3 -4 6.5 -6.5t7.5 -7.5q4 -2 7.5 -5.5t3.5 -7.5
l-7 -4q-4 -2 -7 -4.5t-3 -3.5h-18l-5 1l-7 5q-2 0 -4 1t-4 1h-17q-2 0 -3 -1t-5 -3q-2 -3 -6 -6q-1 -3 -1 -10q0 -5 1 -5q2 -2 3 -5.5t3 -7.5h6q1 0 5 -2q5 -1 9.5 -3t10.5 -4l9 -2q5 -4 9 -5t9 -5q5 -2 10 -5t8 -8zM1579 336q-12 7 -16 20q-7 17 -7 31v16l11 20l12 13
q6 7 12 9q3 7 9.5 8t9.5 3q4 0 8 1.5t10 1.5q4 0 10.5 -1.5t10.5 -1.5q5 -2 8.5 -3t7.5 -8q2 -2 5.5 -4.5t6.5 -4.5l13 -13l8 -20q0 -4 1 -9t1 -7q0 -6 -1 -14t-5 -17q-5 -13 -17 -20q-5 -4 -9.5 -7.5t-11.5 -10.5q-5 -1 -12 -1.5t-16 -0.5h-15q-4 0 -10 2q-18 7 -24 18z
M2284 336q-7 -4 -13.5 -7.5t-11.5 -10.5q-8 -2 -12 -2h-30q-5 0 -13 2q-7 4 -12.5 8.5t-10.5 9.5q-6 6 -13 20q-2 9 -4.5 17t-2.5 14q0 2 1 7t1 9q3 5 4 10t4 10q2 3 5 6t5 7q6 4 18 9q3 7 8 8t7 3q6 0 9 1.5t10 1.5q2 0 8.5 -1.5t11.5 -1.5q4 -2 7.5 -3t6.5 -8l17 -9
q2 -4 4 -7t5 -6q2 -5 4 -9.5t3 -10.5q2 -4 3 -9t1 -7q0 -6 -1 -14t-5 -17q0 -6 -5 -11zM2166 127q5 12 5 27q0 16 -5 24q-3 9 -8 15.5t-8 9.5q-10 10 -24 13q-4 5 -12 6t-17 1q-12 0 -25 -7q-8 -1 -13 -4t-11 -9q-4 -3 -7.5 -9.5t-8.5 -15.5q0 -4 -1 -10t-1 -14q0 -9 1 -15
t1 -12q4 -8 8 -14t8 -11q6 -4 11 -8.5t13 -7.5q7 -2 14 -3t11 -1q9 0 17 1t12 3q8 3 14 7.5t10 8.5q11 11 16 25zM1104 127q4 11 4 27q0 13 -4 24q-2 9 -6.5 15.5t-13.5 9.5q-2 6 -7.5 9t-11.5 4q-11 7 -30 7q-14 0 -25 -7q-11 -1 -23 -13q-6 -3 -9 -9.5t-5 -15.5
q-5 -5 -5 -10v-29q0 -5 5 -12q2 -7 5 -14.5t9 -10.5q6 -4 11 -8.5t12 -7.5q11 -4 25 -4q19 0 30 4q13 7 19 16q9 3 13.5 10.5t6.5 14.5zM774 262h139v-39h-100v-55h82v-39h-82v-86h-39v219zM570 223h-58v-180h-43v180h-62v39h163v-39zM1188 864q-19 7 -37 19t-35 26h322
q-18 -14 -36 -26t-36 -19q-24 -6 -45.5 -11t-44.5 -5q-25 0 -45.5 5t-42.5 11zM1389 262h165v-39h-65v-180h-39v180h-61v39zM1366 1315q18 -8 36 -20.5t36 -22.5h-325q38 30 75 43q37 18 88 18q48 0 90 -18zM559 604l-47 68q4 0 11 4q8 5 9 10q9 5 9 11v26q0 1 -2 5
q-3 10 -11 15q-5 9 -14 9q-2 5 -6.5 6t-9.5 1h-57v-155h24v64h23l40 -56q1 -4 8 -6q2 -2 3 -2h20zM1169 604l-67 155h-22l-65 -155h11q7 0 9 2q0 2 7 6l11 27h76l13 -27q1 -4 5 -6q2 -2 8 -2h14zM1930 721q3 -2 8 -7.5t6 -12.5q4 -7 4 -21q0 -12 -4 -23q-1 -5 -6 -9.5
t-8 -6.5q-5 -4 -9 -6.5t-8 -7.5q-9 -4 -23 -4q-6 0 -12 1t-10 3q-5 5 -10.5 7.5t-9.5 6.5q-3 2 -6 6.5t-3 9.5q-4 7 -5 12t-1 11q0 10 6 21q0 7 3 12.5t6 7.5q4 4 9.5 7t10.5 5q9 4 22 4q5 0 11.5 -1t11.5 -3zM801 721q7 -2 9.5 -7.5t4.5 -12.5q4 -7 4 -21q0 -11 -4 -23
q-2 -5 -4.5 -9.5t-9.5 -6.5q-1 -4 -6 -7l-11 -7q-9 -4 -22 -4q-11 0 -23 4q-4 5 -9 7.5t-9 6.5q-2 2 -5.5 6.5t-5.5 9.5q-4 12 -4 23q0 12 4 21q2 7 5.5 12.5t5.5 7.5q4 4 9 7t9 5q5 2 12.5 3t10.5 1q13 0 22 -4q8 -2 11.5 -5t5.5 -7zM2126 759h-22v-120q-1 2 -2 5t-3 4
l-75 104l-3 7h-24v-155h22v121l2 -2l87 -119h18v155zM2218 332h31l6 3q3 3 4 5q6 0 14 5q2 5 3 7t4 4q0 3 3 8t3 10v34q-3 6 -7 10.5t-6 7.5q-10 4 -18 12h-43q-6 -4 -9.5 -7t-9.5 -5q-5 -3 -7.5 -7.5t-4.5 -10.5q-1 -4 -1.5 -7t-0.5 -7v-20q0 -13 5 -18q2 -2 4.5 -4t4.5 -7
l7 -3q2 -2 4 -2q4 -4 7 -5t7 -3zM296 690q5 12 5 20q0 9 -5 18q0 2 -5 7l-6 6q-2 3 -5 7t-10 4q-3 5 -8.5 6t-9.5 1h-52v-155h16v59h36q4 0 9.5 0.5t8.5 2.5q10 4 15 10q4 2 7.5 6t3.5 8zM1579 408q-6 -14 -6 -21v-8q0 -4 3 -5q0 -10 5 -18q0 -2 2 -4t4 -7l5 -3q2 -2 11 -2
q2 -4 5.5 -5t5.5 -3h27q6 2 9.5 3t6.5 5l6 2l4 3q2 5 4.5 7t2.5 4q3 3 4 8t3 10q0 2 1 5.5t1 7.5q0 2 -1 8t-5 13q0 6 -4 10.5t-6 7.5q-3 1 -8 6l-10 6h-42q-4 -4 -10 -7l-10 -5l-5 -8q-3 -5 -3 -10zM997 759h-18v-120l-2 4q-2 6 -2 5l-74 104q-5 0 -6 7h-25v-155h21v124h2
l2 -1v-4l86 -119h16v155zM2115 381q-5 -1 -8.5 -2t-5.5 -2l45 -61h-12l-6 2q-4 0 -4 9l-39 50h-28v-61h-15v140h57q3 0 9 -2q2 -2 6.5 -5.5t5.5 -5.5q4 -2 5 -5.5t7 -7.5v-27q-4 -4 -5 -8t-3 -6zM1342 381q-3 -3 -11 -4l47 -61h-15q-3 0 -3 2q-6 0 -6 9l-39 50h-28v-61h-13
v140h56q2 0 6 -2q10 -1 18 -11q0 -2 3 -5.5t3 -7.5q2 -2 2 -6v-14q0 -1 -2 -7q0 -10 -4 -14l-5 -4q-3 -3 -9 -4zM412 759h-98v-155h98v21h-74v47h58v18h-58v45h74v24zM1721 759h-93v-155h93v21h-69v47h58v18h-58v45h69v24zM2460 454q6 2 5 2h13v-140h-12v114l-2 -2v-2
q-4 -8 -6.5 -17.5t-8.5 -14.5q-5 -7 -7 -12.5t-7 -14.5q-2 -9 -3 -15.5t-5 -9.5q-3 -8 -6.5 -12.5t-5.5 -13.5h-15q-10 14 -15 27t-10 28q-4 12 -12 26.5t-12 28.5v2h-4v-112h-14v140h14q4 0 6 -2l2 -2v-7l49 -105q0 -4 2 -4l1 2v4q0 2 8 6l41 97q2 7 3 7t1 2zM1480 759h-22
v-104q0 -4 -2 -8q-1 -7 -10 -12q0 -2 -4 -3.5t-6 -6.5l-9 -2h-9q-7 0 -13 2q-5 5 -8.5 6.5t-5.5 3.5l-11 12q0 3 -1 7.5t-1 11.5v93h-20v-93q0 -7 1 -11.5t1 -7.5q0 -8 6 -14q3 -8 10 -12q2 -4 4.5 -6.5t8.5 -4.5q2 -2 6.5 -3t7.5 -3q4 0 7 -1.5t8 -1.5t8.5 1.5t11.5 1.5
q2 2 5 3t7 3q3 2 6 4.5t6 6.5q3 2 5 5.5t7 6.5q0 4 3 7t3 7v112zM664 632q2 5 3 8t1 8q0 12 -5.5 20t-12.5 14q-2 0 -3.5 2t-5.5 4l-4 2h-4q-1 0 -1 4q-8 0 -9 1q-8 2 -9.5 3t-5.5 3q-6 5 -9 5q-3 4 -3 6v15q0 1 1.5 2.5t1.5 3.5q2 0 4.5 1t4.5 1q6 2 5 2h10q2 -2 4 -2
q7 0 8 -4q1 -3 4 -3h2q9 0 14 5l4 2q0 2 -2 4l-5 4q-2 1 -4.5 4t-6.5 5q-2 0 -4 2.5t-5 4.5q-5 0 -7 0.5t-4 0.5q-7 0 -12 -0.5t-8 -0.5q-5 -2 -7 -4.5t-6 -4.5q-2 -6 -5.5 -8.5t-8.5 -6.5q0 -4 -2 -7t-2 -9t4 -18l12 -11q2 -2 6 -5t7 -3q5 -2 8 -4t7 -2q1 -2 6 -2t7 -2
l6 -2q2 0 4 -2t2 -3t2 -6q2 -2 2 -7v-9q0 -2 -2 -4t-2 -4t-2 -3q-2 -5 -6 -6l-4 -1q-4 0 -8 -1t-5 -1q-4 0 -7 1t-6 1q-2 0 -3.5 1t-1.5 6l-4 1q-4 4 -11 4h-7l-4 -2l-5 -2q0 -3 3 -3q0 -3 2 -5q0 -4 4 -4v-6h5q7 -7 16 -9t19 -2h10q5 0 11 2q4 2 8.5 4t6.5 5q13 5 14 17z
M1741 316h-18v140h20q3 0 4 -4l74 -104q2 0 2 -5l2 -1v114h14v-140h-12l-82 114v4h-4v-118zM1596 632q9 7 9 16q0 12 -5.5 20t-12.5 14q-6 4 -6 6h-4l-4 2h-3q-4 0 -5 4h-4q-2 0 -5 1q-2 2 -4 3t-7 3l-7 5q-2 1 -3 2l-2 2l-1 2q0 1 -1 3t-1 4q0 4 4 8q0 2 4 6q2 0 3 1t4 1
q2 2 11 2l4 -1q2 -1 5 -1q3 -3 8 -4q6 -3 8 -3q6 0 8 5l5 2q0 2 -2.5 4t-4.5 4q0 1 -3 4l-5 5q-3 0 -5.5 2.5t-6.5 4.5h-6l-5 1q-6 0 -10 -0.5t-8 -0.5l-13 -9q-5 -6 -7 -8.5t-6 -6.5q-1 -4 -3 -7t-2 -9q0 -4 2 -7.5t3 -10.5l10 -11q5 -2 7.5 -5t6.5 -3q4 -2 7.5 -4t6.5 -2
q4 -2 7 -2t6 -2q6 0 10 -4l4 -3q2 -2 2 -6q2 -2 2 -6v-9q0 -3 -2 -5q0 -6 -6 -7q-6 -5 -7 -6t-3 -1q-7 0 -8 -1t-5 -1q-3 0 -6.5 1t-5.5 1q-2 1 -4 3l-4 4l-2 1q-5 4 -10 4h-7q-2 0 -4 -2l-6 -2q2 -1 2 -2t2 -1q0 -3 1 -4l3 -3v-2q6 -6 9 -6q7 -7 14.5 -9t17.5 -2h12
q3 0 11 2q3 2 6.5 4t7.5 5l5 8q3 3 4 9zM78 350q-6 6 -7 17l-3 10q-1 3 -1 10t4 16l2 10t5 10l4 6l5 7q2 2 6.5 4.5t6.5 4.5q6 7 11 8t9 3q3 0 8 1.5t10 1.5q7 0 14.5 -1.5t13.5 -5.5q8 -2 12.5 -6.5t8.5 -9.5q-2 -2 -4 -2v-4h-13q-4 2 -7 5t-7 3h-36l-22 -12
q-4 -3 -7.5 -7.5t-4.5 -10.5q-2 -7 -3 -13t-1 -8q0 -9 4 -13q0 -5 0.5 -10t0.5 -8l5 -4q4 -1 6 -7l7 -4q3 -1 8 -1q3 -4 5.5 -5t6.5 -3h33q2 2 7 3t9 5v29h-14v2q-2 0 -3 1.5t-3 3.5h-2q-1 1 -1 3v4h36v-51q-2 -5 -3.5 -6t-5.5 -8h-12q-8 -2 -12 -2h-34q-4 0 -9 3.5t-11 7.5
q-2 0 -6.5 2.5t-6.5 6.5q-3 4 -5 6.5t-4 7.5zM240 438v-44h56v-15h-56v-47h67v-16h-84v140h84v-18h-67zM1171 438v-44h60v-15h-60v-47h68v-16h-84v140h84v-18h-68zM2375 759h-20q-3 0 -8 -5q-6 -5 -6 -10l-37 -47h-2q0 -2 -2 -2v2l-39 47q-1 7 -4 10q-5 5 -11 5h-18l58 -77
v-2q0 -2 2 -2l2 -2v-72h21v70q2 0 2 2l2 4v2zM641 456v-85q0 -7 2 -10t5 -5q0 -6 3.5 -9.5t5.5 -4.5q0 -2 4.5 -4t6.5 -4q6 -2 8 -2h16q1 0 5 2l9 4q2 1 3.5 2t3.5 2q3 1 8 14q4 3 4 15v85h14v-85q0 -12 -4 -23t-12 -16q-2 -5 -6.5 -9.5t-8.5 -4.5q-8 -1 -13.5 -1.5
t-10.5 -0.5t-11 0.5t-14 1.5q-2 0 -6.5 4.5l-9.5 9.5l-10 16q-1 6 -3.5 11t-2.5 12v85h14zM2253 625h-69v134h-21v-155h90v21zM1271 625h-67v134h-20v-155h87v21zM1452 336q1 2 2 3.5t2 3.5q2 2 3 6.5t1 6.5q0 9 -2 11t-3 4.5t-3 4.5q-1 1 -8 3q-4 0 -6 2t-6 2q-8 0 -14 6
q-9 0 -13 7q-2 0 -3.5 3.5t-3.5 7.5v22q0 1 2 7q0 8 7 9l6 7q2 1 3.5 2t3.5 2q5 0 7.5 1.5t8.5 1.5l6 -2l4 -1q4 0 5 -1t5 -3q2 0 4 -3.5t2 -5.5q4 0 6 -3l1 -2l-2 -2q-6 -2 -9 -2h-6q-2 2 -2 4h-23q-9 0 -9 -2q-5 -7 -5 -8q-4 0 -4 -8q0 -5 4 -6q0 -5 3 -6q0 -1 3 -4l4 -1
q4 -4 7.5 -4t7.5 -3q3 0 4 -1l2 -1q4 0 8 -5h4q2 0 4 -2h2q5 -4 8.5 -7t5.5 -4q1 -5 1.5 -10.5t0.5 -9.5v-10q0 -5 -4 -6q-3 -4 -5.5 -7.5t-6.5 -5.5q-2 -2 -6 -5.5t-6 -3.5q-6 -2 -10 -2h-9q-11 0 -18.5 1t-12.5 10q-2 0 -3.5 2.5t-5.5 4.5v4l-2 2l4 2h7q1 0 3 -1t4 -1
q4 -4 6.5 -5t4.5 -3h22q8 0 12 4zM1069 316l-59 140h6q6 0 8 -2t3 -2t3 -7l43 -103v-2l2 -6v6l2 2q5 14 13 27.5t12 24.5q4 16 10 28t12 23q0 7 1.5 7t1.5 2q6 2 7 2h11q-8 -18 -15.5 -35t-16.5 -34q-4 -9 -7 -18.5t-6 -18.5l-16 -34h-15zM532 438v-49h60v-12h-60v-61h-16
v140h85v-18h-69zM1959 438v-49h54v-12h-54v-61h-16v140h81v-18h-65zM879 456v-124h63v-16h-80v140h17zM371 316v122h-46v18h105v-18h-47v-122h-12zM784 456v-124h64v-16h-80v140h16zM270 728q2 -1 3 -4t3 -5q4 -4 4 -9v-4q0 -5 -4 -9q-2 -2 -3 -4.5t-3 -2.5l-4 -4l-4 -4h-46
v53h36q4 0 10 -2q1 0 4 -3zM1325 389q4 0 6 3q4 4 9 4l2 5q0 2 5 6q0 1 1 4t1 7q0 2 -1 3.5t-1 4.5q-7 3 -7 8q-5 0 -9 4h-44v-49h38zM2101 392q4 4 7 4q7 7 7 11q2 4 2 11q0 4 -2 8q0 2 -7 8q-3 0 -7 4h-44v-49h36q3 0 8 3zM1525 456v-140h-18v140h18zM518 701l-4 -7
q-2 0 -3 -2t-3 -2q-2 -2 -10 -2h-33v47h33q4 0 10 -2q2 0 6 -5q1 -2 2 -3.5t2 -3.5q3 -2 3 -9q0 -5 -3 -11zM684 129l-27 69q0 2 -1 3l-1 2q0 4 -3 6v-6l-1 -2q-1 -1 -1 -3l-27 -69h61zM1093 727v-4l27 -64h-59l30 64v5zM1755 82q6 0 6 -6q2 -2 2 -5v-4q0 -9 -2 -11
q0 -5 -6 -9q-3 0 -6 -4h-17q-4 4 -11 4q0 2 -5 9q-2 2 -2 11v4q0 3 2 5l3 4l2 2q7 4 11 4q1 3 4 3h10q3 0 3 -3q3 0 6 -4z" />
    <glyph glyph-name="eight" unicode="8" 
d="M2478 1093v-587h-2404v587h910q0 30 5.5 58t20.5 53q12 29 26 52.5t37 41.5q39 42 91 62q28 12 55.5 17t56.5 5q33 0 61.5 -6.5t53.5 -15.5q27 -14 50.5 -29.5t45.5 -36.5q35 -38 60 -94q11 -27 15.5 -54t4.5 -53h911zM1030 1194q-20 -49 -20 -101q0 -58 20 -106
q10 -22 24.5 -43.5t29.5 -42.5q20 -17 41.5 -32t45.5 -25q46 -23 105 -23q31 0 56.5 4.5t47.5 16.5q48 19 83 57q22 20 35.5 41t26.5 43q20 54 20 110q0 20 -3.5 43.5t-11.5 47.5q-14 40 -43 72q-14 20 -29.5 33.5t-34.5 25.5l-76 36q-16 3 -33 6t-38 3q-29 0 -55.5 -5.5
t-51.5 -19.5q-50 -19 -85 -57q-17 -19 -30.5 -39.5t-23.5 -44.5zM1142 936l314 317q62 -80 62 -160q0 -24 -3.5 -45.5t-11.5 -41.5q-8 -19 -17.5 -37t-23.5 -33h-320zM1095 928q-14 17 -25 36.5t-19 39.5q-9 18 -12.5 40.5t-3.5 48.5q0 18 3.5 39t12.5 43q7 35 40 68h318z
M1135 207q2 -4 4.5 -11t5.5 -14q2 -10 2 -14v-32q0 -5 -2 -11l-6 -15l-4 -14q-6 -4 -10.5 -10t-8.5 -10q-6 -5 -11 -10.5t-10 -9.5q-9 -5 -15.5 -7t-12.5 -4q-10 -2 -15 -2h-17q-9 0 -19 2t-23 4q-12 6 -18.5 13t-17.5 14q-15 14 -21 35q-4 10 -6 19.5t-2 23.5v14q0 4 2 14
q4 17 12 25q4 8 7.5 13t7.5 11q9 5 13.5 9.5t10.5 9.5l12 4l17 6q5 0 11.5 1t13.5 1q10 0 17 -1t15 -1q6 -4 12.5 -6t15.5 -4q5 -5 10 -9.5t11 -9.5q4 -6 8.5 -11t10.5 -13zM2195 207q4 -4 6.5 -11t4.5 -14q4 -7 4 -14v-32q0 -7 -4 -11q-2 -7 -4.5 -15t-6.5 -14l-16 -20
l-12 -10l-14 -10q-5 -5 -12 -7t-13 -4q-8 -2 -14 -2h-17q-19 0 -43 6q-8 6 -16 13t-17 14q-8 6 -14 14t-8 21q-6 10 -7.5 19.5t-1.5 23.5q0 8 1 14t1 14l6 14t7 11q2 8 6 13t10 11q3 5 10.5 9.5t12.5 9.5q4 2 11 4t13 6q11 0 17 1t12 1q9 0 17 -1t14 -1q6 -4 13 -6t12 -4
l26 -19q2 -6 8 -11t8 -13zM2433 260l1 1q1 1 6 1h38v-219h-38v160l-5 -9v-8q0 -2 -2 -4q-6 -16 -13 -34.5t-16 -31.5q-6 -20 -12 -36.5t-14 -36.5h-37l-55 139q-6 3 -6 12q0 4 -1 4l-2 2v-157h-42v219h40q5 0 6.5 -1t4.5 -1q2 -2 3 -2t4 -2l7 -4q0 -2 2 -3.5t2 -3.5
q4 -18 11 -32.5t16 -34.5l12 -33q3 -8 6 -15l6 -14v-14q3 0 4 -4q0 4 1 4v14l11 13l44 116q0 1 2 3l2 4q0 1 3 3l3 1q2 2 4 2t4 2zM1329 262h38v-219h-36l-100 146l-4 5v2q-3 4 -3 5q-4 1 -4 4q0 4 -7 4v-166h-37v219h33q4 0 9.5 -1t5.5 -3q3 -2 5 -2t4 -2l22 -33
q6 -8 11 -16.5t10 -19.5q13 -13 24 -29t25 -29q0 -2 1 -4.5t1 -6.5l1 -3q0 -2 1 -3v152zM672 262l94 -219h-25q-9 0 -16 4q-2 2 -4 6.5t-6 8.5l-14 27h-100l-9 -27q0 -6 -4 -6q-2 -5 -4 -5l-3 -4q-2 0 -4.5 -1t-6.5 -1q0 -2 -2 -2h-27l96 219h35zM260 262h139v-39h-100v-49
h82v-41h-82v-51h100v-39h-139v219zM839 659q1 7 2 11t1 10q0 12 -3 21q0 7 -4.5 10.5t-6.5 9.5q-2 3 -4.5 6.5t-6.5 7.5l-7 6q-2 3 -9 9q-4 2 -8 4.5t-11 4.5q-5 0 -9.5 0.5t-10.5 0.5q-3 0 -8.5 -0.5t-12.5 -0.5q-6 -2 -10 -4.5t-8 -4.5q-4 -6 -7.5 -8.5t-7.5 -6.5
q-13 -7 -14 -14q-4 -6 -5 -9.5l-3 -10.5q-1 -5 -1.5 -10t-0.5 -11t2 -14.5t4 -15.5t6.5 -12.5t11.5 -12.5q10 -15 25 -15q10 -6 29 -6h20q15 5 19 8q11 4 16 13q3 4 6 7.5t5 8.5q2 4 6.5 9t4.5 9zM1966 659v42l-7 20q-5 7 -15 14q-1 4 -6 6.5t-10 8.5l-4 2t-5 2l-7 5
q-7 0 -12 0.5t-10 0.5q-6 0 -11 -0.5t-9 -0.5l-22 -9q-3 -6 -6 -8.5t-7 -6.5q-3 -4 -6.5 -7t-5.5 -7q-2 -6 -4.5 -9.5t-2.5 -10.5q-6 -9 -6 -21q0 -6 3 -14.5t6 -15.5q4 -15 16 -25q7 -15 26 -15q10 -6 29 -6h22q3 2 8 4t8 4l10 6t6 7q11 8 15 16zM74 262h158v-24
q0 -4 -1 -6q0 -3 -2 -5l-4 -4l-105 -143h1l2 2h108v-39h-164v13q0 11 2 13q0 2 5 7v4l2 4q2 2 4 3.5t2 6.5l94 129h-102v39zM1839 203q-4 -4 -7 -10.5t-7 -14.5q-2 -4 -4 -10t-2 -14q0 -7 2 -15l4 -12q2 -7 6 -14.5t8 -10.5q4 -4 9.5 -8.5t14.5 -7.5q12 -4 27 -4q5 0 10 1
t12 1q3 2 8 5t8 7q3 0 9 2h13q3 0 9 -2q2 -1 3.5 -3t3.5 -4l6 -7q-3 -4 -6 -7.5t-7 -7.5q-7 -5 -11.5 -8t-12.5 -6q-7 -4 -11.5 -5t-10.5 -3t-11 -2h-12q-12 0 -23.5 2t-21.5 4q-10 5 -18.5 12t-16.5 15q-16 13 -22 35q-4 10 -7 19.5t-3 23.5q0 10 1 14l4 14q1 7 3 14t6 11
q6 8 8.5 13t9.5 11q14 9 25 19q4 2 9.5 4t18.5 6q5 0 12 1t15 1h13q4 0 10 -2t10.5 -3t11.5 -3q8 -4 12.5 -6.5t11.5 -7.5l13 -17l-6 -8q-2 -1 -5 -4l-2 -4h-15q-7 0 -16 4l-16 10q-10 2 -12 2h-10q-17 0 -27 -7q-17 -1 -24 -13zM1690 151l7 -10.5t3 -7.5q6 -8 6 -20
q0 -15 -8 -29l-8 -12l-9 -10q-7 -6 -11.5 -9.5t-12.5 -5.5q-5 -2 -14 -3t-15 -1q-8 0 -14.5 1l-19.5 3q-5 2 -10 6.5t-11 13.5q-4 1 -6 5l-4 8q-7 2 -7 9l7 5q2 2 4 2h4l2 2h10q4 0 4 -2q7 0 9 -2q7 -5 10.5 -6.5t5.5 -3.5q2 0 6 -1t10 -1h5q2 0 6 2q5 1 8 2t7 3q6 6 7 9
q2 4 4 7.5t2 7.5q0 7 -6 10q-5 6 -7 6q-2 4 -7.5 5t-7.5 2q-6 0 -14 7q-5 0 -9 1t-9 7q-11 3 -14.5 6t-7.5 7q-12 4 -12 14q-6 10 -6 25q0 18 6 26l6 11l8 10q4 2 10 4t13 6q6 0 10.5 1t13.5 1q4 0 8.5 -1t11.5 -1l15 -6q3 -4 6.5 -6.5t7.5 -7.5q4 -2 7.5 -5.5t3.5 -7.5
l-7 -4q-4 -2 -7 -4.5t-3 -3.5h-18l-5 1l-7 5q-2 0 -4 1t-4 1h-17q-2 0 -3 -1t-5 -3q-2 -3 -6 -6q-1 -3 -1 -10q0 -5 1 -5q2 -2 3 -5.5t3 -7.5h6q1 0 5 -2q5 -1 9.5 -3t10.5 -4l9 -2q5 -4 9 -5t9 -5q5 -2 10 -5t8 -8zM1579 336q-12 7 -16 20q-7 17 -7 31v16l11 20l12 13
q6 7 12 9q3 7 9.5 8t9.5 3q4 0 8 1.5t10 1.5q4 0 10.5 -1.5t10.5 -1.5q5 -2 8.5 -3t7.5 -8q2 -2 5.5 -4.5t6.5 -4.5l13 -13l8 -20q0 -4 1 -9t1 -7q0 -6 -1 -14t-5 -17q-5 -13 -17 -20q-5 -4 -9.5 -7.5t-11.5 -10.5q-5 -1 -12 -1.5t-16 -0.5h-15q-4 0 -10 2q-18 7 -24 18z
M2284 336q-7 -4 -13.5 -7.5t-11.5 -10.5q-8 -2 -12 -2h-30q-5 0 -13 2q-7 4 -12.5 8.5t-10.5 9.5q-6 6 -13 20q-2 9 -4.5 17t-2.5 14q0 2 1 7t1 9q3 5 4 10t4 10q2 3 5 6t5 7q6 4 18 9q3 7 8 8t7 3q6 0 9 1.5t10 1.5q2 0 8.5 -1.5t11.5 -1.5q4 -2 7.5 -3t6.5 -8l17 -9
q2 -4 4 -7t5 -6q2 -5 4 -9.5t3 -10.5q2 -4 3 -9t1 -7q0 -6 -1 -14t-5 -17q0 -6 -5 -11zM2166 127q5 12 5 27q0 16 -5 24q-3 9 -8 15.5t-8 9.5q-10 10 -24 13q-4 5 -12 6t-17 1q-12 0 -25 -7q-8 -1 -13 -4t-11 -9q-4 -3 -7.5 -9.5t-8.5 -15.5q0 -4 -1 -10t-1 -14q0 -9 1 -15
t1 -12q4 -8 8 -14t8 -11q6 -4 11 -8.5t13 -7.5q7 -2 14 -3t11 -1q9 0 17 1t12 3q8 3 14 7.5t10 8.5q11 11 16 25zM1104 127q4 11 4 27q0 13 -4 24q-2 9 -6.5 15.5t-13.5 9.5q-2 6 -7.5 9t-11.5 4q-11 7 -30 7q-14 0 -25 -7q-11 -1 -23 -13q-6 -3 -9 -9.5t-5 -15.5
q-5 -5 -5 -10v-29q0 -5 5 -12q2 -7 5 -14.5t9 -10.5q6 -4 11 -8.5t12 -7.5q11 -4 25 -4q19 0 30 4q13 7 19 16q9 3 13.5 10.5t6.5 14.5zM774 262h139v-39h-100v-55h82v-39h-82v-86h-39v219zM570 223h-58v-180h-43v180h-62v39h163v-39zM1188 864q-19 7 -37 19t-35 26h322
q-18 -14 -36 -26t-36 -19q-24 -6 -45.5 -11t-44.5 -5q-25 0 -45.5 5t-42.5 11zM1389 262h165v-39h-65v-180h-39v180h-61v39zM1366 1315q18 -8 36 -20.5t36 -22.5h-325q38 30 75 43q37 18 88 18q48 0 90 -18zM559 604l-47 68q4 0 11 4q8 5 9 10q9 5 9 11v26q0 1 -2 5
q-3 10 -11 15q-5 9 -14 9q-2 5 -6.5 6t-9.5 1h-57v-155h24v64h23l40 -56q1 -4 8 -6q2 -2 3 -2h20zM1169 604l-67 155h-22l-65 -155h11q7 0 9 2q0 2 7 6l11 27h76l13 -27q1 -4 5 -6q2 -2 8 -2h14zM1930 721q3 -2 8 -7.5t6 -12.5q4 -7 4 -21q0 -12 -4 -23q-1 -5 -6 -9.5
t-8 -6.5q-5 -4 -9 -6.5t-8 -7.5q-9 -4 -23 -4q-6 0 -12 1t-10 3q-5 5 -10.5 7.5t-9.5 6.5q-3 2 -6 6.5t-3 9.5q-4 7 -5 12t-1 11q0 10 6 21q0 7 3 12.5t6 7.5q4 4 9.5 7t10.5 5q9 4 22 4q5 0 11.5 -1t11.5 -3zM801 721q7 -2 9.5 -7.5t4.5 -12.5q4 -7 4 -21q0 -11 -4 -23
q-2 -5 -4.5 -9.5t-9.5 -6.5q-1 -4 -6 -7l-11 -7q-9 -4 -22 -4q-11 0 -23 4q-4 5 -9 7.5t-9 6.5q-2 2 -5.5 6.5t-5.5 9.5q-4 12 -4 23q0 12 4 21q2 7 5.5 12.5t5.5 7.5q4 4 9 7t9 5q5 2 12.5 3t10.5 1q13 0 22 -4q8 -2 11.5 -5t5.5 -7zM2126 759h-22v-120q-1 2 -2 5t-3 4
l-75 104l-3 7h-24v-155h22v121l2 -2l87 -119h18v155zM2218 332h31l6 3q3 3 4 5q6 0 14 5q2 5 3 7t4 4q0 3 3 8t3 10v34q-3 6 -7 10.5t-6 7.5q-10 4 -18 12h-43q-6 -4 -9.5 -7t-9.5 -5q-5 -3 -7.5 -7.5t-4.5 -10.5q-1 -4 -1.5 -7t-0.5 -7v-20q0 -13 5 -18q2 -2 4.5 -4t4.5 -7
l7 -3q2 -2 4 -2q4 -4 7 -5t7 -3zM296 690q5 12 5 20q0 9 -5 18q0 2 -5 7l-6 6q-2 3 -5 7t-10 4q-3 5 -8.5 6t-9.5 1h-52v-155h16v59h36q4 0 9.5 0.5t8.5 2.5q10 4 15 10q4 2 7.5 6t3.5 8zM1579 408q-6 -14 -6 -21v-8q0 -4 3 -5q0 -10 5 -18q0 -2 2 -4t4 -7l5 -3q2 -2 11 -2
q2 -4 5.5 -5t5.5 -3h27q6 2 9.5 3t6.5 5l6 2l4 3q2 5 4.5 7t2.5 4q3 3 4 8t3 10q0 2 1 5.5t1 7.5q0 2 -1 8t-5 13q0 6 -4 10.5t-6 7.5q-3 1 -8 6l-10 6h-42q-4 -4 -10 -7l-10 -5l-5 -8q-3 -5 -3 -10zM997 759h-18v-120l-2 4q-2 6 -2 5l-74 104q-5 0 -6 7h-25v-155h21v124h2
l2 -1v-4l86 -119h16v155zM2115 381q-5 -1 -8.5 -2t-5.5 -2l45 -61h-12l-6 2q-4 0 -4 9l-39 50h-28v-61h-15v140h57q3 0 9 -2q2 -2 6.5 -5.5t5.5 -5.5q4 -2 5 -5.5t7 -7.5v-27q-4 -4 -5 -8t-3 -6zM1342 381q-3 -3 -11 -4l47 -61h-15q-3 0 -3 2q-6 0 -6 9l-39 50h-28v-61h-13
v140h56q2 0 6 -2q10 -1 18 -11q0 -2 3 -5.5t3 -7.5q2 -2 2 -6v-14q0 -1 -2 -7q0 -10 -4 -14l-5 -4q-3 -3 -9 -4zM412 759h-98v-155h98v21h-74v47h58v18h-58v45h74v24zM1721 759h-93v-155h93v21h-69v47h58v18h-58v45h69v24zM2460 454q6 2 5 2h13v-140h-12v114l-2 -2v-2
q-4 -8 -6.5 -17.5t-8.5 -14.5q-5 -7 -7 -12.5t-7 -14.5q-2 -9 -3 -15.5t-5 -9.5q-3 -8 -6.5 -12.5t-5.5 -13.5h-15q-10 14 -15 27t-10 28q-4 12 -12 26.5t-12 28.5v2h-4v-112h-14v140h14q4 0 6 -2l2 -2v-7l49 -105q0 -4 2 -4l1 2v4q0 2 8 6l41 97q2 7 3 7t1 2zM1480 759h-22
v-104q0 -4 -2 -8q-1 -7 -10 -12q0 -2 -4 -3.5t-6 -6.5l-9 -2h-9q-7 0 -13 2q-5 5 -8.5 6.5t-5.5 3.5l-11 12q0 3 -1 7.5t-1 11.5v93h-20v-93q0 -7 1 -11.5t1 -7.5q0 -8 6 -14q3 -8 10 -12q2 -4 4.5 -6.5t8.5 -4.5q2 -2 6.5 -3t7.5 -3q4 0 7 -1.5t8 -1.5t8.5 1.5t11.5 1.5
q2 2 5 3t7 3q3 2 6 4.5t6 6.5q3 2 5 5.5t7 6.5q0 4 3 7t3 7v112zM664 632q2 5 3 8t1 8q0 12 -5.5 20t-12.5 14q-2 0 -3.5 2t-5.5 4l-4 2h-4q-1 0 -1 4q-8 0 -9 1q-8 2 -9.5 3t-5.5 3q-6 5 -9 5q-3 4 -3 6v15q0 1 1.5 2.5t1.5 3.5q2 0 4.5 1t4.5 1q6 2 5 2h10q2 -2 4 -2
q7 0 8 -4q1 -3 4 -3h2q9 0 14 5l4 2q0 2 -2 4l-5 4q-2 1 -4.5 4t-6.5 5q-2 0 -4 2.5t-5 4.5q-5 0 -7 0.5t-4 0.5q-7 0 -12 -0.5t-8 -0.5q-5 -2 -7 -4.5t-6 -4.5q-2 -6 -5.5 -8.5t-8.5 -6.5q0 -4 -2 -7t-2 -9t4 -18l12 -11q2 -2 6 -5t7 -3q5 -2 8 -4t7 -2q1 -2 6 -2t7 -2
l6 -2q2 0 4 -2t2 -3t2 -6q2 -2 2 -7v-9q0 -2 -2 -4t-2 -4t-2 -3q-2 -5 -6 -6l-4 -1q-4 0 -8 -1t-5 -1q-4 0 -7 1t-6 1q-2 0 -3.5 1t-1.5 6l-4 1q-4 4 -11 4h-7l-4 -2l-5 -2q0 -3 3 -3q0 -3 2 -5q0 -4 4 -4v-6h5q7 -7 16 -9t19 -2h10q5 0 11 2q4 2 8.5 4t6.5 5q13 5 14 17z
M1741 316h-18v140h20q3 0 4 -4l74 -104q2 0 2 -5l2 -1v114h14v-140h-12l-82 114v4h-4v-118zM1596 632q9 7 9 16q0 12 -5.5 20t-12.5 14q-6 4 -6 6h-4l-4 2h-3q-4 0 -5 4h-4q-2 0 -5 1q-2 2 -4 3t-7 3l-7 5q-2 1 -3 2l-2 2l-1 2q0 1 -1 3t-1 4q0 4 4 8q0 2 4 6q2 0 3 1t4 1
q2 2 11 2l4 -1q2 -1 5 -1q3 -3 8 -4q6 -3 8 -3q6 0 8 5l5 2q0 2 -2.5 4t-4.5 4q0 1 -3 4l-5 5q-3 0 -5.5 2.5t-6.5 4.5h-6l-5 1q-6 0 -10 -0.5t-8 -0.5l-13 -9q-5 -6 -7 -8.5t-6 -6.5q-1 -4 -3 -7t-2 -9q0 -4 2 -7.5t3 -10.5l10 -11q5 -2 7.5 -5t6.5 -3q4 -2 7.5 -4t6.5 -2
q4 -2 7 -2t6 -2q6 0 10 -4l4 -3q2 -2 2 -6q2 -2 2 -6v-9q0 -3 -2 -5q0 -6 -6 -7q-6 -5 -7 -6t-3 -1q-7 0 -8 -1t-5 -1q-3 0 -6.5 1t-5.5 1q-2 1 -4 3l-4 4l-2 1q-5 4 -10 4h-7q-2 0 -4 -2l-6 -2q2 -1 2 -2t2 -1q0 -3 1 -4l3 -3v-2q6 -6 9 -6q7 -7 14.5 -9t17.5 -2h12
q3 0 11 2q3 2 6.5 4t7.5 5l5 8q3 3 4 9zM78 350q-6 6 -7 17l-3 10q-1 3 -1 10t4 16l2 10t5 10l4 6l5 7q2 2 6.5 4.5t6.5 4.5q6 7 11 8t9 3q3 0 8 1.5t10 1.5q7 0 14.5 -1.5t13.5 -5.5q8 -2 12.5 -6.5t8.5 -9.5q-2 -2 -4 -2v-4h-13q-4 2 -7 5t-7 3h-36l-22 -12
q-4 -3 -7.5 -7.5t-4.5 -10.5q-2 -7 -3 -13t-1 -8q0 -9 4 -13q0 -5 0.5 -10t0.5 -8l5 -4q4 -1 6 -7l7 -4q3 -1 8 -1q3 -4 5.5 -5t6.5 -3h33q2 2 7 3t9 5v29h-14v2q-2 0 -3 1.5t-3 3.5h-2q-1 1 -1 3v4h36v-51q-2 -5 -3.5 -6t-5.5 -8h-12q-8 -2 -12 -2h-34q-4 0 -9 3.5t-11 7.5
q-2 0 -6.5 2.5t-6.5 6.5q-3 4 -5 6.5t-4 7.5zM240 438v-44h56v-15h-56v-47h67v-16h-84v140h84v-18h-67zM1171 438v-44h60v-15h-60v-47h68v-16h-84v140h84v-18h-68zM2375 759h-20q-3 0 -8 -5q-6 -5 -6 -10l-37 -47h-2q0 -2 -2 -2v2l-39 47q-1 7 -4 10q-5 5 -11 5h-18l58 -77
v-2q0 -2 2 -2l2 -2v-72h21v70q2 0 2 2l2 4v2zM641 456v-85q0 -7 2 -10t5 -5q0 -6 3.5 -9.5t5.5 -4.5q0 -2 4.5 -4t6.5 -4q6 -2 8 -2h16q1 0 5 2l9 4q2 1 3.5 2t3.5 2q3 1 8 14q4 3 4 15v85h14v-85q0 -12 -4 -23t-12 -16q-2 -5 -6.5 -9.5t-8.5 -4.5q-8 -1 -13.5 -1.5
t-10.5 -0.5t-11 0.5t-14 1.5q-2 0 -6.5 4.5l-9.5 9.5l-10 16q-1 6 -3.5 11t-2.5 12v85h14zM2253 625h-69v134h-21v-155h90v21zM1271 625h-67v134h-20v-155h87v21zM1452 336q1 2 2 3.5t2 3.5q2 2 3 6.5t1 6.5q0 9 -2 11t-3 4.5t-3 4.5q-1 1 -8 3q-4 0 -6 2t-6 2q-8 0 -14 6
q-9 0 -13 7q-2 0 -3.5 3.5t-3.5 7.5v22q0 1 2 7q0 8 7 9l6 7q2 1 3.5 2t3.5 2q5 0 7.5 1.5t8.5 1.5l6 -2l4 -1q4 0 5 -1t5 -3q2 0 4 -3.5t2 -5.5q4 0 6 -3l1 -2l-2 -2q-6 -2 -9 -2h-6q-2 2 -2 4h-23q-9 0 -9 -2q-5 -7 -5 -8q-4 0 -4 -8q0 -5 4 -6q0 -5 3 -6q0 -1 3 -4l4 -1
q4 -4 7.5 -4t7.5 -3q3 0 4 -1l2 -1q4 0 8 -5h4q2 0 4 -2h2q5 -4 8.5 -7t5.5 -4q1 -5 1.5 -10.5t0.5 -9.5v-10q0 -5 -4 -6q-3 -4 -5.5 -7.5t-6.5 -5.5q-2 -2 -6 -5.5t-6 -3.5q-6 -2 -10 -2h-9q-11 0 -18.5 1t-12.5 10q-2 0 -3.5 2.5t-5.5 4.5v4l-2 2l4 2h7q1 0 3 -1t4 -1
q4 -4 6.5 -5t4.5 -3h22q8 0 12 4zM1069 316l-59 140h6q6 0 8 -2t3 -2t3 -7l43 -103v-2l2 -6v6l2 2q5 14 13 27.5t12 24.5q4 16 10 28t12 23q0 7 1.5 7t1.5 2q6 2 7 2h11q-8 -18 -15.5 -35t-16.5 -34q-4 -9 -7 -18.5t-6 -18.5l-16 -34h-15zM532 438v-49h60v-12h-60v-61h-16
v140h85v-18h-69zM1959 438v-49h54v-12h-54v-61h-16v140h81v-18h-65zM879 456v-124h63v-16h-80v140h17zM371 316v122h-46v18h105v-18h-47v-122h-12zM784 456v-124h64v-16h-80v140h16zM270 728q2 -1 3 -4t3 -5q4 -4 4 -9v-4q0 -5 -4 -9q-2 -2 -3 -4.5t-3 -2.5l-4 -4l-4 -4h-46
v53h36q4 0 10 -2q1 0 4 -3zM1325 389q4 0 6 3q4 4 9 4l2 5q0 2 5 6q0 1 1 4t1 7q0 2 -1 3.5t-1 4.5q-7 3 -7 8q-5 0 -9 4h-44v-49h38zM2101 392q4 4 7 4q7 7 7 11q2 4 2 11q0 4 -2 8q0 2 -7 8q-3 0 -7 4h-44v-49h36q3 0 8 3zM1525 456v-140h-18v140h18zM518 701l-4 -7
q-2 0 -3 -2t-3 -2q-2 -2 -10 -2h-33v47h33q4 0 10 -2q2 0 6 -5q1 -2 2 -3.5t2 -3.5q3 -2 3 -9q0 -5 -3 -11zM684 129l-27 69q0 2 -1 3l-1 2q0 4 -3 6v-6l-1 -2q-1 -1 -1 -3l-27 -69h61zM1093 727v-4l27 -64h-59l30 64v5zM1755 82q6 0 6 -6q2 -2 2 -5v-4q0 -9 -2 -11
q0 -5 -6 -9q-3 0 -6 -4h-17q-4 4 -11 4q0 2 -5 9q-2 2 -2 11v4q0 3 2 5l3 4l2 2q7 4 11 4q1 3 4 3h10q3 0 3 -3q3 0 6 -4z" />
    <glyph glyph-name="nine" unicode="9" 
d="M2478 1093v-587h-2404v587h910q0 30 5.5 58t20.5 53q12 29 26 52.5t37 41.5q39 42 91 62q28 12 55.5 17t56.5 5q33 0 61.5 -6.5t53.5 -15.5q27 -14 50.5 -29.5t45.5 -36.5q35 -38 60 -94q11 -27 15.5 -54t4.5 -53h911zM1030 1194q-20 -49 -20 -101q0 -58 20 -106
q10 -22 24.5 -43.5t29.5 -42.5q20 -17 41.5 -32t45.5 -25q46 -23 105 -23q31 0 56.5 4.5t47.5 16.5q48 19 83 57q22 20 35.5 41t26.5 43q20 54 20 110q0 20 -3.5 43.5t-11.5 47.5q-14 40 -43 72q-14 20 -29.5 33.5t-34.5 25.5l-76 36q-16 3 -33 6t-38 3q-29 0 -55.5 -5.5
t-51.5 -19.5q-50 -19 -85 -57q-17 -19 -30.5 -39.5t-23.5 -44.5zM1142 936l314 317q62 -80 62 -160q0 -24 -3.5 -45.5t-11.5 -41.5q-8 -19 -17.5 -37t-23.5 -33h-320zM1095 928q-14 17 -25 36.5t-19 39.5q-9 18 -12.5 40.5t-3.5 48.5q0 18 3.5 39t12.5 43q7 35 40 68h318z
M1135 207q2 -4 4.5 -11t5.5 -14q2 -10 2 -14v-32q0 -5 -2 -11l-6 -15l-4 -14q-6 -4 -10.5 -10t-8.5 -10q-6 -5 -11 -10.5t-10 -9.5q-9 -5 -15.5 -7t-12.5 -4q-10 -2 -15 -2h-17q-9 0 -19 2t-23 4q-12 6 -18.5 13t-17.5 14q-15 14 -21 35q-4 10 -6 19.5t-2 23.5v14q0 4 2 14
q4 17 12 25q4 8 7.5 13t7.5 11q9 5 13.5 9.5t10.5 9.5l12 4l17 6q5 0 11.5 1t13.5 1q10 0 17 -1t15 -1q6 -4 12.5 -6t15.5 -4q5 -5 10 -9.5t11 -9.5q4 -6 8.5 -11t10.5 -13zM2195 207q4 -4 6.5 -11t4.5 -14q4 -7 4 -14v-32q0 -7 -4 -11q-2 -7 -4.5 -15t-6.5 -14l-16 -20
l-12 -10l-14 -10q-5 -5 -12 -7t-13 -4q-8 -2 -14 -2h-17q-19 0 -43 6q-8 6 -16 13t-17 14q-8 6 -14 14t-8 21q-6 10 -7.5 19.5t-1.5 23.5q0 8 1 14t1 14l6 14t7 11q2 8 6 13t10 11q3 5 10.5 9.5t12.5 9.5q4 2 11 4t13 6q11 0 17 1t12 1q9 0 17 -1t14 -1q6 -4 13 -6t12 -4
l26 -19q2 -6 8 -11t8 -13zM2433 260l1 1q1 1 6 1h38v-219h-38v160l-5 -9v-8q0 -2 -2 -4q-6 -16 -13 -34.5t-16 -31.5q-6 -20 -12 -36.5t-14 -36.5h-37l-55 139q-6 3 -6 12q0 4 -1 4l-2 2v-157h-42v219h40q5 0 6.5 -1t4.5 -1q2 -2 3 -2t4 -2l7 -4q0 -2 2 -3.5t2 -3.5
q4 -18 11 -32.5t16 -34.5l12 -33q3 -8 6 -15l6 -14v-14q3 0 4 -4q0 4 1 4v14l11 13l44 116q0 1 2 3l2 4q0 1 3 3l3 1q2 2 4 2t4 2zM1329 262h38v-219h-36l-100 146l-4 5v2q-3 4 -3 5q-4 1 -4 4q0 4 -7 4v-166h-37v219h33q4 0 9.5 -1t5.5 -3q3 -2 5 -2t4 -2l22 -33
q6 -8 11 -16.5t10 -19.5q13 -13 24 -29t25 -29q0 -2 1 -4.5t1 -6.5l1 -3q0 -2 1 -3v152zM672 262l94 -219h-25q-9 0 -16 4q-2 2 -4 6.5t-6 8.5l-14 27h-100l-9 -27q0 -6 -4 -6q-2 -5 -4 -5l-3 -4q-2 0 -4.5 -1t-6.5 -1q0 -2 -2 -2h-27l96 219h35zM260 262h139v-39h-100v-49
h82v-41h-82v-51h100v-39h-139v219zM839 659q1 7 2 11t1 10q0 12 -3 21q0 7 -4.5 10.5t-6.5 9.5q-2 3 -4.5 6.5t-6.5 7.5l-7 6q-2 3 -9 9q-4 2 -8 4.5t-11 4.5q-5 0 -9.5 0.5t-10.5 0.5q-3 0 -8.5 -0.5t-12.5 -0.5q-6 -2 -10 -4.5t-8 -4.5q-4 -6 -7.5 -8.5t-7.5 -6.5
q-13 -7 -14 -14q-4 -6 -5 -9.5l-3 -10.5q-1 -5 -1.5 -10t-0.5 -11t2 -14.5t4 -15.5t6.5 -12.5t11.5 -12.5q10 -15 25 -15q10 -6 29 -6h20q15 5 19 8q11 4 16 13q3 4 6 7.5t5 8.5q2 4 6.5 9t4.5 9zM1966 659v42l-7 20q-5 7 -15 14q-1 4 -6 6.5t-10 8.5l-4 2t-5 2l-7 5
q-7 0 -12 0.5t-10 0.5q-6 0 -11 -0.5t-9 -0.5l-22 -9q-3 -6 -6 -8.5t-7 -6.5q-3 -4 -6.5 -7t-5.5 -7q-2 -6 -4.5 -9.5t-2.5 -10.5q-6 -9 -6 -21q0 -6 3 -14.5t6 -15.5q4 -15 16 -25q7 -15 26 -15q10 -6 29 -6h22q3 2 8 4t8 4l10 6t6 7q11 8 15 16zM74 262h158v-24
q0 -4 -1 -6q0 -3 -2 -5l-4 -4l-105 -143h1l2 2h108v-39h-164v13q0 11 2 13q0 2 5 7v4l2 4q2 2 4 3.5t2 6.5l94 129h-102v39zM1839 203q-4 -4 -7 -10.5t-7 -14.5q-2 -4 -4 -10t-2 -14q0 -7 2 -15l4 -12q2 -7 6 -14.5t8 -10.5q4 -4 9.5 -8.5t14.5 -7.5q12 -4 27 -4q5 0 10 1
t12 1q3 2 8 5t8 7q3 0 9 2h13q3 0 9 -2q2 -1 3.5 -3t3.5 -4l6 -7q-3 -4 -6 -7.5t-7 -7.5q-7 -5 -11.5 -8t-12.5 -6q-7 -4 -11.5 -5t-10.5 -3t-11 -2h-12q-12 0 -23.5 2t-21.5 4q-10 5 -18.5 12t-16.5 15q-16 13 -22 35q-4 10 -7 19.5t-3 23.5q0 10 1 14l4 14q1 7 3 14t6 11
q6 8 8.5 13t9.5 11q14 9 25 19q4 2 9.5 4t18.5 6q5 0 12 1t15 1h13q4 0 10 -2t10.5 -3t11.5 -3q8 -4 12.5 -6.5t11.5 -7.5l13 -17l-6 -8q-2 -1 -5 -4l-2 -4h-15q-7 0 -16 4l-16 10q-10 2 -12 2h-10q-17 0 -27 -7q-17 -1 -24 -13zM1690 151l7 -10.5t3 -7.5q6 -8 6 -20
q0 -15 -8 -29l-8 -12l-9 -10q-7 -6 -11.5 -9.5t-12.5 -5.5q-5 -2 -14 -3t-15 -1q-8 0 -14.5 1l-19.5 3q-5 2 -10 6.5t-11 13.5q-4 1 -6 5l-4 8q-7 2 -7 9l7 5q2 2 4 2h4l2 2h10q4 0 4 -2q7 0 9 -2q7 -5 10.5 -6.5t5.5 -3.5q2 0 6 -1t10 -1h5q2 0 6 2q5 1 8 2t7 3q6 6 7 9
q2 4 4 7.5t2 7.5q0 7 -6 10q-5 6 -7 6q-2 4 -7.5 5t-7.5 2q-6 0 -14 7q-5 0 -9 1t-9 7q-11 3 -14.5 6t-7.5 7q-12 4 -12 14q-6 10 -6 25q0 18 6 26l6 11l8 10q4 2 10 4t13 6q6 0 10.5 1t13.5 1q4 0 8.5 -1t11.5 -1l15 -6q3 -4 6.5 -6.5t7.5 -7.5q4 -2 7.5 -5.5t3.5 -7.5
l-7 -4q-4 -2 -7 -4.5t-3 -3.5h-18l-5 1l-7 5q-2 0 -4 1t-4 1h-17q-2 0 -3 -1t-5 -3q-2 -3 -6 -6q-1 -3 -1 -10q0 -5 1 -5q2 -2 3 -5.5t3 -7.5h6q1 0 5 -2q5 -1 9.5 -3t10.5 -4l9 -2q5 -4 9 -5t9 -5q5 -2 10 -5t8 -8zM1579 336q-12 7 -16 20q-7 17 -7 31v16l11 20l12 13
q6 7 12 9q3 7 9.5 8t9.5 3q4 0 8 1.5t10 1.5q4 0 10.5 -1.5t10.5 -1.5q5 -2 8.5 -3t7.5 -8q2 -2 5.5 -4.5t6.5 -4.5l13 -13l8 -20q0 -4 1 -9t1 -7q0 -6 -1 -14t-5 -17q-5 -13 -17 -20q-5 -4 -9.5 -7.5t-11.5 -10.5q-5 -1 -12 -1.5t-16 -0.5h-15q-4 0 -10 2q-18 7 -24 18z
M2284 336q-7 -4 -13.5 -7.5t-11.5 -10.5q-8 -2 -12 -2h-30q-5 0 -13 2q-7 4 -12.5 8.5t-10.5 9.5q-6 6 -13 20q-2 9 -4.5 17t-2.5 14q0 2 1 7t1 9q3 5 4 10t4 10q2 3 5 6t5 7q6 4 18 9q3 7 8 8t7 3q6 0 9 1.5t10 1.5q2 0 8.5 -1.5t11.5 -1.5q4 -2 7.5 -3t6.5 -8l17 -9
q2 -4 4 -7t5 -6q2 -5 4 -9.5t3 -10.5q2 -4 3 -9t1 -7q0 -6 -1 -14t-5 -17q0 -6 -5 -11zM2166 127q5 12 5 27q0 16 -5 24q-3 9 -8 15.5t-8 9.5q-10 10 -24 13q-4 5 -12 6t-17 1q-12 0 -25 -7q-8 -1 -13 -4t-11 -9q-4 -3 -7.5 -9.5t-8.5 -15.5q0 -4 -1 -10t-1 -14q0 -9 1 -15
t1 -12q4 -8 8 -14t8 -11q6 -4 11 -8.5t13 -7.5q7 -2 14 -3t11 -1q9 0 17 1t12 3q8 3 14 7.5t10 8.5q11 11 16 25zM1104 127q4 11 4 27q0 13 -4 24q-2 9 -6.5 15.5t-13.5 9.5q-2 6 -7.5 9t-11.5 4q-11 7 -30 7q-14 0 -25 -7q-11 -1 -23 -13q-6 -3 -9 -9.5t-5 -15.5
q-5 -5 -5 -10v-29q0 -5 5 -12q2 -7 5 -14.5t9 -10.5q6 -4 11 -8.5t12 -7.5q11 -4 25 -4q19 0 30 4q13 7 19 16q9 3 13.5 10.5t6.5 14.5zM774 262h139v-39h-100v-55h82v-39h-82v-86h-39v219zM570 223h-58v-180h-43v180h-62v39h163v-39zM1188 864q-19 7 -37 19t-35 26h322
q-18 -14 -36 -26t-36 -19q-24 -6 -45.5 -11t-44.5 -5q-25 0 -45.5 5t-42.5 11zM1389 262h165v-39h-65v-180h-39v180h-61v39zM1366 1315q18 -8 36 -20.5t36 -22.5h-325q38 30 75 43q37 18 88 18q48 0 90 -18zM559 604l-47 68q4 0 11 4q8 5 9 10q9 5 9 11v26q0 1 -2 5
q-3 10 -11 15q-5 9 -14 9q-2 5 -6.5 6t-9.5 1h-57v-155h24v64h23l40 -56q1 -4 8 -6q2 -2 3 -2h20zM1169 604l-67 155h-22l-65 -155h11q7 0 9 2q0 2 7 6l11 27h76l13 -27q1 -4 5 -6q2 -2 8 -2h14zM1930 721q3 -2 8 -7.5t6 -12.5q4 -7 4 -21q0 -12 -4 -23q-1 -5 -6 -9.5
t-8 -6.5q-5 -4 -9 -6.5t-8 -7.5q-9 -4 -23 -4q-6 0 -12 1t-10 3q-5 5 -10.5 7.5t-9.5 6.5q-3 2 -6 6.5t-3 9.5q-4 7 -5 12t-1 11q0 10 6 21q0 7 3 12.5t6 7.5q4 4 9.5 7t10.5 5q9 4 22 4q5 0 11.5 -1t11.5 -3zM801 721q7 -2 9.5 -7.5t4.5 -12.5q4 -7 4 -21q0 -11 -4 -23
q-2 -5 -4.5 -9.5t-9.5 -6.5q-1 -4 -6 -7l-11 -7q-9 -4 -22 -4q-11 0 -23 4q-4 5 -9 7.5t-9 6.5q-2 2 -5.5 6.5t-5.5 9.5q-4 12 -4 23q0 12 4 21q2 7 5.5 12.5t5.5 7.5q4 4 9 7t9 5q5 2 12.5 3t10.5 1q13 0 22 -4q8 -2 11.5 -5t5.5 -7zM2126 759h-22v-120q-1 2 -2 5t-3 4
l-75 104l-3 7h-24v-155h22v121l2 -2l87 -119h18v155zM2218 332h31l6 3q3 3 4 5q6 0 14 5q2 5 3 7t4 4q0 3 3 8t3 10v34q-3 6 -7 10.5t-6 7.5q-10 4 -18 12h-43q-6 -4 -9.5 -7t-9.5 -5q-5 -3 -7.5 -7.5t-4.5 -10.5q-1 -4 -1.5 -7t-0.5 -7v-20q0 -13 5 -18q2 -2 4.5 -4t4.5 -7
l7 -3q2 -2 4 -2q4 -4 7 -5t7 -3zM296 690q5 12 5 20q0 9 -5 18q0 2 -5 7l-6 6q-2 3 -5 7t-10 4q-3 5 -8.5 6t-9.5 1h-52v-155h16v59h36q4 0 9.5 0.5t8.5 2.5q10 4 15 10q4 2 7.5 6t3.5 8zM1579 408q-6 -14 -6 -21v-8q0 -4 3 -5q0 -10 5 -18q0 -2 2 -4t4 -7l5 -3q2 -2 11 -2
q2 -4 5.5 -5t5.5 -3h27q6 2 9.5 3t6.5 5l6 2l4 3q2 5 4.5 7t2.5 4q3 3 4 8t3 10q0 2 1 5.5t1 7.5q0 2 -1 8t-5 13q0 6 -4 10.5t-6 7.5q-3 1 -8 6l-10 6h-42q-4 -4 -10 -7l-10 -5l-5 -8q-3 -5 -3 -10zM997 759h-18v-120l-2 4q-2 6 -2 5l-74 104q-5 0 -6 7h-25v-155h21v124h2
l2 -1v-4l86 -119h16v155zM2115 381q-5 -1 -8.5 -2t-5.5 -2l45 -61h-12l-6 2q-4 0 -4 9l-39 50h-28v-61h-15v140h57q3 0 9 -2q2 -2 6.5 -5.5t5.5 -5.5q4 -2 5 -5.5t7 -7.5v-27q-4 -4 -5 -8t-3 -6zM1342 381q-3 -3 -11 -4l47 -61h-15q-3 0 -3 2q-6 0 -6 9l-39 50h-28v-61h-13
v140h56q2 0 6 -2q10 -1 18 -11q0 -2 3 -5.5t3 -7.5q2 -2 2 -6v-14q0 -1 -2 -7q0 -10 -4 -14l-5 -4q-3 -3 -9 -4zM412 759h-98v-155h98v21h-74v47h58v18h-58v45h74v24zM1721 759h-93v-155h93v21h-69v47h58v18h-58v45h69v24zM2460 454q6 2 5 2h13v-140h-12v114l-2 -2v-2
q-4 -8 -6.5 -17.5t-8.5 -14.5q-5 -7 -7 -12.5t-7 -14.5q-2 -9 -3 -15.5t-5 -9.5q-3 -8 -6.5 -12.5t-5.5 -13.5h-15q-10 14 -15 27t-10 28q-4 12 -12 26.5t-12 28.5v2h-4v-112h-14v140h14q4 0 6 -2l2 -2v-7l49 -105q0 -4 2 -4l1 2v4q0 2 8 6l41 97q2 7 3 7t1 2zM1480 759h-22
v-104q0 -4 -2 -8q-1 -7 -10 -12q0 -2 -4 -3.5t-6 -6.5l-9 -2h-9q-7 0 -13 2q-5 5 -8.5 6.5t-5.5 3.5l-11 12q0 3 -1 7.5t-1 11.5v93h-20v-93q0 -7 1 -11.5t1 -7.5q0 -8 6 -14q3 -8 10 -12q2 -4 4.5 -6.5t8.5 -4.5q2 -2 6.5 -3t7.5 -3q4 0 7 -1.5t8 -1.5t8.5 1.5t11.5 1.5
q2 2 5 3t7 3q3 2 6 4.5t6 6.5q3 2 5 5.5t7 6.5q0 4 3 7t3 7v112zM664 632q2 5 3 8t1 8q0 12 -5.5 20t-12.5 14q-2 0 -3.5 2t-5.5 4l-4 2h-4q-1 0 -1 4q-8 0 -9 1q-8 2 -9.5 3t-5.5 3q-6 5 -9 5q-3 4 -3 6v15q0 1 1.5 2.5t1.5 3.5q2 0 4.5 1t4.5 1q6 2 5 2h10q2 -2 4 -2
q7 0 8 -4q1 -3 4 -3h2q9 0 14 5l4 2q0 2 -2 4l-5 4q-2 1 -4.5 4t-6.5 5q-2 0 -4 2.5t-5 4.5q-5 0 -7 0.5t-4 0.5q-7 0 -12 -0.5t-8 -0.5q-5 -2 -7 -4.5t-6 -4.5q-2 -6 -5.5 -8.5t-8.5 -6.5q0 -4 -2 -7t-2 -9t4 -18l12 -11q2 -2 6 -5t7 -3q5 -2 8 -4t7 -2q1 -2 6 -2t7 -2
l6 -2q2 0 4 -2t2 -3t2 -6q2 -2 2 -7v-9q0 -2 -2 -4t-2 -4t-2 -3q-2 -5 -6 -6l-4 -1q-4 0 -8 -1t-5 -1q-4 0 -7 1t-6 1q-2 0 -3.5 1t-1.5 6l-4 1q-4 4 -11 4h-7l-4 -2l-5 -2q0 -3 3 -3q0 -3 2 -5q0 -4 4 -4v-6h5q7 -7 16 -9t19 -2h10q5 0 11 2q4 2 8.5 4t6.5 5q13 5 14 17z
M1741 316h-18v140h20q3 0 4 -4l74 -104q2 0 2 -5l2 -1v114h14v-140h-12l-82 114v4h-4v-118zM1596 632q9 7 9 16q0 12 -5.5 20t-12.5 14q-6 4 -6 6h-4l-4 2h-3q-4 0 -5 4h-4q-2 0 -5 1q-2 2 -4 3t-7 3l-7 5q-2 1 -3 2l-2 2l-1 2q0 1 -1 3t-1 4q0 4 4 8q0 2 4 6q2 0 3 1t4 1
q2 2 11 2l4 -1q2 -1 5 -1q3 -3 8 -4q6 -3 8 -3q6 0 8 5l5 2q0 2 -2.5 4t-4.5 4q0 1 -3 4l-5 5q-3 0 -5.5 2.5t-6.5 4.5h-6l-5 1q-6 0 -10 -0.5t-8 -0.5l-13 -9q-5 -6 -7 -8.5t-6 -6.5q-1 -4 -3 -7t-2 -9q0 -4 2 -7.5t3 -10.5l10 -11q5 -2 7.5 -5t6.5 -3q4 -2 7.5 -4t6.5 -2
q4 -2 7 -2t6 -2q6 0 10 -4l4 -3q2 -2 2 -6q2 -2 2 -6v-9q0 -3 -2 -5q0 -6 -6 -7q-6 -5 -7 -6t-3 -1q-7 0 -8 -1t-5 -1q-3 0 -6.5 1t-5.5 1q-2 1 -4 3l-4 4l-2 1q-5 4 -10 4h-7q-2 0 -4 -2l-6 -2q2 -1 2 -2t2 -1q0 -3 1 -4l3 -3v-2q6 -6 9 -6q7 -7 14.5 -9t17.5 -2h12
q3 0 11 2q3 2 6.5 4t7.5 5l5 8q3 3 4 9zM78 350q-6 6 -7 17l-3 10q-1 3 -1 10t4 16l2 10t5 10l4 6l5 7q2 2 6.5 4.5t6.5 4.5q6 7 11 8t9 3q3 0 8 1.5t10 1.5q7 0 14.5 -1.5t13.5 -5.5q8 -2 12.5 -6.5t8.5 -9.5q-2 -2 -4 -2v-4h-13q-4 2 -7 5t-7 3h-36l-22 -12
q-4 -3 -7.5 -7.5t-4.5 -10.5q-2 -7 -3 -13t-1 -8q0 -9 4 -13q0 -5 0.5 -10t0.5 -8l5 -4q4 -1 6 -7l7 -4q3 -1 8 -1q3 -4 5.5 -5t6.5 -3h33q2 2 7 3t9 5v29h-14v2q-2 0 -3 1.5t-3 3.5h-2q-1 1 -1 3v4h36v-51q-2 -5 -3.5 -6t-5.5 -8h-12q-8 -2 -12 -2h-34q-4 0 -9 3.5t-11 7.5
q-2 0 -6.5 2.5t-6.5 6.5q-3 4 -5 6.5t-4 7.5zM240 438v-44h56v-15h-56v-47h67v-16h-84v140h84v-18h-67zM1171 438v-44h60v-15h-60v-47h68v-16h-84v140h84v-18h-68zM2375 759h-20q-3 0 -8 -5q-6 -5 -6 -10l-37 -47h-2q0 -2 -2 -2v2l-39 47q-1 7 -4 10q-5 5 -11 5h-18l58 -77
v-2q0 -2 2 -2l2 -2v-72h21v70q2 0 2 2l2 4v2zM641 456v-85q0 -7 2 -10t5 -5q0 -6 3.5 -9.5t5.5 -4.5q0 -2 4.5 -4t6.5 -4q6 -2 8 -2h16q1 0 5 2l9 4q2 1 3.5 2t3.5 2q3 1 8 14q4 3 4 15v85h14v-85q0 -12 -4 -23t-12 -16q-2 -5 -6.5 -9.5t-8.5 -4.5q-8 -1 -13.5 -1.5
t-10.5 -0.5t-11 0.5t-14 1.5q-2 0 -6.5 4.5l-9.5 9.5l-10 16q-1 6 -3.5 11t-2.5 12v85h14zM2253 625h-69v134h-21v-155h90v21zM1271 625h-67v134h-20v-155h87v21zM1452 336q1 2 2 3.5t2 3.5q2 2 3 6.5t1 6.5q0 9 -2 11t-3 4.5t-3 4.5q-1 1 -8 3q-4 0 -6 2t-6 2q-8 0 -14 6
q-9 0 -13 7q-2 0 -3.5 3.5t-3.5 7.5v22q0 1 2 7q0 8 7 9l6 7q2 1 3.5 2t3.5 2q5 0 7.5 1.5t8.5 1.5l6 -2l4 -1q4 0 5 -1t5 -3q2 0 4 -3.5t2 -5.5q4 0 6 -3l1 -2l-2 -2q-6 -2 -9 -2h-6q-2 2 -2 4h-23q-9 0 -9 -2q-5 -7 -5 -8q-4 0 -4 -8q0 -5 4 -6q0 -5 3 -6q0 -1 3 -4l4 -1
q4 -4 7.5 -4t7.5 -3q3 0 4 -1l2 -1q4 0 8 -5h4q2 0 4 -2h2q5 -4 8.5 -7t5.5 -4q1 -5 1.5 -10.5t0.5 -9.5v-10q0 -5 -4 -6q-3 -4 -5.5 -7.5t-6.5 -5.5q-2 -2 -6 -5.5t-6 -3.5q-6 -2 -10 -2h-9q-11 0 -18.5 1t-12.5 10q-2 0 -3.5 2.5t-5.5 4.5v4l-2 2l4 2h7q1 0 3 -1t4 -1
q4 -4 6.5 -5t4.5 -3h22q8 0 12 4zM1069 316l-59 140h6q6 0 8 -2t3 -2t3 -7l43 -103v-2l2 -6v6l2 2q5 14 13 27.5t12 24.5q4 16 10 28t12 23q0 7 1.5 7t1.5 2q6 2 7 2h11q-8 -18 -15.5 -35t-16.5 -34q-4 -9 -7 -18.5t-6 -18.5l-16 -34h-15zM532 438v-49h60v-12h-60v-61h-16
v140h85v-18h-69zM1959 438v-49h54v-12h-54v-61h-16v140h81v-18h-65zM879 456v-124h63v-16h-80v140h17zM371 316v122h-46v18h105v-18h-47v-122h-12zM784 456v-124h64v-16h-80v140h16zM270 728q2 -1 3 -4t3 -5q4 -4 4 -9v-4q0 -5 -4 -9q-2 -2 -3 -4.5t-3 -2.5l-4 -4l-4 -4h-46
v53h36q4 0 10 -2q1 0 4 -3zM1325 389q4 0 6 3q4 4 9 4l2 5q0 2 5 6q0 1 1 4t1 7q0 2 -1 3.5t-1 4.5q-7 3 -7 8q-5 0 -9 4h-44v-49h38zM2101 392q4 4 7 4q7 7 7 11q2 4 2 11q0 4 -2 8q0 2 -7 8q-3 0 -7 4h-44v-49h36q3 0 8 3zM1525 456v-140h-18v140h18zM518 701l-4 -7
q-2 0 -3 -2t-3 -2q-2 -2 -10 -2h-33v47h33q4 0 10 -2q2 0 6 -5q1 -2 2 -3.5t2 -3.5q3 -2 3 -9q0 -5 -3 -11zM684 129l-27 69q0 2 -1 3l-1 2q0 4 -3 6v-6l-1 -2q-1 -1 -1 -3l-27 -69h61zM1093 727v-4l27 -64h-59l30 64v5zM1755 82q6 0 6 -6q2 -2 2 -5v-4q0 -9 -2 -11
q0 -5 -6 -9q-3 0 -6 -4h-17q-4 4 -11 4q0 2 -5 9q-2 2 -2 11v4q0 3 2 5l3 4l2 2q7 4 11 4q1 3 4 3h10q3 0 3 -3q3 0 6 -4z" />
    <glyph glyph-name="colon" unicode=":" horiz-adv-x="483" 
d="M169 47q0 29 20.5 50t51.5 21t52 -21t21 -50t-21 -49.5t-52 -20.5t-51.5 20.5t-20.5 49.5zM169 959q0 30 20.5 51t51.5 21t52 -21t21 -51q0 -29 -21 -49.5t-52 -20.5t-51.5 20.5t-20.5 49.5z" />
    <glyph glyph-name="semicolon" unicode=";" horiz-adv-x="483" 
d="M214 109h82l-130 -288h-61zM169 965q0 5 2 11q0 2 0.5 3t0.5 3l3 7l3 5q2 2 3 5t3 5l7 8q3 2 5.5 4t5.5 4q6 4 16 7q4 2 8 2q10 2 15 2q14 0 28 -6q2 0 6 -2l5 -3q1 0 1 -0.5t1 -0.5l4 -4l5 -3q5 -6 10 -13q3 -4 7 -12q2 -5 4 -11l2 -11v-6q0 -7 -2 -17l-2 -6l-4 -10
l-5 -7l-3 -4q-10 -12 -23 -19l-11 -4q-2 0 -3 -1q-5 -2 -10 -2h-10h-6q-2 0 -4.5 0.5t-4.5 0.5q-5 2 -9.5 3t-9.5 3l-14 9q-8 7 -15 19l-6 12q0 2 -0.5 3t-0.5 3q-1 2 -1 5q-1 2 -1 6v12z" />
    <glyph glyph-name="less" unicode="&#x3c;" horiz-adv-x="1240" 
d="M965 921v-77l-683 -321l683 -320v-77l-775 368v60z" />
    <glyph glyph-name="question" unicode="?" horiz-adv-x="895" 
d="M371 367v71q0 49 17.5 93.5t46 85t65 77t74.5 69.5q34 30 66.5 61t58 64.5t40.5 69.5t15 77q0 66 -22 118.5t-64 88.5t-102 55.5t-135 19.5q-74 0 -133.5 -19t-101.5 -55.5t-64.5 -89.5t-22.5 -121h-77q0 79 27.5 144.5t79 112.5t125.5 72.5t168 25.5q92 0 166 -25.5
t125.5 -72t79.5 -111t28 -143.5q0 -60 -21 -108.5t-54.5 -90.5t-75 -78.5t-82.5 -70.5q-32 -27 -60 -56t-49 -61t-33.5 -66.5t-12.5 -71.5v-65h-72zM343 55q0 29 20.5 50.5t51.5 21.5t52 -21.5t21 -50.5t-21 -49.5t-52 -20.5t-51.5 20.5t-20.5 49.5z" />
    <glyph glyph-name="A" unicode="A" horiz-adv-x="1299" 
d="M1034 369h-771l-159 -369h-83l588 1360h80l588 -1360h-83zM294 440h709l-351 813l-3 9l-3 -9z" />
    <glyph glyph-name="B" unicode="B" horiz-adv-x="1301" 
d="M276 739h484q56 0 105.5 21.5t87 59t59.5 87.5t22 107t-22 107.5t-59.5 88t-87 59.5t-105.5 22h-484v-552zM815 73q61 0 115 23t95 63.5t65 95t24 117.5q0 62 -23 116.5t-63 95t-94 64t-115 23.5h-543v-598h539zM199 0v1360h563q74 0 138.5 -26.5t112 -73t74.5 -109
t27 -135.5q0 -50 -14.5 -95.5t-40 -84.5t-60.5 -69t-77 -49q58 -15 108.5 -48t87 -78.5t57.5 -102.5t21 -120q0 -81 -30 -148.5t-82 -116.5t-120.5 -76.5t-144.5 -27.5h-620z" />
    <glyph glyph-name="C" unicode="C" horiz-adv-x="1617" 
d="M1399 980q-40 76 -99 138.5t-132 106.5t-158 68t-177 24q-132 0 -248.5 -49t-203.5 -135t-137.5 -202t-50.5 -250q0 -133 50.5 -248.5t137.5 -201t203.5 -134.5t248.5 -49q91 0 176 24t158.5 67.5t132.5 105.5t99 138h84q-42 -93 -109.5 -168t-152.5 -128t-184 -81.5
t-204 -28.5q-99 0 -190.5 25t-171.5 70.5t-145 109.5t-112 142t-72.5 168.5t-25.5 188.5q0 99 25.5 189.5t72.5 169t112 143t145 110t171.5 70.5t190.5 25q105 0 204 -28.5t184 -82t152 -129t109 -168.5h-83z" />
    <glyph glyph-name="D" unicode="D" horiz-adv-x="1484" 
d="M662 72q150 0 267 43t196.5 122t121 191t41.5 249q0 132 -39 244t-117 194t-195.5 128.5t-274.5 46.5h-386v-1218h386zM199 1360h467q154 0 283 -46t222 -133t144.5 -213t51.5 -287q0 -152 -46 -277.5t-135 -215t-218.5 -139t-297.5 -49.5h-471v1360z" />
    <glyph glyph-name="E" unicode="E" horiz-adv-x="1157" 
d="M199 1360h865v-74h-788v-577h689v-71h-689v-566h797v-72h-874v1360z" />
    <glyph glyph-name="F" unicode="F" horiz-adv-x="1129" 
d="M199 1360h865v-74h-788v-597h689v-71h-689v-618h-77v1360z" />
    <glyph glyph-name="G" unicode="G" horiz-adv-x="1643" 
d="M821 679h680q1 -150 -47.5 -278.5t-136.5 -222.5t-211.5 -147.5t-272.5 -53.5q-99 0 -190.5 25t-171.5 70.5t-145 109.5t-112 142t-72.5 168.5t-25.5 188.5q0 99 25.5 189.5t72.5 169t112 143t145 110t171.5 70.5t190.5 25q151 0 284 -54t245 -171l-55 -51q-39 43 -89 80
t-110 65t-129 44t-146 16q-132 0 -248.5 -49t-203.5 -135t-137.5 -202t-50.5 -250q0 -133 50.5 -248.5t137.5 -201t203.5 -134.5t248.5 -49q128 0 233.5 42.5t182 118.5t121.5 179.5t53 226.5h-602v64z" />
    <glyph glyph-name="H" unicode="H" horiz-adv-x="1477" 
d="M199 1360h77v-651h923v651h78v-1360h-78v638h-923v-638h-77v1360z" />
    <glyph glyph-name="I" unicode="I" horiz-adv-x="475" 
d="M199 1360h77v-1360h-77v1360z" />
    <glyph glyph-name="J" unicode="J" horiz-adv-x="738" 
d="M43 71h116q98 0 163.5 24.5t104.5 70t55 111t16 148.5v935h77v-936q0 -104 -22.5 -183t-72 -132.5t-129 -81t-192.5 -27.5h-116v71z" />
    <glyph glyph-name="K" unicode="K" horiz-adv-x="1251" 
d="M276 382l825 978h95l-505 -596l543 -764h-97l-497 703l-364 -425v-278h-77v1360h77v-978z" />
    <glyph glyph-name="L" unicode="L" horiz-adv-x="1045" 
d="M199 1360h77v-1288h725v-72h-802v1360z" />
    <glyph glyph-name="M" unicode="M" horiz-adv-x="1693" 
d="M830 505l-554 722v-1227h-77v1360h64l583 -758l580 758h69v-1360h-78v1228l-556 -723h-31z" />
    <glyph glyph-name="O" unicode="O" horiz-adv-x="1669" 
d="M116 681q0 99 25.5 189.5t72.5 169t112 143t145 110t171.5 70.5t190.5 25t191 -25t172 -70.5t145.5 -110t112.5 -143t72.5 -169t25.5 -189.5q0 -98 -25.5 -188.5t-72.5 -168.5t-112.5 -142t-145.5 -109.5t-172 -70.5t-191 -25t-190.5 25t-171.5 70.5t-145 109.5t-112 142
t-72.5 168.5t-25.5 188.5zM193 681q0 -133 50.5 -248.5t137.5 -201t203.5 -134.5t248.5 -49q88 0 170 22t153.5 63t130 98.5t100.5 127.5t65 151.5t23 170.5q0 134 -50.5 250t-137.5 202t-204 135t-250 49q-132 0 -248.5 -49t-203.5 -135t-137.5 -202t-50.5 -250z" />
    <glyph glyph-name="P" unicode="P" horiz-adv-x="1256" 
d="M276 512v-512h-77v1360h537q93 0 170.5 -32t134 -88.5t88 -134.5t31.5 -170t-31.5 -169.5t-87.5 -133.5t-133.5 -88t-169.5 -32h-462zM738 582q75 0 138 27t108.5 74.5t71.5 111.5t26 139t-26.5 140t-73 112.5t-110 75t-138.5 27.5h-458v-707h462z" />
    <glyph glyph-name="Q" unicode="Q" horiz-adv-x="1669" 
d="M116 681q0 99 25.5 189.5t72.5 169t112 143t145 110t171.5 70.5t190.5 25t191 -25t172 -70.5t145.5 -110t112.5 -143t72.5 -169t25.5 -189.5q0 -152 -58.5 -282t-161.5 -226l253 -256l-55 -55l-257 261q-91 -69 -203 -107.5t-237 -38.5q-99 0 -190.5 25t-171.5 70.5
t-145 109.5t-112 142t-72.5 168.5t-25.5 188.5zM193 681q0 -133 50.5 -248.5t137.5 -201t203.5 -134.5t248.5 -49q88 0 170 22t153.5 63t130 98.5t100.5 127.5t65 151.5t23 170.5q0 134 -50.5 250t-137.5 202t-204 135t-250 49q-132 0 -248.5 -49t-203.5 -135t-137.5 -202
t-50.5 -250z" />
    <glyph glyph-name="S" unicode="S" horiz-adv-x="1221" 
d="M171 375q0 -62 33 -121t88.5 -105t129.5 -74.5t155 -28.5q223 0 344.5 81.5t121.5 240.5q0 79 -34 133.5t-92 90t-135 55t-162 29.5q-54 6 -111 13.5t-111 21t-102.5 35.5t-85 56t-57.5 83t-21 117q0 69 23.5 138t80 124t149.5 89.5t231 34.5q102 0 184 -27.5t140 -75.5
t89.5 -113.5t31.5 -142.5h-78q0 67 -28 120t-78 90t-118 57t-147 20q-116 0 -193 -27.5t-123.5 -71.5t-66 -99t-19.5 -111q0 -72 31.5 -118.5t88.5 -76t137 -45.5t177 -25q48 -6 102.5 -15.5t107.5 -26.5t101.5 -43.5t85 -66.5t58.5 -94.5t22 -127.5q0 -91 -35 -163.5
t-103.5 -123.5t-170.5 -78.5t-236 -27.5q-106 0 -194.5 35t-152.5 91.5t-99.5 128t-35.5 145.5h77z" />
    <glyph glyph-name="T" unicode="T" horiz-adv-x="1142" 
d="M533 1289h-465v71h1011v-71h-467v-1289h-79v1289z" />
    <glyph glyph-name="U" unicode="U" horiz-adv-x="1402" 
d="M1162 1361h77v-833q0 -124 -41.5 -226t-114 -174.5t-171 -112.5t-212.5 -40t-212 39.5t-170.5 112t-114 174.5t-41.5 227v833h76v-830q0 -98 30.5 -185.5t89.5 -153.5t145 -105t197 -39q107 0 192.5 38t145.5 103t92 152.5t32 185.5v834z" />
    <glyph glyph-name="V" unicode="V" horiz-adv-x="1304" 
d="M105 1360l545 -1263l545 1263h83l-588 -1360h-79l-589 1360h83z" />
    <glyph glyph-name="W" unicode="W" horiz-adv-x="2026" 
d="M973 1343h82l416 -1238h2l441 1255h83l-484 -1360h-82l-417 1224l-417 -1224h-81l-485 1360h83l441 -1255h3z" />
    <glyph glyph-name="X" unicode="X" horiz-adv-x="1263" 
d="M629 756l467 604h95l-513 -658l537 -702h-95l-491 647l-490 -647h-95l537 702l-513 658h95z" />
    <glyph glyph-name="Y" unicode="Y" horiz-adv-x="1275" 
d="M1244 1360l-568 -834v-526h-77v526l-569 834h96l511 -762h2l509 762h96z" />
    <glyph glyph-name="Z" unicode="Z" horiz-adv-x="1282" 
d="M120 0v66l937 1223h-893v71h993v-65l-937 -1224h987v-71h-1087z" />
    <glyph glyph-name="asciicircum" unicode="^" horiz-adv-x="871" 
d="M114 844l306 582h19l307 -582l-72 -15l-244 477l-245 -477z" />
    <glyph glyph-name="underscore" unicode="_" horiz-adv-x="936" 
d="M907 -216h-878v69h878v-69z" />
    <glyph glyph-name="grave" unicode="`" horiz-adv-x="483" 
d="M178 1406l163 -259h-64l-163 236z" />
    <glyph glyph-name="bar" unicode="|" horiz-adv-x="456" 
d="M191 1572h75v-1916h-75v1916z" />
    <glyph glyph-name="braceright" unicode="}" horiz-adv-x="637" 
d="M462 680q-38 21 -69.5 51.5t-54 70t-35.5 87.5t-13 104v339q0 63 -9 100t-33 57.5t-67 30t-111 16.5v68q107 -5 166.5 -28t88 -69.5t34.5 -118.5t6 -175v-211q0 -51 11.5 -96t34.5 -82.5t57.5 -65.5t81.5 -45v-66q-86 -28 -135.5 -101t-49.5 -187v-211q0 -104 -6 -176
t-34.5 -118t-88 -69t-166.5 -28v67q56 6 94.5 13t62.5 20t37 34.5t19 56t6.5 84.5t0.5 121v214q0 107 45.5 187t126.5 126z" />
    <glyph glyph-name="asciitilde" unicode="~" horiz-adv-x="1254" 
d="M1099 637q-50 -52 -113.5 -80.5t-140.5 -28.5q-62 0 -117 17.5t-108 39t-106.5 39t-113.5 17.5q-122 0 -217 -97l-28 56q50 52 112.5 80.5t132.5 28.5q66 0 122 -17.5t108.5 -39t104.5 -39t109 -17.5q69 0 124 24t101 72z" />
    <glyph glyph-name="exclamdown" unicode="&#xa1;" horiz-adv-x="474" 
d="M207 636h59l9 -271v-724h-76v724zM166 946q0 29 20.5 49.5t51.5 20.5q32 0 52.5 -20.5t20.5 -49.5t-20.5 -50.5t-52.5 -21.5q-31 0 -51.5 21.5t-20.5 50.5z" />
    <glyph glyph-name="cent" unicode="&#xa2;" horiz-adv-x="1357" 
d="M193 504q0 -105 39 -189.5t103.5 -144t148 -92t173.5 -32.5q66 0 127.5 16.5t114 47t95 74.5t72.5 99h80q-29 -69 -78 -125.5t-113 -97t-140 -63t-159 -22.5q-113 0 -211.5 41t-172 112.5t-115.5 168t-42 207.5t42 207.5t115.5 168.5t172 113t211.5 41q83 0 158.5 -22.5
t139.5 -63t113 -97.5t80 -126h-81q-29 55 -72 99t-95.5 75t-114 47.5t-127.5 16.5q-90 0 -174 -32.5t-148.5 -92.5t-103 -145t-38.5 -189zM646.418 292.585h74.8164v-216.111h-74.8164v216.111zM646.102 158.346h74.7803v-213.655h-74.7803v213.655z" />
    <glyph glyph-name="sterling" unicode="&#xa3;" horiz-adv-x="1185" 
d="M410 647q-7 69 -22.5 121t-31.5 99t-28.5 95t-12.5 110q0 75 26 133.5t74 99t115 61.5t149 21q27 0 63.5 -8t76 -25t77.5 -44.5t68.5 -67.5t49 -92t18.5 -119h-76q0 51 -14.5 92t-38 73t-53 55t-60 38t-58.5 22t-48 7q-66 0 -120 -16.5t-92 -48t-58.5 -78t-20.5 -106.5
q0 -57 12.5 -103.5t28.5 -94t31.5 -101t21.5 -123.5l361 -1v-68l-358 1v-8q0 -46 -11.5 -96.5t-30.5 -101t-44 -98.5t-53.5 -88.5t-58 -71t-57.5 -46.5h863v-69h-976v61q64 36 117.5 97.5t92.5 133t60.5 145t21.5 134.5v8h-144v68h140z" />
    <glyph glyph-name="currency" unicode="&#xa4;" horiz-adv-x="1278" 
d="M125 615q0 96 32.5 180.5t90.5 151.5l-120 120l55 55l120 -120q68 58 153 90.5t182 32.5t181.5 -32t151.5 -89l120 118l54 -55l-119 -118q60 -67 93 -152t33 -182t-33 -183t-93 -154l119 -118l-55 -55l-119 119q-67 -57 -151.5 -88.5t-181.5 -31.5t-181.5 32t-152.5 89
l-121 -120l-54 55l121 120q-59 68 -92 153t-33 182zM201 615q0 -92 34.5 -172.5t94 -140.5t139.5 -94.5t171 -34.5t171 34.5t139.5 94t94 140t34.5 173.5q0 92 -34.5 172.5t-94.5 140.5t-140 94.5t-171 34.5t-170.5 -34.5t-139 -94.5t-94 -140.5t-34.5 -172.5z" />
    <glyph glyph-name="yen" unicode="&#xa5;" horiz-adv-x="1198" 
d="M1047 582h-896v64h388l-477 714h89l447 -676l448 676h89l-477 -714h389v-64zM1047 356v-62h-411v-294l-74 1v293l-411 1v62z" />
    <glyph glyph-name="section" unicode="&#xa7;" horiz-adv-x="1201" 
d="M980 1337q-74 44 -160.5 73t-189.5 29q-64 0 -124.5 -16.5t-107 -50.5t-75 -85.5t-28.5 -121.5q0 -76 31.5 -128t83 -89t116 -62.5t130.5 -47.5q74 -25 145.5 -54.5t127 -72t89.5 -101.5t34 -143q0 -81 -28.5 -147t-77.5 -114t-115 -76t-140 -34q43 -18 83.5 -39.5
t75.5 -48.5t62.5 -60t44.5 -74q11 -29 17 -61.5t5 -70.5q-2 -83 -35 -145t-88.5 -103.5t-128.5 -62.5t-156 -21q-114 0 -207 29t-181 78l38 65q74 -44 160 -72.5t190 -28.5q64 0 124 16t107 50t75.5 85.5t28.5 122.5q0 75 -31.5 127t-83 89t-116 62.5t-130.5 47.5
q-74 25 -145.5 55t-127 72.5t-89.5 101.5t-34 143q0 81 28.5 147t77 114t114 76t139.5 33q-43 18 -83 39.5t-74.5 48.5t-62 60t-44.5 75q-24 57 -22 131q2 83 35 145.5t88.5 104t128.5 62.5t156 21q57 0 108 -7.5t98.5 -21.5t92.5 -34t89 -45zM227 453q0 -75 38 -129
t97.5 -89.5t132 -55t141.5 -26.5q66 0 127.5 20.5t108 60.5t74.5 98.5t28 134.5q0 51 -17.5 91t-48 71.5t-70.5 55t-85.5 39.5t-93.5 26t-94 16q-66 0 -127.5 -20.5t-108 -60t-74.5 -98t-28 -134.5z" />
    <glyph glyph-name="dieresis" unicode="&#xa8;" horiz-adv-x="869" 
d="M236 1258q0 26 18 43.5t44 17.5q29 0 47 -17.5t18 -43.5q0 -25 -18 -42t-47 -17q-26 0 -44 17t-18 42zM539 1258q0 26 17.5 43.5t44.5 17.5q29 0 46.5 -17.5t17.5 -43.5q0 -25 -17.5 -42t-46.5 -17q-27 0 -44.5 17t-17.5 42z" />
    <glyph glyph-name="copyright" unicode="&#xa9;" horiz-adv-x="1670" 
d="M117 681q0 99 25.5 190t72 170.5t112 145t145 112t171 72t191.5 25.5t192 -25.5t172 -72t145.5 -112t112 -145t72 -170.5t25.5 -190q0 -98 -25.5 -189t-72 -170.5t-112 -144.5t-145.5 -111.5t-172 -72t-192 -25.5t-191.5 25.5t-171 72t-145 111.5t-112 144.5t-72 170.5
t-25.5 189zM175 681q0 -138 52 -257.5t141.5 -208.5t209.5 -140t256 -51q137 0 257.5 51t210 140t141.5 208.5t52 257.5q0 92 -23.5 177t-66.5 158t-103.5 133t-134 102.5t-158 66t-175.5 23.5t-175 -23.5t-157 -66t-133.5 -102.5t-103.5 -133t-66.5 -158t-23.5 -177z
M1105 265q-29 -19 -58 -34.5t-61 -26t-69 -16t-82 -5.5q-104 0 -195.5 39t-159 106.5t-106.5 158.5t-39 194t39 194t106.5 159t158.5 107.5t196 39.5q94 0 158 -28.5t111 -71.5l-40 -38q-2 3 -18.5 16.5t-46 27.5t-70.5 25.5t-92 11.5q-92 0 -172 -34.5t-139.5 -94.5
t-94 -141t-34.5 -173t34.5 -172.5t94 -140.5t139.5 -94.5t172 -34.5q56 0 99.5 10.5t72.5 23.5q34 15 60 34z" />
    <glyph glyph-name="guillemotleft" unicode="&#xab;" horiz-adv-x="1079" 
d="M404 125l-272 354l272 354h87l-271 -354l271 -354h-87zM837 125l-272 354l272 354h87l-272 -354l271 -354h-86z" />
    <glyph glyph-name="logicalnot" unicode="&#xac;" horiz-adv-x="1151" 
d="M156 654h838v-387h-75v318h-763v69z" />
    <glyph glyph-name="registered" unicode="&#xae;" horiz-adv-x="1670" 
d="M117 681q0 99 25.5 190t72 170.5t112 145t145 112t171 72t191.5 25.5t192 -25.5t172 -72t145.5 -112t112 -145t72 -170.5t25.5 -190q0 -98 -25.5 -189t-72 -170.5t-112 -144.5t-145.5 -111.5t-172 -72t-192 -25.5t-191.5 25.5t-171 72t-145 111.5t-112 144.5t-72 170.5
t-25.5 189zM175 681q0 -138 52 -257.5t141.5 -208.5t209.5 -140t256 -51q137 0 257.5 51t210 140t141.5 208.5t52 257.5q0 92 -23.5 177t-66.5 158t-103.5 133t-134 102.5t-158 66t-175.5 23.5t-175 -23.5t-157 -66t-133.5 -102.5t-103.5 -133t-66.5 -158t-23.5 -177z
M595 597v-391h-61v967h365q60 0 112.5 -22.5t91.5 -61.5t61.5 -91.5t22.5 -113.5q0 -47 -14 -89.5t-39.5 -78t-60 -61.5t-76.5 -41l205 -408h-67l-197 393q-10 -1 -19.5 -1.5t-19.5 -0.5h-304zM897 652q49 0 90.5 18t72.5 49.5t48.5 74t17.5 90.5q0 47 -17.5 89.5
t-48.5 74.5t-73 51t-91 19h-301v-466h302z" />
    <glyph glyph-name="macron" unicode="&#xaf;" horiz-adv-x="822" 
d="M167 1280h519v-58h-519v58z" />
    <glyph glyph-name="degree" unicode="&#xb0;" horiz-adv-x="776" 
d="M112 1137q0 57 21.5 107.5t59 88t88 59.5t107.5 22t107 -22t87.5 -59.5t59.5 -88t22 -107.5t-22 -107t-59.5 -87.5t-87.5 -59t-107 -21.5t-107.5 21.5t-88 59t-59 87.5t-21.5 107zM176 1137q0 -44 16.5 -82.5t45.5 -67t67.5 -45t82.5 -16.5t82.5 16.5t67.5 45t45.5 67
t16.5 82.5t-16.5 83t-45.5 67.5t-67.5 45t-82.5 16.5t-82.5 -16.5t-67.5 -45t-45.5 -67.5t-16.5 -83z" />
    <glyph glyph-name="plusminus" unicode="&#xb1;" horiz-adv-x="1206" 
d="M1059 100v-67l-917 1v67zM631 1171v-424h424v-67h-424v-429h-69v429l-424 1v67l424 -1v424h69z" />
    <glyph glyph-name="mu" unicode="&#xb5;" horiz-adv-x="1314" 
d="M1141 448q0 -124 -29.5 -214t-87 -148t-143.5 -85.5t-198 -27.5q-70 0 -133 16.5t-116 46.5t-94.5 71.5t-66.5 91.5l1 -543h-76v1353h76v-576q0 -92 32.5 -164t87.5 -122t127.5 -76.5t151.5 -26.5q96 0 169 23t122 72.5t74 126t25 183.5v558h78v-559z" />
    <glyph glyph-name="paragraph" unicode="&#xb6;" horiz-adv-x="1169" 
d="M633 -182v761h-160q-85 0 -159.5 31.5t-129.5 87t-86.5 129.5t-31.5 160q0 85 32 160t87 130t129.5 87t159.5 32h228v-1578h-69zM949 1396h68v-1h66v-68h-66v-1509h-68v1578z" />
    <glyph glyph-name="periodcentered" unicode="&#xb7;" horiz-adv-x="483" 
d="M169 477q0 29 20.5 50t51.5 21t52 -21t21 -50t-21 -49.5t-52 -20.5t-51.5 20.5t-20.5 49.5z" />
    <glyph glyph-name="cedilla" unicode="&#xb8;" horiz-adv-x="426" 
d="M266 21l54 -1l-46 -121q28 -5 55.5 -16t49 -30.5t35 -48t13.5 -67.5q0 -41 -18.5 -77t-48 -63t-66.5 -43t-73 -16q-35 0 -65.5 3t-58.5 17l20 52q24 -10 49 -12.5t51 -2.5q25 0 51 11.5t47.5 31t35 45t13.5 54.5q0 36 -15 58.5t-38 35.5t-51 18t-55 6z" />
    <glyph glyph-name="guillemotright" unicode="&#xbb;" horiz-adv-x="1076" 
d="M604 125l270 354l-271 354h87l272 -354l-272 -354h-86zM171 125l271 354l-271 354h87l271 -354l-271 -354h-87z" />
    <glyph glyph-name="questiondown" unicode="&#xbf;" horiz-adv-x="895" 
d="M520 649v-71q0 -50 -17.5 -94t-46 -84.5t-65 -77t-74.5 -69.5q-34 -30 -66.5 -61t-57.5 -64.5t-40 -69.5t-15 -77q0 -66 22 -118.5t63.5 -88.5t101.5 -55.5t136 -19.5q74 0 133.5 19t101 55.5t64 89.5t22.5 121h77q0 -80 -27 -145t-78.5 -112t-126 -72.5t-168.5 -25.5
q-92 0 -166 25.5t-126 72t-79.5 111t-27.5 143.5q0 60 21 108.5t55 90.5t75 78t82 70q32 27 60 56.5t49 61t33.5 66t12.5 72.5v65h72zM548 960q0 -29 -20.5 -50t-51.5 -21t-52 21t-21 50q0 30 21 50.5t52 20.5t51.5 -21t20.5 -50z" />
    <glyph glyph-name="multiply" unicode="&#xd7;" horiz-adv-x="1408" 
d="M1053 811l-299 -299l299 -300l-47 -47l-300 300l-303 -304l-49 48l303 304l-299 301l47 47l301 -301l298 299z" />
    <glyph glyph-name="divide" unicode="&#xf7;" horiz-adv-x="1408" 
d="M642 912q0 26 18 44.5t45 18.5q26 0 44 -18.5t18 -44.5t-18 -43.5t-45 -17.5q-26 0 -44 17.5t-18 43.5zM642 164q0 26 18 44.5t45 18.5q26 0 44 -18.5t18 -44.5t-18 -43.5t-45 -17.5q-26 0 -44 17.5t-18 43.5zM1162 574v-67l-917 1v67z" />
    <glyph glyph-name="thorn" unicode="&#xfe;" horiz-adv-x="1346" 
d="M275 1407v-650q32 61 79.5 112t108 87.5t131.5 57t150 20.5q113 0 211 -41t170.5 -113t114 -168.5t41.5 -207.5t-41.5 -208t-114 -168.5t-171 -112t-211.5 -40.5q-78 0 -149 20t-131 56t-108 86.5t-80 111.5v-590h-76v1748h76zM1204 504q0 97 -36.5 181t-99.5 145.5
t-147.5 97t-181.5 35.5q-96 0 -181 -35.5t-148.5 -97t-100 -145.5t-36.5 -181q0 -98 36.5 -181.5t100 -145.5t148.5 -97t181 -35q97 0 181.5 35t147.5 97t99.5 145.5t36.5 181.5z" />
    <glyph glyph-name="OE" unicode="&#x152;" horiz-adv-x="2306" 
d="M1279 134q-90 -72 -203 -114.5t-243 -42.5q-99 0 -190.5 25t-171.5 70.5t-145 109.5t-112 142t-72.5 168.5t-25.5 188.5q0 99 25.5 189.5t72.5 169t112 143t145 110t171.5 70.5t190.5 25q130 0 243 -43.5t203 -115.5v131h865v-74h-787v-577h689v-71h-689v-566h796v-72
h-874v134zM833 48q130 0 244 45.5t202 130.5v915q-88 85 -202.5 131.5t-243.5 46.5q-132 0 -248.5 -49t-203 -135t-137 -202t-50.5 -250q0 -133 50.5 -248.5t137 -201t203 -134.5t248.5 -49z" />
    <glyph glyph-name="florin" unicode="&#x192;" horiz-adv-x="742" 
d="M311 887h-181l10 70h182l11 58q12 67 25.5 126t34.5 108t53.5 86t82.5 60q69 32 156 29q26 -2 46.5 -8.5t22.5 -8.5l-32 -62q-5 2 -14 5q-8 2 -19 4t-27 2q-100 0 -156.5 -58.5t-77.5 -177.5l-30 -163h257l-11 -70h-257l-181 -1029q-13 -73 -37.5 -133.5t-64.5 -102.5
t-97.5 -63.5t-135.5 -16.5q-27 1 -47 8t-22 9l32 63q5 -2 12 -5q6 -2 16 -4t25 -2q47 -1 86 12t70 42t52.5 76.5t33.5 116.5z" />
    <glyph glyph-name="circumflex" unicode="&#x2c6;" horiz-adv-x="789" 
d="M681 1178l-37 -46l-237 178l-236 -178l-38 46l274 204z" />
    <glyph glyph-name="caron" unicode="&#x2c7;" horiz-adv-x="774" 
d="M407 1139l-274 205l38 45l236 -178l237 178l37 -45z" />
    <glyph glyph-name="breve" unicode="&#x2d8;" horiz-adv-x="819" 
d="M680 1353q-17 -95 -85.5 -147t-187.5 -52q-118 0 -186.5 52t-85.5 147l62 8q9 -33 24 -59.5t39 -45t59.5 -29t87.5 -10.5t87.5 10.5t60 29t39.5 45t25 59.5z" />
    <glyph glyph-name="dotaccent" unicode="&#x2d9;" horiz-adv-x="376" 
d="M201 1256q0 26 18 44t45 18q28 0 45.5 -18t17.5 -44q0 -24 -17.5 -41.5t-45.5 -17.5q-27 0 -45 17.5t-18 41.5z" />
    <glyph glyph-name="ring" unicode="&#x2da;" horiz-adv-x="563" 
d="M93 1303q0 36 13 67.5t36 54t54.5 35.5t67.5 13q38 0 69.5 -13t54.5 -35.5t35.5 -54t12.5 -67.5q0 -34 -12.5 -63.5t-35.5 -51.5t-54.5 -35t-69.5 -13q-36 0 -67.5 13t-54.5 35t-36 51.5t-13 63.5zM151 1303q0 -22 9 -42t24 -35t35.5 -24t44.5 -9q25 0 46 9t36.5 24
t24 35t8.5 42q0 50 -32 83.5t-83 33.5q-24 0 -44.5 -9t-35.5 -25t-24 -37t-9 -46z" />
    <glyph glyph-name="ogonek" unicode="&#x2db;" horiz-adv-x="469" 
d="M338 -1q-33 -26 -69.5 -54.5t-66.5 -60t-49.5 -66t-19.5 -73.5q0 -33 24 -52t65 -19q26 0 53 6t56 17l8 -49q-32 -14 -67.5 -24t-73.5 -10q-37 0 -63 10.5t-42 27t-23 38t-7 42.5q0 48 22 89t56.5 77.5t75 68.5t78.5 62z" />
    <glyph glyph-name="tilde" unicode="&#x2dc;" horiz-adv-x="858" 
d="M759 1291q-50 -78 -102 -109.5t-107 -31.5q-41 0 -79.5 12.5t-74 27.5t-68.5 27.5t-64 12.5q-28 0 -54.5 -15t-52.5 -53l-43 31q38 60 91 83t123 4q28 -7 56 -18.5l56 -23t56 -19.5t55 -8q41 0 81 23.5t82 86.5z" />
    <glyph glyph-name="hungarumlaut" unicode="&#x2dd;" horiz-adv-x="833" 
d="M367 1401l-172 -301l-51 8l149 297zM660 1401l-171 -301l-51 8l148 297z" />
    <glyph glyph-name="endash" unicode="&#x2013;" horiz-adv-x="918" 
d="M156 515h606v-69h-606v69z" />
    <glyph glyph-name="emdash" unicode="&#x2014;" horiz-adv-x="1615" 
d="M156 515h1303v-69h-1303v69z" />
    <glyph glyph-name="quotesinglbase" unicode="&#x201a;" horiz-adv-x="502" 
d="M324 156l-163 -423l-56 5l143 432z" />
    <glyph glyph-name="quotedblleft" unicode="&#x201c;" horiz-adv-x="804" 
d="M136 1015l162 424l57 -6l-145 -432zM438 1015l162 424l58 -6l-144 -432z" />
    <glyph glyph-name="quotedblright" unicode="&#x201d;" horiz-adv-x="782" 
d="M635 1425l-163 -424l-56 6l143 432zM332 1425l-163 -424l-57 6l145 432z" />
    <glyph glyph-name="quotedblbase" unicode="&#x201e;" horiz-adv-x="776" 
d="M327 156l-163 -423l-57 5l145 432zM630 156l-163 -423l-56 5l144 432z" />
    <glyph glyph-name="dagger" unicode="&#x2020;" horiz-adv-x="729" 
d="M62 888h264v509h75v-509h265v-68h-265v-1099h-75v1099h-264v68z" />
    <glyph glyph-name="perthousand" unicode="&#x2030;" horiz-adv-x="2314" 
d="M1211 -10q-68 0 -126 23.5t-101 65.5t-67 99t-24 124t24 124.5t66.5 99.5t101 65.5t126.5 23.5t126.5 -24t101 -66t67 -100t24.5 -125q0 -66 -24.5 -122.5t-67 -98.5t-101 -65.5t-126.5 -23.5zM1211 53q54 0 100 18.5t79.5 51.5t52.5 78.5t19 98.5q0 54 -19.5 100.5
t-53 80.5t-79.5 53t-100 19q-53 0 -98.5 -19t-79 -52.5t-52.5 -79.5t-19 -100t19 -99.5t52.5 -79t79.5 -52t99 -18.5zM396 0l830 1360h77l-831 -1360h-76zM428 749q-68 0 -126.5 23.5t-101.5 65t-67 98.5t-24 124t24 124t67 99t101 65.5t126 23.5t126.5 -24t101 -66
t67 -99.5t24.5 -124.5q0 -66 -24 -122.5t-66.5 -98t-101 -65t-126.5 -23.5zM428 811q53 0 99 19t79.5 52t52.5 78t19 98q0 55 -19.5 101t-53 80t-79.5 53t-99 19t-99 -19t-79.5 -52.5t-52.5 -79.5t-19 -100t19 -99.5t53 -78.5t79.5 -52t99.5 -19zM1905 -10
q-68 0 -126.5 23.5t-101 65.5t-66.5 99t-24 124t24 124.5t66.5 99.5t100.5 65.5t126 23.5t126.5 -24t101.5 -66t67.5 -100t24.5 -125q0 -66 -24.5 -122.5t-67 -98.5t-101 -65.5t-126.5 -23.5zM1905 53q54 0 100 18.5t79.5 51.5t52.5 78.5t19 98.5q0 54 -19.5 100.5t-53 80.5
t-79.5 53t-100 19q-53 0 -98.5 -19t-79 -52.5t-52.5 -79.5t-19 -100t19 -99.5t52.5 -79t79.5 -52t99 -18.5z" />
    <glyph glyph-name="guilsinglleft" unicode="&#x2039;" horiz-adv-x="651" 
d="M412 125l-272 354l272 354h87l-272 -354l271 -354h-86z" />
    <glyph glyph-name="guilsinglright" unicode="&#x203a;" horiz-adv-x="651" 
d="M162 125l271 354l-272 354h88l271 -354l-271 -354h-87z" />
    <glyph glyph-name="fraction" unicode="&#x2044;" horiz-adv-x="939" 
d="M34 -34l811 1329l59 -32l-811 -1329z" />
    <glyph glyph-name="franc" unicode="&#x20a3;" horiz-adv-x="1168" 
d="M198 276h-86v58h86v1026h865v-74h-788v-597h689v-71h-689v-284l385 -1v-57h-385v-276h-77v276z" />
    <glyph glyph-name="trademark" unicode="&#x2122;" horiz-adv-x="1562" 
d="M773 1251v-593h-65v722h49l293 -348l294 348h48v-722h-65v593l-272 -318h-10zM293 1317h-241v63h549v-63h-240v-659h-68v659z" />
    <glyph glyph-name="partialdiff" unicode="&#x2202;" horiz-adv-x="1134" 
d="M601 880q-66 0 -121.5 -24.5t-100 -66.5t-78 -96.5t-56.5 -115t-34.5 -122t-11.5 -116.5q0 -61 14 -115t44.5 -94t77.5 -63t113 -23q64 0 118 22.5t99.5 61.5t83 93t67.5 116.5t53.5 132t40.5 139.5q-16 36 -44.5 82.5t-68 88.5t-89 71t-107.5 29zM598 942
q95 0 179.5 -64.5t147.5 -178.5q13 75 17 149.5t-4.5 143.5t-30.5 128t-60 103t-93 69t-130 25q-51 0 -108 -12.5t-104 -29.5l-19 63q27 10 57.5 19t61.5 15.5t60.5 10t55.5 3.5q187 0 287 -127.5t100 -378.5q0 -107 -16 -215.5t-48 -208.5t-80 -186.5t-111.5 -151
t-143 -101.5t-174.5 -37q-152 0 -234 87.5t-85 255.5q-2 67 11 139.5t40 141t67.5 130t94 108t119 73.5t143.5 27z" />
    <glyph glyph-name="product" unicode="&#x220f;" horiz-adv-x="1412" 
d="M1133 -344v1634h-856v-1634h-78v1705h1011v-1705h-77z" />
    <glyph glyph-name="summation" unicode="&#x2211;" horiz-adv-x="1166" 
d="M61 -344v51l632 855l-617 748v50h1012v-69h-905l602 -728l-618 -838h918v-69h-1024z" />
    <glyph glyph-name="minus" unicode="&#x2212;" horiz-adv-x="1408" 
d="M1162 647v-67l-917 1v67z" />
    <glyph glyph-name="radical" unicode="&#x221a;" horiz-adv-x="1140" 
d="M58 809h208l250 -704l526 1475l74 -11l-561 -1580l-69 -10l-275 762l-153 -1v69z" />
    <glyph glyph-name="integral" unicode="&#x222b;" horiz-adv-x="553" 
d="M235 1017q1 67 4.5 126t16 107.5t38.5 85t72 59.5q62 32 151 29q27 -2 48 -8.5t24 -8.5l-23 -62q-7 2 -16 5q-8 2 -19.5 4t-27.5 2q-100 0 -146 -58.5t-46 -177.5l-3 -1168q0 -73 -14.5 -133.5t-47.5 -102.5t-86.5 -63.5t-132.5 -16.5q-26 1 -47 8t-23 9l24 62
q4 -3 12 -5q13 -5 41 -5q47 -1 84 11.5t62 41.5t38.5 76.5t13.5 116.5z" />
    <glyph glyph-name="approxequal" unicode="&#x2248;" horiz-adv-x="1408" 
d="M1172 770q-51 -52 -114 -80t-138 -28q-62 0 -116 17.5t-106 38.5t-105.5 38.5t-113.5 17.5q-59 0 -113.5 -24.5t-100.5 -72.5l-29 56q51 53 112.5 81t130.5 28q65 0 120.5 -17.5t107.5 -38.5t104 -38.5t109 -17.5q67 0 121.5 24t100.5 71zM1172 313q-51 -51 -114 -79.5
t-138 -28.5q-62 0 -116 17.5t-106 39t-105.5 39t-113.5 17.5q-59 0 -113.5 -24.5t-100.5 -72.5l-29 56q51 52 112.5 80.5t130.5 28.5q65 0 120.5 -17.5t107.5 -38.5t104 -38.5t109 -17.5q67 0 121.5 24t100.5 70z" />
    <glyph glyph-name="notequal" unicode="&#x2260;" horiz-adv-x="1408" 
d="M776 787l133 307l63 -20l-124 -287h314v-68h-344l-172 -398h516v-68h-546l-131 -303l-63 20l122 283h-299v69l329 -1l172 398l-501 1v68z" />
    <glyph glyph-name="lessequal" unicode="&#x2264;" horiz-adv-x="1141" 
d="M976 32l-15 -66l-794 374l14 67zM966 1097l15 -69l-698 -329l698 -325l-15 -71l-811 382v28z" />
    <glyph glyph-name="lozenge" unicode="&#x25ca;" horiz-adv-x="1056" 
d="M528 1238l-333 -559l332 -561q4 8 41 70q16 26 40 66.5t59 99.5t83 139l111 185zM534 -3h-13l-408 682l408 681h13l409 -681z" />
    <glyph glyph-name="uni2219" unicode="&#x2219;" horiz-adv-x="483" 
d="M169 477q0 29 20.5 50t51.5 21t52 -21t21 -50t-21 -49.5t-52 -20.5t-51.5 20.5t-20.5 49.5z" />
    <glyph glyph-name="commaaccent" unicode="&#xf6c3;" horiz-adv-x="506" 
d="M456 -115l-156 -403l-57 5l137 411z" />
    <glyph glyph-name="dollar" unicode="$" horiz-adv-x="1177" 
d="M157 375q0 -62 33 -121t88.5 -105t129.5 -74.5t155 -28.5q223 0 344.5 81.5t121.5 240.5q0 79 -34 133.5t-92 90t-135 55t-162 29.5q-54 6 -111 13.5t-111 21t-102.5 35.5t-85 56t-57.5 83t-21 117q0 69 23.5 138t80 124t149.5 89.5t231 34.5q102 0 184 -27.5t140 -75.5
t89.5 -113.5t31.5 -142.5h-78q0 67 -28 120t-78 90t-118 57t-147 20q-116 0 -193 -27.5t-123.5 -71.5t-66 -99t-19.5 -111q0 -72 31.5 -118.5t88.5 -76t137 -45.5t177 -25q48 -6 102.5 -15.5t107.5 -26.5t101.5 -43.5t85 -66.5t58.5 -94.5t22 -127.5q0 -91 -35 -163.5
t-103.5 -123.5t-170.5 -78.5t-236 -27.5q-106 0 -194.5 35t-152.5 91.5t-99.5 128t-35.5 145.5h77zM547.866 334.544h74.9814v-216.111h-74.9814v216.111zM548 157.445h75v-214.708h-75v214.708z" />
    <glyph glyph-name="AE" unicode="&#xc6;" horiz-adv-x="2020" 
d="M990 368h-620l-258 -368h-92l949 1360h886v-74h-788v-557h689v-70h-689v-587h797v-72h-874v368zM420 439h570v816l-11 -18z" />
    <glyph glyph-name="Euro" unicode="&#x20ac;" horiz-adv-x="1166" 
d="M207 926q30 100 90 185.5t142 147t182.5 96.5t211.5 35q57 0 108 -8.5t98 -24.5v-75q-99 41 -206 41q-96 0 -183 -29.5t-158.5 -82t-125 -125.5t-82.5 -160l533 -1v-58l-764 1v58h154zM817 489v-57l-530 1q30 -85 83.5 -156.5t125 -123t157 -80.5t180.5 -29q107 0 206 39
v-74q-98 -32 -206 -32q-110 0 -209.5 34t-181.5 95t-142 144.5t-91 182.5h-156v57z" />
    <glyph glyph-name=".DOT" horiz-adv-x="617" 
d="M280 483q0 14 9.5 24t25.5 12h6q4 0 5 -1q2 0 8 -2q11 -5 17.5 -13.5t6.5 -19.5q0 -14 -11.5 -24.5t-28.5 -10.5t-27.5 10.5t-10.5 24.5zM303 595q0 6 5 11t11 5q7 0 11.5 -5t4.5 -11q0 -16 -16 -16q-6 0 -11 4.5t-5 11.5z" />
    <glyph glyph-name="acute" unicode="&#xb4;" horiz-adv-x="483" 
d="M298 1383l-163 -236h-64l162 259z" />
    <glyph glyph-name="backslash" unicode="\" horiz-adv-x="808" 
d="M729 -206l-658 1635h80l657 -1635h-79z" />
    <glyph glyph-name="equal" unicode="=" horiz-adv-x="1408" 
d="M1162 787v-68l-917 1v68zM1162 321v-68h-917v69z" />
    <glyph glyph-name="greater" unicode="&#x3e;" horiz-adv-x="1242" 
d="M1052 544v-60l-775 -368v77l683 321l-683 320v77z" />
    <glyph glyph-name="at" unicode="@" 
d="M868 355l859 867q169 -219 169 -437q0 -126 -39 -235.5t-114 -194.5h-875zM739 333q-81 104 -122 214.5t-41 237.5q0 50 9 106t27.5 110.5t47.5 104.5t69 89h869zM797 281h881q-97 -84 -210.5 -125t-232.5 -41q-127 0 -237 44t-201 122zM1678 1275h-889q103 78 214.5 122
t231.5 44q65 0 123 -12.5t112 -35t105 -52.5t103 -66z" />
    <glyph glyph-name="brokenbar" unicode="&#xa6;" horiz-adv-x="456" 
d="M266 769h-75v803h75v-803zM191 460h75v-804h-75v804z" />
    <glyph glyph-name="onehalf" unicode="&#xbd;" 
d="M868 355l859 867q169 -219 169 -437q0 -126 -39 -235.5t-114 -194.5h-875zM739 333q-81 104 -122 214.5t-41 237.5q0 50 9 106t27.5 110.5t47.5 104.5t69 89h869zM797 281h881q-97 -84 -210.5 -125t-232.5 -41q-127 0 -237 44t-201 122zM1678 1275h-889q103 78 214.5 122
t231.5 44q65 0 123 -12.5t112 -35t105 -52.5t103 -66z" />
    <glyph glyph-name="lira" unicode="&#x20a4;" horiz-adv-x="1188" 
d="M840 520v-54l-363 1q-14 -62 -40.5 -124.5t-60 -117t-70.5 -96t-71 -60.5h863v-69h-976v61q51 30 96 75.5t81 100.5t62 114t39 116h-140v54zM395 743q-11 45 -25 83.5t-26 76t-20.5 78.5t-8.5 91q0 75 26 133.5t74 99t115 61.5t149 21q27 0 63.5 -8t76 -25t77.5 -44.5
t68.5 -67.5t49 -92t18.5 -119h-76q0 51 -14.5 92t-38 73t-53 55t-60 38t-58.5 22t-48 7q-66 0 -120 -16.5t-92 -48t-58.5 -78t-20.5 -106.5q0 -46 8.5 -85t20.5 -77t25.5 -78t24.5 -86l368 -1v-54l-580 1v54h135z" />
    <glyph glyph-name="peseta" unicode="&#x20a7;" horiz-adv-x="1189" 
d="M192 328v232h-106v67h106v733h474q85 0 159 -30.5t129 -84.5t87 -127t32 -158t-31.5 -158t-86.5 -127t-129 -84.5t-159 -30.5h-395v-232l471 -1v-67l-471 1v-261h-80v261h-106v67h106zM272 627h395q67 0 127 26.5t105 71.5t71.5 105.5t26.5 128.5t-26.5 128.5t-72 105.5
t-106 71t-127.5 26h-393v-663z" />
    <glyph glyph-name="estimated" unicode="&#x212e;" horiz-adv-x="1278" 
d="M638 22q152 0 257 80.5t150 249.5l4 14l92 -1q-22 -94 -69 -167.5t-113 -124.5t-148.5 -78t-174.5 -27q-108 0 -202.5 40.5t-164 112t-110 168.5t-40.5 210q0 112 40.5 209.5t110.5 169.5t164.5 113.5t202.5 41.5t202.5 -41.5t164.5 -113.5t110.5 -169.5t40.5 -209.5
q0 -7 -0.5 -13.5t-0.5 -12.5h-934q0 -5 0.5 -11.5t0.5 -10.5q5 -95 38 -173.5t88.5 -135.5t129.5 -88.5t161 -31.5zM638 977q-86 0 -159 -28.5t-128 -81t-88.5 -127t-40.5 -167.5q0 -3 -0.5 -9.5t-1 -14t-0.5 -14v-9.5h837v8v12.5t-0.5 12.5t-0.5 9q-6 93 -40 168.5t-89 129
t-129 82.5t-160 29z" />
    <glyph glyph-name="Eng" unicode="&#x14a;" horiz-adv-x="1507" 
d="M1325 -342h-77v353l-972 1210v-1221h-77v1360h64l985 -1228v1228h77v-1702z" />
    <glyph glyph-name="quoteleft" unicode="&#x2018;" horiz-adv-x="495" 
d="M136 1015l162 424l57 -6l-145 -432z" />
    <glyph glyph-name="quoteright" unicode="&#x2019;" horiz-adv-x="501" 
d="M342 1425l-163 -424l-56 6l144 432z" />
    <glyph glyph-name="greaterequal" unicode="&#x2265;" horiz-adv-x="1140" 
d="M960 407l14 -67l-793 -374l-15 66zM986 713v-28l-811 -382l-15 71l699 325l-699 329l15 69z" />
    <glyph glyph-name="daggerdbl" unicode="&#x2021;" horiz-adv-x="750" 
d="M72 888h264v509h76v-509h264v-68h-264v-528h264v-69h-264v-502h-76v502h-264v69h264v528h-264v68z" />
    <glyph glyph-name="figuredash" unicode="&#x2012;" horiz-adv-x="917" 
d="M156 515h606v-69h-606v69z" />
    <glyph glyph-name="uni00AD" unicode="&#xad;" horiz-adv-x="700" 
d="M156 515h387v-69h-387v69z" />
    <glyph glyph-name="Delta" unicode="&#x394;" horiz-adv-x="1299" 
d="M46 61l562 1299h81l562 -1299v-61h-1205v61zM133 69h1030l-510 1178l-5 15l-5 -15z" />
    <glyph glyph-name="ellipsis" unicode="&#x2026;" horiz-adv-x="1331" 
d="M169 55q0 29 20.5 50.5t51.5 21.5t52 -21.5t21 -50.5t-21 -49.5t-52 -20.5t-51.5 20.5t-20.5 49.5zM593 55q0 29 21 50.5t51 21.5q32 0 52.5 -21.5t20.5 -50.5t-20.5 -49.5t-52.5 -20.5q-30 0 -51 20.5t-21 49.5zM1018 55q0 29 20.5 50.5t51.5 21.5t52 -21.5t21 -50.5
t-21 -49.5t-52 -20.5t-51.5 20.5t-20.5 49.5z" />
    <glyph glyph-name="bullet" unicode="&#x2022;" horiz-adv-x="633" 
d="M-617.188 -1888.96q0 -52.0225 -37.1035 -89.6943t-93.2119 -37.6719q-56.1074 0 -94.1162 37.6719t-38.0088 89.6943t38.0088 88.7969t94.1162 36.7744q56.1084 0 93.2119 -36.7744t37.1035 -88.7969z" />
    <glyph glyph-name="zero.slash" 
d="M2478 1093v-587h-2404v587h910q0 30 5.5 58t20.5 53q12 29 26 52.5t37 41.5q39 42 91 62q28 12 55.5 17t56.5 5q33 0 61.5 -6.5t53.5 -15.5q27 -14 50.5 -29.5t45.5 -36.5q35 -38 60 -94q11 -27 15.5 -54t4.5 -53h911zM1030 1194q-20 -49 -20 -101q0 -58 20 -106
q10 -22 24.5 -43.5t29.5 -42.5q20 -17 41.5 -32t45.5 -25q46 -23 105 -23q31 0 56.5 4.5t47.5 16.5q48 19 83 57q22 20 35.5 41t26.5 43q20 54 20 110q0 20 -3.5 43.5t-11.5 47.5q-14 40 -43 72q-14 20 -29.5 33.5t-34.5 25.5l-76 36q-16 3 -33 6t-38 3q-29 0 -55.5 -5.5
t-51.5 -19.5q-50 -19 -85 -57q-17 -19 -30.5 -39.5t-23.5 -44.5zM1142 936l314 317q62 -80 62 -160q0 -24 -3.5 -45.5t-11.5 -41.5q-8 -19 -17.5 -37t-23.5 -33h-320zM1095 928q-14 17 -25 36.5t-19 39.5q-9 18 -12.5 40.5t-3.5 48.5q0 18 3.5 39t12.5 43q7 35 40 68h318z
M1135 207q2 -4 4.5 -11t5.5 -14q2 -10 2 -14v-32q0 -5 -2 -11l-6 -15l-4 -14q-6 -4 -10.5 -10t-8.5 -10q-6 -5 -11 -10.5t-10 -9.5q-9 -5 -15.5 -7t-12.5 -4q-10 -2 -15 -2h-17q-9 0 -19 2t-23 4q-12 6 -18.5 13t-17.5 14q-15 14 -21 35q-4 10 -6 19.5t-2 23.5v14q0 4 2 14
q4 17 12 25q4 8 7.5 13t7.5 11q9 5 13.5 9.5t10.5 9.5l12 4l17 6q5 0 11.5 1t13.5 1q10 0 17 -1t15 -1q6 -4 12.5 -6t15.5 -4q5 -5 10 -9.5t11 -9.5q4 -6 8.5 -11t10.5 -13zM2195 207q4 -4 6.5 -11t4.5 -14q4 -7 4 -14v-32q0 -7 -4 -11q-2 -7 -4.5 -15t-6.5 -14l-16 -20
l-12 -10l-14 -10q-5 -5 -12 -7t-13 -4q-8 -2 -14 -2h-17q-19 0 -43 6q-8 6 -16 13t-17 14q-8 6 -14 14t-8 21q-6 10 -7.5 19.5t-1.5 23.5q0 8 1 14t1 14l6 14t7 11q2 8 6 13t10 11q3 5 10.5 9.5t12.5 9.5q4 2 11 4t13 6q11 0 17 1t12 1q9 0 17 -1t14 -1q6 -4 13 -6t12 -4
l26 -19q2 -6 8 -11t8 -13zM2433 260l1 1q1 1 6 1h38v-219h-38v160l-5 -9v-8q0 -2 -2 -4q-6 -16 -13 -34.5t-16 -31.5q-6 -20 -12 -36.5t-14 -36.5h-37l-55 139q-6 3 -6 12q0 4 -1 4l-2 2v-157h-42v219h40q5 0 6.5 -1t4.5 -1q2 -2 3 -2t4 -2l7 -4q0 -2 2 -3.5t2 -3.5
q4 -18 11 -32.5t16 -34.5l12 -33q3 -8 6 -15l6 -14v-14q3 0 4 -4q0 4 1 4v14l11 13l44 116q0 1 2 3l2 4q0 1 3 3l3 1q2 2 4 2t4 2zM1329 262h38v-219h-36l-100 146l-4 5v2q-3 4 -3 5q-4 1 -4 4q0 4 -7 4v-166h-37v219h33q4 0 9.5 -1t5.5 -3q3 -2 5 -2t4 -2l22 -33
q6 -8 11 -16.5t10 -19.5q13 -13 24 -29t25 -29q0 -2 1 -4.5t1 -6.5l1 -3q0 -2 1 -3v152zM672 262l94 -219h-25q-9 0 -16 4q-2 2 -4 6.5t-6 8.5l-14 27h-100l-9 -27q0 -6 -4 -6q-2 -5 -4 -5l-3 -4q-2 0 -4.5 -1t-6.5 -1q0 -2 -2 -2h-27l96 219h35zM260 262h139v-39h-100v-49
h82v-41h-82v-51h100v-39h-139v219zM839 659q1 7 2 11t1 10q0 12 -3 21q0 7 -4.5 10.5t-6.5 9.5q-2 3 -4.5 6.5t-6.5 7.5l-7 6q-2 3 -9 9q-4 2 -8 4.5t-11 4.5q-5 0 -9.5 0.5t-10.5 0.5q-3 0 -8.5 -0.5t-12.5 -0.5q-6 -2 -10 -4.5t-8 -4.5q-4 -6 -7.5 -8.5t-7.5 -6.5
q-13 -7 -14 -14q-4 -6 -5 -9.5l-3 -10.5q-1 -5 -1.5 -10t-0.5 -11t2 -14.5t4 -15.5t6.5 -12.5t11.5 -12.5q10 -15 25 -15q10 -6 29 -6h20q15 5 19 8q11 4 16 13q3 4 6 7.5t5 8.5q2 4 6.5 9t4.5 9zM1966 659v42l-7 20q-5 7 -15 14q-1 4 -6 6.5t-10 8.5l-4 2t-5 2l-7 5
q-7 0 -12 0.5t-10 0.5q-6 0 -11 -0.5t-9 -0.5l-22 -9q-3 -6 -6 -8.5t-7 -6.5q-3 -4 -6.5 -7t-5.5 -7q-2 -6 -4.5 -9.5t-2.5 -10.5q-6 -9 -6 -21q0 -6 3 -14.5t6 -15.5q4 -15 16 -25q7 -15 26 -15q10 -6 29 -6h22q3 2 8 4t8 4l10 6t6 7q11 8 15 16zM74 262h158v-24
q0 -4 -1 -6q0 -3 -2 -5l-4 -4l-105 -143h1l2 2h108v-39h-164v13q0 11 2 13q0 2 5 7v4l2 4q2 2 4 3.5t2 6.5l94 129h-102v39zM1839 203q-4 -4 -7 -10.5t-7 -14.5q-2 -4 -4 -10t-2 -14q0 -7 2 -15l4 -12q2 -7 6 -14.5t8 -10.5q4 -4 9.5 -8.5t14.5 -7.5q12 -4 27 -4q5 0 10 1
t12 1q3 2 8 5t8 7q3 0 9 2h13q3 0 9 -2q2 -1 3.5 -3t3.5 -4l6 -7q-3 -4 -6 -7.5t-7 -7.5q-7 -5 -11.5 -8t-12.5 -6q-7 -4 -11.5 -5t-10.5 -3t-11 -2h-12q-12 0 -23.5 2t-21.5 4q-10 5 -18.5 12t-16.5 15q-16 13 -22 35q-4 10 -7 19.5t-3 23.5q0 10 1 14l4 14q1 7 3 14t6 11
q6 8 8.5 13t9.5 11q14 9 25 19q4 2 9.5 4t18.5 6q5 0 12 1t15 1h13q4 0 10 -2t10.5 -3t11.5 -3q8 -4 12.5 -6.5t11.5 -7.5l13 -17l-6 -8q-2 -1 -5 -4l-2 -4h-15q-7 0 -16 4l-16 10q-10 2 -12 2h-10q-17 0 -27 -7q-17 -1 -24 -13zM1690 151l7 -10.5t3 -7.5q6 -8 6 -20
q0 -15 -8 -29l-8 -12l-9 -10q-7 -6 -11.5 -9.5t-12.5 -5.5q-5 -2 -14 -3t-15 -1q-8 0 -14.5 1l-19.5 3q-5 2 -10 6.5t-11 13.5q-4 1 -6 5l-4 8q-7 2 -7 9l7 5q2 2 4 2h4l2 2h10q4 0 4 -2q7 0 9 -2q7 -5 10.5 -6.5t5.5 -3.5q2 0 6 -1t10 -1h5q2 0 6 2q5 1 8 2t7 3q6 6 7 9
q2 4 4 7.5t2 7.5q0 7 -6 10q-5 6 -7 6q-2 4 -7.5 5t-7.5 2q-6 0 -14 7q-5 0 -9 1t-9 7q-11 3 -14.5 6t-7.5 7q-12 4 -12 14q-6 10 -6 25q0 18 6 26l6 11l8 10q4 2 10 4t13 6q6 0 10.5 1t13.5 1q4 0 8.5 -1t11.5 -1l15 -6q3 -4 6.5 -6.5t7.5 -7.5q4 -2 7.5 -5.5t3.5 -7.5
l-7 -4q-4 -2 -7 -4.5t-3 -3.5h-18l-5 1l-7 5q-2 0 -4 1t-4 1h-17q-2 0 -3 -1t-5 -3q-2 -3 -6 -6q-1 -3 -1 -10q0 -5 1 -5q2 -2 3 -5.5t3 -7.5h6q1 0 5 -2q5 -1 9.5 -3t10.5 -4l9 -2q5 -4 9 -5t9 -5q5 -2 10 -5t8 -8zM1579 336q-12 7 -16 20q-7 17 -7 31v16l11 20l12 13
q6 7 12 9q3 7 9.5 8t9.5 3q4 0 8 1.5t10 1.5q4 0 10.5 -1.5t10.5 -1.5q5 -2 8.5 -3t7.5 -8q2 -2 5.5 -4.5t6.5 -4.5l13 -13l8 -20q0 -4 1 -9t1 -7q0 -6 -1 -14t-5 -17q-5 -13 -17 -20q-5 -4 -9.5 -7.5t-11.5 -10.5q-5 -1 -12 -1.5t-16 -0.5h-15q-4 0 -10 2q-18 7 -24 18z
M2284 336q-7 -4 -13.5 -7.5t-11.5 -10.5q-8 -2 -12 -2h-30q-5 0 -13 2q-7 4 -12.5 8.5t-10.5 9.5q-6 6 -13 20q-2 9 -4.5 17t-2.5 14q0 2 1 7t1 9q3 5 4 10t4 10q2 3 5 6t5 7q6 4 18 9q3 7 8 8t7 3q6 0 9 1.5t10 1.5q2 0 8.5 -1.5t11.5 -1.5q4 -2 7.5 -3t6.5 -8l17 -9
q2 -4 4 -7t5 -6q2 -5 4 -9.5t3 -10.5q2 -4 3 -9t1 -7q0 -6 -1 -14t-5 -17q0 -6 -5 -11zM2166 127q5 12 5 27q0 16 -5 24q-3 9 -8 15.5t-8 9.5q-10 10 -24 13q-4 5 -12 6t-17 1q-12 0 -25 -7q-8 -1 -13 -4t-11 -9q-4 -3 -7.5 -9.5t-8.5 -15.5q0 -4 -1 -10t-1 -14q0 -9 1 -15
t1 -12q4 -8 8 -14t8 -11q6 -4 11 -8.5t13 -7.5q7 -2 14 -3t11 -1q9 0 17 1t12 3q8 3 14 7.5t10 8.5q11 11 16 25zM1104 127q4 11 4 27q0 13 -4 24q-2 9 -6.5 15.5t-13.5 9.5q-2 6 -7.5 9t-11.5 4q-11 7 -30 7q-14 0 -25 -7q-11 -1 -23 -13q-6 -3 -9 -9.5t-5 -15.5
q-5 -5 -5 -10v-29q0 -5 5 -12q2 -7 5 -14.5t9 -10.5q6 -4 11 -8.5t12 -7.5q11 -4 25 -4q19 0 30 4q13 7 19 16q9 3 13.5 10.5t6.5 14.5zM774 262h139v-39h-100v-55h82v-39h-82v-86h-39v219zM570 223h-58v-180h-43v180h-62v39h163v-39zM1188 864q-19 7 -37 19t-35 26h322
q-18 -14 -36 -26t-36 -19q-24 -6 -45.5 -11t-44.5 -5q-25 0 -45.5 5t-42.5 11zM1389 262h165v-39h-65v-180h-39v180h-61v39zM1366 1315q18 -8 36 -20.5t36 -22.5h-325q38 30 75 43q37 18 88 18q48 0 90 -18zM559 604l-47 68q4 0 11 4q8 5 9 10q9 5 9 11v26q0 1 -2 5
q-3 10 -11 15q-5 9 -14 9q-2 5 -6.5 6t-9.5 1h-57v-155h24v64h23l40 -56q1 -4 8 -6q2 -2 3 -2h20zM1169 604l-67 155h-22l-65 -155h11q7 0 9 2q0 2 7 6l11 27h76l13 -27q1 -4 5 -6q2 -2 8 -2h14zM1930 721q3 -2 8 -7.5t6 -12.5q4 -7 4 -21q0 -12 -4 -23q-1 -5 -6 -9.5
t-8 -6.5q-5 -4 -9 -6.5t-8 -7.5q-9 -4 -23 -4q-6 0 -12 1t-10 3q-5 5 -10.5 7.5t-9.5 6.5q-3 2 -6 6.5t-3 9.5q-4 7 -5 12t-1 11q0 10 6 21q0 7 3 12.5t6 7.5q4 4 9.5 7t10.5 5q9 4 22 4q5 0 11.5 -1t11.5 -3zM801 721q7 -2 9.5 -7.5t4.5 -12.5q4 -7 4 -21q0 -11 -4 -23
q-2 -5 -4.5 -9.5t-9.5 -6.5q-1 -4 -6 -7l-11 -7q-9 -4 -22 -4q-11 0 -23 4q-4 5 -9 7.5t-9 6.5q-2 2 -5.5 6.5t-5.5 9.5q-4 12 -4 23q0 12 4 21q2 7 5.5 12.5t5.5 7.5q4 4 9 7t9 5q5 2 12.5 3t10.5 1q13 0 22 -4q8 -2 11.5 -5t5.5 -7zM2126 759h-22v-120q-1 2 -2 5t-3 4
l-75 104l-3 7h-24v-155h22v121l2 -2l87 -119h18v155zM2218 332h31l6 3q3 3 4 5q6 0 14 5q2 5 3 7t4 4q0 3 3 8t3 10v34q-3 6 -7 10.5t-6 7.5q-10 4 -18 12h-43q-6 -4 -9.5 -7t-9.5 -5q-5 -3 -7.5 -7.5t-4.5 -10.5q-1 -4 -1.5 -7t-0.5 -7v-20q0 -13 5 -18q2 -2 4.5 -4t4.5 -7
l7 -3q2 -2 4 -2q4 -4 7 -5t7 -3zM296 690q5 12 5 20q0 9 -5 18q0 2 -5 7l-6 6q-2 3 -5 7t-10 4q-3 5 -8.5 6t-9.5 1h-52v-155h16v59h36q4 0 9.5 0.5t8.5 2.5q10 4 15 10q4 2 7.5 6t3.5 8zM1579 408q-6 -14 -6 -21v-8q0 -4 3 -5q0 -10 5 -18q0 -2 2 -4t4 -7l5 -3q2 -2 11 -2
q2 -4 5.5 -5t5.5 -3h27q6 2 9.5 3t6.5 5l6 2l4 3q2 5 4.5 7t2.5 4q3 3 4 8t3 10q0 2 1 5.5t1 7.5q0 2 -1 8t-5 13q0 6 -4 10.5t-6 7.5q-3 1 -8 6l-10 6h-42q-4 -4 -10 -7l-10 -5l-5 -8q-3 -5 -3 -10zM997 759h-18v-120l-2 4q-2 6 -2 5l-74 104q-5 0 -6 7h-25v-155h21v124h2
l2 -1v-4l86 -119h16v155zM2115 381q-5 -1 -8.5 -2t-5.5 -2l45 -61h-12l-6 2q-4 0 -4 9l-39 50h-28v-61h-15v140h57q3 0 9 -2q2 -2 6.5 -5.5t5.5 -5.5q4 -2 5 -5.5t7 -7.5v-27q-4 -4 -5 -8t-3 -6zM1342 381q-3 -3 -11 -4l47 -61h-15q-3 0 -3 2q-6 0 -6 9l-39 50h-28v-61h-13
v140h56q2 0 6 -2q10 -1 18 -11q0 -2 3 -5.5t3 -7.5q2 -2 2 -6v-14q0 -1 -2 -7q0 -10 -4 -14l-5 -4q-3 -3 -9 -4zM412 759h-98v-155h98v21h-74v47h58v18h-58v45h74v24zM1721 759h-93v-155h93v21h-69v47h58v18h-58v45h69v24zM2460 454q6 2 5 2h13v-140h-12v114l-2 -2v-2
q-4 -8 -6.5 -17.5t-8.5 -14.5q-5 -7 -7 -12.5t-7 -14.5q-2 -9 -3 -15.5t-5 -9.5q-3 -8 -6.5 -12.5t-5.5 -13.5h-15q-10 14 -15 27t-10 28q-4 12 -12 26.5t-12 28.5v2h-4v-112h-14v140h14q4 0 6 -2l2 -2v-7l49 -105q0 -4 2 -4l1 2v4q0 2 8 6l41 97q2 7 3 7t1 2zM1480 759h-22
v-104q0 -4 -2 -8q-1 -7 -10 -12q0 -2 -4 -3.5t-6 -6.5l-9 -2h-9q-7 0 -13 2q-5 5 -8.5 6.5t-5.5 3.5l-11 12q0 3 -1 7.5t-1 11.5v93h-20v-93q0 -7 1 -11.5t1 -7.5q0 -8 6 -14q3 -8 10 -12q2 -4 4.5 -6.5t8.5 -4.5q2 -2 6.5 -3t7.5 -3q4 0 7 -1.5t8 -1.5t8.5 1.5t11.5 1.5
q2 2 5 3t7 3q3 2 6 4.5t6 6.5q3 2 5 5.5t7 6.5q0 4 3 7t3 7v112zM664 632q2 5 3 8t1 8q0 12 -5.5 20t-12.5 14q-2 0 -3.5 2t-5.5 4l-4 2h-4q-1 0 -1 4q-8 0 -9 1q-8 2 -9.5 3t-5.5 3q-6 5 -9 5q-3 4 -3 6v15q0 1 1.5 2.5t1.5 3.5q2 0 4.5 1t4.5 1q6 2 5 2h10q2 -2 4 -2
q7 0 8 -4q1 -3 4 -3h2q9 0 14 5l4 2q0 2 -2 4l-5 4q-2 1 -4.5 4t-6.5 5q-2 0 -4 2.5t-5 4.5q-5 0 -7 0.5t-4 0.5q-7 0 -12 -0.5t-8 -0.5q-5 -2 -7 -4.5t-6 -4.5q-2 -6 -5.5 -8.5t-8.5 -6.5q0 -4 -2 -7t-2 -9t4 -18l12 -11q2 -2 6 -5t7 -3q5 -2 8 -4t7 -2q1 -2 6 -2t7 -2
l6 -2q2 0 4 -2t2 -3t2 -6q2 -2 2 -7v-9q0 -2 -2 -4t-2 -4t-2 -3q-2 -5 -6 -6l-4 -1q-4 0 -8 -1t-5 -1q-4 0 -7 1t-6 1q-2 0 -3.5 1t-1.5 6l-4 1q-4 4 -11 4h-7l-4 -2l-5 -2q0 -3 3 -3q0 -3 2 -5q0 -4 4 -4v-6h5q7 -7 16 -9t19 -2h10q5 0 11 2q4 2 8.5 4t6.5 5q13 5 14 17z
M1741 316h-18v140h20q3 0 4 -4l74 -104q2 0 2 -5l2 -1v114h14v-140h-12l-82 114v4h-4v-118zM1596 632q9 7 9 16q0 12 -5.5 20t-12.5 14q-6 4 -6 6h-4l-4 2h-3q-4 0 -5 4h-4q-2 0 -5 1q-2 2 -4 3t-7 3l-7 5q-2 1 -3 2l-2 2l-1 2q0 1 -1 3t-1 4q0 4 4 8q0 2 4 6q2 0 3 1t4 1
q2 2 11 2l4 -1q2 -1 5 -1q3 -3 8 -4q6 -3 8 -3q6 0 8 5l5 2q0 2 -2.5 4t-4.5 4q0 1 -3 4l-5 5q-3 0 -5.5 2.5t-6.5 4.5h-6l-5 1q-6 0 -10 -0.5t-8 -0.5l-13 -9q-5 -6 -7 -8.5t-6 -6.5q-1 -4 -3 -7t-2 -9q0 -4 2 -7.5t3 -10.5l10 -11q5 -2 7.5 -5t6.5 -3q4 -2 7.5 -4t6.5 -2
q4 -2 7 -2t6 -2q6 0 10 -4l4 -3q2 -2 2 -6q2 -2 2 -6v-9q0 -3 -2 -5q0 -6 -6 -7q-6 -5 -7 -6t-3 -1q-7 0 -8 -1t-5 -1q-3 0 -6.5 1t-5.5 1q-2 1 -4 3l-4 4l-2 1q-5 4 -10 4h-7q-2 0 -4 -2l-6 -2q2 -1 2 -2t2 -1q0 -3 1 -4l3 -3v-2q6 -6 9 -6q7 -7 14.5 -9t17.5 -2h12
q3 0 11 2q3 2 6.5 4t7.5 5l5 8q3 3 4 9zM78 350q-6 6 -7 17l-3 10q-1 3 -1 10t4 16l2 10t5 10l4 6l5 7q2 2 6.5 4.5t6.5 4.5q6 7 11 8t9 3q3 0 8 1.5t10 1.5q7 0 14.5 -1.5t13.5 -5.5q8 -2 12.5 -6.5t8.5 -9.5q-2 -2 -4 -2v-4h-13q-4 2 -7 5t-7 3h-36l-22 -12
q-4 -3 -7.5 -7.5t-4.5 -10.5q-2 -7 -3 -13t-1 -8q0 -9 4 -13q0 -5 0.5 -10t0.5 -8l5 -4q4 -1 6 -7l7 -4q3 -1 8 -1q3 -4 5.5 -5t6.5 -3h33q2 2 7 3t9 5v29h-14v2q-2 0 -3 1.5t-3 3.5h-2q-1 1 -1 3v4h36v-51q-2 -5 -3.5 -6t-5.5 -8h-12q-8 -2 -12 -2h-34q-4 0 -9 3.5t-11 7.5
q-2 0 -6.5 2.5t-6.5 6.5q-3 4 -5 6.5t-4 7.5zM240 438v-44h56v-15h-56v-47h67v-16h-84v140h84v-18h-67zM1171 438v-44h60v-15h-60v-47h68v-16h-84v140h84v-18h-68zM2375 759h-20q-3 0 -8 -5q-6 -5 -6 -10l-37 -47h-2q0 -2 -2 -2v2l-39 47q-1 7 -4 10q-5 5 -11 5h-18l58 -77
v-2q0 -2 2 -2l2 -2v-72h21v70q2 0 2 2l2 4v2zM641 456v-85q0 -7 2 -10t5 -5q0 -6 3.5 -9.5t5.5 -4.5q0 -2 4.5 -4t6.5 -4q6 -2 8 -2h16q1 0 5 2l9 4q2 1 3.5 2t3.5 2q3 1 8 14q4 3 4 15v85h14v-85q0 -12 -4 -23t-12 -16q-2 -5 -6.5 -9.5t-8.5 -4.5q-8 -1 -13.5 -1.5
t-10.5 -0.5t-11 0.5t-14 1.5q-2 0 -6.5 4.5l-9.5 9.5l-10 16q-1 6 -3.5 11t-2.5 12v85h14zM2253 625h-69v134h-21v-155h90v21zM1271 625h-67v134h-20v-155h87v21zM1452 336q1 2 2 3.5t2 3.5q2 2 3 6.5t1 6.5q0 9 -2 11t-3 4.5t-3 4.5q-1 1 -8 3q-4 0 -6 2t-6 2q-8 0 -14 6
q-9 0 -13 7q-2 0 -3.5 3.5t-3.5 7.5v22q0 1 2 7q0 8 7 9l6 7q2 1 3.5 2t3.5 2q5 0 7.5 1.5t8.5 1.5l6 -2l4 -1q4 0 5 -1t5 -3q2 0 4 -3.5t2 -5.5q4 0 6 -3l1 -2l-2 -2q-6 -2 -9 -2h-6q-2 2 -2 4h-23q-9 0 -9 -2q-5 -7 -5 -8q-4 0 -4 -8q0 -5 4 -6q0 -5 3 -6q0 -1 3 -4l4 -1
q4 -4 7.5 -4t7.5 -3q3 0 4 -1l2 -1q4 0 8 -5h4q2 0 4 -2h2q5 -4 8.5 -7t5.5 -4q1 -5 1.5 -10.5t0.5 -9.5v-10q0 -5 -4 -6q-3 -4 -5.5 -7.5t-6.5 -5.5q-2 -2 -6 -5.5t-6 -3.5q-6 -2 -10 -2h-9q-11 0 -18.5 1t-12.5 10q-2 0 -3.5 2.5t-5.5 4.5v4l-2 2l4 2h7q1 0 3 -1t4 -1
q4 -4 6.5 -5t4.5 -3h22q8 0 12 4zM1069 316l-59 140h6q6 0 8 -2t3 -2t3 -7l43 -103v-2l2 -6v6l2 2q5 14 13 27.5t12 24.5q4 16 10 28t12 23q0 7 1.5 7t1.5 2q6 2 7 2h11q-8 -18 -15.5 -35t-16.5 -34q-4 -9 -7 -18.5t-6 -18.5l-16 -34h-15zM532 438v-49h60v-12h-60v-61h-16
v140h85v-18h-69zM1959 438v-49h54v-12h-54v-61h-16v140h81v-18h-65zM879 456v-124h63v-16h-80v140h17zM371 316v122h-46v18h105v-18h-47v-122h-12zM784 456v-124h64v-16h-80v140h16zM270 728q2 -1 3 -4t3 -5q4 -4 4 -9v-4q0 -5 -4 -9q-2 -2 -3 -4.5t-3 -2.5l-4 -4l-4 -4h-46
v53h36q4 0 10 -2q1 0 4 -3zM1325 389q4 0 6 3q4 4 9 4l2 5q0 2 5 6q0 1 1 4t1 7q0 2 -1 3.5t-1 4.5q-7 3 -7 8q-5 0 -9 4h-44v-49h38zM2101 392q4 4 7 4q7 7 7 11q2 4 2 11q0 4 -2 8q0 2 -7 8q-3 0 -7 4h-44v-49h36q3 0 8 3zM1525 456v-140h-18v140h18zM518 701l-4 -7
q-2 0 -3 -2t-3 -2q-2 -2 -10 -2h-33v47h33q4 0 10 -2q2 0 6 -5q1 -2 2 -3.5t2 -3.5q3 -2 3 -9q0 -5 -3 -11zM684 129l-27 69q0 2 -1 3l-1 2q0 4 -3 6v-6l-1 -2q-1 -1 -1 -3l-27 -69h61zM1093 727v-4l27 -64h-59l30 64v5zM1755 82q6 0 6 -6q2 -2 2 -5v-4q0 -9 -2 -11
q0 -5 -6 -9q-3 0 -6 -4h-17q-4 4 -11 4q0 2 -5 9q-2 2 -2 11v4q0 3 2 5l3 4l2 2q7 4 11 4q1 3 4 3h10q3 0 3 -3q3 0 6 -4z" />
    <glyph glyph-name="e.001" horiz-adv-x="1316" 
d="M1078 469h-882q6 -90 44 -167.5t99.5 -134.5t144 -90t178.5 -33q109 0 202 41.5t158 116.5l54 -45q-76 -88 -183 -135t-232 -47q-115 0 -214 41.5t-172 113.5t-115 168t-42 205t41 205.5t112.5 169t168.5 114.5t208 42q62 0 124.5 -16.5t119.5 -45t105 -66.5t81 -82v-355
zM650 964q-90 0 -170 -33t-141 -90t-99 -135t-44 -168h809v259q-30 35 -70.5 65.5t-87 53t-97 35.5t-100.5 13z" />
    <glyph glyph-name="Aogonek" unicode="&#x104;" horiz-adv-x="1299" 
d="M1034 369h-771l-159 -369h-83l588 1360h80l588 -1360h-83zM294 440h709l-351 813l-3 9l-3 -9zM1277 0q-33 -26 -69.5 -54.5t-66.5 -60t-49.5 -66t-19.5 -73.5q0 -33 24 -52t65 -19q26 0 53 6t56 17l8 -49q-32 -14 -67.5 -24t-73.5 -10q-37 0 -63 10.5t-42 27t-23 38
t-7 42.5q0 48 22 89t56.5 77.5t75 68.5t78.5 62z" />
    <glyph glyph-name="Aring" unicode="&#xc5;" horiz-adv-x="1299" 
d="M1034 369h-771l-159 -369h-83l588 1360h80l588 -1360h-83zM294 440h709l-351 813l-3 9l-3 -9zM476 1706q0 36 13 67.5t36 54t54.5 35.5t67.5 13q38 0 69.5 -13t54.5 -35.5t35.5 -54t12.5 -67.5q0 -34 -12.5 -63.5t-35.5 -51.5t-54.5 -35t-69.5 -13q-36 0 -67.5 13
t-54.5 35t-36 51.5t-13 63.5zM534 1706q0 -22 9 -42t24 -35t35.5 -24t44.5 -9q25 0 46 9t36.5 24t24 35t8.5 42q0 50 -32 83.5t-83 33.5q-24 0 -44.5 -9t-35.5 -25t-24 -37t-9 -46z" />
    <glyph glyph-name="Aacute" unicode="&#xc1;" horiz-adv-x="1299" 
d="M1034 369h-771l-159 -369h-83l588 1360h80l588 -1360h-83zM294 440h709l-351 813l-3 9l-3 -9zM858 1714l-163 -236h-64l162 259z" />
    <glyph glyph-name="Abreve" unicode="&#x102;" horiz-adv-x="1299" 
d="M1034 369h-771l-159 -369h-83l588 1360h80l588 -1360h-83zM294 440h709l-351 813l-3 9l-3 -9zM922 1756q-17 -95 -85.5 -147t-187.5 -52q-118 0 -186.5 52t-85.5 147l62 8q9 -33 24 -59.5t39 -45t59.5 -29t87.5 -10.5t87.5 10.5t60 29t39.5 45t25 59.5z" />
    <glyph glyph-name="Agrave" unicode="&#xc0;" horiz-adv-x="1299" 
d="M1034 369h-771l-159 -369h-83l588 1360h80l588 -1360h-83zM294 440h709l-351 813l-3 9l-3 -9zM509 1809l163 -259h-64l-163 236z" />
    <glyph glyph-name="Atilde" unicode="&#xc3;" horiz-adv-x="1299" 
d="M1034 369h-771l-159 -369h-83l588 1360h80l588 -1360h-83zM294 440h709l-351 813l-3 9l-3 -9zM971 1694q-50 -78 -102 -109.5t-107 -31.5q-41 0 -79.5 12.5t-74 27.5t-68.5 27.5t-64 12.5q-28 0 -54.5 -15t-52.5 -53l-43 31q38 60 91 83t123 4q28 -7 56 -18.5l56 -23
t56 -19.5t55 -8q41 0 81 23.5t82 86.5z" />
    <glyph glyph-name="Amacron" unicode="&#x100;" horiz-adv-x="1299" 
d="M1034 369h-771l-159 -369h-83l588 1360h80l588 -1360h-83zM294 440h709l-351 813l-3 9l-3 -9zM388 1683h519v-58h-519v58z" />
    <glyph glyph-name="Adieresis" unicode="&#xc4;" horiz-adv-x="1299" 
d="M1034 369h-771l-159 -369h-83l588 1360h80l588 -1360h-83zM294 440h709l-351 813l-3 9l-3 -9zM434 1661q0 26 18 43.5t44 17.5q29 0 47 -17.5t18 -43.5q0 -25 -18 -42t-47 -17q-26 0 -44 17t-18 42zM737 1661q0 26 17.5 43.5t44.5 17.5q29 0 46.5 -17.5t17.5 -43.5
q0 -25 -17.5 -42t-46.5 -17q-27 0 -44.5 17t-17.5 42z" />
    <glyph glyph-name="Acircumflex" unicode="&#xc2;" horiz-adv-x="1299" 
d="M1034 369h-771l-159 -369h-83l588 1360h80l588 -1360h-83zM294 440h709l-351 813l-3 9l-3 -9zM922 1581l-37 -46l-237 178l-236 -178l-38 46l274 204z" />
    <glyph glyph-name="afii10021" unicode="&#x414;" horiz-adv-x="1446" 
d="M1299 0h-1153v-293h-77v367h82q28 18 55.5 57t52.5 90t46.5 110.5t38.5 118.5t28 112.5t15 94.5l60 703h762v-1286h168v-367h-78v293zM464 650q-6 -65 -23 -145.5t-44 -160t-62.5 -151t-79.5 -119.5h877v1212h-613z" />
    <glyph glyph-name="Alpha" unicode="&#x391;" horiz-adv-x="1299" 
d="M1034 369h-771l-159 -369h-83l588 1360h80l588 -1360h-83zM294 440h709l-351 813l-3 9l-3 -9z" />
    <glyph glyph-name="Lambda" unicode="&#x39b;" horiz-adv-x="1299" 
d="M654 1247l-5 14l-5 -14l-540 -1247h-83l588 1360h80l588 -1360h-83z" />
    <glyph glyph-name="afii10017" unicode="&#x410;" horiz-adv-x="1299" 
d="M1034 369h-771l-159 -369h-83l588 1360h80l588 -1360h-83zM294 440h709l-351 813l-3 9l-3 -9z" />
    <glyph glyph-name="Hbar" unicode="&#x126;" horiz-adv-x="1477" 
d="M199 1360h77v-324h923v324h78v-1360h-78v638h-923v-638h-77v1360zM1199 709v263h-923v-263h923z" />
    <glyph glyph-name="Hcircumflex" unicode="&#x124;" horiz-adv-x="1477" 
d="M199 1360h77v-651h923v651h78v-1360h-78v638h-923v-638h-77v1360zM1029 1581l-37 -46l-237 178l-236 -178l-38 46l274 204z" />
    <glyph glyph-name="Icircumflex" unicode="&#xce;" horiz-adv-x="475" 
d="M199 1360h77v-1360h-77v1360zM513 1581l-37 -46l-237 178l-236 -178l-38 46l274 204z" />
    <glyph glyph-name="Imacron" unicode="&#x12a;" horiz-adv-x="475" 
d="M199 1360h77v-1360h-77v1360zM-20 1683h519v-58h-519v58z" />
    <glyph glyph-name="Iogonek" unicode="&#x12e;" horiz-adv-x="475" 
d="M199 1360h77v-1360h-77v1360zM276 0q-33 -26 -69.5 -54.5t-66.5 -60t-49.5 -66t-19.5 -73.5q0 -33 24 -52t65 -19q26 0 53 6t56 17l8 -49q-32 -14 -67.5 -24t-73.5 -10q-37 0 -63 10.5t-42 27t-23 38t-7 42.5q0 48 22 89t56.5 77.5t75 68.5t78.5 62z" />
    <glyph glyph-name="Iacute" unicode="&#xcd;" horiz-adv-x="475" 
d="M199 1360h77v-1360h-77v1360zM434 1787l-163 -236h-64l162 259z" />
    <glyph glyph-name="Ibreve" unicode="&#x12c;" horiz-adv-x="475" 
d="M199 1360h77v-1360h-77v1360zM509 1755q-17 -95 -85.5 -147t-187.5 -52q-118 0 -186.5 52t-85.5 147l62 8q9 -33 24 -59.5t39 -45t59.5 -29t87.5 -10.5t87.5 10.5t60 29t39.5 45t25 59.5z" />
    <glyph glyph-name="Igrave" unicode="&#xcc;" horiz-adv-x="475" 
d="M199 1360h77v-1360h-77v1360zM96 1809l163 -259h-64l-163 236z" />
    <glyph glyph-name="Itilde" unicode="&#x128;" horiz-adv-x="475" 
d="M199 1360h77v-1360h-77v1360zM562 1694q-50 -78 -102 -109.5t-107 -31.5q-41 0 -79.5 12.5t-74 27.5t-68.5 27.5t-64 12.5q-28 0 -54.5 -15t-52.5 -53l-43 31q38 60 91 83t123 4q28 -7 56 -18.5l56 -23t56 -19.5t55 -8q41 0 81 23.5t82 86.5z" />
    <glyph glyph-name="Idieresis" unicode="&#xcf;" horiz-adv-x="475" 
d="M199 1360h77v-1360h-77v1360zM26 1661q0 26 18 43.5t44 17.5q29 0 47 -17.5t18 -43.5q0 -25 -18 -42t-47 -17q-26 0 -44 17t-18 42zM329 1661q0 26 17.5 43.5t44.5 17.5q29 0 46.5 -17.5t17.5 -43.5q0 -25 -17.5 -42t-46.5 -17q-27 0 -44.5 17t-17.5 42z" />
    <glyph glyph-name="Eta" unicode="&#x397;" horiz-adv-x="1503" 
d="M199 1360h77v-651h923v651h78v-1360h-78v638h-923v-638h-77v1360z" />
    <glyph glyph-name="afii10031" unicode="&#x41d;" horiz-adv-x="1503" 
d="M199 1360h77v-651h923v651h78v-1360h-78v638h-923v-638h-77v1360z" />
    <glyph glyph-name="Pi" unicode="&#x3a0;" horiz-adv-x="1518" 
d="M1242 1286h-965v-1286h-78v1360h1121v-1360h-78v1286z" />
    <glyph glyph-name="afii10033" unicode="&#x41f;" horiz-adv-x="1518" 
d="M1242 1286h-965v-1286h-78v1360h1121v-1360h-78v1286z" />
    <glyph glyph-name="afii10042" unicode="&#x428;" horiz-adv-x="2055" 
d="M199 1360h77v-1286h713v1286h77v-1286h713v1286h77v-1360h-1657v1360z" />
    <glyph glyph-name="afii10026" unicode="&#x418;" horiz-adv-x="1507" 
d="M199 1360h77v-1220l974 1220h58v-1360h-77v1215l-970 -1215h-62v1360z" />
    <glyph glyph-name="afii10030" unicode="&#x41c;" horiz-adv-x="1769" 
d="M827 505l-554 722v-1227h-77v1360h64l583 -758l580 758h69v-1360h-78v1228l-556 -723h-31z" />
    <glyph glyph-name="afii10055" unicode="&#x406;" horiz-adv-x="475" 
d="M199 1360h77v-1360h-77v1360z" />
    <glyph glyph-name="afii10056" unicode="&#x407;" horiz-adv-x="475" 
d="M67 1661q0 26 18 43.5t44 17.5q29 0 47 -17.5t18 -43.5q0 -25 -18 -42t-47 -17q-26 0 -44 17t-18 42zM370 1661q0 26 17.5 43.5t44.5 17.5q29 0 46.5 -17.5t17.5 -43.5q0 -25 -17.5 -42t-46.5 -17q-27 0 -44.5 17t-17.5 42zM199 1360h77v-1360h-77v1360z" />
    <glyph glyph-name="afii10057" unicode="&#x408;" horiz-adv-x="738" 
d="M43 71h116q98 0 163.5 24.5t104.5 70t55 111t16 148.5v935h77v-936q0 -104 -22.5 -183t-72 -132.5t-129 -81t-192.5 -27.5h-116v71z" />
    <glyph glyph-name="Idotaccent" unicode="&#x130;" horiz-adv-x="475" 
d="M199 1360h77v-1360h-77v1360zM174 1659q0 26 18 44t45 18q28 0 45.5 -18t17.5 -44q0 -24 -17.5 -41.5t-45.5 -17.5q-27 0 -45 17.5t-18 41.5z" />
    <glyph glyph-name="Iota" unicode="&#x399;" horiz-adv-x="475" 
d="M199 1360h77v-1360h-77v1360z" />
    <glyph glyph-name="Iotadieresis" unicode="&#x3aa;" horiz-adv-x="475" 
d="M67 1661q0 26 18 43.5t44 17.5q29 0 47 -17.5t18 -43.5q0 -25 -18 -42t-47 -17q-26 0 -44 17t-18 42zM370 1661q0 26 17.5 43.5t44.5 17.5q29 0 46.5 -17.5t17.5 -43.5q0 -25 -17.5 -42t-46.5 -17q-27 0 -44.5 17t-17.5 42zM199 1360h77v-1360h-77v1360z" />
    <glyph glyph-name="Mu" unicode="&#x39c;" horiz-adv-x="1769" 
d="M827 505l-554 722v-1227h-77v1360h64l583 -758l580 758h69v-1360h-78v1228l-556 -723h-31z" />
    <glyph glyph-name="Emacron" unicode="&#x112;" horiz-adv-x="1157" 
d="M199 1360h865v-74h-788v-577h689v-71h-689v-566h797v-72h-874v1360zM376 1683h519v-58h-519v58z" />
    <glyph glyph-name="Eogonek" unicode="&#x118;" horiz-adv-x="1157" 
d="M199 1360h865v-74h-788v-577h689v-71h-689v-566h797v-72h-874v1360zM1073 0q-33 -26 -69.5 -54.5t-66.5 -60t-49.5 -66t-19.5 -73.5q0 -33 24 -52t65 -19q26 0 53 6t56 17l8 -49q-32 -14 -67.5 -24t-73.5 -10q-37 0 -63 10.5t-42 27t-23 38t-7 42.5q0 48 22 89t56.5 77.5
t75 68.5t78.5 62z" />
    <glyph glyph-name="Kcommaaccent" unicode="&#x136;" horiz-adv-x="1251" 
d="M276 382l825 978h95l-505 -596l543 -764h-97l-497 703l-364 -425v-278h-77v1360h77v-978zM646 -115l-156 -403l-57 5l137 411z" />
    </font>
</defs>
</svg>
