<svg width="35" height="36" viewBox="0 0 35 36" fill="none" xmlns="http://www.w3.org/2000/svg">
<path d="M27.6128 13.8253L21.8087 8.02119H13.0146L10.2008 10.8353V0.810059H7.21045V18.5741V22.4435L13.0146 28.2475H21.8087L24.6229 25.4334V35.4587H27.7889V18.7499L27.6128 13.8253ZM20.4015 25.2575H14.5978L10.3764 21.0364V18.5741V15.2323L14.5978 11.0112H20.4015L24.6229 15.2323V18.9258V21.0364L20.4015 25.2575Z" fill="white"/>
<path d="M2.98989 24.0262V8.021H0V25.4332L10.2012 35.6344H20.402V32.6444H11.6079L2.98989 24.0262Z" fill="#66DDDD"/>
<path d="M14.5979 0.634277V3.62426H23.392L32.01 12.2424V28.2476H34.9999V10.8354L24.7987 0.634277H14.5979Z" fill="#66DDDD"/>
</svg>
