<svg width="44" height="44" viewBox="0 0 44 44" fill="none" xmlns="http://www.w3.org/2000/svg">
<path d="M18.1559 34.9689C17.3248 36.2348 15.8407 37.098 14.2973 37.1555H6.46146C4.73994 37.1555 4.0276 36.0047 4.91804 34.5661L20.5304 7.92336C21.3614 6.48477 22.7862 6.48477 23.6173 7.92336L24.8045 9.99492L27.5945 14.7711C28.3069 16.1521 28.3069 17.7633 27.5945 19.0868L18.1559 34.9689ZM37.8049 37.1555H27.0009C25.2794 37.1555 24.5671 36.0047 25.4575 34.5661L30.9188 25.4742C31.7499 24.0356 33.1746 24.0356 34.0057 25.4742L39.3484 34.5661C40.2388 36.0047 39.5265 37.1555 37.8049 37.1555Z" fill="#E84142"/>
</svg>
