<svg width="66" height="62" viewBox="0 0 66 62" fill="none" xmlns="http://www.w3.org/2000/svg">
<g filter="url(#filter0_d_571_24262)">
<path d="M24.6 19H17C14.8 19 13 20.8 13 23V35C13 37.2 14.8 39 17 39H19V45L25 39H35C37.2 39 39 37.2 39 35V31.36C38.8685 31.3882 38.7344 31.4023 38.6 31.402H24.6V19ZM49 9H31C28.8 9 27 10.8 27 13V29H41L47 35V29H49C51.2 29 53 27.202 53 25V13C53 10.8 51.2 9 49 9Z" fill="#66DDDD"/>
</g>
<defs>
<filter id="filter0_d_571_24262" x="0" y="0" width="66" height="62" filterUnits="userSpaceOnUse" color-interpolation-filters="sRGB">
<feFlood flood-opacity="0" result="BackgroundImageFix"/>
<feColorMatrix in="SourceAlpha" type="matrix" values="0 0 0 0 0 0 0 0 0 0 0 0 0 0 0 0 0 0 127 0" result="hardAlpha"/>
<feOffset dy="4"/>
<feGaussianBlur stdDeviation="6.5"/>
<feComposite in2="hardAlpha" operator="out"/>
<feColorMatrix type="matrix" values="0 0 0 0 0.4 0 0 0 0 0.866667 0 0 0 0 0.866667 0 0 0 0.53 0"/>
<feBlend mode="normal" in2="BackgroundImageFix" result="effect1_dropShadow_571_24262"/>
<feBlend mode="normal" in="SourceGraphic" in2="effect1_dropShadow_571_24262" result="shape"/>
</filter>
</defs>
</svg>
