<svg width="44" height="44" viewBox="0 0 44 44" fill="none" xmlns="http://www.w3.org/2000/svg">
<path fill-rule="evenodd" clip-rule="evenodd" d="M18.8023 6.17584C14.8142 8.19457 12.8606 9.22948 12.0279 9.76471L11.2583 10.2591L11.2087 21.9635L11.1593 33.6678L11.5935 34.0448C11.8324 34.2523 14.0622 35.477 16.5486 36.7666C16.5486 36.7666 20.8998 39.1111 22.2029 39.1111C23.0998 39.1111 23.0998 39.1111 25.7826 37.7883C26.9994 37.1454 28.8606 36.19 29.9186 35.6653C30.9767 35.1406 32.1238 34.5086 32.4676 34.2609L33.0929 33.8106L33.0867 22.1217C33.0821 13.2274 33.0245 10.3623 32.8462 10.1383C32.5936 9.82089 31.1554 9.04381 26.1287 6.50904C23.634 5.25105 22.7402 4.88892 22.1302 4.88892C21.535 4.88892 20.7286 5.20088 18.8023 6.17584ZM25.1855 7.26075C26.519 7.94519 28.5899 9.01243 29.7874 9.6324L31.9648 10.7596L31.4226 11.0787C31.1245 11.2542 30.1447 11.7815 29.2454 12.2504C23.7413 15.1204 22.7219 15.6008 22.1348 15.6008C21.7522 15.6008 20.7913 15.2268 19.6548 14.6356C18.634 14.1047 17.1498 13.3329 16.3563 12.9206C14.3132 11.859 12.4249 10.8566 12.3412 10.7893C12.302 10.7577 12.8647 10.442 13.5916 10.0874C15.227 9.29 18.7563 7.47875 20.2999 6.64454C21.9459 5.75507 22.3509 5.80619 25.1855 7.26075ZM31.9772 7.79409C31.7781 8.22106 31.8203 8.28815 32.533 8.6796C33.5126 9.21727 34.0547 10.0675 34.0547 11.0657C34.0547 11.8032 34.0837 11.8422 34.6318 11.8422C35.1724 11.8422 35.2084 11.7975 35.1986 11.1375C35.1799 9.88535 34.6187 8.81867 33.5703 8.04291C32.4414 7.20776 32.2637 7.17994 31.9772 7.79409ZM15.2813 13.6056C19.6916 15.8636 20.3711 16.2399 20.2844 16.3771C20.2389 16.4489 19.4879 16.8644 18.6157 17.3002C16.5548 18.33 13.9128 19.7131 13.1821 20.1447C12.8647 20.332 12.5402 20.4858 12.4607 20.4862C12.3813 20.4865 12.3164 18.6264 12.3164 16.3525C12.3164 14.0786 12.3737 12.2181 12.4437 12.2181C12.5138 12.2181 13.7906 12.8424 15.2813 13.6056ZM31.9386 16.3664V20.5146L29.101 19.0649C27.5404 18.2677 25.7155 17.3201 25.0459 16.9593L23.8281 16.3033L26.0077 15.1748C27.2064 14.5541 28.9664 13.6383 29.9186 13.1395C30.8709 12.641 31.7151 12.2296 31.7943 12.2256C31.8736 12.2215 31.9386 14.0848 31.9386 16.3664ZM21.5503 21.8024C21.5503 24.3865 21.4929 26.5006 21.4227 26.5006C21.1454 26.5006 12.5088 21.9479 12.5088 21.8017C12.5088 21.716 13.1798 21.3106 13.9997 20.9009C15.753 20.0248 20.323 17.6706 20.8771 17.3581C21.0887 17.2388 21.3268 17.1328 21.4061 17.1226C21.4854 17.1125 21.5503 19.2184 21.5503 21.8024ZM24.8352 18.1204C28.7284 20.0926 31.1093 21.3358 31.5273 21.6145C31.938 21.8883 31.9047 21.9197 30.3572 22.7163C25.5166 25.2082 22.9468 26.5006 22.8329 26.5006C22.7623 26.5006 22.7046 24.3865 22.7046 21.8024C22.7046 19.2184 22.7327 17.1043 22.7672 17.1043C22.8014 17.1043 23.7319 17.5615 24.8352 18.1204ZM18.4724 26.2702C19.1601 26.6314 20.0068 27.0931 20.3538 27.2963C21.413 27.9166 22.9861 27.8063 24.4666 27.0078C25.1374 26.646 26.5089 25.9331 27.514 25.4236C28.5191 24.9141 29.9257 24.185 30.6401 23.8033L31.9386 23.1093L31.9384 28.2346V33.3599L29.197 34.7565C27.6894 35.5245 25.6087 36.6029 24.5734 37.1526C23.538 37.7025 22.4713 38.1521 22.2029 38.1521C21.7939 38.1521 13.2995 33.9704 12.5569 33.4036C12.3751 33.2649 12.3164 31.9847 12.3164 28.1598V23.0997L14.7692 24.3567C16.1183 25.0482 17.7847 25.9092 18.4724 26.2702ZM8.90676 32.775C8.96563 33.332 9.15108 34.047 9.31902 34.3643C9.64298 34.976 11.2362 36.2728 11.6641 36.2728C11.8918 36.2728 12.4401 35.5452 12.2839 35.4503C10.435 34.3265 10.0079 33.7591 10.0079 32.4263C10.0079 31.8075 9.96694 31.7626 9.40386 31.7626H8.7998L8.90676 32.775Z" fill="#007BFD"/>
</svg>
