<svg width="20" height="20" viewBox="0 0 20 20" fill="none" xmlns="http://www.w3.org/2000/svg">
<path d="M1.25001 10.185C0.978745 10.1847 0.714772 10.2697 0.498008 10.4269C0.281243 10.5842 0.123475 10.8053 0.0485632 11.0567C-0.026349 11.3081 -0.0143311 11.5762 0.0827992 11.8205C0.17993 12.0647 0.35689 12.2718 0.586918 12.4105L3.94356 15.6475C4.05958 15.7593 4.1973 15.848 4.34886 15.9085C4.50042 15.969 4.66285 16.0001 4.82687 16C4.99089 15.9999 5.15329 15.9687 5.30481 15.9081C5.45632 15.8476 5.59398 15.7588 5.70992 15.6469C5.82586 15.535 5.91781 15.4022 5.98052 15.256C6.04324 15.1099 6.07549 14.9532 6.07543 14.7951C6.07537 14.6369 6.04301 14.4803 5.98019 14.3342C5.91736 14.188 5.82531 14.0553 5.70929 13.9435L4.30944 12.5947H13.7375C14.0687 12.5947 14.3863 12.4678 14.6205 12.242C14.8547 12.0162 14.9863 11.7098 14.9863 11.3905C14.9863 11.0711 14.8547 10.7648 14.6205 10.5389C14.3863 10.3131 14.0687 10.1862 13.7375 10.1862L1.25001 10.185Z" fill="#66DDDD"/>
<path d="M18.75 7.81501C19.0213 7.81527 19.2852 7.73035 19.502 7.57308C19.7188 7.41581 19.8765 7.19475 19.9514 6.94332C20.0264 6.6919 20.0143 6.42379 19.9172 6.17954C19.8201 5.93529 19.6431 5.72818 19.4131 5.58954L16.0564 2.35249C15.8221 2.12668 15.5044 1.99989 15.1731 2C14.8419 2.00011 14.5242 2.12712 14.2901 2.35309C14.0559 2.57906 13.9245 2.88547 13.9246 3.20493C13.9247 3.52438 14.0564 3.83071 14.2907 4.05652L15.6906 5.40529H6.26249C5.9313 5.40529 5.61368 5.53216 5.37949 5.75801C5.1453 5.98385 5.01374 6.29016 5.01374 6.60955C5.01374 6.92894 5.1453 7.23524 5.37949 7.46109C5.61368 7.68693 5.9313 7.81381 6.26249 7.81381L18.75 7.81501Z" fill="#66DDDD"/>
</svg>
