<svg width="20" height="20" viewBox="0 0 20 20" fill="none" xmlns="http://www.w3.org/2000/svg">
<path d="M10 3C5.031 3 0 4.546 0 7.5C0 10.454 5.031 12 10 12C14.97 12 20 10.454 20 7.5C20 4.546 14.97 3 10 3ZM5 12.938V15.938C6.237 16.237 7.605 16.42 9 16.479V13.479C7.65248 13.4265 6.31305 13.2453 5 12.938ZM11 13.478V16.478C12.3476 16.4266 13.6871 16.2454 15 15.937V12.937C13.6871 13.2454 12.3476 13.4266 11 13.478ZM17 12.297V15.297C18.801 14.542 20 13.44 20 12V9C20 10.44 18.801 11.542 17 12.297ZM3 15.297V12.297C1.2 11.542 0 10.439 0 9V12C0 13.439 1.2 14.542 3 15.297Z" fill="#66DDDD"/>
</svg>
