<svg width="20" height="20" viewBox="0 0 20 20" fill="none" xmlns="http://www.w3.org/2000/svg">
<path d="M9.7312 0.0077551L10 5.25553e-09C11.1205 -5.38813e-05 12.1987 0.414265 13.0149 1.15845C13.831 1.90263 14.3236 2.9206 14.392 4.00473L14.4 4.26531V5.04082H15.6C16.2365 5.04082 16.847 5.28593 17.2971 5.72224C17.7471 6.15855 18 6.75031 18 7.36735V16.6735C18 17.2905 17.7471 17.8823 17.2971 18.3186C16.847 18.7549 16.2365 19 15.6 19H4.4C3.76348 19 3.15303 18.7549 2.70294 18.3186C2.25286 17.8823 2 17.2905 2 16.6735V7.36735C2 6.75031 2.25286 6.15855 2.70294 5.72224C3.15303 5.28593 3.76348 5.04082 4.4 5.04082H5.6V4.26531C5.59994 3.17915 6.02735 2.13388 6.79503 1.34272C7.56271 0.551562 8.61283 0.0741095 9.7312 0.0077551ZM10 10.4694C9.57565 10.4694 9.16869 10.6328 8.86863 10.9237C8.56857 11.2145 8.4 11.6091 8.4 12.0204C8.4 12.4318 8.56857 12.8263 8.86863 13.1171C9.16869 13.408 9.57565 13.5714 10 13.5714C10.4243 13.5714 10.8313 13.408 11.1314 13.1171C11.4314 12.8263 11.6 12.4318 11.6 12.0204C11.6 11.6091 11.4314 11.2145 11.1314 10.9237C10.8313 10.6328 10.4243 10.4694 10 10.4694ZM10.2048 2.33584L10 2.32653C9.50487 2.32631 9.02725 2.50414 8.65957 2.82561C8.2919 3.14707 8.0603 3.58932 8.0096 4.06678L8 4.26531V5.04082H12V4.26531C12.0002 3.78533 11.8168 3.32234 11.4852 2.96591C11.1535 2.60949 10.6973 2.38499 10.2048 2.33584Z" fill="#66DDDD"/>
</svg>
