<svg width="20" height="20" viewBox="0 0 20 20" fill="none" xmlns="http://www.w3.org/2000/svg">
<path d="M11.0778 0.266249C10.4111 -0.0887497 9.5889 -0.0887497 8.92224 0.266249L1.14447 4.32785L6.77779 7.26181C7.5889 6.46828 8.73335 5.96711 10 5.96711C11.2667 5.96711 12.4111 6.46828 13.2222 7.26181L18.8556 4.31741L11.0778 0.266249ZM7.77779 10.1436C7.77779 8.99504 8.77779 8.05534 10 8.05534C11.2222 8.05534 12.2222 8.99504 12.2222 10.1436C12.2222 11.2921 11.2222 12.2318 10 12.2318C8.77779 12.2318 7.77779 11.2921 7.77779 10.1436ZM2.38081e-05 6.11329L5.70002 9.08901C5.60002 9.42313 5.55557 9.77813 5.55557 10.1436C5.55557 12.0856 6.96668 13.7249 8.8889 14.1843V20L1.14447 15.9593C0.796402 15.7797 0.506366 15.5151 0.304944 15.1935C0.103522 14.8719 -0.00182052 14.5052 2.38081e-05 14.1321V6.11329ZM11.1111 20V14.1843C13.0333 13.7249 14.4445 12.0856 14.4445 10.1436C14.4445 9.77813 14.4 9.42313 14.3 9.08901L20 6.11329V14.1321C20 14.8943 19.5667 15.5938 18.8556 15.9593L11.1111 20Z" fill="#66DDDD"/>
</svg>
