<svg width="20" height="20" viewBox="0 0 20 20" fill="none" xmlns="http://www.w3.org/2000/svg">
<path d="M9.99986 0C8.26302 0.000308952 6.5562 0.452872 5.04741 1.31314C3.53863 2.17341 2.27988 3.41173 1.39509 4.9062C0.510301 6.40067 0.0299612 8.09977 0.00135681 9.83625C-0.0272476 11.5727 0.396869 13.2867 1.23196 14.8095L0.409371 17.6849C0.33377 17.9487 0.330156 18.228 0.398904 18.4937C0.467653 18.7594 0.606258 19.0019 0.800337 19.1959C0.994417 19.39 1.2369 19.5286 1.50262 19.5973C1.76834 19.6661 2.04762 19.6625 2.31147 19.5869L5.18779 18.7665C6.52452 19.5001 8.01131 19.9183 9.53448 19.9892C11.0576 20.0601 12.5769 19.7817 13.9759 19.1754C15.375 18.5692 16.6169 17.651 17.6067 16.4912C18.5965 15.3313 19.3079 13.9606 19.6867 12.4836C20.0654 11.0067 20.1013 9.4627 19.7917 7.96974C19.4821 6.47679 18.8353 5.07438 17.9005 3.86976C16.9658 2.66514 15.7679 1.6902 14.3985 1.01949C13.0292 0.348785 11.5246 6.56216e-05 9.99976 0H9.99986ZM5.38451 11.1522C5.15631 11.1522 4.93323 11.0846 4.74348 10.9578C4.55373 10.831 4.40584 10.6508 4.31851 10.44C4.23118 10.2292 4.20833 9.99718 4.25285 9.77337C4.29737 9.54957 4.40726 9.34399 4.56863 9.18263C4.73 9.02128 4.93559 8.91139 5.15941 8.86687C5.38324 8.82236 5.61523 8.8452 5.82607 8.93253C6.0369 9.01985 6.21711 9.16773 6.34389 9.35747C6.47068 9.5472 6.53835 9.77027 6.53835 9.99846C6.53835 10.3045 6.41679 10.5979 6.2004 10.8143C5.98401 11.0307 5.69053 11.1522 5.38451 11.1522ZM9.99986 11.1522C9.77165 11.1522 9.54856 11.0846 9.35882 10.9578C9.16907 10.831 9.02118 10.6508 8.93385 10.44C8.84652 10.2292 8.82367 9.99718 8.86819 9.77337C8.91271 9.54957 9.0226 9.34399 9.18397 9.18263C9.34534 9.02128 9.55093 8.91139 9.77475 8.86687C9.99857 8.82236 10.2306 8.8452 10.4414 8.93253C10.6522 9.01985 10.8324 9.16773 10.9592 9.35747C11.086 9.5472 11.1537 9.77027 11.1537 9.99846C11.1537 10.3045 11.0321 10.5979 10.8157 10.8143C10.5994 11.0307 10.3059 11.1522 9.99986 11.1522ZM14.6152 11.1522C14.387 11.1522 14.1639 11.0846 13.9742 10.9578C13.7844 10.831 13.6365 10.6508 13.5492 10.44C13.4619 10.2292 13.439 9.99718 13.4835 9.77337C13.5281 9.54957 13.6379 9.34399 13.7993 9.18263C13.9607 9.02128 14.1663 8.91139 14.3901 8.86687C14.6139 8.82236 14.8459 8.8452 15.0567 8.93253C15.2676 9.01985 15.4478 9.16773 15.5746 9.35747C15.7014 9.5472 15.769 9.77027 15.769 9.99846C15.769 10.3045 15.6475 10.5979 15.4311 10.8143C15.2147 11.0307 14.9212 11.1522 14.6152 11.1522Z" fill="#66DDDD"/>
</svg>
