<svg width="44" height="44" viewBox="0 0 44 44" fill="none" xmlns="http://www.w3.org/2000/svg">
<path d="M25.2784 16.0301C25.2784 11.8207 23.2836 8.19581 21.7545 7.0112C21.7545 7.0112 21.6459 6.94803 21.6459 7.12177C21.5217 15.2561 17.4699 17.4831 15.2189 20.4368C10.065 27.2996 14.8619 34.8101 19.7365 36.1921C22.4764 36.9661 19.0999 34.8101 18.673 30.277C18.1685 24.7646 25.2784 20.579 25.2784 16.0301Z" fill="#059BDC"/>
<path d="M28.0101 18.1622C27.9868 18.1385 27.9401 18.1385 27.8936 18.1622C27.8936 18.1622 27.8937 18.1621 27.8705 18.1858C27.7773 19.2756 26.5975 21.6369 25.1149 23.7929C20.0774 31.1217 22.9494 34.644 24.5716 36.5393C25.5031 37.6529 24.5716 36.5394 26.9157 35.4022C27.0943 35.3074 31.472 32.9461 31.9533 27.5916C32.4267 22.3793 29.1744 19.1099 28.0101 18.1622Z" fill="#059BDC"/>
</svg>
