<svg width="55" height="55" viewBox="0 0 55 55" fill="none" xmlns="http://www.w3.org/2000/svg">
<g clip-path="url(#clip0_849_8167)">
<g filter="url(#filter0_d_849_8167)">
<path d="M19.9543 36.9842C20.466 37.3175 21.1193 37.4175 21.7326 37.2059L25.9593 35.7659C26.3883 35.6196 26.8537 35.6196 27.2826 35.7659L31.5093 37.2059C32.1226 37.4159 32.776 37.3175 33.2876 36.9842V43.4742L26.621 41.2109L19.9543 43.4742V36.9842ZM26.0826 33.0342L22.646 34.2059C22.2612 34.3369 21.8419 34.3228 21.4668 34.1663C21.0917 34.0097 20.7868 33.7215 20.6093 33.3559L18.9343 29.9142C18.7804 29.5962 18.5295 29.3353 18.2176 29.1692L14.8843 27.4025C14.5413 27.2201 14.2727 26.9236 14.1252 26.5642C13.9776 26.2048 13.9602 25.8051 14.076 25.4342L15.2593 21.6459C15.3603 21.3225 15.3603 20.976 15.2593 20.6525L14.076 16.8642C13.9599 16.4929 13.9773 16.0927 14.1252 15.7329C14.2731 15.3731 14.5423 15.0764 14.886 14.8942L18.2176 13.1275C18.5292 12.9619 18.7801 12.7016 18.9343 12.3842L20.6093 8.93754C20.7871 8.57219 21.0921 8.28435 21.4672 8.12813C21.8422 7.97191 22.2614 7.95807 22.646 8.0892L26.0826 9.26087C26.4317 9.37998 26.8103 9.37998 27.1593 9.26087L30.596 8.0892C30.9807 7.95819 31.4001 7.97228 31.7752 8.12881C32.1502 8.28535 32.4552 8.57356 32.6326 8.9392L34.3076 12.3825C34.4615 12.7006 34.7125 12.9614 35.0243 13.1275L38.3576 14.8942C38.7007 15.0766 38.9692 15.3732 39.1168 15.7326C39.2644 16.092 39.2818 16.4917 39.166 16.8625L37.9826 20.6509C37.8817 20.9743 37.8817 21.3208 37.9826 21.6442L39.166 25.4325C39.2821 25.8038 39.2647 26.204 39.1167 26.5638C38.9688 26.9236 38.6997 27.2203 38.356 27.4025L35.0243 29.1692C34.7128 29.3349 34.4618 29.5951 34.3076 29.9125L32.6326 33.3575C32.4549 33.7229 32.1498 34.0107 31.7748 34.1669C31.3997 34.3232 30.9805 34.337 30.596 34.2059L27.1593 33.0342C26.8103 32.9151 26.4317 32.9151 26.0826 33.0342ZM26.621 16.1475C26.179 16.1475 25.755 16.3231 25.4425 16.6357C25.1299 16.9483 24.9543 17.3722 24.9543 17.8142V24.4809C24.9543 24.9229 25.1299 25.3468 25.4425 25.6594C25.755 25.9719 26.179 26.1475 26.621 26.1475C27.063 26.1475 27.4869 25.9719 27.7995 25.6594C28.1121 25.3468 28.2876 24.9229 28.2876 24.4809V17.8142C28.2876 17.3722 28.1121 16.9483 27.7995 16.6357C27.4869 16.3231 27.063 16.1475 26.621 16.1475Z" fill="#66DDDD"/>
</g>
</g>
<defs>
<filter id="filter0_d_849_8167" x="1" y="-1" width="51.2422" height="61.4742" filterUnits="userSpaceOnUse" color-interpolation-filters="sRGB">
<feFlood flood-opacity="0" result="BackgroundImageFix"/>
<feColorMatrix in="SourceAlpha" type="matrix" values="0 0 0 0 0 0 0 0 0 0 0 0 0 0 0 0 0 0 127 0" result="hardAlpha"/>
<feOffset dy="4"/>
<feGaussianBlur stdDeviation="6.5"/>
<feComposite in2="hardAlpha" operator="out"/>
<feColorMatrix type="matrix" values="0 0 0 0 0.4 0 0 0 0 0.866667 0 0 0 0 0.866667 0 0 0 0.53 0"/>
<feBlend mode="normal" in2="BackgroundImageFix" result="effect1_dropShadow_849_8167"/>
<feBlend mode="normal" in="SourceGraphic" in2="effect1_dropShadow_849_8167" result="shape"/>
</filter>
<clipPath id="clip0_849_8167">
<rect width="55" height="55" fill="white"/>
</clipPath>
</defs>
</svg>
