<svg width="44" height="44" viewBox="0 0 44 44" fill="none" xmlns="http://www.w3.org/2000/svg">
<circle cx="22" cy="22" r="22" fill="#7052CC"/>
<path d="M29.9347 16.9973C29.3806 16.6685 28.734 16.6685 28.1337 16.9973L23.8853 19.5339L21.0223 21.178L16.8663 23.7146C16.3121 24.0434 15.6656 24.0434 15.0653 23.7146L11.7867 21.6947C11.2325 21.3658 10.8631 20.7552 10.8631 20.0506V16.1988C10.8631 15.5881 11.1863 14.9774 11.7867 14.5547L15.0653 12.6287C15.6194 12.2999 16.266 12.2999 16.8663 12.6287L20.1449 14.6486C20.6991 14.9774 21.0685 15.5881 21.0685 16.2927V18.8293L23.9315 17.1382V14.5077C23.9315 13.897 23.6083 13.2864 23.0079 12.8636L16.9586 9.24661C16.4045 8.9178 15.758 8.9178 15.1576 9.24661L8.92357 12.9576C8.32325 13.2864 8 13.897 8 14.5077V21.7416C8 22.3523 8.32325 22.963 8.92357 23.3857L15.0653 27.0027C15.6194 27.3315 16.266 27.3315 16.8663 27.0027L21.0223 24.5131L23.8853 22.822L28.0414 20.3324C28.5955 20.0036 29.242 20.0036 29.8424 20.3324L33.121 22.2583C33.6751 22.5872 34.0446 23.1978 34.0446 23.9024V27.7543C34.0446 28.3649 33.7213 28.9756 33.121 29.3984L29.9347 31.3243C29.3806 31.6531 28.734 31.6531 28.1337 31.3243L24.8551 29.3984C24.3009 29.0696 23.9315 28.4589 23.9315 27.7543V25.2647L21.0685 26.9557V29.4923C21.0685 30.103 21.3917 30.7136 21.9921 31.1364L28.1337 34.7534C28.6879 35.0822 29.3344 35.0822 29.9347 34.7534L36.0764 31.1364C36.6306 30.8076 37 30.1969 37 29.4923V22.1644C37 21.5537 36.6768 20.9431 36.0764 20.5203L29.9347 16.9973Z" fill="white"/>
</svg>
