<svg width="57" height="67" viewBox="0 0 57 67" fill="none" xmlns="http://www.w3.org/2000/svg">
<g filter="url(#filter0_d_1875_12828)">
<path d="M13 14.2714C13 12.8734 13.5443 11.5325 14.5133 10.544C15.4822 9.55538 16.7964 9 18.1667 9H27.9351V20.1239C27.9351 20.8161 28.0688 21.5016 28.3284 22.1412C28.588 22.7807 28.9686 23.3619 29.4484 23.8513C30.4173 24.8399 31.7315 25.3953 33.1018 25.3953H44V44.7286C44 46.1266 43.4557 47.4674 42.4867 48.456C41.5178 49.4446 40.2036 50 38.8333 50H18.1667C16.7964 50 15.4822 49.4446 14.5133 48.456C13.5443 47.4674 13 46.1266 13 44.7286V14.2714ZM21.6111 31.2571C21.1543 31.2571 20.7163 31.4423 20.3933 31.7718C20.0703 32.1013 19.8889 32.5483 19.8889 33.0143C19.8889 33.4803 20.0703 33.9272 20.3933 34.2568C20.7163 34.5863 21.1543 34.7714 21.6111 34.7714C22.0679 34.7714 22.5059 34.5863 22.8289 34.2568C23.1519 33.9272 23.3333 33.4803 23.3333 33.0143C23.3333 32.5483 23.1519 32.1013 22.8289 31.7718C22.5059 31.4423 22.0679 31.2571 21.6111 31.2571ZM19.8889 40.0429C19.8889 40.5089 20.0703 40.9558 20.3933 41.2853C20.7163 41.6149 21.1543 41.8 21.6111 41.8C22.0679 41.8 22.5059 41.6149 22.8289 41.2853C23.1519 40.9558 23.3333 40.5089 23.3333 40.0429C23.3333 39.5768 23.1519 39.1299 22.8289 38.8004C22.5059 38.4708 22.0679 38.2857 21.6111 38.2857C21.1543 38.2857 20.7163 38.4708 20.3933 38.8004C20.0703 39.1299 19.8889 39.5768 19.8889 40.0429ZM26.7778 33.0143C26.7778 33.9842 27.5493 34.7714 28.5 34.7714H35.5129C35.9697 34.7714 36.4077 34.5863 36.7307 34.2568C37.0537 33.9272 37.2351 33.4803 37.2351 33.0143C37.2351 32.5483 37.0537 32.1013 36.7307 31.7718C36.4077 31.4423 35.9697 31.2571 35.5129 31.2571H28.5C28.0432 31.2571 27.6052 31.4423 27.2822 31.7718C26.9592 32.1013 26.7778 32.5483 26.7778 33.0143ZM28.5 38.2857C28.0432 38.2857 27.6052 38.4708 27.2822 38.8004C26.9592 39.1299 26.7778 39.5768 26.7778 40.0429C26.7778 40.5089 26.9592 40.9558 27.2822 41.2853C27.6052 41.6149 28.0432 41.8 28.5 41.8H35.5129C35.9697 41.8 36.4077 41.6149 36.7307 41.2853C37.0537 40.9558 37.2351 40.5089 37.2351 40.0429C37.2351 39.5768 37.0537 39.1299 36.7307 38.8004C36.4077 38.4708 35.9697 38.2857 35.5129 38.2857H28.5ZM31.3796 20.1239V10.0965C31.5541 10.2323 31.724 10.3823 31.8801 10.5439L42.4867 21.3656C42.6475 21.5296 42.7944 21.7006 42.9299 21.881H33.1018C32.645 21.881 32.207 21.6959 31.884 21.3664C31.561 21.0368 31.3796 20.5899 31.3796 20.1239Z" fill="#66DDDD"/>
</g>
<defs>
<filter id="filter0_d_1875_12828" x="0" y="0" width="57" height="67" filterUnits="userSpaceOnUse" color-interpolation-filters="sRGB">
<feFlood flood-opacity="0" result="BackgroundImageFix"/>
<feColorMatrix in="SourceAlpha" type="matrix" values="0 0 0 0 0 0 0 0 0 0 0 0 0 0 0 0 0 0 127 0" result="hardAlpha"/>
<feOffset dy="4"/>
<feGaussianBlur stdDeviation="6.5"/>
<feComposite in2="hardAlpha" operator="out"/>
<feColorMatrix type="matrix" values="0 0 0 0 0.4 0 0 0 0 0.866667 0 0 0 0 0.866667 0 0 0 0.53 0"/>
<feBlend mode="normal" in2="BackgroundImageFix" result="effect1_dropShadow_1875_12828"/>
<feBlend mode="normal" in="SourceGraphic" in2="effect1_dropShadow_1875_12828" result="shape"/>
</filter>
</defs>
</svg>
