<svg width="44" height="44" viewBox="0 0 44 44" fill="none" xmlns="http://www.w3.org/2000/svg">
<circle cx="22" cy="22" r="22" fill="url(#paint0_linear_1830_12370)" fill-opacity="0.92"/>
<path d="M13.2051 27.2293C13.3455 27.0917 13.5794 26.9999 13.8133 26.9999H34.5374C34.9116 26.9999 35.0988 27.4586 34.8181 27.7339L30.7013 31.7706C30.561 31.9083 30.3271 32 30.0932 32H9.41584C9.04159 32 8.85447 31.5413 9.13516 31.266L13.2051 27.2293Z" fill="white" fill-opacity="0.92"/>
<path d="M13.2051 12.2294C13.3454 12.0917 13.5794 12 13.8133 12H34.5374C34.9116 12 35.0987 12.4587 34.8181 12.734L30.7013 16.7707C30.561 16.9083 30.3271 17.0001 30.0932 17.0001H9.41583C9.04157 17.0001 8.85446 16.5413 9.13515 16.2661L13.2051 12.2294Z" fill="white" fill-opacity="0.92"/>
<path d="M30.7481 19.6603C30.6077 19.5227 30.3738 19.431 30.1399 19.431H9.41584C9.04159 19.431 8.85447 19.8897 9.13516 20.1649L13.2519 24.2017C13.3923 24.3393 13.6262 24.431 13.8601 24.431H34.5842C34.9584 24.431 35.1455 23.9723 34.8649 23.6971L30.7481 19.6603Z" fill="white" fill-opacity="0.92"/>
<defs>
<linearGradient id="paint0_linear_1830_12370" x1="22" y1="0" x2="22" y2="44" gradientUnits="userSpaceOnUse">
<stop stop-color="#14E6AD"/>
<stop offset="1" stop-color="#A964DE"/>
</linearGradient>
</defs>
</svg>
