<svg width="44" height="44" viewBox="0 0 44 44" fill="none" xmlns="http://www.w3.org/2000/svg">
<g clip-path="url(#clip0_861_6468)">
<path d="M3.22085 22.6138C3.27607 22.3169 3.27609 22.02 3.27609 21.7231C3.33131 21.1292 3.3865 20.5355 3.49694 19.9416C3.66259 19.1697 3.77303 18.3383 4.04912 17.6257C4.15955 17.2695 4.26999 16.9131 4.43565 16.5568C4.71174 16.8537 4.93263 17.21 5.20872 17.507C5.70567 18.1007 6.20262 18.6946 6.64436 19.2884C6.97567 19.704 7.30697 20.1198 7.63828 20.5355C8.13524 21.1292 8.57698 21.7231 9.01872 22.3169C9.07394 22.3763 9.12919 22.4951 9.18441 22.6138C9.4605 23.0295 9.73658 23.4451 10.0127 23.8608C10.4544 24.514 10.8409 25.1078 11.2275 25.761C11.6692 26.4142 12.0557 27.1268 12.4422 27.78C12.884 28.552 13.2705 29.324 13.6018 30.0959C13.8779 30.6304 14.0436 31.1648 14.2644 31.6992C14.5958 32.4118 14.7062 33.1837 14.8718 33.9557C15.2032 35.2027 15.0927 36.5091 15.0927 37.8156C15.0927 38.2906 15.0927 38.7656 15.0375 39.1813C14.9823 39.7157 14.9823 40.1908 14.8718 40.7253C14.8166 40.9628 14.7062 40.9628 14.5405 40.9628C14.2092 40.9034 13.8779 40.7846 13.5466 40.6065C12.9944 40.3689 12.4975 40.072 12.0005 39.7157C11.3379 39.3001 10.6753 38.825 10.0679 38.2905C9.68135 37.9343 9.29484 37.5781 8.90831 37.2217C8.2457 36.5685 7.63828 35.856 7.0861 35.1434C6.64435 34.5495 6.25786 34.0151 5.87133 33.3619C5.37438 32.59 4.98782 31.7585 4.6013 30.8679C4.38043 30.3334 4.21478 29.799 3.99391 29.2646C3.71782 28.4926 3.6074 27.7206 3.38653 26.9486C3.16566 25.9986 3.11042 25.0485 3.0552 24.0984C3.0552 24.039 3.05522 23.9796 3 23.9796C3.22087 23.5639 3.22085 23.0888 3.22085 22.6138Z" fill="#5493F0"/>
<path opacity="0.7" d="M34.8062 8.0057C34.6405 7.88693 34.4749 7.76818 34.3644 7.64941C33.5914 7.0556 32.7631 6.58055 31.8797 6.16487C30.6648 5.57105 29.45 5.09598 28.18 4.73969C26.9652 4.44279 25.6952 4.26469 24.4804 4.20532C24.4804 4.20532 24.4804 4.20525 24.4804 4.14587C23.9835 4.14587 23.4865 4.14587 23.0448 4.14587C22.9895 4.14587 22.8791 4.14587 22.8239 4.14587C22.7687 4.20525 22.7134 4.20532 22.7134 4.20532C21.7748 4.26469 20.8361 4.38344 19.8973 4.56159C18.6273 4.79912 17.4125 5.21479 16.253 5.74923C16.3634 5.86799 16.4738 5.80858 16.5843 5.86796C16.9708 5.98672 17.3021 6.10549 17.5229 6.46178C17.7439 6.75869 17.7991 7.11503 17.7439 7.47131C17.6334 8.18389 17.3021 8.71833 16.9156 9.25277C16.6395 9.60906 16.3082 9.96532 15.9217 10.2622C15.4799 10.6779 14.983 11.0342 14.486 11.3312C14.1547 11.5093 13.8786 11.7468 13.5473 11.9249C13.0503 12.2219 12.5534 12.4593 12.0012 12.7563C11.9459 12.8156 11.8355 12.8157 11.7803 12.9344C12.0012 13.4094 12.3325 13.7657 12.6638 14.1814C13.216 14.7753 13.8234 15.2503 14.4308 15.666C14.5412 15.5472 14.5965 15.4284 14.7069 15.3097C15.2038 14.5378 15.8112 13.8845 16.4738 13.2907C16.9156 12.875 17.4125 12.5187 17.9647 12.1624C18.8482 11.5686 19.7316 11.0936 20.6152 10.6185C21.1673 10.381 21.6643 10.1435 22.2165 9.90595C23.0448 9.54966 23.9283 9.25277 24.8117 8.95586C25.5296 8.71833 26.3026 8.48075 27.0757 8.3026C28.1248 8.06507 29.174 7.82755 30.2231 7.70878C30.7752 7.6494 31.3275 7.59005 31.8244 7.59005C32.8736 7.64943 33.8674 7.70883 34.8062 8.1245C34.8614 8.1245 34.8614 8.1245 34.9166 8.1245C34.8614 8.06512 34.8062 8.06507 34.8062 8.0057Z" fill="#5493F0"/>
<path d="M14.3181 15.6069C14.4285 15.4882 14.4837 15.3694 14.5941 15.2507C15.0911 14.4787 15.6985 13.8255 16.3611 13.2317C16.8028 12.816 17.2998 12.4597 17.8519 12.1034C18.7355 11.5096 19.619 11.0346 20.5025 10.5595C21.0547 10.322 21.5516 10.0845 22.1038 9.84698C22.932 9.49068 23.8155 9.19372 24.699 8.89681C25.4168 8.65928 26.1898 8.42176 26.9629 8.24362C28.012 8.00609 29.0612 7.76857 30.1103 7.64981C30.6626 7.59042 31.2147 7.53107 31.7117 7.53107C32.7608 7.59045 33.7547 7.64985 34.6934 8.06552C34.7486 8.06552 34.7486 8.06552 34.8039 8.06552C34.8039 8.1249 34.8591 8.1249 34.8591 8.06552C35.2456 8.30305 35.6321 8.65934 35.9635 8.95625C36.4052 9.4313 36.9021 9.84691 37.2887 10.3813C37.7304 10.8564 38.1169 11.3909 38.5034 11.8659C38.9452 12.5191 39.3869 13.1723 39.7734 13.8849C39.9944 14.2412 40.1599 14.6569 40.3256 15.0132C40.6017 15.4882 40.7674 16.0226 40.933 16.5571C41.2091 17.2102 41.3748 17.9229 41.5405 18.6355C42.0374 20.4169 42.0926 22.2577 42.0374 24.158C41.9822 25.2269 41.8717 26.2363 41.6509 27.3052C41.4852 28.0771 41.3195 28.8491 41.0435 29.5617C40.933 29.8586 40.8226 30.0962 40.7122 30.3931C40.6569 30.5712 40.4913 30.6306 40.3809 30.69C39.9391 30.9275 39.4422 30.9869 38.9452 31.0462C38.1722 31.0462 37.4543 30.9869 36.6813 30.9275C35.9635 30.8087 35.2456 30.6899 34.4725 30.5119C33.0921 30.2149 31.6564 29.7992 30.276 29.3835C29.5581 29.146 28.8404 28.9679 28.1777 28.7304C27.0733 28.3741 26.0242 28.0177 24.9751 27.6021C24.5334 27.4239 24.0916 27.2458 23.6499 27.1271C23.4289 27.0084 23.2081 26.949 22.932 26.8302C22.2142 26.5333 21.5516 26.2364 20.8889 25.88C19.7846 25.3456 18.7355 24.7518 17.7415 24.0392C17.0238 23.5641 16.3611 22.9703 15.7537 22.3765C15.2567 21.8421 14.815 21.2483 14.4285 20.6544C14.0972 20.12 13.9316 19.5855 13.7659 18.9917C13.6555 18.5167 13.6002 17.9822 13.6555 17.5071C13.7659 16.9134 13.9316 16.379 14.1524 15.8445C14.2628 15.7851 14.3181 15.6663 14.3181 15.6069Z" fill="#5493F0"/>
<path opacity="0.7" d="M23.7606 27.127C24.2023 27.2457 24.644 27.4238 25.0858 27.6019C26.135 27.9582 27.2393 28.374 28.2884 28.7303C29.0063 28.9678 29.6689 29.2052 30.3867 29.3834C31.7672 29.7991 33.1477 30.1554 34.5833 30.5117C35.3011 30.6898 36.019 30.8086 36.792 30.9274C37.5651 31.0461 38.2829 31.1055 39.0559 31.0461C38.8351 31.6994 38.4486 32.2338 38.1725 32.8869C37.1786 33.2433 36.2398 33.5996 35.2459 34.0152C34.4176 34.3715 33.5893 34.7872 32.8163 35.2623C32.3193 35.5592 31.8777 35.856 31.4359 36.1529C30.9389 36.5092 30.3867 36.8656 29.945 37.3406C29.6137 37.6968 29.2824 37.9938 29.0063 38.4095C28.6198 39.0627 28.3989 39.6565 28.7302 40.4285C28.1228 40.666 27.5154 40.8441 26.8528 40.9629C26.4663 41.0222 26.135 40.9629 25.8036 40.8441C25.2515 40.666 24.7545 40.4285 24.3128 40.0721C23.5949 39.5971 22.9875 39.0627 22.3802 38.4095C21.9384 37.9344 21.5518 37.4 21.1653 36.8062C20.9445 36.4498 20.7788 36.0342 20.558 35.6779C20.2266 35.1435 20.1162 34.4903 19.9506 33.8965C19.7849 33.3027 19.7849 32.7088 19.8953 32.1151C20.0058 31.5806 20.1714 30.9867 20.4475 30.5117C20.7788 29.9179 21.2206 29.3834 21.6623 28.9084C22.2697 28.1958 22.9875 27.602 23.7606 27.127Z" fill="#5493F0"/>
<path d="M16.1424 5.74933C16.2528 5.86809 16.3632 5.80868 16.4737 5.86806C16.8602 5.98682 17.1916 6.10559 17.4124 6.46188C17.6332 6.75879 17.6885 7.11513 17.6333 7.47141C17.5228 8.184 17.1916 8.71843 16.8051 9.25287C16.529 9.60916 16.1976 9.96542 15.8111 10.2623C15.3694 10.678 14.8724 11.0343 14.3754 11.3312C14.0441 11.5094 13.768 11.7469 13.4367 11.9251C12.9398 12.222 12.4428 12.4594 11.8907 12.7563C11.8354 12.8157 11.725 12.8157 11.6697 12.9345C11.5042 12.9345 11.3937 12.9938 11.2832 13.0532C10.0132 13.6471 8.63278 14.1222 7.30755 14.4784C6.70016 14.6566 6.03754 14.7753 5.37493 14.716C5.20927 14.716 5.15405 14.6566 5.26448 14.4784C5.37492 14.3596 5.43014 14.1815 5.54057 14.0034C5.81666 13.469 6.09277 12.9939 6.42408 12.5188C6.81061 11.9251 7.1971 11.3906 7.63884 10.9155C8.19102 10.2623 8.79844 9.54978 9.46106 8.95597C10.2341 8.24338 11.0071 7.59014 11.8907 7.0557C12.3876 6.75879 12.8293 6.40248 13.3815 6.22434C14.2098 5.92743 15.038 5.7493 15.9216 5.86806C15.9767 5.80868 16.0872 5.80871 16.1424 5.74933Z" fill="#5493F0"/>
<path d="M28.729 40.369C28.3977 39.6564 28.6186 39.0033 29.0051 38.35C29.2812 37.9344 29.6125 37.5781 29.9438 37.2812C30.3855 36.8655 30.8825 36.4498 31.4347 36.0936C31.8764 35.7966 32.3734 35.4997 32.8151 35.2028C33.5882 34.7277 34.4164 34.3715 35.2447 33.9558C36.1834 33.5401 37.1774 33.1838 38.1713 32.8275C38.4474 32.7682 38.6682 32.7088 38.9443 32.6494C39.11 32.59 39.2756 32.59 39.4413 32.5306C39.6622 32.5306 39.7173 32.6494 39.6622 32.8275C39.3861 33.4213 38.9996 33.9557 38.6131 34.4308L38.5578 34.4902C38.2817 34.9653 37.8952 35.4403 37.5086 35.856C37.1221 36.331 36.7356 36.7467 36.3491 37.1624C35.7968 37.6969 35.1895 38.2312 34.5822 38.7063C33.6986 39.419 32.76 40.0127 31.7108 40.5472C31.0482 40.9035 30.3303 40.9629 29.5572 40.7847C29.226 40.7847 29.0051 40.6065 28.729 40.369Z" fill="#5493F0"/>
<path d="M34.9194 8.1248C34.8633 8.1852 34.8633 8.1852 34.8633 8.1248C34.8633 8.06441 34.9194 8.1248 34.9194 8.1248Z" fill="#5493F0"/>
</g>
<defs>
<clipPath id="clip0_861_6468">
<rect width="39" height="39" fill="white" transform="translate(3 3)"/>
</clipPath>
</defs>
</svg>
