<svg width="76" height="76" viewBox="0 0 76 76" fill="none" xmlns="http://www.w3.org/2000/svg">
<circle cx="38" cy="38" r="38" fill="#151515"/>
<g opacity="0.9">
<path d="M25.041 22.2345H25.9143V20H25.041C24.1151 19.9992 23.1981 20.18 22.3425 20.5322C21.487 20.8844 20.7096 21.401 20.0549 22.0525C19.4002 22.7039 18.881 23.4774 18.5271 24.3288C18.1731 25.1801 17.9914 26.0925 17.9922 27.0138V32.1034C17.9941 33.1811 17.5816 34.2187 16.8393 35.0035C16.097 35.7882 15.0812 36.2607 14 36.3241L14.0624 37.4414L14 38.5586C15.0812 38.622 16.097 39.0945 16.8393 39.8793C17.5816 40.6641 17.9941 41.7016 17.9922 42.7793V48.6448C17.9889 50.5912 18.7623 52.4593 20.1426 53.8384C21.5228 55.2176 23.3968 55.995 25.3529 56V53.7655C23.9965 53.7646 22.696 53.2283 21.7369 52.274C20.7778 51.3197 20.2386 50.0255 20.2378 48.6759V42.7793C20.2388 41.7266 19.9806 40.6897 19.4858 39.7592C18.9911 38.8287 18.2748 38.0329 17.3996 37.4414C18.2723 36.8474 18.9867 36.0511 19.4811 35.1211C19.9756 34.1912 20.2353 33.1555 20.2378 32.1034V27.0138C20.2436 25.748 20.7515 24.5357 21.651 23.6406C22.5505 22.7456 23.7689 22.2402 25.041 22.2345Z" fill="white"/>
<path d="M50.9902 22.2345H50.1169V20H50.9902C52.8553 20.0049 54.6422 20.7465 55.958 22.0616C57.2739 23.3768 58.0112 25.158 58.0078 27.0138V32.1034C58.0059 33.1811 58.4182 34.2187 59.1605 35.0035C59.9028 35.7882 60.9187 36.2607 62 36.3241L61.9376 37.4414L62 38.5586C60.9187 38.622 59.9028 39.0945 59.1605 39.8793C58.4182 40.6641 58.0059 41.7016 58.0078 42.7793V48.6448C58.0112 50.5912 57.2377 52.4593 55.8576 53.8384C54.4772 55.2176 52.6033 55.995 50.6471 56V53.7655C52.0036 53.7646 53.3041 53.2283 54.2632 52.274C55.2223 51.3197 55.7612 50.0255 55.7622 48.6759V42.7793C55.7612 41.7266 56.0195 40.6897 56.5141 39.7592C57.0088 38.8287 57.7252 38.0329 58.6004 37.4414C57.7277 36.8474 57.0132 36.0511 56.5188 35.1211C56.0245 34.1912 55.7647 33.1555 55.7622 32.1034V27.0138C55.7656 26.3879 55.6446 25.7674 55.4063 25.1881C55.168 24.6088 54.8171 24.0821 54.3736 23.638C53.9304 23.1939 53.4033 22.8414 52.8226 22.6005C52.2418 22.3597 51.6193 22.2353 50.9902 22.2345Z" fill="white"/>
<path d="M46.1873 29H49.5246L42.5694 35.4862C41.3215 36.6098 39.6986 37.2319 38.0158 37.2319C36.3328 37.2319 34.71 36.6098 33.4621 35.4862L26.5069 29H29.8442L35.1152 33.9035C35.9023 34.6223 36.9318 35.0211 38.0002 35.0211C39.0685 35.0211 40.098 34.6223 40.8852 33.9035L46.1873 29Z" fill="white"/>
<path d="M29.8129 47H26.4757L33.4621 40.4827C34.703 39.3453 36.3285 38.714 38.0157 38.714C39.7028 38.714 41.3283 39.3453 42.5693 40.4827L49.5557 47H46.2184L40.9163 42.0344C40.1291 41.3156 39.0997 40.9168 38.0313 40.9168C36.9629 40.9168 35.9334 41.3156 35.1463 42.0344L29.8129 47Z" fill="white"/>
</g>
</svg>
